<?xml version="1.0" encoding="UTF-8"?>
<svg width="25px" height="28px" viewBox="0 0 25 28" version="1.1" xmlns="http://www.w3.org/2000/svg" xmlns:xlink="http://www.w3.org/1999/xlink">
    <!-- Generator: sketchtool 51.3 (57544) - http://www.bohemiancoding.com/sketch -->
    <title>6E924178-17C9-47F0-A54D-D0A59FA679EE</title>
    <desc>Created with sketchtool.</desc>
    <defs></defs>
    <g id="style-guide" stroke="none" stroke-width="1" fill="none" fill-rule="evenodd">
        <g id="icons" transform="translate(-813.000000, -268.000000)" fill="#030303" fill-rule="nonzero">
            <g id="bag_ico" transform="translate(813.000000, 268.000000)">
                <path d="M6.12261828,5.51772633 C6.31413537,2.43829951 8.87232,0 12,0 C15.12768,0 17.6858646,2.43829951 17.8773817,5.51772633 C17.2138763,5.12742489 16.4803676,4.84337088 15.7002376,4.68894631 C15.1945291,3.12839238 13.7290396,2 12,2 C10.2709604,2 8.80547091,3.12839238 8.29976242,4.68894631 C7.51963238,4.84337088 6.78612367,5.12742489 6.12261828,5.51772633 Z" id="Combined-Shape"></path>
                <path d="M9.66666667,4.55555556 L14.3333333,4.55555556 C18.1993266,4.55555556 21.3333333,7.68956231 21.3333333,11.5555556 L21.3333333,20.6666667 C21.3333333,24.5326599 18.1993266,27.6666667 14.3333333,27.6666667 L9.66666667,27.6666667 C5.80067342,27.6666667 2.66666667,24.5326599 2.66666667,20.6666667 L2.66666667,11.5555556 C2.66666667,7.68956231 5.80067342,4.55555556 9.66666667,4.55555556 Z M9.66666667,6.55555556 C6.90524292,6.55555556 4.66666667,8.79413181 4.66666667,11.5555556 L4.66666667,20.6666667 C4.66666667,23.4280904 6.90524292,25.6666667 9.66666667,25.6666667 L14.3333333,25.6666667 C17.0947571,25.6666667 19.3333333,23.4280904 19.3333333,20.6666667 L19.3333333,11.5555556 C19.3333333,8.79413181 17.0947571,6.55555556 14.3333333,6.55555556 L9.66666667,6.55555556 Z" id="Combined-Shape"></path>
                <path d="M2.66666667,14.3516429 L2.66666667,16.3902352 C2.27826921,16.527514 2,16.8979271 2,17.3333333 L2,21.1111111 C2,21.5992017 2.34968471,22.005619 2.81219465,22.0935037 C2.96110506,22.8125657 3.22031469,23.4912616 3.57134341,24.1111111 L3,24.1111111 C1.34314575,24.1111111 -2.41183085e-16,22.7679654 -4.4408921e-16,21.1111111 L-4.4408921e-16,17.3333333 C-6.33197277e-16,15.7891488 1.16668318,14.5174577 2.66666667,14.3516429 Z" id="Combined-Shape"></path>
                <path d="M23.4321555,14 L23.4321555,16.0385923 C23.043758,16.1758711 22.7654888,16.5462841 22.7654888,16.9816904 L22.7654888,20.7594682 C22.7654888,21.2425483 23.1080311,21.6456234 23.5634759,21.7390538 C23.6987184,22.4591566 23.9354774,23.1388122 24.2600098,23.7594682 L23.7654888,23.7594682 C22.1086346,23.7594682 20.7654888,22.4163224 20.7654888,20.7594682 L20.7654888,16.9816904 C20.7654888,15.4375059 21.932172,14.1658148 23.4321555,14 Z" id="Combined-Shape" transform="translate(22.512749, 18.879734) scale(-1, 1) translate(-22.512749, -18.879734) "></path>
                <path d="M15.1111111,15.2222222 L15.1111111,17 L13.3333333,17 L13.3333333,15.2222222 L7.11111111,15.2222222 L7.11111111,13.4444444 L16.8888889,13.4444444 L16.8888889,15.2222222 L15.1111111,15.2222222 Z" id="Combined-Shape"></path>
            </g>
        </g>
    </g>
</svg>