<svg xmlns="http://www.w3.org/2000/svg" xmlns:xlink="http://www.w3.org/1999/xlink" height="27.66666666666606" width="24">
  <defs>
    <path id="path-2" opacity="1" fill-rule="evenodd" d="M-1345.7777777777778 -17.66666666666667L-1342 -17.66666666666667C-1340.344254926518 -17.66666666666667 -1339 -16.32241174014867 -1339 -14.666666666666671L-1339 -10.888888888888893C-1339 -9.233143815406892 -1340.344254926518 -7.888888888888893 -1342 -7.888888888888893L-1345.7777777777778 -7.888888888888893C-1347.4335228512598 -7.888888888888893 -1348.7777777777778 -9.233143815406892 -1348.7777777777778 -10.888888888888893L-1348.7777777777778 -14.666666666666671C-1348.7777777777778 -16.32241174014867 -1347.4335228512598 -17.66666666666667 -1345.7777777777778 -17.66666666666667Z"/>
    <mask id="mask-3" maskUnits="userSpaceOnUse" maskContentUnits="userSpaceOnUse" x="0" y="-1">
      <rect opacity="1" x="0" y="-1" width="24" height="27.66666666666606" fill="black"/>
      <use xlink:href="#path-2" fill="white"/>
    </mask>
    <path id="path-4" opacity="1" fill-rule="evenodd" d="M-1360 -17.66666666666667L-1356.2222222222222 -17.66666666666667C-1354.5664771487402 -17.66666666666667 -1353.2222222222222 -16.32241174014867 -1353.2222222222222 -14.666666666666671L-1353.2222222222222 -10.888888888888893C-1353.2222222222222 -9.233143815406892 -1354.5664771487402 -7.888888888888893 -1356.2222222222222 -7.888888888888893L-1360 -7.888888888888893C-1361.655745073482 -7.888888888888893 -1363 -9.233143815406892 -1363 -10.888888888888893L-1363 -14.666666666666671C-1363 -16.32241174014867 -1361.655745073482 -17.66666666666667 -1360 -17.66666666666667Z"/>
    <mask id="mask-5" maskUnits="userSpaceOnUse" maskContentUnits="userSpaceOnUse" x="0" y="-1">
      <rect opacity="1" x="0" y="-1" width="24" height="27.66666666666606" fill="black"/>
      <use xlink:href="#path-4" fill="white"/>
    </mask>
    <path id="path-6" opacity="1" fill-rule="evenodd" d="M-1353.3333333333333 -27.444444444444443L-1348.6666666666665 -27.444444444444443C-1344.8032614952085 -27.444444444444443 -1341.6666666666665 -24.30784961590244 -1341.6666666666665 -20.444444444444443L-1341.6666666666665 -11.333333333333332C-1341.6666666666665 -7.46992816187533 -1344.8032614952085 -4.333333333333332 -1348.6666666666665 -4.333333333333332L-1353.3333333333333 -4.333333333333332C-1357.1967385047913 -4.333333333333332 -1360.3333333333333 -7.46992816187533 -1360.3333333333333 -11.333333333333332L-1360.3333333333333 -20.444444444444443C-1360.3333333333333 -24.30784961590244 -1357.1967385047913 -27.444444444444443 -1353.3333333333333 -27.444444444444443Z"/>
    <mask id="mask-7" maskUnits="userSpaceOnUse" maskContentUnits="userSpaceOnUse" x="0" y="-1">
      <rect opacity="1" x="0" y="-1" width="24" height="27.66666666666606" fill="black"/>
      <use xlink:href="#path-6" fill="white"/>
    </mask>
  </defs>
  <g transform="translate(0, 1)" opacity="1">
    <g opacity="1">
      <ellipse fill-opacity="0" stroke="rgb(3,3,3)" stroke-opacity="1" stroke-width="2" opacity="1" rx="4.888888888888889" ry="4.888888888888888" cx="-1351" cy="-26.11111111111111"/>
    </g>
    <g opacity="1">
      <use xlink:href="#path-2" fill-opacity="0" stroke="rgb(3,3,3)" stroke-opacity="1" stroke-width="4" mask="url(#mask-3)"/>
    </g>
    <g opacity="1">
      <use xlink:href="#path-4" fill-opacity="0" stroke="rgb(3,3,3)" stroke-opacity="1" stroke-width="4" mask="url(#mask-5)"/>
    </g>
    <g opacity="1">
      <use xlink:href="#path-6" fill="rgb(255,255,255)" fill-opacity="1"/>
      <use xlink:href="#path-6" fill-opacity="0" stroke="rgb(3,3,3)" stroke-opacity="1" stroke-width="4" mask="url(#mask-7)"/>
    </g>
    <g opacity="1">
      <path fill="rgb(3,3,3)" fill-opacity="1" opacity="1" fill-rule="evenodd" d="M-1355.888888888889 -16.777777777777782L-1355.888888888889 -18.55555555555556L-1346.111111111111 -18.55555555555556L-1346.111111111111 -16.777777777777782L-1355.888888888889 -16.777777777777782Z"/>
    </g>
    <g transform="translate(-1348.7777777777778, -16.777777777777782) rotate(-90.00003218077504) translate(1348.7777777777778, 16.777777777777782)" opacity="1">
      <path fill="rgb(3,3,3)" fill-opacity="1" opacity="1" fill-rule="evenodd" d="M-1350.5555555555557 -15.888888888888893L-1350.5555555555557 -17.66666666666667L-1347 -17.66666666666667L-1347 -15.888888888888893L-1350.5555555555557 -15.888888888888893Z"/>
    </g>
  </g>
</svg>