<?xml version="1.0" standalone="no"?>
<!DOCTYPE svg PUBLIC "-//W3C//DTD SVG 1.1//EN" "http://www.w3.org/Graphics/SVG/1.1/DTD/svg11.dtd" >
<svg xmlns="http://www.w3.org/2000/svg" xmlns:xlink="http://www.w3.org/1999/xlink" version="1.1">
<metadata>
Created by FontForge 20170731 at Thu May  3 16:10:32 2018
 By Aleksey,,,
Copyright (c) 2016 by Zetafonts. All rights reserved.
</metadata>
<defs>
<font id="CocogooseNarrow-SemiLight" horiz-adv-x="1232" >
  <font-face 
    font-family="CocogooseNarrow SemLt"
    font-weight="350"
    font-stretch="normal"
    units-per-em="1920"
    panose-1="0 0 0 0 0 0 0 0 0 0"
    ascent="1536"
    descent="-384"
    x-height="1225"
    cap-height="1426"
    bbox="-244 -602 2635 2028"
    underline-thickness="96"
    underline-position="-384"
    unicode-range="U+000D-FB04"
  />
<missing-glyph horiz-adv-x="1061" 
d="M987 541q0 184 -132 316t-315 132q-126 0 -229 -62t-160 -164.5t-57 -221.5t58.5 -222t161.5 -165t226 -62q184 0 315.5 131.5t131.5 317.5zM271 240h539q-122 -102 -270 -102q-147 0 -269 102zM228 797h534l-524 -526q-100 116 -100 270q0 144 90 256zM1025 541
q0 -133 -65.5 -244.5t-177 -176t-242.5 -64.5q-135 0 -247.5 66.5t-175.5 178t-63 240.5q0 135 66.5 248t178 176.5t241.5 63.5q136 0 248.5 -68.5t174.5 -180t62 -239.5zM941 541q0 -145 -90 -257h-536l524 528q102 -126 102 -271zM806 841h-537q117 104 271 104
q152 0 266 -104z" />
    <glyph glyph-name="ff" unicode="ff" horiz-adv-x="1357" 
d="M205 39v932h-129q-38 0 -38 35v184q0 16 10.5 25.5t27.5 9.5h129q0 92 16 159.5t53 121t104.5 81t164.5 27.5q47 0 113 -8q29 -4 40 -16t11 -38v-125q0 -46 -40 -46q-8 0 -12 1q-33 5 -54 5q-65 0 -90.5 -38t-27.5 -124h329q0 92 16 159.5t53 121t104.5 81t164.5 27.5
q47 0 113 -8q29 -4 40 -16t11 -38v-125q0 -46 -40 -46q-8 0 -12 1q-33 5 -54 5q-65 0 -90 -37.5t-27 -124.5h184q16 0 26.5 -10t10.5 -25v-184q0 -35 -37 -35h-184v-932q0 -39 -36 -39h-207q-36 0 -36 39v932h-329v-932q0 -39 -35 -39h-207q-36 0 -36 39z" />
    <glyph glyph-name="fi" unicode="fi" horiz-adv-x="1222" 
d="M214 39v932h-130q-37 0 -37 35v184q0 16 10.5 25.5t26.5 9.5h130q0 92 15.5 159.5t53 121t104.5 81t165 27.5q47 0 113 -8q29 -4 40 -16t11 -38v-125q0 -46 -40 -46q-8 0 -12 1q-33 5 -54 5q-65 0 -90.5 -38t-27.5 -124h557q5 0 12 -2l11 -6q12 -9 14 -26v-1152
q0 -39 -37 -39h-204q-38 0 -38 39v932h-315v-932q0 -39 -35 -39h-208q-35 0 -35 39zM802 1382v159q0 63 62 63h171q57 0 57 -64v-157q0 -32 -14 -44.5t-43 -12.5h-171q-62 0 -62 56z" />
    <glyph glyph-name="fl" unicode="fl" horiz-adv-x="1231" 
d="M224 39v932h-130q-37 0 -37 35v184q0 16 10.5 25.5t26.5 9.5h130q0 92 15.5 159.5t53 121t104.5 81t165 27.5q47 0 113 -8q29 -4 40 -16t11 -38v-125q0 -46 -40 -46q-8 0 -12 1q-33 5 -54 5q-65 0 -90.5 -38t-27.5 -124h184q16 0 27 -10.5t11 -24.5v-184q0 -35 -38 -35
h-184v-932q0 -39 -35 -39h-208q-35 0 -35 39zM802 40v1502q0 40 38 40h205q36 0 36 -40v-1502q0 -40 -36 -40h-205q-38 0 -38 40z" />
    <glyph glyph-name="ffi" unicode="ffi" horiz-adv-x="1814" 
d="M205 39v932h-129q-38 0 -38 35v184q0 16 10.5 25.5t27.5 9.5h129q0 92 16 159.5t53 121t104.5 81t164.5 27.5q47 0 113 -8q29 -4 40 -16t11 -38v-125q0 -46 -40 -46q-8 0 -12 1q-33 5 -54 5q-65 0 -90.5 -38t-27.5 -124h329q0 92 16 159.5t53 121t104.5 81t164.5 27.5
q47 0 113 -8q29 -4 40 -16t11 -38v-125q0 -46 -40 -46q-8 0 -12 1q-33 5 -54 5q-65 0 -90 -37.5t-27 -124.5h560q15 -1 24.5 -11t9.5 -24v-1151q0 -39 -37 -39h-204q-38 0 -38 39v932h-315v-932q0 -39 -36 -39h-207q-36 0 -36 39v932h-329v-932q0 -39 -35 -39h-207
q-36 0 -36 39zM1401 1382v159q0 63 62 63h171q57 0 57 -64v-157q0 -31 -14.5 -44t-42.5 -13h-171q-62 0 -62 56z" />
    <glyph glyph-name="ffl" unicode="ffl" horiz-adv-x="1813" 
d="M205 39v932h-129q-38 0 -38 35v184q0 16 10.5 25.5t27.5 9.5h129q0 92 16 159.5t53 121t104.5 81t164.5 27.5q47 0 113 -8q29 -4 40 -16t11 -38v-125q0 -46 -40 -46q-8 0 -12 1q-33 5 -54 5q-65 0 -90.5 -38t-27.5 -124h329q0 92 16 159.5t53 121t104.5 81t164.5 27.5
q47 0 113 -8q29 -4 40 -16t11 -38v-125q0 -46 -40 -46q-8 0 -12 1q-33 5 -54 5q-65 0 -90 -37.5t-27 -124.5h184q16 0 26.5 -10t10.5 -25v-184q0 -35 -37 -35h-184v-932q0 -39 -36 -39h-207q-36 0 -36 39v932h-329v-932q0 -39 -35 -39h-207q-36 0 -36 39zM1391 40v1502
q0 40 37 40h206q36 0 36 -40v-1502q0 -40 -36 -40h-206q-37 0 -37 40z" />
    <glyph glyph-name="f_j" unicode="fj" horiz-adv-x="1222" 
d="M214 39v932h-130q-37 0 -37 35v184q0 16 10.5 25.5t26.5 9.5h130q0 92 15.5 159.5t53 121t104.5 81t165 27.5q47 0 113 -8q29 -4 40 -16t11 -38v-125q0 -46 -40 -46q-8 0 -12 1q-33 5 -54 5q-65 0 -90.5 -38t-27.5 -124h557q1 0 4 -0.5t5 -0.5q15 -4 19 -12q9 -9 9 -22
v-1185q0 -172 -119 -286t-324 -114q-24 0 -39.5 11.5t-15.5 26.5v174q0 12 2 20.5t13.5 16.5t31.5 8q172 0 172 195v914h-315v-932q0 -39 -35 -39h-208q-35 0 -35 39zM802 1375v166q0 63 62 63h170q57 0 57 -64v-165q0 -31 -14 -43.5t-43 -12.5h-170q-62 0 -62 56z" />
    <glyph glyph-name=".notdef" horiz-adv-x="1061" 
d="M987 541q0 184 -132 316t-315 132q-126 0 -229 -62t-160 -164.5t-57 -221.5t58.5 -222t161.5 -165t226 -62q184 0 315.5 131.5t131.5 317.5zM271 240h539q-122 -102 -270 -102q-147 0 -269 102zM228 797h534l-524 -526q-100 116 -100 270q0 144 90 256zM1025 541
q0 -133 -65.5 -244.5t-177 -176t-242.5 -64.5q-135 0 -247.5 66.5t-175.5 178t-63 240.5q0 135 66.5 248t178 176.5t241.5 63.5q136 0 248.5 -68.5t174.5 -180t62 -239.5zM941 541q0 -145 -90 -257h-536l524 528q102 -126 102 -271zM806 841h-537q117 104 271 104
q152 0 266 -104z" />
    <glyph glyph-name=".null" horiz-adv-x="0" 
 />
    <glyph glyph-name="nonmarkingreturn" horiz-adv-x="640" 
 />
    <glyph glyph-name="NULL" horiz-adv-x="0" 
 />
    <glyph glyph-name="NULL" horiz-adv-x="0" 
 />
    <glyph glyph-name="CR" unicode="&#xd;" horiz-adv-x="601" 
 />
    <glyph glyph-name="DC3" horiz-adv-x="1255" 
d="M995 385l163 -78q21 -13 24 -26.5t-10 -36.5q-38 -71 -101 -124.5t-133.5 -82t-136.5 -42.5t-125 -14q-163 0 -298 68t-214.5 193.5t-79.5 282.5v366q0 158 79.5 285.5t214.5 198t298 70.5q152 0 286.5 -70t200.5 -190q19 -38 -15 -61l-164 -80q-9 -3 -15 -3
q-17 0 -38 23q-108 122 -254 122q-133 0 -223.5 -87.5t-90.5 -219.5v-332q0 -133 90 -220.5t223 -87.5q170 0 271 130q18 22 28 22q8 0 20 -6z" />
    <glyph glyph-name="DC4" horiz-adv-x="1255" 
d="M1006 395l154 -111q20 -16 21.5 -30t-14.5 -35q-83 -109 -213.5 -173.5t-277.5 -64.5q-163 0 -298 68t-214.5 193.5t-79.5 282.5v366q0 158 79.5 285.5t214.5 198t298 70.5q148 0 269.5 -60t207.5 -173q28 -36 -4 -62l-143 -118q-13 -8 -24 -8q-16 0 -32 18
q-58 72 -123 108t-150 36q-133 0 -223.5 -87.5t-90.5 -219.5v-332q0 -133 90 -220.5t223 -87.5q91 0 165 38.5t115 106.5q13 20 27 20q9 0 23 -9z" />
    <glyph glyph-name="RS" horiz-adv-x="0" 
 />
    <glyph glyph-name="US" horiz-adv-x="0" 
d="M0 1143v77h141v166q0 40 38 40h205q38 0 38 -40v-19q141 80 306 80q109 0 211 -37q10 15 31 15h207q36 0 36 -38v-171q141 -173 143 -400v-200q0 -230 -143 -407v-170q0 -39 -41 -39h-202q-23 0 -32 15q-102 -36 -210 -36q-19 0 -55 2q-5 0 -17 -0.5t-17 -0.5
q-114 0 -219 44q-6 -24 -36 -24h-197v-10h-79v40h6v326q-29 85 -29 178v141q0 72 16 135q0 68 13 129v204h-114z" />
    <glyph glyph-name="space" unicode=" " horiz-adv-x="530" 
 />
    <glyph glyph-name="exclam" unicode="!" horiz-adv-x="550" 
d="M135 34v191q0 17 10 26.5t23 9.5h215q34 0 34 -36v-190q0 -18 -11 -26.5t-21 -8.5h-218q-10 0 -21 8t-11 26zM144 444v941q0 40 37 40h189q38 0 38 -40v-941q0 -39 -38 -39h-189q-37 0 -37 39z" />
    <glyph glyph-name="quotedbl" unicode="&#x22;" horiz-adv-x="694" 
d="M107 1039v347q0 40 35 40h111q32 0 32 -40v-351q0 -34 -30 -34h-118q-30 0 -30 38zM409 1039v347q0 40 35 40h111q32 0 32 -40v-351q0 -34 -29 -34h-119q-30 0 -30 38z" />
    <glyph glyph-name="numbersign" unicode="#" horiz-adv-x="1137" 
d="M677 593l25 289h-246l-25 -289h246zM629 41l29 340h-246l-29 -342q-1 -39 -36 -39h-137q-36 0 -33 41l29 340h-112q-12 0 -22 9.5t-9 26.5l10 138q1 17 11 27.5t25 10.5h116l25 289h-111q-12 0 -22 9.5t-9 26.5l10 138q1 17 11 27.5t26 10.5h113l29 334q3 40 37 40h137
q35 0 32 -42l-29 -332h246l29 334q2 40 36 40h138q35 0 32 -42l-29 -332h128q32 0 30 -37l-10 -139q-1 -16 -11 -26t-25 -10h-130l-25 -289h126q32 0 30 -37l-10 -140q-1 -15 -11.5 -25t-24.5 -10h-129l-29 -342q-3 -39 -37 -39h-137q-35 0 -32 41z" />
    <glyph glyph-name="dollar" unicode="$" horiz-adv-x="1152" 
d="M85 255q-30 59 6 75l161 88q10 4 16 4q23 0 41 -33q33 -66 111 -114t163 -48q95 0 155 41.5t60 116.5q0 33 -13.5 61t-35.5 49t-61 43.5t-78 41t-99 44.5q-36 16 -55 24q-184 82 -262 181.5t-78 238.5q0 158 107.5 259.5t280.5 122.5v108q0 32 28 32h149q29 0 29 -32
v-114q234 -43 345 -240q32 -58 -7 -74l-141 -71q-13 -6 -25 -6q-22 0 -42 28q-73 117 -237 117q-55 0 -99.5 -12t-76.5 -44t-32 -80q0 -62 52 -106t171 -91q90 -36 154 -67.5t125 -74t98 -89t59.5 -108.5t22.5 -136q0 -159 -101 -268.5t-268 -140.5v-118q0 -33 -28 -33h-151
q-30 0 -30 33v113q-137 19 -246.5 93.5t-167.5 185.5z" />
    <glyph glyph-name="percent" unicode="%" horiz-adv-x="1898" 
d="M1227 424v-118q0 -84 56 -141.5t138 -57.5t138 57.5t56 140.5v119q0 83 -56 141t-138 58q-81 0 -137.5 -58t-56.5 -141zM277 1118v-118q0 -84 56 -141.5t138 -57.5t138 57.5t56 140.5v119q0 83 -56 141t-138 58q-81 0 -137.5 -58t-56.5 -141zM1036 299v130
q0 156 112 265.5t272 109.5t272.5 -109.5t112.5 -265.5v-130q0 -155 -112.5 -264.5t-272.5 -109.5t-272 109.5t-112 264.5zM1397 1339l-719 -1335q-16 -30 -42 -30q-10 0 -18 4l-100 47q-16 7 -21 24t5 34l718 1333q17 33 41 33q9 0 17 -4l99 -47q16 -7 22.5 -23.5
t-2.5 -35.5zM86 993v130q0 156 112 265.5t272 109.5t272.5 -109.5t112.5 -265.5v-130q0 -155 -112.5 -264.5t-272.5 -109.5t-272 109.5t-112 264.5z" />
    <glyph glyph-name="ampersand" unicode="&#x26;" horiz-adv-x="1503" 
d="M621 466l-4 143q-4 31 29 42q58 20 106 20q26 0 71 -7q30 -3 128.5 -24.5t115.5 -24.5q15 -4 32 -4q29 0 52.5 13.5t37.5 34t22 38t11 32.5q5 25 30 25q6 0 9 -1l155 -30q13 -2 18.5 -13t2.5 -24q-5 -33 -16.5 -68t-35.5 -77.5t-56.5 -75t-84.5 -55t-114 -22.5
q-32 0 -70 6l-29 4v-17q-19 -191 -148 -296.5t-326 -105.5t-329.5 123t-132.5 303v80q0 116 51 204.5t137 139.5q-110 95 -110 237v24q0 169 107.5 266.5t268.5 97.5q170 0 272 -92.5t111 -267.5q2 -55 -25 -56l-170 -2q-29 0 -32 39q-7 68 -45 107.5t-96 39.5
q-65 0 -102 -40t-37 -106v-21q0 -77 23 -115t90 -42q37 0 37 -36v-152q0 -26 -29 -26q-2 0 -4.5 0.5t-6.5 1t-8 0.5q-78 0 -121 -49t-43 -128l1 -90q0 -85 63 -139t145 -54q89 0 146.5 51.5t60.5 133.5l1 39q-36 4 -55 4q-41 0 -65 -10q-6 -2 -10 -2q-26 0 -29 24z" />
    <glyph glyph-name="quotesingle" unicode="'" horiz-adv-x="435" 
d="M128 1039v347q0 40 36 40h111q32 0 32 -40v-350q0 -35 -30 -35h-121q-18 0 -23 9.5t-5 28.5z" />
    <glyph glyph-name="parenleft" unicode="(" horiz-adv-x="673" 
d="M106 616q0 581 255 973q11 17 27 17q11 0 22 -7l173 -105q28 -19 8 -48q-103 -157 -157 -398.5t-54 -431.5t54 -431.5t157 -398.5q20 -29 -8 -48l-173 -106q-10 -7 -20 -7q-16 0 -29 18q-255 391 -255 973z" />
    <glyph glyph-name="parenright" unicode=")" horiz-adv-x="668" 
d="M556 616q0 -581 -256 -973q-12 -18 -28 -18q-10 0 -20 7l-173 106q-28 18 -9 48q103 157 157 398t55 432q-1 191 -55 432t-157 398q-19 30 9 48l173 105q10 7 21 7q16 0 27 -17q256 -393 256 -973z" />
    <glyph glyph-name="asterisk" unicode="*" horiz-adv-x="857" 
d="M89 1081v135q0 14 9.5 23.5t21.5 8.5l180 -23l-110 143q-8 9 -5.5 20.5t15.5 19.5l118 67q7 4 16 4q19 0 26 -15l70 -168l69 169q8 16 23 16q7 0 17 -5l117 -69q12 -7 15.5 -19.5t-3.5 -21.5l-107 -140l172 20q29 0 29 -29v-136q0 -31 -30 -31l-175 26l108 -144
q8 -11 4.5 -22t-14.5 -18l-118 -67q-11 -6 -18 -6q-13 0 -24 16l-66 164l-70 -164q-6 -15 -23 -15q-7 0 -17 5l-118 68q-15 9 -16 22.5t5 18.5l114 144l-186 -26q-29 0 -29 29z" />
    <glyph glyph-name="plus" unicode="+" horiz-adv-x="808" 
d="M322 971h155q13 0 22 -9t9 -21v-196h199q13 0 20.5 -8t7.5 -22v-157q0 -12 -9 -20.5t-21 -8.5h-197v-200q0 -28 -30 -28h-157q-12 0 -20 9t-8 21v198h-199q-10 0 -19.5 7.5t-9.5 21.5v156q0 13 9 22t21 9h198v197q0 11 7.5 20t21.5 9z" />
    <glyph glyph-name="comma" unicode="," horiz-adv-x="516" 
d="M122 44v168q0 49 43 49h190q44 0 44 -47v-147q0 -176 -106 -256q-15 -10 -26 -10q-13 0 -23 9l-41 35q-25 21 3 49q48 45 48 86q0 20 -14 20h-79q-39 0 -39 44z" />
    <glyph glyph-name="hyphen" unicode="-" horiz-adv-x="808" 
d="M65 509v155q0 14 9 22.5t21 8.5h612q28 0 28 -29v-157q0 -12 -9 -20.5t-21 -8.5h-611q-10 0 -19.5 7.5t-9.5 21.5z" />
    <glyph glyph-name="period" unicode="." horiz-adv-x="516" 
d="M122 34v191q0 17 9.5 26.5t23.5 9.5h210q19 0 26.5 -11.5t7.5 -24.5v-190q0 -18 -11 -26.5t-22 -8.5h-212q-10 0 -21 8t-11 26z" />
    <glyph glyph-name="slash" unicode="/" horiz-adv-x="891" 
d="M847 1384l-531 -1349q-15 -35 -49 -35h-209q-17 0 -22.5 11t1.5 30l533 1348q15 37 49 37h206q18 0 24 -11t-2 -31z" />
    <glyph glyph-name="zero" unicode="0" horiz-adv-x="1351" 
d="M90 515v393q0 158 77.5 284t211 194.5t296.5 68.5t296.5 -68.5t211.5 -194.5t78 -284v-393q0 -158 -78 -283t-211 -193.5t-296 -68.5t-297 68.5t-211.5 193.5t-77.5 283zM370 890v-354q0 -134 86.5 -221t219.5 -87t219.5 87t86.5 220v355q0 133 -86.5 220t-219.5 87
t-219.5 -87t-86.5 -220z" />
    <glyph glyph-name="one" unicode="1" horiz-adv-x="636" 
d="M272 1425h183q30 0 30 -35v-1351q0 -39 -38 -39h-200q-37 0 -37 37v1133l-140 -63q-8 -3 -14 -3q-17 0 -19 19l-1 168q-3 34 23 47l133 65q43 22 80 22z" />
    <glyph glyph-name="two" unicode="2" horiz-adv-x="1126" 
d="M343 974h-189q-29 0 -27 44q7 86 37 163.5t82 140t133 99t180 36.5q122 0 224.5 -49t166.5 -147t64 -228v-39q-1 -97 -41.5 -182t-100.5 -147l-397 -418h514q45 0 45 -43v-164q0 -40 -41 -40h-837q-46 0 -46 36v120q0 36 10 46l541 611q87 88 88 186v38q0 71 -55.5 119.5
t-131.5 48.5q-152 0 -184 -196q-1 -22 -10 -28.5t-25 -6.5z" />
    <glyph glyph-name="three" unicode="3" horiz-adv-x="1075" 
d="M347 1015l-177 2q-30 1 -30 40q8 175 108.5 279t275.5 104q161 0 274 -108.5t113 -263.5q0 -206 -138 -283q106 -42 162 -132t58 -207v-38q0 -177 -129 -303t-326 -126q-69 0 -130 12.5t-118.5 42.5t-100.5 76t-73 117.5t-38 162.5q0 17 -0.5 34t9.5 30t30 13h168
q15 0 23.5 -8.5t10.5 -18t3 -26.5q6 -56 28 -96.5t53.5 -60.5t61 -28.5t60.5 -8.5q85 0 142 50t57 153v27q-2 95 -57.5 147.5t-163.5 52.5q-42 0 -42 35v157q0 40 38 40q155 0 155 166q0 67 -38 110.5t-101 43.5q-59 0 -95 -37t-42 -106q-1 -27 -7.5 -35.5t-23.5 -8.5z" />
    <glyph glyph-name="four" unicode="4" horiz-adv-x="1100" 
d="M642 489v501l-282 -501h282zM638 34v199h-541q-23 0 -36 14.5t-13 37.5v112q2 25 15 49l525 949q17 32 48 32l229 -1q36 0 36 -41v-908h107q17 0 27.5 -9.5t10.5 -25.5v-157q0 -52 -41 -52h-104v-201q0 -31 -27 -31h-205q-20 0 -25.5 7.5t-5.5 25.5z" />
    <glyph glyph-name="five" unicode="5" horiz-adv-x="1100" 
d="M115 389l176 33q4 1 10 1q21 0 32 -33q66 -164 214 -164q85 0 141.5 58t56.5 145v82q0 86 -58.5 149t-147.5 63q-75 0 -160 -46q-6 -4 -20.5 -16.5t-23.5 -17t-20 -4.5h-150q-51 0 -46 47l56 705q3 43 40 43h675q28 0 38.5 -11t10.5 -36v-160q0 -29 -8.5 -39.5
t-34.5 -10.5h-489l-23 -267q69 53 185 53q129 0 231.5 -66.5t154.5 -166t52 -207.5v-82q0 -195 -133 -328.5t-327 -133.5q-167 0 -289 104.5t-164 261.5q-1 6 -1.5 14.5t5.5 17.5t17 12z" />
    <glyph glyph-name="six" unicode="6" horiz-adv-x="1122" 
d="M364 502v-63q0 -88 58 -148t144 -60t143.5 60t57.5 148v64q0 86 -56.5 140t-144.5 54t-145 -54.5t-57 -140.5zM91 445v113v454q0 87 32 165.5t90 139t145.5 96t191.5 35.5q95 0 172.5 -26t127 -67.5t84.5 -96t50.5 -106.5t19.5 -105q6 -60 -38 -60h-196q-20 0 -27.5 11
t-9.5 35q-11 84 -62 128t-119 44q-83 0 -135 -53.5t-52 -153.5v-153q40 45 115.5 70.5t159.5 25.5q78 0 149 -27.5t128.5 -80t92 -138t34.5 -192.5v-63q0 -127 -65 -233.5t-175 -166.5t-238 -60q-197 0 -336 132.5t-139 332.5z" />
    <glyph glyph-name="seven" unicode="7" horiz-adv-x="1008" 
d="M108 1426h822q44 0 49 -36q0 -1 1 -79v-78q1 -22 -11 -48l-562 -1157q-13 -28 -43 -28h-231q-21 0 -25.5 16t2.5 26l547 1125h-549q-38 0 -38 40v180q0 18 10.5 28.5t27.5 10.5z" />
    <glyph glyph-name="eight" unicode="8" horiz-adv-x="1075" 
d="M341 463v-33q0 -91 59.5 -145.5t142.5 -54.5q81 0 140.5 54.5t59.5 144.5v37q0 85 -60 139.5t-140 54.5q-82 0 -142 -55.5t-60 -141.5zM397 1051q0 -71 43 -114t104 -43q59 0 103 43t44 114q0 69 -44.5 110t-102.5 41t-102.5 -41t-44.5 -110zM150 1066q0 105 55 192.5
t145.5 136.5t192.5 49q103 0 194 -50.5t146 -138t55 -189.5q0 -86 -38 -160t-93 -114q91 -50 148.5 -139.5t57.5 -193.5v-44q0 -182 -133 -308t-337 -126t-338 127t-134 311v43q0 107 59 194.5t148 135.5q-56 40 -92 115t-36 159z" />
    <glyph glyph-name="nine" unicode="9" horiz-adv-x="1122" 
d="M757 924v63q0 88 -58 148t-144 60t-143.5 -60t-57.5 -148v-64q0 -85 57 -139.5t144 -54.5t144.5 54.5t57.5 140.5zM1030 981v-76q0 -22 -1 -37h2v-454q0 -117 -54.5 -215.5t-161 -160t-244.5 -61.5q-95 0 -172.5 26.5t-127 67.5t-84.5 96t-50.5 107t-19.5 105
q-1 19 0.5 30.5t10 20.5t25.5 9h198q20 0 27 -10.5t10 -34.5q11 -85 62 -129t120 -44q82 0 134 53.5t52 153.5v152q-41 -45 -116.5 -70t-158.5 -25q-78 0 -149 27.5t-128.5 80t-92 138t-34.5 192.5v63q0 127 65.5 233.5t175 166.5t236.5 60q198 0 337 -132.5t139 -332.5z
" />
    <glyph glyph-name="colon" unicode=":" horiz-adv-x="520" 
d="M122 990v191q0 17 9.5 26.5t23.5 9.5h210q19 0 26.5 -11.5t7.5 -24.5v-190q0 -18 -11 -26.5t-22 -8.5h-212q-10 0 -21 8t-11 26zM126 34v191q0 17 9.5 26.5t23.5 9.5h210q19 0 26.5 -11.5t7.5 -24.5v-190q0 -18 -11 -26.5t-22 -8.5h-212q-10 0 -21 8t-11 26z" />
    <glyph glyph-name="semicolon" unicode=";" horiz-adv-x="529" 
d="M122 990v191q0 17 9.5 26.5t23.5 9.5h210q19 0 26.5 -11.5t7.5 -24.5v-190q0 -18 -11 -26.5t-22 -8.5h-212q-10 0 -21 8t-11 26zM123 44v168q0 49 43 49h190q44 0 44 -47v-147q0 -176 -106 -256q-15 -10 -26 -10q-13 0 -23 9l-41 35q-25 21 3 49q48 45 48 86q0 20 -14 20
h-79q-39 0 -39 44z" />
    <glyph glyph-name="less" unicode="&#x3c;" horiz-adv-x="643" 
d="M48 508q0 9 12 21l358 390q7 9 19 9q9 0 16 -7l119 -108q8 -8 9 -20.5t-7 -21.5l-243 -258l248 -265q19 -21 -1 -41l-124 -112q-6 -6 -16 -6q-11 0 -19 8l-360 390q-11 14 -11 21z" />
    <glyph glyph-name="equal" unicode="=" horiz-adv-x="807" 
d="M68 383v141q0 14 9 22.5t22 8.5h610q13 0 21.5 -8t8.5 -22v-142q0 -12 -9.5 -20.5t-21.5 -8.5h-611q-10 0 -19.5 7.5t-9.5 21.5zM68 743v141q0 14 9 22.5t22 8.5h610q13 0 21.5 -8t8.5 -21v-143q0 -12 -9.5 -20.5t-21.5 -8.5h-611q-10 0 -19.5 7.5t-9.5 21.5z" />
    <glyph glyph-name="greater" unicode="&#x3e;" horiz-adv-x="748" 
d="M662 585q0 -10 -11 -21l-359 -390q-7 -9 -19 -9q-9 0 -17 7l-124 112q-19 19 -1 41l248 264l-243 259q-8 9 -7 21.5t9 20.5l119 108q6 6 15 6q13 0 20 -9l358 -389q12 -12 12 -21z" />
    <glyph glyph-name="question" unicode="?" horiz-adv-x="1043" 
d="M636 586v-126q0 -26 -9 -37.5t-33 -12.5l-172 -2q-21 0 -28 13t-7 38v176q0 73 49.5 135t138.5 128q39 29 58 45t42 43.5t32.5 60.5t9.5 76v26q-1 68 -58 119t-136 51q-83 0 -138.5 -58.5t-55.5 -128.5v-35q0 -28 -8.5 -37t-31.5 -9h-181q-16 0 -25 9.5t-9 25.5v37
q0 193 130.5 315.5t323.5 122.5q177 0 309.5 -120t133.5 -289v-29q0 -40 -6 -76t-13.5 -62.5t-24 -54t-27.5 -43.5t-35.5 -39.5t-35.5 -33t-40 -32.5t-39 -31q-3 -3 -16.5 -13t-18 -14t-16.5 -14t-17 -16t-14.5 -16.5t-13.5 -19.5t-9 -21t-7 -24.5t-2 -26.5zM373 20v190
q0 18 10 27t23 9h211q19 0 26.5 -11t7.5 -24v-191q0 -18 -11.5 -26t-21.5 -8h-212q-11 0 -22 8t-11 26z" />
    <glyph glyph-name="at" unicode="@" horiz-adv-x="1837" 
d="M731 597v-202q0 -71 43.5 -118.5t108.5 -47.5q69 0 117 45t51 113v217q-3 68 -51 113.5t-117 45.5q-65 0 -108.5 -47.5t-43.5 -118.5zM461 402v185q0 178 114.5 300.5t282.5 122.5q134 0 225 -143l18 84q7 36 47 36h136q35 0 35 -36v-684q1 -13 3 -25.5t10 -31.5
t20.5 -32t36 -23t54.5 -10q160 0 162 445q1 198 -79.5 349.5t-234.5 235.5t-361 84q-139 0 -271 -57t-232.5 -154.5t-162 -240.5t-61.5 -304q0 -155 59.5 -295.5t158.5 -239.5t233 -157.5t278 -58.5q115 0 205.5 25.5t177.5 82.5q17 7 26 7q12 0 19 -12l62 -97
q16 -26 -10 -40q-122 -70 -224.5 -100t-234.5 -30q-197 0 -368 71t-290.5 193.5t-187.5 291.5t-68 359q0 195 71 366.5t192.5 292.5t288.5 191t354 70q169 0 320 -61.5t262.5 -169.5t176.5 -265t65 -340q0 -32 -0.5 -52.5t-3.5 -70.5t-8.5 -87.5t-18 -91t-30 -93t-45 -82.5
t-62 -70t-83.5 -45t-107 -18q-121 0 -193.5 58t-97.5 161q-41 -95 -107.5 -155t-153.5 -60q-169 0 -283.5 121.5t-114.5 299.5z" />
    <glyph glyph-name="A" unicode="A" horiz-adv-x="1287" 
d="M669 1010l-27 142l-26 -142l-151 -499h355zM804 1391l456 -1350q15 -41 -25 -41h-222q-37 0 -48 36l-65 214h-514l-65 -214q-10 -36 -47 -36h-223q-18 0 -25 10.5t0 30.5l457 1350q12 37 47 37h226q35 0 48 -37z" />
    <glyph glyph-name="B" unicode="B" horiz-adv-x="1274" 
d="M748 610h-299v-361h295q70 0 113.5 44.5t43.5 106.5v63q0 72 -46.5 109.5t-106.5 37.5zM704 1177h-255v-338h254q61 0 103.5 33.5t42.5 101.5v63q0 68 -43 104t-102 36zM173 40v1346q0 40 38 40h510q169 0 288 -98.5t119 -249.5v-86q0 -80 -44 -150.5t-104 -97.5
q82 -29 141.5 -111t59.5 -189v-83q0 -154 -116 -257.5t-277 -103.5h-577q-38 0 -38 40z" />
    <glyph glyph-name="C" unicode="C" horiz-adv-x="1225" 
d="M986 401l149 -74q37 -18 11 -69q-74 -143 -199 -215.5t-279 -72.5q-248 0 -413 153t-165 392v386q0 159 76 286t208 197.5t294 70.5q156 0 280.5 -72t199.5 -216q12 -24 10.5 -40t-14.5 -22l-156 -76q-12 -5 -22 -5q-20 0 -31 20q-83 152 -252 152q-133 0 -223 -86.5
t-90 -220.5v-352q0 -135 89.5 -221.5t223.5 -86.5q178 0 252 154q11 23 31 23q10 0 20 -5z" />
    <glyph glyph-name="D" unicode="D" horiz-adv-x="1362" 
d="M677 1159h-229v-893h221q146 0 235 88.5t89 234.5v247q0 146 -86 233.5t-230 89.5zM173 39v1347q0 40 38 40h475q168 -1 301.5 -75t209 -207t75.5 -301v-263q0 -254 -166.5 -416t-423.5 -164h-471q-38 0 -38 39z" />
    <glyph glyph-name="E" unicode="E" horiz-adv-x="1196" 
d="M173 39v1347q0 40 38 40h837q36 0 36 -38v-192q0 -37 -36 -37h-595v-306h463q41 0 41 -39v-189q0 -38 -41 -38h-463v-328h609q37 0 37 -36v-185q0 -38 -37 -38h-851q-38 0 -38 39z" />
    <glyph glyph-name="F" unicode="F" horiz-adv-x="1138" 
d="M173 39v1347q0 40 38 40h823q37 0 37 -38v-191q0 -38 -37 -38h-581v-326h450q40 0 40 -39v-189q0 -38 -40 -38h-450v-528q0 -39 -37 -39h-205q-38 0 -38 39z" />
    <glyph glyph-name="G" unicode="G" horiz-adv-x="1274" 
d="M1178 705v-265q0 -103 -46.5 -193.5t-120.5 -149.5t-164 -93t-179 -34q-248 0 -413 153t-165 392v386q0 159 76 286t208 197.5t294 70.5q155 0 279.5 -72.5t197.5 -215.5q12 -24 10 -40.5t-15 -22.5l-149 -73q-14 -7 -28 -7q-21 0 -30 19q-79 153 -250 153
q-133 0 -223 -86.5t-90 -220.5v-352q0 -134 86.5 -221t211.5 -87q114 0 186 65.5t72 168.5v23h-176q-36 0 -36 37v183q0 38 36 38h390q38 0 38 -39z" />
    <glyph glyph-name="H" unicode="H" horiz-adv-x="1473" 
d="M173 39v1347q0 40 38 40h201q38 0 38 -40v-522h570v522q0 17 11 28.5t30 11.5h202q37 0 37 -38v-1349q0 -39 -41 -39h-199q-40 0 -40 39v559h-570v-559q0 -39 -38 -39h-201q-38 0 -38 39z" />
    <glyph glyph-name="I" unicode="I" horiz-adv-x="626" 
d="M173 39v1347q0 40 38 40h210q32 0 32 -40v-1347q0 -39 -32 -39h-210q-38 0 -38 39z" />
    <glyph glyph-name="J" unicode="J" horiz-adv-x="1019" 
d="M606 419v968q0 22 11 30.5t23 8.5h201q24 0 34 -10.5t10 -34.5l-5 -985q0 -89 -27 -162t-71.5 -121t-103 -81t-120 -47.5t-124.5 -14.5q-80 0 -150 21t-119 55.5t-83 72.5t-56 79q-27 52 3 70l142 75q16 9 29 9q21 0 36 -28q22 -36 73 -65.5t106 -29.5q86 0 138.5 48
t52.5 142z" />
    <glyph glyph-name="K" unicode="K" horiz-adv-x="1316" 
d="M1198 1374l-415 -550l486 -780q11 -19 5 -31.5t-24 -12.5h-251q-31 0 -50 34l-343 562l-153 -187v-370q0 -39 -42 -39h-200q-38 0 -38 39v1347q0 40 38 40h208q34 0 34 -40v-613l437 625q12 18 24 23t32 5h237q18 0 22.5 -19t-7.5 -33z" />
    <glyph glyph-name="L" unicode="L" horiz-adv-x="1071" 
d="M173 39v1347q0 40 38 40h206q37 0 37 -40v-1119h503q37 0 37 -37v-192q0 -38 -37 -38h-746q-38 0 -38 39z" />
    <glyph glyph-name="M" unicode="M" horiz-adv-x="1777" 
d="M481 848l-46 114l8 -114l1 -810q0 -38 -36 -38h-201q-34 0 -34 39v1349q0 38 36 38h259q6 0 10 -1.5t6.5 -2.5t6 -5.5t4.5 -6t4.5 -9.5t4.5 -10l355 -774l29 -133l31 135l355 772q1 3 3.5 9t3.5 8t3.5 6.5t4 5.5l4.5 3t6.5 2.5t8.5 0.5h261q35 0 35 -38v-1349
q0 -39 -34 -39h-201q-37 0 -37 38l2 808l7 107l-45 -115l-280 -640q-9 -22 -16 -29t-22 -7h-179q-16 0 -22.5 7t-15.5 29z" />
    <glyph glyph-name="N" unicode="N" horiz-adv-x="1462" 
d="M173 39v1347q0 40 38 40h211q25 0 33 -5.5t21 -30.5l485 -762l59 -120l-10 120v758q0 17 9.5 28.5t27.5 11.5h206q36 0 36 -38v-1349q0 -39 -40 -39h-175q-35 0 -55 35l-525 813l-53 100l12 -100v-809q0 -39 -37 -39h-205q-38 0 -38 39z" />
    <glyph glyph-name="O" unicode="O" horiz-adv-x="1351" 
d="M90 515v393q0 158 77.5 284t211 194.5t296.5 68.5t296.5 -68.5t211.5 -194.5t78 -284v-393q0 -158 -78 -283t-211 -193.5t-296 -68.5t-297 68.5t-211.5 193.5t-77.5 283zM370 890v-354q0 -134 86.5 -221t219.5 -87t219.5 87t86.5 220v355q0 133 -86.5 220t-219.5 87
t-219.5 -87t-86.5 -220z" />
    <glyph glyph-name="P" unicode="P" horiz-adv-x="1217" 
d="M173 39v1347q0 40 38 40h501q121 0 222 -57t158 -153t57 -209v-120q0 -117 -61 -214.5t-163.5 -153.5t-223.5 -57h-248v-423q0 -39 -37 -39h-205q-38 0 -38 39zM453 729h223q81 0 137.5 52.5t56.5 127.5v67q0 77 -56 130t-138 53h-223v-430z" />
    <glyph glyph-name="Q" unicode="Q" horiz-adv-x="1351" 
d="M370 890v-354q0 -134 86.5 -221t219.5 -87t219.5 87t86.5 220v355q0 133 -86.5 220t-219.5 87t-219.5 -87t-86.5 -220zM90 515v393q0 158 77.5 284t211 194.5t296.5 68.5t296.5 -68.5t211.5 -194.5t78 -284v-393q0 -200 -121.5 -343t-315.5 -186v-229q0 -40 -35 -40h-205
q-36 0 -36 40v225q-202 37 -330 182t-128 351z" />
    <glyph glyph-name="R" unicode="R" horiz-adv-x="1251" 
d="M680 1159h-234v-405h234q80 0 134 52.5t54 128.5v39q0 78 -53.5 131.5t-134.5 53.5zM173 39v1347q0 40 38 40h498q184 0 311 -123t127 -295v-81q0 -111 -63 -212t-163 -160l39 -59l199 -455q6 -15 -0.5 -28t-22.5 -13h-249q-16 0 -24.5 7t-16.5 27l-185 461h-215v-456
q0 -39 -34 -39h-201q-38 0 -38 39z" />
    <glyph glyph-name="S" unicode="S" horiz-adv-x="1166" 
d="M94 255q-30 59 6 75l161 88q10 4 16 4q23 0 41 -33q33 -66 111 -114t163 -48q95 0 155 41.5t60 116.5q0 33 -13.5 61t-35.5 49t-61 43.5t-78 41t-99 44.5q-36 16 -55 24q-184 82 -262 181.5t-78 238.5q0 176 132.5 281.5t336.5 105.5q152 0 275 -61t195 -190
q32 -58 -7 -74l-141 -71q-14 -6 -25 -6q-22 0 -42 28q-73 117 -237 117q-55 0 -99.5 -12t-76.5 -44t-32 -80q0 -62 52 -106t171 -91q90 -36 154 -67.5t125 -74t98 -89t59.5 -108.5t22.5 -136q0 -188 -138 -304t-354 -116q-164 0 -299 78t-201 207z" />
    <glyph glyph-name="T" unicode="T" horiz-adv-x="1048" 
d="M22 1198v190q0 38 36 38h933q37 0 37 -38v-191q0 -38 -37 -38h-327v-1120q0 -39 -36 -39h-210q-33 0 -33 39v1120h-327q-36 0 -36 39z" />
    <glyph glyph-name="U" unicode="U" horiz-adv-x="1408" 
d="M428 1386v-871q0 -131 77.5 -209t201.5 -78t199 80t75 207v871q0 17 10 28.5t27 11.5h199q19 0 31.5 -12t12.5 -28v-875q0 -129 -44.5 -233t-121.5 -170.5t-176.5 -102t-211.5 -35.5q-89 0 -171.5 22.5t-153.5 68t-123 109.5t-82 152t-30 191v873q0 16 11 28t26 12h208
q36 0 36 -40z" />
    <glyph glyph-name="V" unicode="V" horiz-adv-x="1274" 
d="M1236 1387l-438 -1350q-13 -37 -48 -37h-226q-35 0 -47 37l-438 1350q-15 41 25 41h223q36 0 47 -36l283 -974l19 -105l20 105l285 974q10 36 47 36h223q39 0 25 -41z" />
    <glyph glyph-name="W" unicode="W" horiz-adv-x="1800" 
d="M874 445l-142 -408q-12 -37 -47 -37h-186q-35 0 -48 37l-416 1348q-14 41 25 41h223q36 0 46 -36l250 -952l22 -128l22 128l290 952q11 36 47 36h216q39 0 25 -41l-168 -483l147 -464l19 -121l21 121l258 952q10 36 46 36h216q39 0 24 -41l-416 -1348q-12 -37 -47 -37
h-184q-36 0 -47 37l-144 408l-26 109z" />
    <glyph glyph-name="X" unicode="X" horiz-adv-x="1219" 
d="M1151 1384l-383 -659l396 -683q10 -20 3.5 -31t-24.5 -11h-234q-17 0 -26.5 6.5t-21.5 27.5l-226 425l-27 59l-25 -59l-224 -425q-12 -21 -22 -27.5t-27 -6.5h-233q-18 0 -24.5 11t3.5 31l395 683l-383 659q-9 16 -2 29t24 13h236q28 0 48 -35l213 -404l24 -61l21 61
l213 404q20 35 49 35h235q17 0 24.5 -13t-2.5 -29z" />
    <glyph glyph-name="Y" unicode="Y" horiz-adv-x="1123" 
d="M421 40v520l-406 823q-9 19 -2 31t25 12h240q32 0 46 -36l211 -478l26 -112l27 112l209 477q14 36 46 36h242q18 0 25 -11.5t-2 -29.5l-407 -827v-517q0 -40 -35 -40h-211q-34 0 -34 40z" />
    <glyph glyph-name="Z" unicode="Z" horiz-adv-x="1173" 
d="M134 1426h910q32 0 32 -35v-148q0 -8 -6 -17q-4 -14 -7 -18l-629 -945l73 11h540q33 0 33 -33v-207q0 -34 -33 -34h-929q-33 0 -33 34v151q0 6 2 14q0 9 5 17l623 961l-88 -8h-493q-34 0 -34 34v188q0 35 34 35z" />
    <glyph glyph-name="bracketleft" unicode="[" horiz-adv-x="631" 
d="M123 -274v1836l6 6v2q0 14 8.5 22.5t22.5 8.5h391q29 0 29 -30v-186q0 -12 -9.5 -20.5t-20.5 -8.5h-157v-1424h158q12 0 20.5 -8t8.5 -21v-187q0 -12 -9.5 -20t-21.5 -8h-390q-12 0 -21 7t-9 22v3z" />
    <glyph glyph-name="backslash" unicode="\" horiz-adv-x="902" 
d="M567 35l-531 1349q-8 20 -2 31t24 11h206q34 0 49 -37l533 -1348q7 -19 1.5 -30t-22.5 -11h-209q-34 0 -49 35z" />
    <glyph glyph-name="bracketright" unicode="]" horiz-adv-x="632" 
d="M504 1570v-3l5 -5v-1836l-5 -5v-4q0 -14 -9.5 -21.5t-20.5 -7.5h-391q-12 0 -21 8t-9 20v187q0 13 8 21t20 8h158v1424h-157q-11 0 -20 8.5t-9 20.5v186q0 30 28 30h391q14 0 23 -8.5t9 -22.5z" />
    <glyph glyph-name="asciicircum" unicode="^" horiz-adv-x="871" 
d="M476 1477l303 -309q37 -37 -1 -72l-88 -85q-16 -15 -33 -15q-19 0 -35 18l-182 186l-181 -186q-15 -18 -34 -18q-17 0 -34 15l-85 85q-40 34 -4 72l304 309q17 17 34 17q22 0 36 -17z" />
    <glyph glyph-name="underscore" unicode="_" horiz-adv-x="1110" 
d="M88 -194v143q0 14 8.5 22.5t22.5 8.5h875q12 0 20.5 -8t8.5 -21v-145q0 -12 -9 -20.5t-21 -8.5h-876q-11 0 -20 7.5t-9 21.5z" />
    <glyph glyph-name="grave" unicode="`" horiz-adv-x="463" 
d="M149 1270l-103 215q-9 18 -1 33.5t24 15.5h161q20 0 30.5 -8t17.5 -29l88 -217q9 -22 -1 -34.5t-26 -12.5h-141q-19 0 -28.5 7t-20.5 30z" />
    <glyph glyph-name="a" unicode="a" horiz-adv-x="1298" 
d="M361 740v-258q0 -113 71 -188t177 -75q108 0 183.5 71.5t79.5 179.5v281q-4 109 -79.5 181t-183.5 72q-106 0 -177 -75.5t-71 -188.5zM91 487v245q0 144 65 263.5t178.5 188t251.5 68.5q99 0 178.5 -54t134.5 -146l21 132q8 41 51 41h130q40 0 40 -41v-1143
q0 -41 -39 -41h-135q-18 0 -31 11t-16 30l-19 133q-55 -94 -135 -149t-180 -55q-138 0 -251.5 68t-178.5 187t-65 262z" />
    <glyph glyph-name="b" unicode="b" horiz-adv-x="1298" 
d="M936 482v258q0 113 -71 188.5t-176 75.5q-109 0 -184 -72t-79 -181v-281q4 -108 79 -179.5t184 -71.5q105 0 176 75t71 188zM1206 732v-245q0 -219 -142.5 -368t-352.5 -149q-100 0 -180 55t-135 149l-18 -133q-3 -19 -16 -30t-31 -11h-135q-39 0 -39 41v1500q0 41 39 41
h179q22 0 36.5 -10.5t14.5 -29.5v-458q118 168 286 168q138 0 251.5 -68.5t178 -188t64.5 -263.5z" />
    <glyph glyph-name="c" unicode="c" horiz-adv-x="1099" 
d="M91 728q0 224 151 374t376 150q126 0 235 -69t162 -174q19 -36 0 -47l-165 -81q-5 -4 -15 -4q-15 0 -25 17q-30 48 -83 79t-112 31q-113 0 -183.5 -77t-70.5 -201v-230q0 -127 71.5 -202t182.5 -75q59 0 110 29.5t85 80.5q12 16 26 16q8 0 15 -4l164 -82q17 -16 1 -46
q-53 -106 -163 -174.5t-238 -68.5q-223 0 -373.5 149.5t-150.5 371.5v237z" />
    <glyph glyph-name="d" unicode="d" horiz-adv-x="1298" 
d="M361 740v-258q0 -113 71 -188t177 -75q111 0 187 75.5t76 186.5v270q-4 109 -79.5 181t-183.5 72q-106 0 -177 -75.5t-71 -188.5zM91 487v245q0 144 65 263.5t178.5 188t251.5 68.5q169 0 286 -158v448q0 19 14.5 29.5t36.5 10.5h178q40 0 40 -41v-1500q0 -41 -39 -41
h-135q-18 0 -31 11t-16 30l-19 133q-55 -94 -135 -149t-180 -55q-138 0 -251.5 68t-178.5 187t-65 262z" />
    <glyph glyph-name="e" unicode="e" horiz-adv-x="1195" 
d="M361 736v-9h491v6q0 49 -12 94t-37 86t-71.5 66t-109.5 25q-61 0 -112 -22.5t-82.5 -61t-49 -86t-17.5 -98.5zM91 489v239q0 227 153.5 375.5t383.5 148.5q65 0 130 -19t128 -61.5t111.5 -105t78 -157t29.5 -208.5v-98q0 -45 -21 -62t-67 -17h-656v-31q0 -124 74 -199
t187 -75q123 0 195 102q12 16 26 16q8 0 13 -4l172 -90q20 -15 1 -47q-62 -100 -166.5 -163t-234.5 -63q-229 0 -383 147.5t-154 371.5z" />
    <glyph glyph-name="f" unicode="f" horiz-adv-x="759" 
d="M205 39v932h-129q-38 0 -38 35v184q0 16 10.5 25.5t27.5 9.5h129q0 92 16 159.5t53 121t104.5 81t164.5 27.5q47 0 113 -8q29 -4 40 -16t11 -38v-125q0 -46 -40 -46q-8 0 -12 1q-33 5 -54 5q-65 0 -90.5 -38t-27.5 -124h185q16 0 26.5 -10t10.5 -25v-184q0 -35 -37 -35
h-185v-932q0 -39 -35 -39h-207q-36 0 -36 39z" />
    <glyph glyph-name="g" unicode="g" horiz-adv-x="1298" 
d="M361 740v-231q0 -113 71 -188t177 -75q108 0 183.5 71.5t79.5 179.5v254q-4 109 -79.5 181t-183.5 72q-106 0 -177 -75.5t-71 -188.5zM1141 1184v-1018q0 -151 -43 -267t-118.5 -186t-170 -105t-205.5 -35q-115 0 -223.5 35t-187.5 105q-25 22 -3 57l93 106q13 19 33 19
q16 0 32 -12q98 -66 240 -66q130 0 207 80.5t76 216.5l-1 59q-116 -176 -284 -176q-138 0 -251.5 68t-178.5 187t-65 263v217q0 144 65 263.5t178.5 188t251.5 68.5q99 0 178.5 -54t134.5 -146l21 132q8 41 51 41h130q40 0 40 -41z" />
    <glyph glyph-name="h" unicode="h" horiz-adv-x="1346" 
d="M920 40v710q0 103 -70 178.5t-165 75.5t-170 -69t-79 -169v-725q0 -19 -16.5 -30t-36.5 -11h-187q-39 0 -39 41v1500q0 41 39 41h185q55 0 55 -48v-446q114 164 313 164q61 0 124 -21t121.5 -63t104 -100t73 -139t27.5 -172v-717q0 -40 -37 -40h-204q-38 0 -38 40z" />
    <glyph glyph-name="i" unicode="i" horiz-adv-x="593" 
d="M157 39v1148q0 17 11 27.5t27 10.5h204q16 0 26.5 -11t10.5 -28v-1147q0 -39 -37 -39h-204q-38 0 -38 39zM152 1403v159q0 63 62 63h171q57 0 57 -63v-158q0 -32 -14 -44.5t-43 -12.5h-171q-62 0 -62 56z" />
    <glyph glyph-name="j" unicode="j" horiz-adv-x="593" 
d="M157 1185q0 40 40 40h201q38 0 38 -40v-1180q0 -172 -119 -286t-324 -114q-24 0 -40 11.5t-16 26.5v174q0 45 48 45q172 0 172 195v1128zM152 1396v166q0 63 62 63h170q57 0 57 -63v-165q0 -32 -14 -44.5t-43 -12.5h-170q-62 0 -62 56z" />
    <glyph glyph-name="k" unicode="k" horiz-adv-x="1220" 
d="M1109 1159l-365 -435l424 -659q15 -25 4.5 -45t-31.5 -20h-232q-28 0 -51 35l-293 491l-129 -111v-375q0 -40 -36 -40h-205q-38 0 -38 40v1502q0 40 38 40h205q36 0 36 -40v-806l374 462q15 17 27.5 22t32.5 5h207q28 0 38.5 -23.5t-6.5 -42.5z" />
    <glyph glyph-name="l" unicode="l" horiz-adv-x="590" 
d="M154 40v1502q0 40 37 40h206q36 0 36 -40v-1502q0 -40 -36 -40h-206q-37 0 -37 40z" />
    <glyph glyph-name="m" unicode="m" horiz-adv-x="1970" 
d="M1130 756v-715q0 -41 -38 -41h-204q-37 0 -37 41v731q0 52 -18.5 103t-63 90t-107.5 39q-85 0 -153.5 -67.5t-72.5 -170.5v-725q0 -19 -16.5 -30t-36.5 -11h-187q-39 0 -39 41v1143q0 42 39 42h138q46 0 56 -48l19 -110q54 92 138 138t180 46q98 0 195 -61t152 -170
q58 115 149 173t199 58q56 0 110.5 -17t107.5 -55.5t93.5 -95t65 -142t24.5 -189.5v-712q0 -41 -37 -41h-205q-37 0 -37 41v736q0 37 -11 74.5t-32.5 72.5t-61 57.5t-89.5 22.5q-84 0 -152 -73t-68 -175z" />
    <glyph glyph-name="n" unicode="n" horiz-adv-x="1346" 
d="M920 40v710q0 103 -70 178.5t-165 75.5t-170 -69t-79 -169v-725q0 -19 -16.5 -30t-36.5 -11h-187q-39 0 -39 41v1143q0 41 39 41h139q45 0 55 -48l20 -120q111 195 339 195q61 0 124 -21t121.5 -63t104 -100t73 -139t27.5 -172v-717q0 -40 -37 -40h-204q-38 0 -38 40z
" />
    <glyph glyph-name="o" unicode="o" 
d="M91 487v245q0 144 69 263.5t189 188t265 68.5q146 0 266.5 -68.5t190 -188t69.5 -263.5v-245q0 -218 -152 -367.5t-373 -149.5t-372.5 149.5t-151.5 367.5zM361 740v-258q0 -114 72 -188.5t183 -74.5t183.5 75t72.5 187v259q0 114 -72.5 189t-183.5 75t-183 -75t-72 -189
z" />
    <glyph glyph-name="p" unicode="p" horiz-adv-x="1298" 
d="M936 482v258q0 113 -71 188.5t-176 75.5q-109 0 -184 -72t-79 -181v-270q0 -112 75.5 -187t187.5 -75q105 0 176 75t71 188zM1206 732v-245q0 -219 -142.5 -368t-352.5 -149q-170 0 -285 159v-470q0 -19 -14 -30.5t-33 -11.5h-183q-39 0 -39 42v1525q0 41 39 41h131
q42 0 51 -41l20 -132q55 92 134.5 146t179.5 54q138 0 251.5 -68.5t178 -188t64.5 -263.5z" />
    <glyph glyph-name="q" unicode="q" horiz-adv-x="1298" 
d="M361 740v-258q0 -113 71 -188t177 -75q108 0 183.5 71.5t79.5 179.5v281q-4 109 -79.5 181t-183.5 72q-106 0 -177 -75.5t-71 -188.5zM91 487v245q0 144 65 263.5t178.5 188t251.5 68.5q99 0 178.5 -54t134.5 -146l21 132q8 41 51 41h130q40 0 40 -41v-1525
q0 -42 -39 -42h-183q-19 0 -33 11.5t-14 30.5v470q-117 -159 -286 -159q-138 0 -251.5 68t-178.5 187t-65 262z" />
    <glyph glyph-name="r" unicode="r" horiz-adv-x="1009" 
d="M157 41v1143q0 41 39 41h136q47 0 57 -48l21 -123q112 198 296 198q80 0 145.5 -23t101.5 -50t21 -70l-41 -159q-7 -23 -39 -23q-18 0 -29 8q-48 36 -89.5 52.5t-105.5 16.5q-99 0 -166.5 -64.5t-67.5 -185.5v-713q0 -20 -12.5 -30.5t-32.5 -10.5h-195q-39 0 -39 41z" />
    <glyph glyph-name="s" unicode="s" horiz-adv-x="1025" 
d="M59 233q-23 43 14 64l151 79q10 5 16 5q18 0 32 -28q31 -64 95 -103t139 -39q82 0 132 32t50 97q0 33 -20.5 60.5t-65 51t-85.5 39t-111 38.5q-163 55 -245.5 136.5t-82.5 220.5q0 150 119 257.5t300 107.5q140 0 257 -78t158 -174q10 -21 8 -33.5t-21 -21.5l-136 -64
q-13 -7 -24 -7q-17 0 -28 21q-28 54 -83 85t-123 31q-73 0 -119 -32t-46 -83q0 -23 10.5 -42t27.5 -33t48.5 -28t62.5 -25.5t80 -27.5l51 -17q164 -55 247.5 -152t83.5 -228q0 -113 -61.5 -199t-160 -129.5t-215.5 -43.5q-145 0 -266.5 67t-188.5 196z" />
    <glyph glyph-name="t" unicode="t" horiz-adv-x="741" 
d="M662 968h-179v-929q0 -39 -37 -39h-208q-35 0 -35 39v929h-130q-16 0 -26.5 9t-10.5 26v188q0 16 10.5 25t26.5 9h130v190q0 20 8.5 31t30.5 18l181 60q5 2 16 2q19 0 31.5 -13.5t12.5 -37.5v-250h179q17 0 27 -9.5t10 -24.5v-188q0 -35 -37 -35z" />
    <glyph glyph-name="u" unicode="u" horiz-adv-x="1346" 
d="M426 1185v-723q4 -100 73 -172t162 -72q95 0 170 68.5t79 168.5v729q0 19 16.5 30t36.5 11h188q38 0 38 -41v-1143q0 -41 -39 -41h-138q-46 0 -56 48l-20 117q-110 -195 -339 -195q-77 0 -155.5 33.5t-144.5 94.5t-108 157.5t-42 209.5v720q0 40 38 40h203q38 0 38 -40z
" />
    <glyph glyph-name="v" unicode="v" horiz-adv-x="1172" 
d="M1145 1169l-434 -1133q-13 -36 -46 -36h-163q-34 0 -47 36l-421 1126q-10 30 0 46.5t35 16.5h208q36 0 46 -37l246 -795l20 -134l20 134l246 797q11 35 46 35h218q46 0 26 -56z" />
    <glyph glyph-name="w" unicode="w" horiz-adv-x="1708" 
d="M1095 1168l-104 -280l132 -458l22 -114l22 115l224 759q10 35 47 35h211q46 0 25 -57l-421 -1133q-13 -35 -46 -35h-134q-35 0 -47 35l-146 414l-30 107l-27 -109l-148 -412q-13 -35 -47 -35h-134q-33 0 -46 35l-408 1127q-10 31 -0.5 47t34.5 16h201q34 0 46 -38
l225 -757l21 -120l21 120l225 760q11 35 47 35h210q47 0 25 -57z" />
    <glyph glyph-name="x" unicode="x" horiz-adv-x="1155" 
d="M89 77l313 541l-317 555q-13 22 -6 37t29 15h222q30 0 49 -34l178 -363l17 -67l19 67l178 363q19 34 49 34h221q23 0 30 -15t-6 -37l-318 -555l313 -541q18 -25 11.5 -51t-38.5 -26h-221q-32 0 -50 34l-163 340l-24 79l-25 -79l-163 -340q-16 -34 -49 -34h-222
q-32 0 -38.5 26t11.5 51z" />
    <glyph glyph-name="y" unicode="y" horiz-adv-x="1192" 
d="M1152 1168l-557 -1560q-13 -36 -49 -36h-173q-33 0 -46 19t0 52l130 364l-416 1154q-10 31 -0.5 47.5t34.5 16.5h208q35 0 46 -39l236 -735l31 -164l32 165l235 738q10 36 46 36h219q47 0 24 -58z" />
    <glyph glyph-name="z" unicode="z" horiz-adv-x="1078" 
d="M142 1225h797q29 0 31 -33v-150q0 -22 -6 -31l-553 -767l81 11h454q15 0 24.5 -9.5t9.5 -22.5v-189q0 -14 -10.5 -24t-23.5 -10h-833q-29 0 -29 33l-1 134q0 18 10 35l553 773l-71 -8h-433q-14 0 -23 10t-9 23v192q0 14 8.5 23.5t23.5 9.5z" />
    <glyph glyph-name="braceleft" unicode="{" horiz-adv-x="671" 
d="M47 707q0 14 8.5 22.5t20.5 8.5q59 0 85.5 16.5t26.5 75.5v306q0 88 21.5 159.5t52.5 115.5t76.5 76t82 46.5t81.5 23t63 9.5t37 1q12 0 20.5 -8t8.5 -21v-224q0 -13 -9.5 -21t-21.5 -8q-13 0 -23 -0.5t-34 -8.5t-40 -21.5t-29 -44t-13 -72.5v-378q0 -89 -73 -152
q73 -63 73 -153v-377q0 -42 13 -72.5t29 -44t40 -21.5t34 -8.5t23 -0.5q12 0 21.5 -8.5t9.5 -20.5v-224q0 -13 -8.5 -21.5t-20.5 -8.5q-19 0 -37 1t-63 9.5t-82 23.5t-82 47t-76 76t-52.5 115.5t-21.5 159.5v306q0 59 -26.5 75t-85.5 16q-12 0 -20.5 9t-8.5 22v199z" />
    <glyph glyph-name="bar" unicode="|" horiz-adv-x="538" 
d="M125 -358v1993q0 40 38 40h205q37 0 37 -40v-1993q0 -39 -37 -39h-205q-38 0 -38 39z" />
    <glyph glyph-name="braceright" unicode="}" horiz-adv-x="696" 
d="M639 707v-199q0 -13 -8 -22t-20 -9q-60 0 -86.5 -16t-26.5 -75v-306q0 -88 -21.5 -159.5t-52.5 -115.5t-76 -76t-82 -47t-81.5 -23.5t-62.5 -9.5t-37 -1q-13 0 -21 8.5t-8 21.5v224q0 12 9 20.5t21 8.5q13 0 23.5 0.5t34.5 8.5t39.5 21.5t29 44t13.5 72.5v377
q0 91 72 153q-72 62 -72 152v378q0 42 -13.5 72.5t-29 44t-39.5 21.5t-34.5 8.5t-23.5 0.5q-12 0 -21 8t-9 21v224q0 13 8 21t21 8q19 0 37 -1t62.5 -9.5t81.5 -23t82 -46.5t76 -76t52.5 -115.5t21.5 -159.5v-306q0 -59 27 -75.5t86 -16.5q12 0 20 -8.5t8 -22.5z" />
    <glyph glyph-name="asciitilde" unicode="~" horiz-adv-x="913" 
d="M217 488q-11 -12 -25 -12q-19 0 -49 28l-58 52q-18 16 -22 28t0 20.5t21 33.5q91 134 226 134q46 0 99.5 -27t98.5 -53.5t70 -26.5q26 0 44 14.5t44 46.5q17 21 38 21q20 0 39 -17l74 -72q29 -25 4 -61q-92 -144 -238 -144q-48 0 -100 26.5t-95 52.5t-71 26
q-15 0 -27 -3.5t-23 -12.5t-17 -15t-17.5 -20t-15.5 -19z" />
    <glyph glyph-name="exclamdown" unicode="&#xa1;" horiz-adv-x="568" 
d="M150 1003v190q0 18 11 26t21 8h217q10 0 21.5 -8t11.5 -26v-190q0 -13 -8 -24.5t-26 -11.5h-216q-13 0 -22.5 9t-9.5 27zM158 -158v941q0 40 38 40h189q37 0 37 -40v-941q0 -39 -37 -39h-189q-38 0 -38 39z" />
    <glyph glyph-name="cent" unicode="&#xa2;" horiz-adv-x="1099" 
d="M91 491v237q0 186 107 324.5t280 182.5v158q0 29 26 29h229q12 0 19 -9t7 -21v-164q84 -29 151.5 -87t104.5 -132q19 -36 0 -47l-165 -81q-5 -4 -15 -4q-15 0 -25 17q-30 48 -83 79t-112 31q-113 0 -183.5 -77t-70.5 -201v-230q0 -127 71.5 -202t182.5 -75q59 0 110 29.5
t85 80.5q12 16 26 16q8 0 15 -4l164 -82q17 -16 1 -46q-37 -74 -104.5 -132t-152.5 -87v-168q0 -11 -7 -20.5t-19 -9.5h-227q-12 0 -20 9t-8 22v160q-173 43 -280 181t-107 323z" />
    <glyph glyph-name="sterling" unicode="&#xa3;" horiz-adv-x="1014" 
d="M412 997v-202h269q12 0 20 -8.5t8 -21.5v-158q0 -13 -9 -21t-21 -8h-267v-319h495q37 0 37 -37v-184q0 -38 -37 -38h-741q-34 0 -34 38v963q0 125 60.5 226.5t162 157t221.5 55.5q168 0 296 -94q51 -36 32 -67l-88 -132q-16 -25 -37 -25q-16 0 -33 15q-58 50 -144 50
q-77 0 -133.5 -57t-56.5 -133z" />
    <glyph glyph-name="currency" unicode="&#xa4;" horiz-adv-x="1024" 
d="M317 664v-123q0 -82 56 -139t137 -57q82 0 138 56.5t56 138.5v124q0 83 -56 139.5t-138 56.5q-81 0 -137 -57t-56 -139zM125 536v131q0 91 42 170l-75 87q-7 6 -7.5 17.5t9.5 22.5l118 100q10 8 19 8q15 0 24 -11l62 -69q89 50 193 50q101 0 191 -50l64 70q8 10 22 10
q11 0 19 -8l117 -100q10 -8 10.5 -20.5t-7.5 -21.5l-72 -87q41 -80 41 -168v-131q0 -88 -41 -168l75 -87q19 -21 -4 -41l-118 -100q-7 -7 -18 -7q-14 0 -23 11l-62 69q-88 -51 -194 -51t-194 51l-62 -69q-10 -10 -21 -10t-19 7l-120 102q-9 7 -9.5 19.5t6.5 21.5l74 86
q-40 77 -40 166z" />
    <glyph glyph-name="yen" unicode="&#xa5;" horiz-adv-x="1123" 
d="M421 40v147h-176q-11 0 -21.5 8.5t-10.5 22.5v87q0 15 10 24.5t22 9.5h176v103h-176q-11 0 -21.5 8.5t-10.5 22.5v87q0 15 10 24.5t22 9.5h159l-389 789q-9 19 -2 31t25 12h240q32 0 46 -36l211 -478l26 -112l27 112l209 477q14 36 46 36h242q18 0 25 -11.5t-2 -29.5
l-389 -790h165q31 0 31 -32v-89q0 -14 -9.5 -22.5t-24.5 -8.5h-180v-103h183q31 0 31 -32v-89q0 -14 -9.5 -22.5t-24.5 -8.5h-180v-147q0 -40 -35 -40h-211q-34 0 -34 40z" />
    <glyph glyph-name="brokenbar" unicode="&#xa6;" horiz-adv-x="530" 
d="M123 794v835q0 45 42 45h199q41 0 41 -45v-835q0 -44 -41 -44h-199q-42 0 -42 44zM123 -352v835q0 44 42 44h199q41 0 41 -44v-835q0 -45 -41 -45h-199q-42 0 -42 45z" />
    <glyph glyph-name="section" unicode="&#xa7;" horiz-adv-x="948" 
d="M471 598q61 0 104 32.5t43 91.5q0 50 -32.5 78t-91.5 45q-6 1 -17 1q-59 0 -108 -30.5t-49 -94.5q0 -40 36.5 -75t114.5 -48zM671 1171q-37 57 -87.5 84t-103.5 27q-62 0 -101.5 -33.5t-39.5 -91.5q0 -22 10.5 -40.5t24.5 -30.5t42.5 -25.5t48 -21t58.5 -20.5
q154 -50 227.5 -122t73.5 -177q0 -70 -37 -126.5t-94 -90.5q123 -86 123 -227q0 -97 -56 -169t-136 -105t-168 -33q-100 0 -200 52t-157 157q-15 30 5 42l101 75q12 7 19 7q15 0 27 -20q31 -57 83.5 -92.5t116.5 -35.5q61 0 105 29.5t44 90.5q0 59 -41.5 91t-120.5 53
q-168 45 -246 116.5t-78 181.5q0 74 36.5 134t95.5 92q-123 85 -123 227q0 86 51 155.5t131.5 105.5t172.5 36q117 0 200 -47.5t143 -143.5q21 -34 -4 -50l-102 -70q-8 -4 -13 -4q-16 0 -31 20z" />
    <glyph glyph-name="dieresis" unicode="&#xa8;" horiz-adv-x="780" 
d="M91 1281v135q0 51 48 51h138q44 0 44 -51v-135q0 -46 -44 -46h-137q-49 0 -49 46zM457 1281v135q0 51 48 51h138q45 0 45 -51v-135q0 -46 -45 -46h-137q-49 0 -49 46z" />
    <glyph glyph-name="copyright" unicode="&#xa9;" horiz-adv-x="1755" 
d="M270 704q0 -125 50 -238.5t134 -194.5t196.5 -128.5t233.5 -47.5q129 0 246 53t199.5 139.5t131 200.5t48.5 233q0 170 -87.5 311t-226.5 218t-295 77q-132 0 -251 -53t-201 -139.5t-130 -199.5t-48 -231zM1172 1083q36 -24 19 -51l-63 -111q-12 -19 -24 -19q-9 0 -21 6
q-76 44 -164 44q-106 0 -176 -72.5t-70 -171.5q0 -108 72 -175.5t176 -69.5q90 0 161 45q9 5 18 5q14 0 24 -15l63 -103q21 -32 -10 -54q-116 -84 -272 -84q-187 0 -318.5 132t-131.5 321q0 188 132.5 320t320.5 132q151 0 264 -79zM80 715q0 163 64 312t172 257.5
t258.5 172.5t315.5 64q163 0 312 -64t257.5 -172t172.5 -258.5t64 -315.5q0 -163 -64 -312t-172.5 -257t-258 -172t-314.5 -64q-164 0 -313 64t-257.5 172t-172.5 258t-64 315z" />
    <glyph glyph-name="ordfeminine" unicode="&#xaa;" horiz-adv-x="714" 
d="M244 1171v-136q0 -44 26 -73.5t66 -29.5q42 0 72 28t31 69v142q0 43 -29.5 72.5t-73.5 29.5q-40 0 -66 -29t-26 -73zM44 1040v125q0 123 78.5 207.5t194.5 84.5q88 0 147 -93l12 52q7 24 34 24h103q25 0 25 -25v-623q0 -25 -25 -25h-106q-23 0 -31 25l-11 51
q-59 -95 -147 -95q-116 0 -195 85t-79 207z" />
    <glyph glyph-name="guillemotleft" unicode="&#xab;" horiz-adv-x="1086" 
d="M518 568q0 8 11 21l359 390q7 9 19 9q10 0 17 -7l118 -108q8 -8 8.5 -20.5t-7.5 -21.5l-248 -263l249 -265q8 -9 7 -21t-9 -20l-118 -107q-6 -6 -16 -6q-12 0 -20 8l-359 390q-11 13 -11 21zM41 568q0 10 12 21l358 390q7 9 19 9q9 0 16 -7l119 -108q8 -8 9 -20.5
t-7 -21.5l-249 -263l249 -265q9 -10 8 -21.5t-10 -19.5l-118 -107q-7 -6 -16 -6q-12 0 -20 8l-359 390q-11 12 -11 21z" />
    <glyph glyph-name="logicalnot" unicode="&#xac;" horiz-adv-x="980" 
d="M699 566h-581q-16 0 -26 8t-11 22v109q-2 46 37 46h728q35 0 35 -38v-428q0 -15 -7.5 -26.5t-21.5 -11.5l-111 -1q-18 0 -30 11t-12 28v281z" />
    <glyph glyph-name="uni00AD" unicode="&#xad;" horiz-adv-x="928" 
d="M150 607v130q0 22 12 35t28 13h555q41 0 41 -45v-133q0 -20 -12.5 -31t-33.5 -11h-550q-15 0 -27.5 11t-12.5 31z" />
    <glyph glyph-name="registered" unicode="&#xae;" horiz-adv-x="1759" 
d="M277 710q0 -166 76.5 -305.5t212.5 -221t300 -81.5q165 0 306 81.5t223.5 221.5t82.5 305q0 133 -48.5 247t-131.5 192.5t-195 123t-237 44.5q-164 0 -300 -81.5t-212.5 -220.5t-76.5 -305zM925 981h-153v-224h153q50 0 83.5 32t33.5 79t-33.5 80t-83.5 33zM75 716
q0 164 64 313.5t171.5 257.5t256.5 171.5t313 63.5q165 0 314 -63.5t257 -171.5t171.5 -257.5t63.5 -313.5t-63.5 -313t-171.5 -257t-257 -171.5t-314 -63.5q-164 0 -313 63.5t-256.5 171.5t-171.5 257t-64 313zM1035 335l-133 262q-11 -1 -32 -1h-98v-258q0 -25 -25 -25
h-142q-21 0 -21 25v768q0 21 21 21h369q110 0 183.5 -80t73.5 -187q0 -73 -43.5 -137.5t-112.5 -98.5l140 -272q7 -10 2.5 -23.5t-22.5 -13.5h-125q-24 0 -35 20z" />
    <glyph glyph-name="macron" unicode="&#xaf;" horiz-adv-x="853" 
d="M71 1302v114q0 13 9 21.5t21 8.5h635q13 0 21 -8t8 -21v-115q0 -13 -9 -21t-21 -8h-635q-10 0 -19.5 7.5t-9.5 21.5z" />
    <glyph glyph-name="degree" unicode="&#xb0;" horiz-adv-x="797" 
d="M76 1039v90q0 129 94 220.5t227 91.5q134 0 228 -91t94 -221v-90q0 -130 -94.5 -221.5t-227.5 -91.5t-227 91.5t-94 221.5zM259 1121v-74q0 -60 40.5 -101.5t98.5 -41.5t98.5 41.5t40.5 101.5v74q0 60 -40 101t-99 41t-99 -41t-40 -101z" />
    <glyph glyph-name="plusminus" unicode="&#xb1;" horiz-adv-x="808" 
d="M322 1028h155q13 0 22 -9t9 -21v-196h199q13 0 20.5 -8t7.5 -22v-157q0 -12 -9 -20.5t-21 -8.5h-197v-200q0 -28 -30 -28h-157q-12 0 -20 9t-8 21v198h-199q-10 0 -19.5 7.5t-9.5 21.5v156q0 13 9 22t21 9h198v197q0 11 7.5 20t21.5 9zM65 48v156q0 13 9 22t21 9h612
q13 0 20.5 -8t7.5 -22v-157q0 -12 -9 -20.5t-21 -8.5h-611q-10 0 -19.5 7.5t-9.5 21.5z" />
    <glyph glyph-name="twosuperior" unicode="&#xb2;" horiz-adv-x="731" 
d="M243 1406l-134 1q-23 0 -20 26q4 108 75.5 190t197.5 82q116 0 197.5 -68.5t81.5 -185.5v-24q0 -105 -89 -203l-206 -226l274 7q31 0 31 -31v-119q0 -27 -29 -27h-510q-32 0 -32 24v84q0 23 7 30l313 356q57 60 57 107v13q0 39 -27.5 62.5t-66.5 23.5q-43 0 -65.5 -25
t-30.5 -76q-1 -21 -24 -21z" />
    <glyph glyph-name="threesuperior" unicode="&#xb3;" horiz-adv-x="700" 
d="M231 1427l-126 1q-23 0 -21 26q2 108 72 174t184 66q110 0 183 -64t73 -165q0 -63 -27 -108t-68 -60q67 -20 101.5 -82.5t34.5 -137.5q0 -115 -83.5 -188t-207.5 -73q-126 0 -203.5 67t-84.5 195q0 14 0.5 20.5t7.5 14.5t21 8h118q17 0 21.5 -8t5.5 -24q5 -57 35.5 -82
t68.5 -25q44 0 77 27t33 79v9q0 52 -33.5 81.5t-88.5 29.5q-28 0 -28 23v100q0 27 25 27q41 0 67.5 24t26.5 68q0 37 -22.5 58t-58.5 21q-32 0 -55.5 -20t-24.5 -55q-2 -27 -23 -27z" />
    <glyph glyph-name="acute" unicode="&#xb4;" horiz-adv-x="446" 
d="M398 1485l-103 -215q-11 -23 -21 -30t-29 -7h-141q-15 0 -25 12.5t-1 34.5l87 217q8 21 18.5 29t29.5 8h161q16 0 24.5 -15.5t-0.5 -33.5z" />
    <glyph glyph-name="mu" unicode="&#xb5;" horiz-adv-x="1246" 
d="M122 -328l-1 1503q0 39 38 39h206q37 0 37 -39v-698q0 -102 72.5 -170t160.5 -68q91 0 155.5 65.5t68.5 153.5v716q0 40 38 40h198q37 0 37 -40v-713q0 -116 -36.5 -209.5t-96.5 -151.5t-134.5 -89t-154.5 -31q-85 0 -165.5 38.5t-142.5 108.5v-455q0 -40 -37 -40h-206
q-37 0 -37 40z" />
    <glyph glyph-name="paragraph" unicode="&#xb6;" horiz-adv-x="1313" 
d="M450 1425h725q45 0 45 -34v-105q0 -40 -47 -40h-137v-1213q0 -33 -26 -33h-129q-28 0 -28 30v1216h-194v-1216q0 -30 -26 -30h-130q-11 0 -19 8t-8 22v585q-80 0 -151.5 25.5t-128.5 73.5t-90.5 126.5t-33.5 177.5q0 94 31 172t83.5 128.5t120.5 78.5t143 28z" />
    <glyph glyph-name="periodcentered" unicode="&#xb7;" horiz-adv-x="501" 
d="M132 473v191q0 17 9.5 26.5t23.5 9.5h210q19 0 26.5 -11.5t7.5 -24.5v-190q0 -18 -11 -26.5t-22 -8.5h-212q-10 0 -21 8t-11 26z" />
    <glyph glyph-name="cedilla" unicode="&#xb8;" horiz-adv-x="471" 
d="M110 -131q-21 20 -25.5 68t10.5 80q22 11 35 11l122 1q16 0 23.5 -6.5t4.5 -27.5q0 -4 -1.5 -18t-1.5 -21.5t5 -21t16 -25.5q20 -12 32 -19.5t29 -19.5t27.5 -22t23 -23t18.5 -26t11 -28.5t5 -33t-5 -36.5q-15 -71 -90.5 -134t-177.5 -87q-26 0 -55 64q-30 71 -10 76
q67 16 104.5 44t37.5 63q0 49 -56 80q-8 6 -25.5 17t-31.5 21.5t-25 23.5z" />
    <glyph glyph-name="onesuperior" unicode="&#xb9;" horiz-adv-x="398" 
d="M173 1684h128q21 0 21 -23v-807q0 -27 -27 -27h-138q-26 0 -26 26v656l-85 -38q-4 -2 -9 -2q-11 0 -11 13v116q-2 24 14 32l78 39q28 15 55 15z" />
    <glyph glyph-name="ordmasculine" unicode="&#xba;" horiz-adv-x="682" 
d="M44 1050v125q0 123 85.5 207.5t210.5 84.5q126 0 212 -84.5t86 -207.5v-125q0 -122 -86 -207t-211 -85t-211 85t-86 207zM244 1181v-136q0 -44 27 -73.5t70 -29.5q44 0 71 29t27 73v137q0 44 -27 73t-71 29q-43 0 -70 -29t-27 -73z" />
    <glyph glyph-name="guillemotright" unicode="&#xbb;" horiz-adv-x="1238" 
d="M682 575q0 -9 -11 -21l-358 -390q-8 -8 -20 -8q-10 0 -16 6l-119 107q-8 8 -9 20t7 21l248 266l-247 263q-8 8 -7.5 20.5t8.5 20.5l119 108q7 7 16 7q13 0 20 -9l358 -390q11 -11 11 -21zM1159 575q0 -8 -10 -21l-360 -390q-8 -8 -19 -8q-10 0 -16 6l-118 107
q-9 8 -10 20t8 21l248 266l-248 263q-8 8 -7.5 20.5t9.5 20.5l119 108q7 7 16 7q11 0 18 -9l359 -390q11 -11 11 -21z" />
    <glyph glyph-name="onequarter" unicode="&#xbc;" horiz-adv-x="964" 
d="M496 278l-148 -262h148v262zM493 -271v112h-313q-32 0 -32 32v85q0 14 6 27l317 559q11 21 34 21h148q25 0 25 -28v-524h67q11 0 18 -6.5t7 -17.5v-112q0 -35 -27 -35h-65v-113q0 -20 -18 -20h-146q-13 0 -17 4.5t-4 15.5zM13 617v155q0 14 9 22.5t21 8.5h778
q13 0 21.5 -8t8.5 -21v-157q0 -12 -9.5 -20.5t-21.5 -8.5h-778q-10 0 -19.5 7.5t-9.5 21.5zM424 1711h128q21 0 21 -23v-807q0 -27 -27 -27h-138q-26 0 -26 26v656l-85 -38q-4 -2 -9 -2q-11 0 -11 13v116q-2 24 14 32l78 39q28 15 55 15z" />
    <glyph glyph-name="onehalf" unicode="&#xbd;" horiz-adv-x="964" 
d="M424 1711h128q21 0 21 -23v-807q0 -27 -27 -27h-138q-26 0 -26 26v656l-85 -38q-4 -2 -9 -2q-11 0 -11 13v116q-2 24 14 32l78 39q28 15 55 15zM361 285l-134 1q-23 0 -20 26q4 108 75.5 190t197.5 82q116 0 197.5 -68.5t81.5 -185.5v-24q0 -105 -89 -203l-206 -226
l274 7q31 0 31 -31v-119q0 -27 -29 -27h-510q-32 0 -32 24v84q0 23 7 30l313 356q57 60 57 107v13q0 39 -27.5 62.5t-66.5 23.5q-43 0 -65.5 -25t-30.5 -76q-1 -21 -24 -21zM13 617v155q0 14 9 22.5t21 8.5h778q13 0 21.5 -8t8.5 -21v-157q0 -12 -9.5 -20.5t-21.5 -8.5h-778
q-10 0 -19.5 7.5t-9.5 21.5z" />
    <glyph glyph-name="threequarters" unicode="&#xbe;" horiz-adv-x="964" 
d="M500 276l-148 -262h148v262zM497 -273v112h-313q-32 0 -32 32v85q0 14 6 27l317 559q11 21 34 21h148q25 0 25 -28v-524h67q11 0 18 -6.5t7 -17.5v-112q0 -35 -27 -35h-65v-113q0 -20 -18 -20h-146q-13 0 -17 4.5t-4 15.5zM13 617v155q0 14 9 22.5t21 8.5h778
q13 0 21.5 -8t8.5 -21v-157q0 -12 -9.5 -20.5t-21.5 -8.5h-778q-10 0 -19.5 7.5t-9.5 21.5zM371 1457l-126 1q-23 0 -21 26q2 108 72 174t184 66q110 0 183 -64t73 -165q0 -63 -27 -108t-68 -60q67 -20 101.5 -82.5t34.5 -137.5q0 -115 -83.5 -188t-207.5 -73
q-126 0 -203.5 67t-84.5 195q0 14 0.5 20.5t7.5 14.5t21 8h118q17 0 21.5 -8t5.5 -24q5 -57 35.5 -82t68.5 -25q44 0 77 27t33 79v9q0 52 -33.5 81.5t-88.5 29.5q-28 0 -28 23v100q0 27 25 27q41 0 67.5 24t26.5 68q0 37 -22.5 58t-58.5 21q-32 0 -55.5 -20t-24.5 -55
q-2 -27 -23 -27z" />
    <glyph glyph-name="questiondown" unicode="&#xbf;" horiz-adv-x="1022" 
d="M385 625v104q0 26 9.5 37.5t32.5 12.5l173 1q21 0 27.5 -12.5t6.5 -37.5v-154q0 -74 -49 -136t-138 -128q-39 -29 -58 -45t-42.5 -43.5t-33 -60t-9.5 -75.5v-27q2 -68 58.5 -118.5t135.5 -50.5q83 0 138.5 58t55.5 128v35q0 28 8.5 37.5t31.5 9.5h182q33 0 33 -35v-38
q0 -193 -130 -315t-324 -122q-176 0 -309 120t-134 289v28q0 40 6 76t13.5 62.5t24 54t28 44t35 39t36 33t40.5 32.5t38 31q2 2 19 15t21 16t18 16t18.5 19.5t14 19.5t13 24t7 25.5t3.5 30.5zM648 1191v-191q0 -17 -10 -26.5t-23 -9.5h-210q-19 0 -26.5 11.5t-7.5 24.5v190
q0 18 11 26.5t22 8.5h212q10 0 21 -8t11 -26z" />
    <glyph glyph-name="Agrave" unicode="&#xc0;" horiz-adv-x="1287" 
d="M642 1152l-26 -142l-151 -499h355l-151 499zM804 1391l456 -1350q15 -41 -25 -41h-222q-37 0 -48 36l-65 214h-514l-65 -214q-10 -36 -47 -36h-223q-18 0 -25 10.5t0 30.5l457 1350q12 37 47 37h226q35 0 48 -37zM528 1580l-103 215q-9 18 -1 33.5t24 15.5h161
q20 0 30.5 -8t17.5 -29l88 -217q9 -22 -1 -34.5t-26 -12.5h-141q-19 0 -28.5 7t-20.5 30z" />
    <glyph glyph-name="Aacute" unicode="&#xc1;" horiz-adv-x="1287" 
d="M642 1152l-26 -142l-151 -499h355l-151 499zM804 1391l456 -1350q15 -41 -25 -41h-222q-37 0 -48 36l-65 214h-514l-65 -214q-10 -36 -47 -36h-223q-18 0 -25 10.5t0 30.5l457 1350q12 37 47 37h226q35 0 48 -37zM861 1827l-103 -215q-11 -23 -21 -30t-29 -7h-141
q-15 0 -25 12.5t-1 34.5l87 217q8 21 18.5 29t29.5 8h161q16 0 24.5 -15.5t-0.5 -33.5z" />
    <glyph glyph-name="Acircumflex" unicode="&#xc2;" horiz-adv-x="1287" 
d="M642 1152l-26 -142l-151 -499h355l-151 499zM804 1391l456 -1350q15 -41 -25 -41h-222q-37 0 -48 36l-65 214h-514l-65 -214q-10 -36 -47 -36h-223q-18 0 -25 10.5t0 30.5l457 1350q12 37 47 37h226q35 0 48 -37zM668 1877l227 -231q28 -28 -1 -54l-66 -64
q-11 -11 -24 -11q-14 0 -27 13l-136 140l-136 -140q-11 -13 -26 -13q-14 0 -25 11l-64 64q-30 25 -3 54l228 231q13 13 26 13q15 0 27 -13z" />
    <glyph glyph-name="Atilde" unicode="&#xc3;" horiz-adv-x="1287" 
d="M642 1152l-26 -142l-151 -499h355l-151 499zM804 1391l456 -1350q15 -41 -25 -41h-222q-37 0 -48 36l-65 214h-514l-65 -214q-10 -36 -47 -36h-223q-18 0 -25 10.5t0 30.5l457 1350q12 37 47 37h226q35 0 48 -37zM465 1581q-9 -10 -20 -10q-16 0 -39 23l-47 42
q-15 13 -18 23t0 16t17 27q73 108 182 108q37 0 80.5 -21.5t79.5 -43t56 -21.5q21 0 36 12t35 37q14 17 31 17q15 0 31 -14l60 -58q22 -20 3 -49q-75 -116 -192 -116q-39 0 -80.5 21.5t-76.5 42.5t-57 21q-12 0 -21.5 -3t-18.5 -10t-14 -12t-14 -16.5t-13 -15.5z" />
    <glyph glyph-name="Adieresis" unicode="&#xc4;" horiz-adv-x="1287" 
d="M642 1152l-26 -142l-151 -499h355l-151 499zM804 1391l456 -1350q15 -41 -25 -41h-222q-37 0 -48 36l-65 214h-514l-65 -214q-10 -36 -47 -36h-223q-18 0 -25 10.5t0 30.5l457 1350q12 37 47 37h226q35 0 48 -37zM340 1611v135q0 51 48 51h138q44 0 44 -51v-135
q0 -46 -44 -46h-137q-49 0 -49 46zM706 1611v135q0 51 48 51h138q45 0 45 -51v-135q0 -46 -45 -46h-137q-49 0 -49 46z" />
    <glyph glyph-name="Aring" unicode="&#xc5;" horiz-adv-x="1287" 
d="M642 1152l-26 -142l-151 -499h355l-151 499zM647 1776q-28 0 -46.5 -19t-18.5 -48q0 -30 18.5 -48t46.5 -18t47.5 18.5t19.5 47.5t-19.5 48t-47.5 19zM804 1391l456 -1350q15 -41 -25 -41h-222q-37 0 -48 36l-65 214h-514l-65 -214q-10 -36 -47 -36h-223q-18 0 -25 10.5
t0 30.5l457 1350q12 37 47 37h226q35 0 48 -37zM646 1891q77 0 131 -53.5t54 -129.5t-54 -129t-131 -53t-130.5 53t-53.5 129t53.5 129.5t130.5 53.5z" />
    <glyph glyph-name="AE" unicode="&#xc6;" horiz-adv-x="1930" 
d="M916 509v502l-304 -502h304zM916 39v227h-451l-140 -231q-12 -21 -21 -28t-25 -7h-230q-18 0 -23 14t6 30l865 1348q14 21 23 27.5t25 6.5h846q36 0 36 -38v-192q0 -37 -36 -37h-595v-306h463q41 0 41 -39v-189q0 -38 -41 -38h-463v-328h609q38 0 38 -36v-185
q0 -38 -38 -38h-851q-38 0 -38 39z" />
    <glyph glyph-name="Ccedilla" unicode="&#xc7;" horiz-adv-x="1225" 
d="M583 -124q-31 30 -26 103q-207 33 -337 179t-130 357v386q0 159 76 286t208 197.5t294 70.5q156 0 280.5 -72t199.5 -216q12 -24 10.5 -40t-14.5 -22l-156 -76q-12 -5 -22 -5q-20 0 -31 20q-83 152 -252 152q-133 0 -223 -86.5t-90 -220.5v-352q0 -135 89.5 -221.5
t223.5 -86.5q178 0 252 154q11 23 31 23q10 0 20 -5l149 -74q37 -18 11 -69q-64 -123 -166 -194t-230 -89q-2 -33 21 -59q20 -12 32 -19.5t29 -19.5t27.5 -22t23 -23t18.5 -26t11 -28.5t5 -33t-5 -36.5q-15 -71 -90 -134t-173 -86q-1 0 -2.5 -0.5t-2.5 -0.5q-26 0 -55 64
q-30 71 -10 76q67 16 104.5 44t37.5 63q0 49 -56 80q-8 6 -25.5 17t-31.5 21.5t-25 23.5z" />
    <glyph glyph-name="Egrave" unicode="&#xc8;" horiz-adv-x="1196" 
d="M173 39v1347q0 40 38 40h837q36 0 36 -38v-192q0 -37 -36 -37h-595v-306h463q41 0 41 -39v-189q0 -38 -41 -38h-463v-328h609q37 0 37 -36v-185q0 -38 -37 -38h-851q-38 0 -38 39zM540 1595l-103 215q-9 18 -1 33.5t24 15.5h161q20 0 30.5 -8t17.5 -29l88 -217
q9 -22 -1 -34.5t-26 -12.5h-141q-19 0 -28.5 7t-20.5 30z" />
    <glyph glyph-name="Eacute" unicode="&#xc9;" horiz-adv-x="1196" 
d="M173 39v1347q0 40 38 40h837q36 0 36 -38v-192q0 -37 -36 -37h-595v-306h463q41 0 41 -39v-189q0 -38 -41 -38h-463v-328h609q37 0 37 -36v-185q0 -38 -37 -38h-851q-38 0 -38 39zM864 1820l-103 -215q-11 -23 -21 -30t-29 -7h-141q-15 0 -25 12.5t-1 34.5l87 217
q8 21 18.5 29t29.5 8h161q16 0 24.5 -15.5t-0.5 -33.5z" />
    <glyph glyph-name="Ecircumflex" unicode="&#xca;" horiz-adv-x="1196" 
d="M173 39v1347q0 40 38 40h837q36 0 36 -38v-192q0 -37 -36 -37h-595v-306h463q41 0 41 -39v-189q0 -38 -41 -38h-463v-328h609q37 0 37 -36v-185q0 -38 -37 -38h-851q-38 0 -38 39zM673 1945l227 -231q28 -28 -1 -54l-66 -64q-11 -11 -24 -11q-14 0 -27 13l-136 140
l-136 -140q-11 -13 -26 -13q-14 0 -25 11l-64 64q-30 25 -3 54l228 231q13 13 26 13q15 0 27 -13z" />
    <glyph glyph-name="Edieresis" unicode="&#xcb;" horiz-adv-x="1196" 
d="M173 39v1347q0 40 38 40h837q36 0 36 -38v-192q0 -37 -36 -37h-595v-306h463q41 0 41 -39v-189q0 -38 -41 -38h-463v-328h609q37 0 37 -36v-185q0 -38 -37 -38h-851q-38 0 -38 39zM338 1633v135q0 51 48 51h138q44 0 44 -51v-135q0 -46 -44 -46h-137q-49 0 -49 46z
M704 1633v135q0 51 48 51h138q45 0 45 -51v-135q0 -46 -45 -46h-137q-49 0 -49 46z" />
    <glyph glyph-name="Igrave" unicode="&#xcc;" horiz-adv-x="626" 
d="M173 39v1347q0 40 38 40h210q32 0 32 -40v-1347q0 -39 -32 -39h-210q-38 0 -38 39zM199 1600l-103 215q-9 18 -1 33.5t24 15.5h161q20 0 30.5 -8t17.5 -29l88 -217q9 -22 -1 -34.5t-26 -12.5h-141q-19 0 -28.5 7t-20.5 30z" />
    <glyph glyph-name="Iacute" unicode="&#xcd;" horiz-adv-x="626" 
d="M173 39v1347q0 40 38 40h210q32 0 32 -40v-1347q0 -39 -32 -39h-210q-38 0 -38 39zM541 1811l-103 -215q-11 -23 -21 -30t-29 -7h-141q-15 0 -25 12.5t-1 34.5l87 217q8 21 18.5 29t29.5 8h161q16 0 24.5 -15.5t-0.5 -33.5z" />
    <glyph glyph-name="Icircumflex" unicode="&#xce;" horiz-adv-x="626" 
d="M173 39v1347q0 40 38 40h210q32 0 32 -40v-1347q0 -39 -32 -39h-210q-38 0 -38 39zM344 1891l227 -231q28 -28 -1 -54l-66 -64q-11 -11 -24 -11q-14 0 -27 13l-136 140l-136 -140q-11 -13 -26 -13q-14 0 -25 11l-64 64q-30 25 -3 54l228 231q13 13 26 13q15 0 27 -13z
" />
    <glyph glyph-name="Idieresis" unicode="&#xcf;" horiz-adv-x="626" 
d="M173 39v1347q0 40 38 40h210q32 0 32 -40v-1347q0 -39 -32 -39h-210q-38 0 -38 39zM21 1616v135q0 51 48 51h138q44 0 44 -51v-135q0 -46 -44 -46h-137q-49 0 -49 46zM387 1616v135q0 51 48 51h138q45 0 45 -51v-135q0 -46 -45 -46h-137q-49 0 -49 46z" />
    <glyph glyph-name="Eth" unicode="&#xd0;" horiz-adv-x="1392" 
d="M594 622h-116v-356h225q144 2 231.5 90t87.5 233v247q0 146 -86 233.5t-230 89.5h-228v-357h118q12 0 20 -8t8 -21v-123q0 -12 -9 -20t-21 -8zM202 39v583h-149q-10 0 -19 7.5t-9 21.5v120q0 14 9 22.5t21 8.5h147v584q0 40 38 40h475q256 -2 421 -165t166 -418v-263
q0 -169 -77 -301.5t-213 -205.5t-306 -73h-466q-38 0 -38 39z" />
    <glyph glyph-name="Ntilde" unicode="&#xd1;" horiz-adv-x="1462" 
d="M173 39v1347q0 40 38 40h211q25 0 33 -5.5t21 -30.5l485 -762l59 -120l-10 120v758q0 17 9.5 28.5t27.5 11.5h206q36 0 36 -38v-1349q0 -39 -40 -39h-175q-35 0 -55 35l-525 813l-53 100l12 -100v-809q0 -39 -37 -39h-205q-38 0 -38 39zM576 1586q-9 -10 -20 -10
q-16 0 -39 23l-47 42q-15 13 -18 23t0 16t17 27q73 108 182 108q37 0 80.5 -21.5t79.5 -43t56 -21.5q21 0 36 12t35 37q14 17 31 17q15 0 31 -14l60 -58q22 -20 3 -49q-75 -116 -192 -116q-39 0 -80.5 21t-76.5 42.5t-57 21.5q-12 0 -21.5 -3t-18.5 -10t-14 -12t-14 -16.5
t-13 -15.5z" />
    <glyph glyph-name="Ograve" unicode="&#xd2;" horiz-adv-x="1351" 
d="M370 890v-354q0 -134 86.5 -221t219.5 -87t219.5 87t86.5 220v355q0 133 -86.5 220t-219.5 87t-219.5 -87t-86.5 -220zM90 515v393q0 158 77.5 284t211 194.5t296.5 68.5t296.5 -68.5t211.5 -194.5t78 -284v-393q0 -158 -78 -283t-211 -193.5t-296 -68.5t-297 68.5
t-211.5 193.5t-77.5 283zM561 1616l-103 215q-9 18 -1 33.5t24 15.5h161q20 0 30.5 -8t17.5 -29l88 -217q9 -22 -1 -34.5t-26 -12.5h-141q-19 0 -28.5 7t-20.5 30z" />
    <glyph glyph-name="Oacute" unicode="&#xd3;" horiz-adv-x="1351" 
d="M370 890v-354q0 -134 86.5 -221t219.5 -87t219.5 87t86.5 220v355q0 133 -86.5 220t-219.5 87t-219.5 -87t-86.5 -220zM90 515v393q0 158 77.5 284t211 194.5t296.5 68.5t296.5 -68.5t211.5 -194.5t78 -284v-393q0 -158 -78 -283t-211 -193.5t-296 -68.5t-297 68.5
t-211.5 193.5t-77.5 283zM912 1814l-103 -215q-11 -23 -21 -30t-29 -7h-141q-15 0 -25 12.5t-1 34.5l87 217q8 21 18.5 29t29.5 8h161q16 0 24.5 -15.5t-0.5 -33.5z" />
    <glyph glyph-name="Ocircumflex" unicode="&#xd4;" horiz-adv-x="1351" 
d="M370 890v-354q0 -134 86.5 -221t219.5 -87t219.5 87t86.5 220v355q0 133 -86.5 220t-219.5 87t-219.5 -87t-86.5 -220zM90 515v393q0 158 77.5 284t211 194.5t296.5 68.5t296.5 -68.5t211.5 -194.5t78 -284v-393q0 -158 -78 -283t-211 -193.5t-296 -68.5t-297 68.5
t-211.5 193.5t-77.5 283zM717 1915l227 -231q28 -28 -1 -54l-66 -64q-11 -11 -24 -11q-14 0 -27 13l-136 140l-136 -140q-11 -13 -26 -13q-14 0 -25 11l-64 64q-30 25 -3 54l228 231q13 13 26 13q15 0 27 -13z" />
    <glyph glyph-name="Otilde" unicode="&#xd5;" horiz-adv-x="1351" 
d="M370 890v-354q0 -134 86.5 -221t219.5 -87t219.5 87t86.5 220v355q0 133 -86.5 220t-219.5 87t-219.5 -87t-86.5 -220zM90 515v393q0 158 77.5 284t211 194.5t296.5 68.5t296.5 -68.5t211.5 -194.5t78 -284v-393q0 -158 -78 -283t-211 -193.5t-296 -68.5t-297 68.5
t-211.5 193.5t-77.5 283zM511 1592q-9 -10 -20 -10q-16 0 -39 23l-47 42q-15 13 -18 23t0 16t17 27q73 108 182 108q37 0 80.5 -21.5t79.5 -43t56 -21.5q21 0 36 12t35 37q14 17 31 17q15 0 31 -14l60 -58q22 -20 3 -49q-75 -116 -192 -116q-39 0 -80.5 21t-76.5 42.5
t-57 21.5q-12 0 -21.5 -3t-18.5 -10t-14 -12t-14 -16.5t-13 -15.5z" />
    <glyph glyph-name="Odieresis" unicode="&#xd6;" horiz-adv-x="1351" 
d="M370 890v-354q0 -134 86.5 -221t219.5 -87t219.5 87t86.5 220v355q0 133 -86.5 220t-219.5 87t-219.5 -87t-86.5 -220zM90 515v393q0 158 77.5 284t211 194.5t296.5 68.5t296.5 -68.5t211.5 -194.5t78 -284v-393q0 -158 -78 -283t-211 -193.5t-296 -68.5t-297 68.5
t-211.5 193.5t-77.5 283zM391 1629v135q0 51 48 51h138q44 0 44 -51v-135q0 -46 -44 -46h-137q-49 0 -49 46zM757 1629v135q0 51 48 51h138q45 0 45 -51v-135q0 -46 -45 -46h-137q-49 0 -49 46z" />
    <glyph glyph-name="multiply" unicode="&#xd7;" horiz-adv-x="787" 
d="M586 975l110 -111q9 -12 7 -23t-10 -20l-149 -151l150 -151q21 -21 2 -42l-111 -113q-7 -9 -19 -9q-10 0 -19 9l-153 155l-153 -155q-9 -9 -19 -9t-19 9l-111 113q-19 20 3 42l149 151l-149 151q-7 8 -9 19t6 23l110 112q9 9 20 9t20 -9l152 -154l152 154q9 9 20 9t20 -9
z" />
    <glyph glyph-name="Oslash" unicode="&#xd8;" horiz-adv-x="1351" 
d="M370 889v-352q0 -134 86.5 -221t219.5 -87t219.5 87t86.5 220v353q0 132 -87 219.5t-219 87.5q-133 0 -219.5 -87t-86.5 -220zM90 515v393q0 158 77.5 284t211 194.5t296.5 68.5q76 0 152 -17l24 64q18 40 55 40h231q20 0 27 -11.5t-2 -33.5l-77 -189q84 -74 130 -176.5
t46 -223.5v-393q0 -158 -78 -283t-211 -193.5t-296 -68.5q-51 0 -105 8l-28 -76q-14 -39 -55 -39h-231q-43 0 -24 45l71 177q-101 74 -157.5 184.5t-56.5 245.5z" />
    <glyph glyph-name="Ugrave" unicode="&#xd9;" horiz-adv-x="1408" 
d="M428 1386v-871q0 -131 77.5 -209t201.5 -78t199 80t75 207v871q0 17 10 28.5t27 11.5h199q19 0 31.5 -12t12.5 -28v-875q0 -129 -44.5 -233t-121.5 -170.5t-176.5 -102t-211.5 -35.5q-89 0 -171.5 22.5t-153.5 68t-123 109.5t-82 152t-30 191v873q0 16 11 28t26 12h208
q36 0 36 -40zM600 1586l-103 215q-9 18 -1 33.5t24 15.5h161q20 0 30.5 -8t17.5 -29l88 -217q9 -22 -1 -34.5t-26 -12.5h-141q-19 0 -28.5 7t-20.5 30z" />
    <glyph glyph-name="Uacute" unicode="&#xda;" horiz-adv-x="1408" 
d="M428 1386v-871q0 -131 77.5 -209t201.5 -78t199 80t75 207v871q0 17 10 28.5t27 11.5h199q19 0 31.5 -12t12.5 -28v-875q0 -129 -44.5 -233t-121.5 -170.5t-176.5 -102t-211.5 -35.5q-89 0 -171.5 22.5t-153.5 68t-123 109.5t-82 152t-30 191v873q0 16 11 28t26 12h208
q36 0 36 -40zM925 1805l-103 -215q-11 -23 -21 -30t-29 -7h-141q-15 0 -25 12.5t-1 34.5l87 217q8 21 18.5 29t29.5 8h161q16 0 24.5 -15.5t-0.5 -33.5z" />
    <glyph glyph-name="Ucircumflex" unicode="&#xdb;" horiz-adv-x="1408" 
d="M428 1386v-871q0 -131 77.5 -209t201.5 -78t199 80t75 207v871q0 17 10 28.5t27 11.5h199q19 0 31.5 -12t12.5 -28v-875q0 -129 -44.5 -233t-121.5 -170.5t-176.5 -102t-211.5 -35.5q-89 0 -171.5 22.5t-153.5 68t-123 109.5t-82 152t-30 191v873q0 16 11 28t26 12h208
q36 0 36 -40zM730 1874l227 -231q28 -28 -1 -54l-66 -64q-11 -11 -24 -11q-14 0 -27 13l-136 140l-136 -140q-11 -13 -26 -13q-14 0 -25 11l-64 64q-30 25 -3 54l228 231q13 13 26 13q15 0 27 -13z" />
    <glyph glyph-name="Udieresis" unicode="&#xdc;" horiz-adv-x="1408" 
d="M428 1386v-871q0 -131 77.5 -209t201.5 -78t199 80t75 207v871q0 17 10 28.5t27 11.5h199q19 0 31.5 -12t12.5 -28v-875q0 -129 -44.5 -233t-121.5 -170.5t-176.5 -102t-211.5 -35.5q-89 0 -171.5 22.5t-153.5 68t-123 109.5t-82 152t-30 191v873q0 16 11 28t26 12h208
q36 0 36 -40zM408 1621v135q0 51 48 51h138q44 0 44 -51v-135q0 -46 -44 -46h-137q-49 0 -49 46zM774 1621v135q0 51 48 51h138q45 0 45 -51v-135q0 -46 -45 -46h-137q-49 0 -49 46z" />
    <glyph glyph-name="Yacute" unicode="&#xdd;" horiz-adv-x="1123" 
d="M421 40v520l-406 823q-9 19 -2 31t25 12h240q32 0 46 -36l211 -478l26 -112l27 112l209 477q14 36 46 36h242q18 0 25 -11.5t-2 -29.5l-407 -827v-517q0 -40 -35 -40h-211q-34 0 -34 40zM804 1784l-103 -215q-11 -23 -21 -30t-29 -7h-141q-15 0 -25 12.5t-1 34.5l87 217
q8 21 18.5 29t29.5 8h161q16 0 24.5 -15.5t-0.5 -33.5z" />
    <glyph glyph-name="Thorn" unicode="&#xde;" horiz-adv-x="1187" 
d="M663 945h-209v-454h210q79 0 131 53t52 129v84q0 78 -52 133t-132 55zM174 39v1347q0 40 37 40h206q37 0 37 -40v-199h250q120 0 219 -60t153.5 -158.5t54.5 -212.5v-82q0 -112 -54.5 -209t-152.5 -155.5t-217 -59.5h-253v-211q0 -39 -37 -39h-206q-37 0 -37 39z" />
    <glyph glyph-name="germandbls" unicode="&#xdf;" horiz-adv-x="1195" 
d="M625 -26q-41 2 -40 45v152q1 24 12 38.5t42 14.5q10 -2 31 -2q78 0 128 56t50 135v106q0 85 -52.5 138t-135.5 53q-17 0 -28.5 10.5t-11.5 28.5v146q0 43 43 43q123 0 123 148v105q0 82 -53.5 124.5t-128.5 42.5q-82 0 -125.5 -61.5t-43.5 -164.5v-1088q0 -44 -35 -44
h-202q-19 0 -28 7t-10 14.5t-1 25.5v1124q0 108 34.5 191t96 133.5t142.5 76t178 25.5q110 0 207.5 -46.5t160.5 -138.5t63 -210v-93q0 -80 -34 -148t-90 -110q103 -50 156 -129.5t53 -201.5v-105q0 -210 -116 -326.5t-324 -116.5q-17 0 -61 2z" />
    <glyph glyph-name="agrave" unicode="&#xe0;" horiz-adv-x="1298" 
d="M361 740v-258q0 -113 71 -188t177 -75q108 0 183.5 71.5t79.5 179.5v281q-4 109 -79.5 181t-183.5 72q-106 0 -177 -75.5t-71 -188.5zM91 487v245q0 144 65 263.5t178.5 188t251.5 68.5q99 0 178.5 -54t134.5 -146l21 132q8 41 51 41h130q40 0 40 -41v-1143
q0 -41 -39 -41h-135q-18 0 -31 11t-16 30l-19 133q-55 -94 -135 -149t-180 -55q-138 0 -251.5 68t-178.5 187t-65 262zM491 1408l-103 215q-9 18 -1 33.5t24 15.5h161q20 0 30.5 -8t17.5 -29l88 -217q9 -22 -1 -34.5t-26 -12.5h-141q-19 0 -28.5 7t-20.5 30z" />
    <glyph glyph-name="aacute" unicode="&#xe1;" horiz-adv-x="1298" 
d="M361 740v-258q0 -113 71 -188t177 -75q108 0 183.5 71.5t79.5 179.5v281q-4 109 -79.5 181t-183.5 72q-106 0 -177 -75.5t-71 -188.5zM91 487v245q0 144 65 263.5t178.5 188t251.5 68.5q99 0 178.5 -54t134.5 -146l21 132q8 41 51 41h130q40 0 40 -41v-1143
q0 -41 -39 -41h-135q-18 0 -31 11t-16 30l-19 133q-55 -94 -135 -149t-180 -55q-138 0 -251.5 68t-178.5 187t-65 262zM873 1627l-103 -215q-11 -23 -21 -30t-29 -7h-141q-15 0 -25 12.5t-1 34.5l87 217q8 21 18.5 29t29.5 8h161q16 0 24.5 -15.5t-0.5 -33.5z" />
    <glyph glyph-name="acircumflex" unicode="&#xe2;" horiz-adv-x="1298" 
d="M361 740v-258q0 -113 71 -188t177 -75q108 0 183.5 71.5t79.5 179.5v281q-4 109 -79.5 181t-183.5 72q-106 0 -177 -75.5t-71 -188.5zM91 487v245q0 144 65 263.5t178.5 188t251.5 68.5q99 0 178.5 -54t134.5 -146l21 132q8 41 51 41h130q40 0 40 -41v-1143
q0 -41 -39 -41h-135q-18 0 -31 11t-16 30l-19 133q-55 -94 -135 -149t-180 -55q-138 0 -251.5 68t-178.5 187t-65 262zM648 1715l227 -231q28 -28 -1 -54l-66 -64q-11 -11 -24 -11q-14 0 -27 13l-136 140l-136 -140q-11 -13 -26 -13q-14 0 -25 11l-64 64q-30 25 -3 54
l228 231q13 13 26 13q15 0 27 -13z" />
    <glyph glyph-name="atilde" unicode="&#xe3;" horiz-adv-x="1298" 
d="M361 740v-258q0 -113 71 -188t177 -75q108 0 183.5 71.5t79.5 179.5v281q-4 109 -79.5 181t-183.5 72q-106 0 -177 -75.5t-71 -188.5zM91 487v245q0 144 65 263.5t178.5 188t251.5 68.5q99 0 178.5 -54t134.5 -146l21 132q8 41 51 41h130q40 0 40 -41v-1143
q0 -41 -39 -41h-135q-18 0 -31 11t-16 30l-19 133q-55 -94 -135 -149t-180 -55q-138 0 -251.5 68t-178.5 187t-65 262zM433 1415q-9 -10 -20 -10q-16 0 -39 23l-47 42q-15 13 -18 23t0 16t17 27q73 108 182 108q37 0 80.5 -21.5t79.5 -43t56 -21.5q21 0 36 12t35 37
q14 17 31 17q15 0 31 -14l60 -58q22 -20 3 -49q-75 -116 -192 -116q-39 0 -80.5 21.5t-76.5 42.5t-57 21q-12 0 -21.5 -3t-18.5 -10t-14 -12t-14 -16.5t-13 -15.5z" />
    <glyph glyph-name="adieresis" unicode="&#xe4;" horiz-adv-x="1298" 
d="M361 740v-258q0 -113 71 -188t177 -75q108 0 183.5 71.5t79.5 179.5v281q-4 109 -79.5 181t-183.5 72q-106 0 -177 -75.5t-71 -188.5zM91 487v245q0 144 65 263.5t178.5 188t251.5 68.5q99 0 178.5 -54t134.5 -146l21 132q8 41 51 41h130q40 0 40 -41v-1143
q0 -41 -39 -41h-135q-18 0 -31 11t-16 30l-19 133q-55 -94 -135 -149t-180 -55q-138 0 -251.5 68t-178.5 187t-65 262zM318 1447v135q0 51 48 51h138q44 0 44 -51v-135q0 -46 -44 -46h-137q-49 0 -49 46zM684 1447v135q0 51 48 51h138q45 0 45 -51v-135q0 -46 -45 -46h-137
q-49 0 -49 46z" />
    <glyph glyph-name="aring" unicode="&#xe5;" horiz-adv-x="1298" 
d="M361 740v-258q0 -113 71 -188t177 -75q108 0 183.5 71.5t79.5 179.5v281q-4 109 -79.5 181t-183.5 72q-106 0 -177 -75.5t-71 -188.5zM611 1605q-28 0 -46.5 -19t-18.5 -48q0 -30 18.5 -48t46.5 -18t47.5 18.5t19.5 47.5t-19.5 48t-47.5 19zM91 487v245q0 144 65 263.5
t178.5 188t251.5 68.5q99 0 178.5 -54t134.5 -146l21 132q8 41 51 41h130q40 0 40 -41v-1143q0 -41 -39 -41h-135q-18 0 -31 11t-16 30l-19 133q-55 -94 -135 -149t-180 -55q-138 0 -251.5 68t-178.5 187t-65 262zM610 1720q77 0 131 -53.5t54 -129.5t-54 -129t-131 -53
t-130.5 53t-53.5 129t53.5 129.5t130.5 53.5z" />
    <glyph glyph-name="ae" unicode="&#xe6;" horiz-adv-x="1953" 
d="M872 481v270q-4 109 -79.5 181t-183.5 72q-106 0 -177 -75.5t-71 -188.5v-258q0 -113 71 -188t177 -75q111 0 187 75.5t76 186.5zM1142 736v-9h490v6q0 49 -12 94t-37 86t-71.5 66t-109.5 25q-81 0 -142 -39.5t-89.5 -99.5t-28.5 -129zM91 487v245q0 144 65 263.5
t178.5 188t251.5 68.5q99 0 178.5 -54t134.5 -146l21 132q8 41 51 41h130q37 0 40 -37q122 64 267 64q65 0 130 -19t128 -61.5t111.5 -105t78 -157t29.5 -208.5v-98q0 -45 -21 -62t-67 -17h-655v-31q0 -124 73.5 -199t187.5 -75q124 0 194 102q12 16 26 16q9 0 14 -4
l172 -90q20 -15 0 -47q-62 -100 -166.5 -163t-234.5 -63q-145 0 -267 64q-5 -34 -39 -34h-135q-18 0 -31 11t-16 30l-19 133q-55 -94 -135 -149t-180 -55q-138 0 -251.5 68t-178.5 187t-65 262z" />
    <glyph glyph-name="ccedilla" unicode="&#xe7;" horiz-adv-x="1099" 
d="M519 -122q-15 14 -21.5 43.5t-3.5 61.5q-178 39 -290.5 179t-112.5 329v237q0 224 151 374t376 150q126 0 235 -69t162 -174q19 -36 0 -47l-165 -81q-5 -4 -15 -4q-15 0 -25 17q-30 48 -83 79t-112 31q-113 0 -183.5 -77t-70.5 -201v-230q0 -127 71.5 -202t182.5 -75
q59 0 110 29.5t85 80.5q12 16 26 16q8 0 15 -4l164 -82q17 -16 1 -46q-45 -90 -133.5 -154.5t-196.5 -82.5q-2 -33 21 -58q20 -12 32 -19.5t29 -19.5t27.5 -22t23 -23t18.5 -26t11 -28.5t5 -33t-5 -36.5q-15 -71 -90 -134t-173 -86q-1 0 -2.5 -0.5t-2.5 -0.5q-26 0 -55 64
q-30 71 -10 76q67 16 104.5 44t37.5 63q0 49 -56 80q-8 6 -25.5 17t-31.5 21.5t-25 23.5z" />
    <glyph glyph-name="egrave" unicode="&#xe8;" horiz-adv-x="1195" 
d="M361 736v-9h491v6q0 49 -12 94t-37 86t-71.5 66t-109.5 25q-61 0 -112 -22.5t-82.5 -61t-49 -86t-17.5 -98.5zM91 489v239q0 227 153.5 375.5t383.5 148.5q65 0 130 -19t128 -61.5t111.5 -105t78 -157t29.5 -208.5v-98q0 -45 -21 -62t-67 -17h-656v-31q0 -124 74 -199
t187 -75q123 0 195 102q12 16 26 16q8 0 13 -4l172 -90q20 -15 1 -47q-62 -100 -166.5 -163t-234.5 -63q-229 0 -383 147.5t-154 371.5zM496 1399l-103 215q-9 18 -1 33.5t24 15.5h161q20 0 30.5 -8t17.5 -29l88 -217q9 -22 -1 -34.5t-26 -12.5h-141q-19 0 -28.5 7t-20.5 30
z" />
    <glyph glyph-name="eacute" unicode="&#xe9;" horiz-adv-x="1195" 
d="M361 736v-9h491v6q0 49 -12 94t-37 86t-71.5 66t-109.5 25q-61 0 -112 -22.5t-82.5 -61t-49 -86t-17.5 -98.5zM91 489v239q0 227 153.5 375.5t383.5 148.5q65 0 130 -19t128 -61.5t111.5 -105t78 -157t29.5 -208.5v-98q0 -45 -21 -62t-67 -17h-656v-31q0 -124 74 -199
t187 -75q123 0 195 102q12 16 26 16q8 0 13 -4l172 -90q20 -15 1 -47q-62 -100 -166.5 -163t-234.5 -63q-229 0 -383 147.5t-154 371.5zM879 1607l-103 -215q-11 -23 -21 -30t-29 -7h-141q-15 0 -25 12.5t-1 34.5l87 217q8 21 18.5 29t29.5 8h161q16 0 24.5 -15.5
t-0.5 -33.5z" />
    <glyph glyph-name="ecircumflex" unicode="&#xea;" horiz-adv-x="1195" 
d="M361 736v-9h491v6q0 49 -12 94t-37 86t-71.5 66t-109.5 25q-61 0 -112 -22.5t-82.5 -61t-49 -86t-17.5 -98.5zM91 489v239q0 227 153.5 375.5t383.5 148.5q65 0 130 -19t128 -61.5t111.5 -105t78 -157t29.5 -208.5v-98q0 -45 -21 -62t-67 -17h-656v-31q0 -124 74 -199
t187 -75q123 0 195 102q12 16 26 16q8 0 13 -4l172 -90q20 -15 1 -47q-62 -100 -166.5 -163t-234.5 -63q-229 0 -383 147.5t-154 371.5zM664 1702l227 -231q28 -28 -1 -54l-66 -64q-11 -11 -24 -11q-14 0 -27 13l-136 140l-136 -140q-11 -13 -26 -13q-14 0 -25 11l-64 64
q-30 25 -3 54l228 231q13 13 26 13q15 0 27 -13z" />
    <glyph glyph-name="edieresis" unicode="&#xeb;" horiz-adv-x="1195" 
d="M361 736v-9h491v6q0 49 -12 94t-37 86t-71.5 66t-109.5 25q-61 0 -112 -22.5t-82.5 -61t-49 -86t-17.5 -98.5zM91 489v239q0 227 153.5 375.5t383.5 148.5q65 0 130 -19t128 -61.5t111.5 -105t78 -157t29.5 -208.5v-98q0 -45 -21 -62t-67 -17h-656v-31q0 -124 74 -199
t187 -75q123 0 195 102q12 16 26 16q8 0 13 -4l172 -90q20 -15 1 -47q-62 -100 -166.5 -163t-234.5 -63q-229 0 -383 147.5t-154 371.5zM346 1422v135q0 51 48 51h138q44 0 44 -51v-135q0 -46 -44 -46h-137q-49 0 -49 46zM712 1422v135q0 51 48 51h138q45 0 45 -51v-135
q0 -46 -45 -46h-137q-49 0 -49 46z" />
    <glyph glyph-name="igrave" unicode="&#xec;" horiz-adv-x="593" 
d="M157 39v1148q0 17 11 27.5t27 10.5h204q16 0 26.5 -11t10.5 -28v-1147q0 -39 -37 -39h-204q-38 0 -38 39zM183 1389l-103 215q-9 18 -1 33.5t24 15.5h161q20 0 30.5 -8t17.5 -29l88 -217q9 -22 -1 -34.5t-26 -12.5h-141q-19 0 -28.5 7t-20.5 30z" />
    <glyph glyph-name="iacute" unicode="&#xed;" horiz-adv-x="593" 
d="M157 39v1148q0 17 11 27.5t27 10.5h204q16 0 26.5 -11t10.5 -28v-1147q0 -39 -37 -39h-204q-38 0 -38 39zM517 1599l-103 -215q-11 -23 -21 -30t-29 -7h-141q-15 0 -25 12.5t-1 34.5l87 217q8 21 18.5 29t29.5 8h161q16 0 24.5 -15.5t-0.5 -33.5z" />
    <glyph glyph-name="icircumflex" unicode="&#xee;" horiz-adv-x="593" 
d="M157 39v1148q0 17 11 27.5t27 10.5h204q16 0 26.5 -11t10.5 -28v-1147q0 -39 -37 -39h-204q-38 0 -38 39zM324 1693l227 -231q28 -28 -1 -54l-66 -64q-11 -11 -24 -11q-14 0 -27 13l-136 140l-136 -140q-11 -13 -26 -13q-14 0 -25 11l-64 64q-30 25 -3 54l228 231
q13 13 26 13q15 0 27 -13z" />
    <glyph glyph-name="idieresis" unicode="&#xef;" horiz-adv-x="593" 
d="M157 39v1148q0 17 11 27.5t27 10.5h204q16 0 26.5 -11t10.5 -28v-1147q0 -39 -37 -39h-204q-38 0 -38 39zM-3 1409v135q0 51 48 51h138q44 0 44 -51v-135q0 -46 -44 -46h-137q-49 0 -49 46zM363 1409v135q0 51 48 51h138q45 0 45 -51v-135q0 -46 -45 -46h-137
q-49 0 -49 46z" />
    <glyph glyph-name="eth" unicode="&#xf0;" 
d="M361 703v-221q0 -114 72 -188.5t183 -74.5t183.5 75t72.5 187v222q0 114 -72.5 189t-183.5 75t-183 -75t-72 -189zM514 1286l-26 78q-6 16 0 30t18 17l77 27l-49 94q-12 20 -4 36t31 16h200q30 0 42 -30l15 -34l90 31q13 5 22 5q16 0 27 -15l27 -83q13 -39 -13 -49
l-89 -30l200 -442q58 -113 58 -242v-208q0 -218 -152 -367.5t-373 -149.5t-372.5 149.5t-151.5 367.5v208q0 144 69 263.5t189 188t265 68.5q49 0 90 -7l-49 93l-90 -30q-7 -3 -18 -3q-25 0 -33 18z" />
    <glyph glyph-name="ntilde" unicode="&#xf1;" horiz-adv-x="1346" 
d="M920 40v710q0 103 -70 178.5t-165 75.5t-170 -69t-79 -169v-725q0 -19 -16.5 -30t-36.5 -11h-187q-39 0 -39 41v1143q0 41 39 41h139q45 0 55 -48l20 -120q111 195 339 195q61 0 124 -21t121.5 -63t104 -100t73 -139t27.5 -172v-717q0 -40 -37 -40h-204q-38 0 -38 40z
M524 1404q-9 -10 -20 -10q-16 0 -39 23l-47 42q-15 13 -18 23t0 16t17 27q73 108 182 108q37 0 80.5 -21.5t79.5 -43t56 -21.5q21 0 36 12t35 37q14 17 31 17q15 0 31 -14l60 -58q22 -20 3 -49q-75 -116 -192 -116q-39 0 -80.5 21t-76.5 42.5t-57 21.5q-12 0 -21.5 -3
t-18.5 -10t-14 -12t-14 -16.5t-13 -15.5z" />
    <glyph glyph-name="ograve" unicode="&#xf2;" 
d="M361 740v-258q0 -114 72 -188.5t183 -74.5t183.5 75t72.5 187v259q0 114 -72.5 189t-183.5 75t-183 -75t-72 -189zM91 487v245q0 144 69 263.5t189 188t265 68.5q146 0 266.5 -68.5t190 -188t69.5 -263.5v-245q0 -218 -152 -367.5t-373 -149.5t-372.5 149.5t-151.5 367.5
zM496 1406l-103 215q-9 18 -1 33.5t24 15.5h161q20 0 30.5 -8t17.5 -29l88 -217q9 -22 -1 -34.5t-26 -12.5h-141q-19 0 -28.5 7t-20.5 30z" />
    <glyph glyph-name="oacute" unicode="&#xf3;" 
d="M361 740v-258q0 -114 72 -188.5t183 -74.5t183.5 75t72.5 187v259q0 114 -72.5 189t-183.5 75t-183 -75t-72 -189zM91 487v245q0 144 69 263.5t189 188t265 68.5q146 0 266.5 -68.5t190 -188t69.5 -263.5v-245q0 -218 -152 -367.5t-373 -149.5t-372.5 149.5t-151.5 367.5
zM848 1613l-103 -215q-11 -23 -21 -30t-29 -7h-141q-15 0 -25 12.5t-1 34.5l87 217q8 21 18.5 29t29.5 8h161q16 0 24.5 -15.5t-0.5 -33.5z" />
    <glyph glyph-name="ocircumflex" unicode="&#xf4;" 
d="M361 740v-258q0 -114 72 -188.5t183 -74.5t183.5 75t72.5 187v259q0 114 -72.5 189t-183.5 75t-183 -75t-72 -189zM91 487v245q0 144 69 263.5t189 188t265 68.5q146 0 266.5 -68.5t190 -188t69.5 -263.5v-245q0 -218 -152 -367.5t-373 -149.5t-372.5 149.5t-151.5 367.5
zM646 1719l227 -231q28 -28 -1 -54l-66 -64q-11 -11 -24 -11q-14 0 -27 13l-136 140l-136 -140q-11 -13 -26 -13q-14 0 -25 11l-64 64q-30 25 -3 54l228 231q13 13 26 13q15 0 27 -13z" />
    <glyph glyph-name="otilde" unicode="&#xf5;" 
d="M361 740v-258q0 -114 72 -188.5t183 -74.5t183.5 75t72.5 187v259q0 114 -72.5 189t-183.5 75t-183 -75t-72 -189zM91 487v245q0 144 69 263.5t189 188t265 68.5q146 0 266.5 -68.5t190 -188t69.5 -263.5v-245q0 -218 -152 -367.5t-373 -149.5t-372.5 149.5t-151.5 367.5
zM442 1399q-9 -10 -20 -10q-16 0 -39 23l-47 42q-15 13 -18 23t0 16t17 27q73 108 182 108q37 0 80.5 -21.5t79.5 -43t56 -21.5q21 0 36 12t35 37q14 17 31 17q15 0 31 -14l60 -58q22 -20 3 -49q-75 -116 -192 -116q-39 0 -80.5 21.5t-76.5 42.5t-57 21q-12 0 -21.5 -3
t-18.5 -10t-14 -12t-14 -16.5t-13 -15.5z" />
    <glyph glyph-name="odieresis" unicode="&#xf6;" 
d="M361 740v-258q0 -114 72 -188.5t183 -74.5t183.5 75t72.5 187v259q0 114 -72.5 189t-183.5 75t-183 -75t-72 -189zM91 487v245q0 144 69 263.5t189 188t265 68.5q146 0 266.5 -68.5t190 -188t69.5 -263.5v-245q0 -218 -152 -367.5t-373 -149.5t-372.5 149.5t-151.5 367.5
zM321 1419v135q0 51 48 51h138q44 0 44 -51v-135q0 -46 -44 -46h-137q-49 0 -49 46zM687 1419v135q0 51 48 51h138q45 0 45 -51v-135q0 -46 -45 -46h-137q-49 0 -49 46z" />
    <glyph glyph-name="divide" unicode="&#xf7;" horiz-adv-x="808" 
d="M281 832v168q0 15 9 24t20 9h176q30 0 30 -33v-168q0 -16 -10 -23.5t-20 -7.5h-175q-9 0 -19.5 7.5t-10.5 23.5zM281 166v168q0 15 9 24t20 9h176q30 0 30 -32v-168q0 -16 -10 -23.5t-20 -7.5h-175q-5 0 -11.5 2t-12.5 9.5t-6 18.5zM66 510v156q0 13 9 22t21 9h612
q13 0 20.5 -8t7.5 -22v-157q0 -12 -9 -20.5t-21 -8.5h-611q-10 0 -19.5 7.5t-9.5 21.5z" />
    <glyph glyph-name="oslash" unicode="&#xf8;" 
d="M361 740v-258q0 -114 72 -188.5t183 -74.5t183.5 75t72.5 187v259q0 114 -72.5 189t-183.5 75t-183 -75t-72 -189zM91 487v245q0 144 69 263.5t189 188t265 68.5q83 0 163 -25l24 64q13 30 40 30h175q30 -2 17 -36l-2 -8l-64 -157q82 -72 127.5 -172.5t45.5 -215.5v-245
q0 -218 -152 -367.5t-373 -149.5q-51 0 -99 9l-31 -81q-13 -29 -40 -29h-174q-31 0 -18 35l63 155q-105 70 -165 182t-60 246z" />
    <glyph glyph-name="ugrave" unicode="&#xf9;" horiz-adv-x="1346" 
d="M426 1185v-723q4 -100 73 -172t162 -72q95 0 170 68.5t79 168.5v729q0 19 16.5 30t36.5 11h188q38 0 38 -41v-1143q0 -41 -39 -41h-138q-46 0 -56 48l-20 117q-110 -195 -339 -195q-77 0 -155.5 33.5t-144.5 94.5t-108 157.5t-42 209.5v720q0 40 38 40h203q38 0 38 -40z
M556 1371l-103 215q-9 18 -1 33.5t24 15.5h161q20 0 30.5 -8t17.5 -29l88 -217q9 -22 -1 -34.5t-26 -12.5h-141q-19 0 -28.5 7t-20.5 30z" />
    <glyph glyph-name="uacute" unicode="&#xfa;" horiz-adv-x="1346" 
d="M426 1185v-723q4 -100 73 -172t162 -72q95 0 170 68.5t79 168.5v729q0 19 16.5 30t36.5 11h188q38 0 38 -41v-1143q0 -41 -39 -41h-138q-46 0 -56 48l-20 117q-110 -195 -339 -195q-77 0 -155.5 33.5t-144.5 94.5t-108 157.5t-42 209.5v720q0 40 38 40h203q38 0 38 -40z
M878 1570l-103 -215q-11 -23 -21 -30t-29 -7h-141q-15 0 -25 12.5t-1 34.5l87 217q8 21 18.5 29t29.5 8h161q16 0 24.5 -15.5t-0.5 -33.5z" />
    <glyph glyph-name="ucircumflex" unicode="&#xfb;" horiz-adv-x="1346" 
d="M426 1185v-723q4 -100 73 -172t162 -72q95 0 170 68.5t79 168.5v729q0 19 16.5 30t36.5 11h188q38 0 38 -41v-1143q0 -41 -39 -41h-138q-46 0 -56 48l-20 117q-110 -195 -339 -195q-77 0 -155.5 33.5t-144.5 94.5t-108 157.5t-42 209.5v720q0 40 38 40h203q38 0 38 -40z
M673 1702l227 -231q28 -28 -1 -54l-66 -64q-11 -11 -24 -11q-14 0 -27 13l-136 140l-136 -140q-11 -13 -26 -13q-14 0 -25 11l-64 64q-30 25 -3 54l228 231q13 13 26 13q15 0 27 -13z" />
    <glyph glyph-name="udieresis" unicode="&#xfc;" horiz-adv-x="1346" 
d="M426 1185v-723q4 -100 73 -172t162 -72q95 0 170 68.5t79 168.5v729q0 19 16.5 30t36.5 11h188q38 0 38 -41v-1143q0 -41 -39 -41h-138q-46 0 -56 48l-20 117q-110 -195 -339 -195q-77 0 -155.5 33.5t-144.5 94.5t-108 157.5t-42 209.5v720q0 40 38 40h203q38 0 38 -40z
M372 1391v135q0 51 48 51h138q44 0 44 -51v-135q0 -46 -44 -46h-137q-49 0 -49 46zM738 1391v135q0 51 48 51h138q45 0 45 -51v-135q0 -46 -45 -46h-137q-49 0 -49 46z" />
    <glyph glyph-name="yacute" unicode="&#xfd;" horiz-adv-x="1192" 
d="M1152 1168l-557 -1560q-13 -36 -49 -36h-173q-33 0 -46 19t0 52l130 364l-416 1154q-10 31 -0.5 47.5t34.5 16.5h208q35 0 46 -39l236 -735l31 -164l32 165l235 738q10 36 46 36h219q47 0 24 -58zM836 1559l-103 -215q-11 -23 -21 -30t-29 -7h-141q-15 0 -25 12.5
t-1 34.5l87 217q8 21 18.5 29t29.5 8h161q16 0 24.5 -15.5t-0.5 -33.5z" />
    <glyph glyph-name="thorn" unicode="&#xfe;" horiz-adv-x="1340" 
d="M421 679v-141q0 -124 83.5 -213.5t206.5 -88.5q120 0 202 85t82 206v158q0 122 -82 208t-202 86q-123 0 -206 -88.5t-84 -211.5zM152 -341v1883q0 40 38 40h206q37 0 37 -40v-451q117 143 295 143q151 0 273.5 -74.5t191.5 -201.5t69 -279v-139q0 -153 -68 -281.5
t-191.5 -204t-276.5 -75.5q-181 0 -294 137l1 -440q0 -30 -16 -43t-37 -13h-190q-38 0 -38 39z" />
    <glyph glyph-name="ydieresis" unicode="&#xff;" horiz-adv-x="1192" 
d="M1152 1168l-557 -1560q-13 -36 -49 -36h-173q-33 0 -46 19t0 52l130 364l-416 1154q-10 31 -0.5 47.5t34.5 16.5h208q35 0 46 -39l236 -735l31 -164l32 165l235 738q10 36 46 36h219q47 0 24 -58zM322 1395v135q0 51 48 51h138q44 0 44 -51v-135q0 -46 -44 -46h-137
q-49 0 -49 46zM688 1395v135q0 51 48 51h138q45 0 45 -51v-135q0 -46 -45 -46h-137q-49 0 -49 46z" />
    <glyph glyph-name="Amacron" unicode="&#x100;" horiz-adv-x="1287" 
d="M642 1152l-26 -142l-151 -499h355l-151 499zM804 1391l456 -1350q15 -41 -25 -41h-222q-37 0 -48 36l-65 214h-514l-65 -214q-10 -36 -47 -36h-223q-18 0 -25 10.5t0 30.5l457 1350q12 37 47 37h226q35 0 48 -37zM291 1618v114q0 13 9 21.5t21 8.5h635q13 0 21 -8t8 -21
v-115q0 -13 -9 -21t-21 -8h-635q-10 0 -19.5 7.5t-9.5 21.5z" />
    <glyph glyph-name="amacron" unicode="&#x101;" horiz-adv-x="1298" 
d="M361 740v-258q0 -113 71 -188t177 -75q108 0 183.5 71.5t79.5 179.5v281q-4 109 -79.5 181t-183.5 72q-106 0 -177 -75.5t-71 -188.5zM91 487v245q0 144 65 263.5t178.5 188t251.5 68.5q99 0 178.5 -54t134.5 -146l21 132q8 41 51 41h130q40 0 40 -41v-1143
q0 -41 -39 -41h-135q-18 0 -31 11t-16 30l-19 133q-55 -94 -135 -149t-180 -55q-138 0 -251.5 68t-178.5 187t-65 262zM278 1426v114q0 13 9 21.5t21 8.5h635q13 0 21 -8t8 -21v-115q0 -13 -9 -21t-21 -8h-635q-10 0 -19.5 7.5t-9.5 21.5z" />
    <glyph glyph-name="Abreve" unicode="&#x102;" horiz-adv-x="1287" 
d="M642 1152l-26 -142l-151 -499h355l-151 499zM804 1391l456 -1350q15 -41 -25 -41h-222q-37 0 -48 36l-65 214h-514l-65 -214q-10 -36 -47 -36h-223q-18 0 -25 10.5t0 30.5l457 1350q12 37 47 37h226q35 0 48 -37zM636 1548q-97 0 -164 64t-67 153q0 15 8.5 25.5
t21.5 10.5h100q24 0 24 -26q0 -29 21 -50t59 -21q33 0 55 22t22 50q0 25 22 25h99q31 0 31 -35q0 -90 -68 -154.5t-164 -63.5z" />
    <glyph glyph-name="abreve" unicode="&#x103;" horiz-adv-x="1298" 
d="M361 740v-258q0 -113 71 -188t177 -75q108 0 183.5 71.5t79.5 179.5v281q-4 109 -79.5 181t-183.5 72q-106 0 -177 -75.5t-71 -188.5zM91 487v245q0 144 65 263.5t178.5 188t251.5 68.5q99 0 178.5 -54t134.5 -146l21 132q8 41 51 41h130q40 0 40 -41v-1143
q0 -41 -39 -41h-135q-18 0 -31 11t-16 30l-19 133q-55 -94 -135 -149t-180 -55q-138 0 -251.5 68t-178.5 187t-65 262zM652 1363q-97 0 -164 64t-67 153q0 15 8.5 25.5t21.5 10.5h100q24 0 24 -26q0 -29 21 -50t59 -21q33 0 55 22t22 50q0 25 22 25h99q31 0 31 -35
q0 -90 -68 -154.5t-164 -63.5z" />
    <glyph glyph-name="Aogonek" unicode="&#x104;" horiz-adv-x="1287" 
d="M642 1152l-26 -142l-151 -499h355l-151 499zM1349 -243q0 -92 -62.5 -158.5t-154.5 -66.5q-94 0 -159 63.5t-65 157.5q0 83 79 172l70 75h-44q-37 0 -48 36l-65 214h-514l-65 -214q-10 -36 -47 -36h-223q-18 0 -25 10.5t0 30.5l457 1350q12 37 47 37h226q35 0 48 -37
l456 -1350q9 -26 -7 -39l-160 -173q-37 -41 -39 -73q-2 -33 20 -55t56 -22q29 -1 51.5 19.5t22.5 53.5q0 37 29 37h87q11 0 20 -8.5t9 -23.5z" />
    <glyph glyph-name="aogonek" unicode="&#x105;" horiz-adv-x="1298" 
d="M361 740v-258q0 -113 71 -188t177 -75q108 0 183.5 71.5t79.5 179.5v281q-4 109 -79.5 181t-183.5 72q-106 0 -177 -75.5t-71 -188.5zM1221 -238q0 -92 -62.5 -158.5t-154.5 -66.5q-94 0 -159 63.5t-65 157.5q0 83 79 172l76 82q-12 10 -15 29l-19 133q-55 -94 -135 -149
t-180 -55q-138 0 -251.5 68t-178.5 187t-65 262v245q0 144 65 263.5t178.5 188t251.5 68.5q99 0 178.5 -54t134.5 -146l21 132q8 41 51 41h130q40 0 40 -41v-1143q0 -26 -18 -36l-158 -171q-37 -41 -39 -73q-2 -33 20 -55t56 -22q29 -1 51.5 19.5t22.5 53.5q0 37 29 37h87
q11 0 20 -8.5t9 -23.5z" />
    <glyph glyph-name="Cacute" unicode="&#x106;" horiz-adv-x="1225" 
d="M986 401l149 -74q37 -18 11 -69q-74 -143 -199 -215.5t-279 -72.5q-248 0 -413 153t-165 392v386q0 159 76 286t208 197.5t294 70.5q156 0 280.5 -72t199.5 -216q12 -24 10.5 -40t-14.5 -22l-156 -76q-12 -5 -22 -5q-20 0 -31 20q-83 152 -252 152q-133 0 -223 -86.5
t-90 -220.5v-352q0 -135 89.5 -221.5t223.5 -86.5q178 0 252 154q11 23 31 23q10 0 20 -5zM903 1810l-103 -215q-11 -23 -21 -30t-29 -7h-141q-15 0 -25 12.5t-1 34.5l87 217q8 21 18.5 29t29.5 8h161q16 0 24.5 -15.5t-0.5 -33.5z" />
    <glyph glyph-name="cacute" unicode="&#x107;" horiz-adv-x="1099" 
d="M91 728q0 224 151 374t376 150q126 0 235 -69t162 -174q19 -36 0 -47l-165 -81q-5 -4 -15 -4q-15 0 -25 17q-30 48 -83 79t-112 31q-113 0 -183.5 -77t-70.5 -201v-230q0 -127 71.5 -202t182.5 -75q59 0 110 29.5t85 80.5q12 16 26 16q8 0 15 -4l164 -82q17 -16 1 -46
q-53 -106 -163 -174.5t-238 -68.5q-223 0 -373.5 149.5t-150.5 371.5v237zM855 1632l-103 -215q-11 -23 -21 -30t-29 -7h-141q-15 0 -25 12.5t-1 34.5l87 217q8 21 18.5 29t29.5 8h161q16 0 24.5 -15.5t-0.5 -33.5z" />
    <glyph glyph-name="Ccircumflex" unicode="&#x108;" horiz-adv-x="1225" 
d="M986 401l149 -74q37 -18 11 -69q-74 -143 -199 -215.5t-279 -72.5q-248 0 -413 153t-165 392v386q0 159 76 286t208 197.5t294 70.5q156 0 280.5 -72t199.5 -216q12 -24 10.5 -40t-14.5 -22l-156 -76q-12 -5 -22 -5q-20 0 -31 20q-83 152 -252 152q-133 0 -223 -86.5
t-90 -220.5v-352q0 -135 89.5 -221.5t223.5 -86.5q178 0 252 154q11 23 31 23q10 0 20 -5zM701 1893l227 -231q28 -28 -1 -54l-66 -64q-11 -11 -24 -11q-14 0 -27 13l-136 140l-136 -140q-11 -13 -26 -13q-14 0 -25 11l-64 64q-30 25 -3 54l228 231q13 13 26 13q15 0 27 -13
z" />
    <glyph glyph-name="ccircumflex" unicode="&#x109;" horiz-adv-x="1099" 
d="M91 728q0 224 151 374t376 150q126 0 235 -69t162 -174q19 -36 0 -47l-165 -81q-5 -4 -15 -4q-15 0 -25 17q-30 48 -83 79t-112 31q-113 0 -183.5 -77t-70.5 -201v-230q0 -127 71.5 -202t182.5 -75q59 0 110 29.5t85 80.5q12 16 26 16q8 0 15 -4l164 -82q17 -16 1 -46
q-53 -106 -163 -174.5t-238 -68.5q-223 0 -373.5 149.5t-150.5 371.5v237zM623 1700l227 -231q28 -28 -1 -54l-66 -64q-11 -11 -24 -11q-14 0 -27 13l-136 140l-136 -140q-11 -13 -26 -13q-14 0 -25 11l-64 64q-30 25 -3 54l228 231q13 13 26 13q15 0 27 -13z" />
    <glyph glyph-name="Cdotaccent" unicode="&#x10a;" horiz-adv-x="1225" 
d="M986 401l149 -74q37 -18 11 -69q-74 -143 -199 -215.5t-279 -72.5q-248 0 -413 153t-165 392v386q0 159 76 286t208 197.5t294 70.5q156 0 280.5 -72t199.5 -216q12 -24 10.5 -40t-14.5 -22l-156 -76q-12 -5 -22 -5q-20 0 -31 20q-83 152 -252 152q-133 0 -223 -86.5
t-90 -220.5v-352q0 -135 89.5 -221.5t223.5 -86.5q178 0 252 154q11 23 31 23q10 0 20 -5zM556 1604v135q0 51 50 51h134q45 0 45 -52v-133q0 -26 -11 -36.5t-34 -10.5h-135q-49 0 -49 46z" />
    <glyph glyph-name="cdotaccent" unicode="&#x10b;" horiz-adv-x="1099" 
d="M91 728q0 224 151 374t376 150q126 0 235 -69t162 -174q19 -36 0 -47l-165 -81q-5 -4 -15 -4q-15 0 -25 17q-30 48 -83 79t-112 31q-113 0 -183.5 -77t-70.5 -201v-230q0 -127 71.5 -202t182.5 -75q59 0 110 29.5t85 80.5q12 16 26 16q8 0 15 -4l164 -82q17 -16 1 -46
q-53 -106 -163 -174.5t-238 -68.5q-223 0 -373.5 149.5t-150.5 371.5v237zM498 1414v135q0 51 50 51h134q45 0 45 -52v-133q0 -26 -11 -36.5t-34 -10.5h-135q-49 0 -49 46z" />
    <glyph glyph-name="Ccaron" unicode="&#x10c;" horiz-adv-x="1225" 
d="M986 401l149 -74q37 -18 11 -69q-74 -143 -199 -215.5t-279 -72.5q-248 0 -413 153t-165 392v386q0 159 76 286t208 197.5t294 70.5q156 0 280.5 -72t199.5 -216q12 -24 10.5 -40t-14.5 -22l-156 -76q-12 -5 -22 -5q-20 0 -31 20q-83 152 -252 152q-133 0 -223 -86.5
t-90 -220.5v-352q0 -135 89.5 -221.5t223.5 -86.5q178 0 252 154q11 23 31 23q10 0 20 -5zM938 1765l-227 -231q-12 -13 -26 -13t-27 13l-227 231q-28 29 2 53l65 66q11 10 24 10q15 0 27 -12l135 -141l137 141q12 12 27 12q13 0 24 -10l65 -66q30 -24 1 -53z" />
    <glyph glyph-name="ccaron" unicode="&#x10d;" horiz-adv-x="1099" 
d="M91 728q0 224 151 374t376 150q126 0 235 -69t162 -174q19 -36 0 -47l-165 -81q-5 -4 -15 -4q-15 0 -25 17q-30 48 -83 79t-112 31q-113 0 -183.5 -77t-70.5 -201v-230q0 -127 71.5 -202t182.5 -75q59 0 110 29.5t85 80.5q12 16 26 16q8 0 15 -4l164 -82q17 -16 1 -46
q-53 -106 -163 -174.5t-238 -68.5q-223 0 -373.5 149.5t-150.5 371.5v237zM863 1609l-227 -231q-12 -13 -26 -13t-27 13l-227 231q-28 29 2 53l65 66q11 10 24 10q15 0 27 -12l135 -141l137 141q12 12 27 12q13 0 24 -10l65 -66q30 -24 1 -53z" />
    <glyph glyph-name="Dcaron" unicode="&#x10e;" horiz-adv-x="1362" 
d="M448 1159v-893h221q146 0 235 88.5t89 234.5v247q0 146 -86 233.5t-230 89.5h-229zM173 39v1347q0 40 38 40h475q168 -1 301.5 -75t209 -207t75.5 -301v-263q0 -254 -166.5 -416t-423.5 -164h-471q-38 0 -38 39zM847 1796l-227 -231q-12 -13 -26 -13t-27 13l-227 231
q-28 29 2 53l65 66q11 10 24 10q15 0 27 -12l135 -141l137 141q12 12 27 12q13 0 24 -10l65 -66q30 -24 1 -53z" />
    <glyph glyph-name="dcaron" unicode="&#x10f;" horiz-adv-x="1473" 
d="M361 740v-258q0 -113 71 -188t177 -75q111 0 187 75.5t76 186.5v270q-4 109 -79.5 181t-183.5 72q-106 0 -177 -75.5t-71 -188.5zM91 487v245q0 144 65 263.5t178.5 188t251.5 68.5q169 0 286 -158v448q0 19 14.5 29.5t36.5 10.5h178q40 0 40 -41v-1500q0 -41 -39 -41
h-135q-18 0 -31 11t-16 30l-19 133q-55 -94 -135 -149t-180 -55q-138 0 -251.5 68t-178.5 187t-65 262zM1225 1395v143q0 48 42 48h162q43 0 43 -46v-140q0 -173 -105 -252q-15 -10 -26 -10q-10 0 -22 9l-39 34q-23 20 2 48q48 45 48 87q0 35 -13 35h-53q-39 0 -39 44z" />
    <glyph glyph-name="Dcroat" unicode="&#x110;" horiz-adv-x="1392" 
d="M594 622h-116v-356h225q144 2 231.5 90t87.5 233v247q0 146 -86 233.5t-230 89.5h-228v-357h118q12 0 20 -8t8 -21v-123q0 -12 -9 -20t-21 -8zM202 39v583h-149q-10 0 -19 7.5t-9 21.5v120q0 14 9 22.5t21 8.5h147v584q0 40 38 40h475q256 -2 421 -165t166 -418v-263
q0 -169 -77 -301.5t-213 -205.5t-306 -73h-466q-38 0 -38 39z" />
    <glyph glyph-name="dcroat" unicode="&#x111;" horiz-adv-x="1298" 
d="M361 740v-258q0 -113 71 -188t177 -75q111 0 187 75.5t76 186.5v270q-4 109 -79.5 181t-183.5 72q-106 0 -177 -75.5t-71 -188.5zM91 487v245q0 144 65 263.5t178.5 188t251.5 68.5q169 0 286 -158v207h-125q-11 0 -20 8t-9 23v87q0 16 9 25t20 9h125v89q0 19 14.5 29.5
t36.5 10.5h178q40 0 40 -41v-88h97q8 0 18 -8.5t10 -23.5v-89q0 -12 -9.5 -21.5t-21.5 -9.5h-94v-1260q0 -41 -39 -41h-135q-18 0 -31 11t-16 30l-19 133q-55 -94 -135 -149t-180 -55q-138 0 -251.5 68t-178.5 187t-65 262z" />
    <glyph glyph-name="Emacron" unicode="&#x112;" horiz-adv-x="1196" 
d="M173 39v1347q0 40 38 40h837q36 0 36 -38v-192q0 -37 -36 -37h-595v-306h463q41 0 41 -39v-189q0 -38 -41 -38h-463v-328h609q37 0 37 -36v-185q0 -38 -37 -38h-851q-38 0 -38 39zM292 1630v114q0 13 9 21.5t21 8.5h635q13 0 21 -8t8 -21v-115q0 -13 -9 -21t-21 -8h-635
q-10 0 -19.5 7.5t-9.5 21.5z" />
    <glyph glyph-name="emacron" unicode="&#x113;" horiz-adv-x="1195" 
d="M361 736v-9h491v6q0 49 -12 94t-37 86t-71.5 66t-109.5 25q-61 0 -112 -22.5t-82.5 -61t-49 -86t-17.5 -98.5zM91 489v239q0 227 153.5 375.5t383.5 148.5q65 0 130 -19t128 -61.5t111.5 -105t78 -157t29.5 -208.5v-98q0 -45 -21 -62t-67 -17h-656v-31q0 -124 74 -199
t187 -75q123 0 195 102q12 16 26 16q8 0 13 -4l172 -90q20 -15 1 -47q-62 -100 -166.5 -163t-234.5 -63q-229 0 -383 147.5t-154 371.5zM272 1431v114q0 13 9 21.5t21 8.5h635q13 0 21 -8t8 -21v-115q0 -13 -9 -21t-21 -8h-635q-10 0 -19.5 7.5t-9.5 21.5z" />
    <glyph glyph-name="Ebreve" unicode="&#x114;" horiz-adv-x="1196" 
d="M173 39v1347q0 40 38 40h837q36 0 36 -38v-192q0 -37 -36 -37h-595v-306h463q41 0 41 -39v-189q0 -38 -41 -38h-463v-328h609q37 0 37 -36v-185q0 -38 -37 -38h-851q-38 0 -38 39zM664 1587q-97 0 -164 64t-67 153q0 15 8.5 25.5t21.5 10.5h100q24 0 24 -26q0 -29 21 -50
t59 -21q33 0 55 22t22 50q0 25 22 25h99q31 0 31 -35q0 -90 -68 -154.5t-164 -63.5z" />
    <glyph glyph-name="ebreve" unicode="&#x115;" horiz-adv-x="1195" 
d="M361 736v-9h491v6q0 49 -12 94t-37 86t-71.5 66t-109.5 25q-61 0 -112 -22.5t-82.5 -61t-49 -86t-17.5 -98.5zM91 489v239q0 227 153.5 375.5t383.5 148.5q65 0 130 -19t128 -61.5t111.5 -105t78 -157t29.5 -208.5v-98q0 -45 -21 -62t-67 -17h-656v-31q0 -124 74 -199
t187 -75q123 0 195 102q12 16 26 16q8 0 13 -4l172 -90q20 -15 1 -47q-62 -100 -166.5 -163t-234.5 -63q-229 0 -383 147.5t-154 371.5zM636 1359q-97 0 -164 64t-67 153q0 15 8.5 25.5t21.5 10.5h100q24 0 24 -26q0 -29 21 -50t59 -21q33 0 55 22t22 50q0 25 22 25h99
q31 0 31 -35q0 -90 -68 -154.5t-164 -63.5z" />
    <glyph glyph-name="Edotaccent" unicode="&#x116;" horiz-adv-x="1196" 
d="M173 39v1347q0 40 38 40h837q36 0 36 -38v-192q0 -37 -36 -37h-595v-306h463q41 0 41 -39v-189q0 -38 -41 -38h-463v-328h609q37 0 37 -36v-185q0 -38 -37 -38h-851q-38 0 -38 39zM535 1625v135q0 51 50 51h134q45 0 45 -52v-133q0 -26 -11 -36.5t-34 -10.5h-135
q-49 0 -49 46z" />
    <glyph glyph-name="edotaccent" unicode="&#x117;" horiz-adv-x="1195" 
d="M361 736v-9h491v6q0 49 -12 94t-37 86t-71.5 66t-109.5 25q-61 0 -112 -22.5t-82.5 -61t-49 -86t-17.5 -98.5zM91 489v239q0 227 153.5 375.5t383.5 148.5q65 0 130 -19t128 -61.5t111.5 -105t78 -157t29.5 -208.5v-98q0 -45 -21 -62t-67 -17h-656v-31q0 -124 74 -199
t187 -75q123 0 195 102q12 16 26 16q8 0 13 -4l172 -90q20 -15 1 -47q-62 -100 -166.5 -163t-234.5 -63q-229 0 -383 147.5t-154 371.5zM520 1420v135q0 51 50 51h134q45 0 45 -52v-133q0 -26 -11 -36.5t-34 -10.5h-135q-49 0 -49 46z" />
    <glyph glyph-name="Eogonek" unicode="&#x118;" horiz-adv-x="1196" 
d="M1184 -237q0 -92 -62.5 -158.5t-154.5 -66.5q-94 0 -159 63.5t-65 157.5q0 83 79 172l64 69h-675q-38 0 -38 39v1347q0 40 38 40h837q36 0 36 -38v-192q0 -37 -36 -37h-595v-306h463q41 0 41 -39v-189q0 -38 -41 -38h-463v-328h609q37 0 37 -36v-185q0 -16 -11 -30
l-160 -173q-37 -41 -39 -73q-2 -33 20 -55t56 -22q29 -1 51.5 19.5t22.5 53.5q0 37 29 37h87q11 0 20 -8.5t9 -23.5z" />
    <glyph glyph-name="eogonek" unicode="&#x119;" horiz-adv-x="1195" 
d="M361 736v-9h491v6q0 49 -12 94t-37 86t-71.5 66t-109.5 25q-61 0 -112 -22.5t-82.5 -61t-49 -86t-17.5 -98.5zM1046 -148q0 -92 -62.5 -158.5t-154.5 -66.5q-94 0 -159 63.5t-65 157.5q0 61 40 122h-17q-229 0 -383 147.5t-154 371.5v239q0 227 153.5 375.5t383.5 148.5
q65 0 130 -19t128 -61.5t111.5 -105t78 -157t29.5 -208.5v-98q0 -45 -21 -62t-67 -17h-656v-31q0 -124 74 -199t187 -75q123 0 195 102q12 16 26 16q8 0 13 -4l172 -90q20 -15 1 -47q-29 -48 -74 -93q-1 -2 -5 -6l-160 -173q-37 -41 -39 -73q-2 -33 20 -55t56 -22
q29 -1 51.5 19.5t22.5 53.5q0 37 29 37h87q11 0 20 -8.5t9 -23.5z" />
    <glyph glyph-name="Ecaron" unicode="&#x11a;" horiz-adv-x="1196" 
d="M173 39v1347q0 40 38 40h837q36 0 36 -38v-192q0 -37 -36 -37h-595v-306h463q41 0 41 -39v-189q0 -38 -41 -38h-463v-328h609q37 0 37 -36v-185q0 -38 -37 -38h-851q-38 0 -38 39zM905 1807l-227 -231q-12 -13 -26 -13t-27 13l-227 231q-28 29 2 53l65 66q11 10 24 10
q15 0 27 -12l135 -141l137 141q12 12 27 12q13 0 24 -10l65 -66q30 -24 1 -53z" />
    <glyph glyph-name="ecaron" unicode="&#x11b;" horiz-adv-x="1195" 
d="M361 736v-9h491v6q0 49 -12 94t-37 86t-71.5 66t-109.5 25q-61 0 -112 -22.5t-82.5 -61t-49 -86t-17.5 -98.5zM91 489v239q0 227 153.5 375.5t383.5 148.5q65 0 130 -19t128 -61.5t111.5 -105t78 -157t29.5 -208.5v-98q0 -45 -21 -62t-67 -17h-656v-31q0 -124 74 -199
t187 -75q123 0 195 102q12 16 26 16q8 0 13 -4l172 -90q20 -15 1 -47q-62 -100 -166.5 -163t-234.5 -63q-229 0 -383 147.5t-154 371.5zM898 1578l-227 -231q-12 -13 -26 -13t-27 13l-227 231q-28 29 2 53l65 66q11 10 24 10q15 0 27 -12l135 -141l137 141q12 12 27 12
q13 0 24 -10l65 -66q30 -24 1 -53z" />
    <glyph glyph-name="Gcircumflex" unicode="&#x11c;" horiz-adv-x="1274" 
d="M1178 705v-265q0 -103 -46.5 -193.5t-120.5 -149.5t-164 -93t-179 -34q-248 0 -413 153t-165 392v386q0 159 76 286t208 197.5t294 70.5q155 0 279.5 -72.5t197.5 -215.5q12 -24 10 -40.5t-15 -22.5l-149 -73q-14 -7 -28 -7q-21 0 -30 19q-79 153 -250 153
q-133 0 -223 -86.5t-90 -220.5v-352q0 -134 86.5 -221t211.5 -87q114 0 186 65.5t72 168.5v23h-176q-36 0 -36 37v183q0 38 36 38h390q38 0 38 -39zM683 1899l227 -231q28 -28 -1 -54l-66 -64q-11 -11 -24 -11q-14 0 -27 13l-136 140l-136 -140q-11 -13 -26 -13
q-14 0 -25 11l-64 64q-30 25 -3 54l228 231q13 13 26 13q15 0 27 -13z" />
    <glyph glyph-name="gcircumflex" unicode="&#x11d;" horiz-adv-x="1298" 
d="M361 740v-231q0 -113 71 -188t177 -75q108 0 183.5 71.5t79.5 179.5v254q-4 109 -79.5 181t-183.5 72q-106 0 -177 -75.5t-71 -188.5zM1141 1184v-1018q0 -151 -43 -267t-118.5 -186t-170 -105t-205.5 -35q-115 0 -223.5 35t-187.5 105q-25 22 -3 57l93 106q13 19 33 19
q16 0 32 -12q98 -66 240 -66q130 0 207 80.5t76 216.5l-1 59q-116 -176 -284 -176q-138 0 -251.5 68t-178.5 187t-65 263v217q0 144 65 263.5t178.5 188t251.5 68.5q99 0 178.5 -54t134.5 -146l21 132q8 41 51 41h130q40 0 40 -41zM620 1714l227 -231q28 -28 -1 -54l-66 -64
q-11 -11 -24 -11q-14 0 -27 13l-136 140l-136 -140q-11 -13 -26 -13q-14 0 -25 11l-64 64q-30 25 -3 54l228 231q13 13 26 13q15 0 27 -13z" />
    <glyph glyph-name="Gbreve" unicode="&#x11e;" horiz-adv-x="1274" 
d="M1178 705v-265q0 -103 -46.5 -193.5t-120.5 -149.5t-164 -93t-179 -34q-248 0 -413 153t-165 392v386q0 159 76 286t208 197.5t294 70.5q155 0 279.5 -72.5t197.5 -215.5q12 -24 10 -40.5t-15 -22.5l-149 -73q-14 -7 -28 -7q-21 0 -30 19q-79 153 -250 153
q-133 0 -223 -86.5t-90 -220.5v-352q0 -134 86.5 -221t211.5 -87q114 0 186 65.5t72 168.5v23h-176q-36 0 -36 37v183q0 38 36 38h390q38 0 38 -39zM664 1573q-97 0 -164 64t-67 153q0 15 8.5 25.5t21.5 10.5h100q24 0 24 -26q0 -29 21 -50t59 -21q33 0 55 22t22 50
q0 25 22 25h99q31 0 31 -35q0 -90 -68 -154.5t-164 -63.5z" />
    <glyph glyph-name="gbreve" unicode="&#x11f;" horiz-adv-x="1298" 
d="M361 740v-231q0 -113 71 -188t177 -75q108 0 183.5 71.5t79.5 179.5v254q-4 109 -79.5 181t-183.5 72q-106 0 -177 -75.5t-71 -188.5zM1141 1184v-1018q0 -151 -43 -267t-118.5 -186t-170 -105t-205.5 -35q-115 0 -223.5 35t-187.5 105q-25 22 -3 57l93 106q13 19 33 19
q16 0 32 -12q98 -66 240 -66q130 0 207 80.5t76 216.5l-1 59q-116 -176 -284 -176q-138 0 -251.5 68t-178.5 187t-65 263v217q0 144 65 263.5t178.5 188t251.5 68.5q99 0 178.5 -54t134.5 -146l21 132q8 41 51 41h130q40 0 40 -41zM617 1347q-97 0 -164 64t-67 153
q0 15 8.5 25.5t21.5 10.5h100q24 0 24 -26q0 -29 21 -50t59 -21q33 0 55 22t22 50q0 25 22 25h99q31 0 31 -35q0 -90 -68 -154.5t-164 -63.5z" />
    <glyph glyph-name="Gdotaccent" unicode="&#x120;" horiz-adv-x="1274" 
d="M1178 705v-265q0 -103 -46.5 -193.5t-120.5 -149.5t-164 -93t-179 -34q-248 0 -413 153t-165 392v386q0 159 76 286t208 197.5t294 70.5q155 0 279.5 -72.5t197.5 -215.5q12 -24 10 -40.5t-15 -22.5l-149 -73q-14 -7 -28 -7q-21 0 -30 19q-79 153 -250 153
q-133 0 -223 -86.5t-90 -220.5v-352q0 -134 86.5 -221t211.5 -87q114 0 186 65.5t72 168.5v23h-176q-36 0 -36 37v183q0 38 36 38h390q38 0 38 -39zM539 1618v135q0 51 50 51h134q45 0 45 -52v-133q0 -26 -11 -36.5t-34 -10.5h-135q-49 0 -49 46z" />
    <glyph glyph-name="gdotaccent" unicode="&#x121;" horiz-adv-x="1298" 
d="M361 740v-231q0 -113 71 -188t177 -75q108 0 183.5 71.5t79.5 179.5v254q-4 109 -79.5 181t-183.5 72q-106 0 -177 -75.5t-71 -188.5zM1141 1184v-1018q0 -151 -43 -267t-118.5 -186t-170 -105t-205.5 -35q-115 0 -223.5 35t-187.5 105q-25 22 -3 57l93 106q13 19 33 19
q16 0 32 -12q98 -66 240 -66q130 0 207 80.5t76 216.5l-1 59q-116 -176 -284 -176q-138 0 -251.5 68t-178.5 187t-65 263v217q0 144 65 263.5t178.5 188t251.5 68.5q99 0 178.5 -54t134.5 -146l21 132q8 41 51 41h130q40 0 40 -41zM495 1459v135q0 51 50 51h134q45 0 45 -52
v-133q0 -26 -11 -36.5t-34 -10.5h-135q-49 0 -49 46z" />
    <glyph glyph-name="Gcommaaccent" unicode="&#x122;" horiz-adv-x="1274" 
d="M1178 705v-265q0 -103 -46.5 -193.5t-120.5 -149.5t-164 -93t-179 -34q-248 0 -413 153t-165 392v386q0 159 76 286t208 197.5t294 70.5q155 0 279.5 -72.5t197.5 -215.5q12 -24 10 -40.5t-15 -22.5l-149 -73q-14 -7 -28 -7q-21 0 -30 19q-79 153 -250 153
q-133 0 -223 -86.5t-90 -220.5v-352q0 -134 86.5 -221t211.5 -87q114 0 186 65.5t72 168.5v23h-176q-36 0 -36 37v183q0 38 36 38h390q38 0 38 -39zM535 -310v143q0 48 42 48h162q43 0 43 -46v-140q0 -173 -105 -252q-15 -10 -26 -10q-10 0 -22 9l-39 34q-23 20 2 48
q48 45 48 87q0 35 -13 35h-53q-39 0 -39 44z" />
    <glyph glyph-name="gcommaaccent" unicode="&#x123;" horiz-adv-x="1298" 
d="M361 740v-231q0 -113 71 -188t177 -75q108 0 183.5 71.5t79.5 179.5v254q-4 109 -79.5 181t-183.5 72q-106 0 -177 -75.5t-71 -188.5zM1141 1184v-1018q0 -151 -43 -267t-118.5 -186t-170 -105t-205.5 -35q-115 0 -223.5 35t-187.5 105q-25 22 -3 57l93 106q13 19 33 19
q16 0 32 -12q98 -66 240 -66q130 0 207 80.5t76 216.5l-1 59q-116 -176 -284 -176q-138 0 -251.5 68t-178.5 187t-65 263v217q0 144 65 263.5t178.5 188t251.5 68.5q99 0 178.5 -54t134.5 -146l21 132q8 41 51 41h130q40 0 40 -41zM711 1584v-144q0 -48 -43 -48h-161
q-44 0 -44 46v141q0 57 10 102t28.5 74t32.5 44.5t34 30.5q15 11 26 11t22 -10l39 -34q25 -21 -2 -48q-47 -43 -47 -87q0 -35 12 -35h53q40 0 40 -43z" />
    <glyph glyph-name="Hcircumflex" unicode="&#x124;" horiz-adv-x="1462" 
d="M173 39v1347q0 40 38 40h201q38 0 38 -40v-522h570v522q0 17 11 28.5t30 11.5h202q37 0 37 -38v-1349q0 -39 -41 -39h-199q-40 0 -40 39v559h-570v-559q0 -39 -38 -39h-201q-38 0 -38 39zM757 1866l227 -231q28 -28 -1 -54l-66 -64q-11 -11 -24 -11q-14 0 -27 13
l-136 140l-136 -140q-11 -13 -26 -13q-14 0 -25 11l-64 64q-30 25 -3 54l228 231q13 13 26 13q15 0 27 -13z" />
    <glyph glyph-name="hcircumflex" unicode="&#x125;" horiz-adv-x="1346" 
d="M920 40v710q0 103 -70 178.5t-165 75.5t-170 -69t-79 -169v-725q0 -19 -16.5 -30t-36.5 -11h-187q-39 0 -39 41v1500q0 41 39 41h185q55 0 55 -48v-446q114 164 313 164q61 0 124 -21t121.5 -63t104 -100t73 -139t27.5 -172v-717q0 -40 -37 -40h-204q-38 0 -38 40z
M323 2015l227 -231q28 -28 -1 -54l-66 -64q-11 -11 -24 -11q-14 0 -27 13l-136 140l-136 -140q-11 -13 -26 -13q-14 0 -25 11l-64 64q-30 25 -3 54l228 231q13 13 26 13q15 0 27 -13z" />
    <glyph glyph-name="Hbar" unicode="&#x126;" horiz-adv-x="1473" 
d="M1020 864v161h-570v-161h570zM173 39v1347q0 40 38 40h201q38 0 38 -40v-127h570v127q0 17 11 28.5t30 11.5h202q37 0 37 -38v-1349q0 -39 -41 -39h-199q-40 0 -40 39v559h-570v-559q0 -39 -38 -39h-201q-38 0 -38 39z" />
    <glyph glyph-name="hbar" unicode="&#x127;" horiz-adv-x="1346" 
d="M920 40v710q0 103 -70 178.5t-165 75.5t-170 -69t-79 -169v-725q0 -19 -16.5 -30t-36.5 -11h-187q-39 0 -39 41v1278h-72q-10 0 -18 7.5t-8 21.5v92q0 13 8 21t19 8h71v72q0 41 39 41h185q55 0 55 -48v-65h162q25 0 25 -28v-94q0 -12 -7.5 -20t-18.5 -8h-161v-231
q114 164 313 164q61 0 124 -21t121.5 -63t104 -100t73 -139t27.5 -172v-717q0 -40 -37 -40h-204q-38 0 -38 40z" />
    <glyph glyph-name="Itilde" unicode="&#x128;" horiz-adv-x="626" 
d="M173 39v1347q0 40 38 40h210q32 0 32 -40v-1347q0 -39 -32 -39h-210q-38 0 -38 39zM141 1589q-9 -10 -20 -10q-16 0 -39 23l-47 42q-15 13 -18 23t0 16t17 27q73 108 182 108q37 0 80.5 -21.5t79.5 -43t56 -21.5q21 0 36 12t35 37q14 17 31 17q15 0 31 -14l60 -58
q22 -20 3 -49q-75 -116 -192 -116q-39 0 -80.5 21.5t-76.5 42.5t-57 21q-12 0 -21.5 -3t-18.5 -10t-14 -12t-14 -16.5t-13 -15.5z" />
    <glyph glyph-name="itilde" unicode="&#x129;" horiz-adv-x="593" 
d="M157 39v1148q0 17 11 27.5t27 10.5h204q16 0 26.5 -11t10.5 -28v-1147q0 -39 -37 -39h-204q-38 0 -38 39zM114 1399q-9 -10 -20 -10q-16 0 -39 23l-47 42q-15 13 -18 23t0 16t17 27q73 108 182 108q37 0 80.5 -21.5t79.5 -43t56 -21.5q21 0 36 12t35 37q14 17 31 17
q15 0 31 -14l60 -58q22 -20 3 -49q-75 -116 -192 -116q-39 0 -80.5 21.5t-76.5 42.5t-57 21q-12 0 -21.5 -3t-18.5 -10t-14 -12t-14 -16.5t-13 -15.5z" />
    <glyph glyph-name="Imacron" unicode="&#x12a;" horiz-adv-x="626" 
d="M173 39v1347q0 40 38 40h210q32 0 32 -40v-1347q0 -39 -32 -39h-210q-38 0 -38 39zM-27 1603v114q0 13 9 21.5t21 8.5h635q13 0 21 -8t8 -21v-115q0 -13 -9 -21t-21 -8h-635q-10 0 -19.5 7.5t-9.5 21.5z" />
    <glyph glyph-name="imacron" unicode="&#x12b;" horiz-adv-x="593" 
d="M157 39v1148q0 17 11 27.5t27 10.5h204q16 0 26.5 -11t10.5 -28v-1147q0 -39 -37 -39h-204q-38 0 -38 39zM-48 1396v114q0 13 9 21.5t21 8.5h635q13 0 21 -8t8 -21v-115q0 -13 -9 -21t-21 -8h-635q-10 0 -19.5 7.5t-9.5 21.5z" />
    <glyph glyph-name="Ibreve" unicode="&#x12c;" horiz-adv-x="626" 
d="M173 39v1347q0 40 38 40h210q32 0 32 -40v-1347q0 -39 -32 -39h-210q-38 0 -38 39zM321 1567q-97 0 -164 64t-67 153q0 15 8.5 25.5t21.5 10.5h100q24 0 24 -26q0 -29 21 -50t59 -21q33 0 55 22t22 50q0 25 22 25h99q31 0 31 -35q0 -90 -68 -154.5t-164 -63.5z" />
    <glyph glyph-name="ibreve" unicode="&#x12d;" horiz-adv-x="593" 
d="M157 39v1148q0 17 11 27.5t27 10.5h204q16 0 26.5 -11t10.5 -28v-1147q0 -39 -37 -39h-204q-38 0 -38 39zM299 1351q-97 0 -164 64t-67 153q0 15 8.5 25.5t21.5 10.5h100q24 0 24 -26q0 -29 21 -50t59 -21q33 0 55 22t22 50q0 25 22 25h99q31 0 31 -35q0 -90 -68 -154.5
t-164 -63.5z" />
    <glyph glyph-name="Iogonek" unicode="&#x12e;" horiz-adv-x="626" 
d="M537 -240q0 -92 -62.5 -158.5t-154.5 -66.5q-94 0 -159 63.5t-65 157.5q0 83 79 172l67 72h-31q-38 0 -38 39v1347q0 40 38 40h210q32 0 32 -40v-1347q0 -26 -12 -34l-160 -173q-37 -41 -39 -73q-2 -33 20 -55t56 -22q29 -1 51.5 19.5t22.5 53.5q0 37 29 37h87
q11 0 20 -8.5t9 -23.5z" />
    <glyph glyph-name="iogonek" unicode="&#x12f;" horiz-adv-x="593" 
d="M491 -239q0 -92 -62.5 -158.5t-154.5 -66.5q-94 0 -159 63.5t-65 157.5q0 83 79 172l66 71q-38 0 -38 39v1148q0 17 11 27.5t27 10.5h204q16 0 26.5 -11t10.5 -28v-1147q0 -39 -37 -39h-10l-154 -167q-37 -41 -39 -73q-2 -33 20 -55t56 -22q29 -1 51.5 19.5t22.5 53.5
q0 37 29 37h87q11 0 20 -8.5t9 -23.5zM152 1403v159q0 63 62 63h171q57 0 57 -63v-158q0 -32 -14 -44.5t-43 -12.5h-171q-62 0 -62 56z" />
    <glyph glyph-name="Idotaccent" unicode="&#x130;" horiz-adv-x="626" 
d="M173 39v1347q0 40 38 40h210q32 0 32 -40v-1347q0 -39 -32 -39h-210q-38 0 -38 39zM205 1609v135q0 51 50 51h134q45 0 45 -52v-133q0 -26 -11 -36.5t-34 -10.5h-135q-49 0 -49 46z" />
    <glyph glyph-name="dotlessi" unicode="&#x131;" horiz-adv-x="593" 
d="M157 39v1148q0 17 11 27.5t27 10.5h204q16 0 26.5 -11t10.5 -28v-1147q0 -39 -37 -39h-204q-38 0 -38 39z" />
    <glyph glyph-name="IJ" unicode="&#x132;" horiz-adv-x="1562" 
d="M177 39v1347q0 40 38 40h210q32 0 32 -40v-1347q0 -39 -32 -39h-210q-38 0 -38 39zM1154 419v968q0 22 11 30.5t23 8.5h201q24 0 34 -10.5t10 -34.5l-5 -985q0 -89 -27 -162t-71.5 -121t-103 -81t-120 -47.5t-124.5 -14.5q-80 0 -150 21t-119 55.5t-83 72.5t-56 79
q-27 52 3 70l142 75q17 9 29 9q21 0 36 -28q22 -36 73 -65.5t106 -29.5q86 0 138.5 48t52.5 142z" />
    <glyph glyph-name="ij" unicode="&#x133;" horiz-adv-x="1091" 
d="M155 39v1148q0 17 11 27.5t27 10.5h204q16 0 26.5 -11t10.5 -28v-1147q0 -39 -37 -39h-204q-38 0 -38 39zM150 1403v159q0 63 62 63h171q57 0 57 -63v-158q0 -32 -14 -44.5t-43 -12.5h-171q-62 0 -62 56zM675 1185q0 40 40 40h201q38 0 38 -40v-1180q0 -172 -119 -286
t-324 -114q-24 0 -40 11.5t-16 26.5v174q0 45 48 45q172 0 172 195v1128zM670 1396v166q0 63 62 63h170q57 0 57 -63v-165q0 -32 -14 -44.5t-43 -12.5h-170q-62 0 -62 56z" />
    <glyph glyph-name="Jcircumflex" unicode="&#x134;" horiz-adv-x="1019" 
d="M606 419v968q0 22 11 30.5t23 8.5h201q24 0 34 -10.5t10 -34.5l-5 -985q0 -89 -27 -162t-71.5 -121t-103 -81t-120 -47.5t-124.5 -14.5q-80 0 -150 21t-119 55.5t-83 72.5t-56 79q-27 52 3 70l142 75q16 9 29 9q21 0 36 -28q22 -36 73 -65.5t106 -29.5q86 0 138.5 48
t52.5 142zM764 1890l227 -231q28 -28 -1 -54l-66 -64q-11 -11 -24 -11q-14 0 -27 13l-136 140l-136 -140q-11 -13 -26 -13q-14 0 -25 11l-64 64q-30 25 -3 54l228 231q13 13 26 13q15 0 27 -13z" />
    <glyph glyph-name="jcircumflex" unicode="&#x135;" horiz-adv-x="593" 
d="M157 57v1128q0 40 40 40h201q38 0 38 -40v-1180q0 -172 -119 -286t-324 -114q-24 0 -40 11.5t-16 26.5v174q0 45 48 45q172 0 172 195zM318 1716l227 -231q28 -28 -1 -54l-66 -64q-11 -11 -24 -11q-14 0 -27 13l-136 140l-136 -140q-11 -13 -26 -13q-14 0 -25 11l-64 64
q-30 25 -3 54l228 231q13 13 26 13q15 0 27 -13z" />
    <glyph glyph-name="Kcommaaccent" unicode="&#x136;" horiz-adv-x="1316" 
d="M1198 1374l-415 -550l486 -780q11 -19 5 -31.5t-24 -12.5h-251q-31 0 -50 34l-343 562l-153 -187v-370q0 -39 -42 -39h-200q-38 0 -38 39v1347q0 40 38 40h208q34 0 34 -40v-613l437 625q12 18 24 23t32 5h237q18 0 22.5 -19t-7.5 -33zM553 -277v143q0 48 42 48h162
q43 0 43 -46v-140q0 -173 -105 -252q-15 -10 -26 -10q-10 0 -22 9l-39 34q-23 20 2 48q48 45 48 87q0 35 -13 35h-53q-39 0 -39 44z" />
    <glyph glyph-name="kcommaaccent" unicode="&#x137;" horiz-adv-x="1220" 
d="M1109 1159l-365 -435l424 -659q15 -25 4.5 -45t-31.5 -20h-232q-28 0 -51 35l-293 491l-129 -111v-375q0 -40 -36 -40h-205q-38 0 -38 40v1502q0 40 38 40h205q36 0 36 -40v-806l374 462q15 17 27.5 22t32.5 5h207q28 0 38.5 -23.5t-6.5 -42.5zM502 -303v143q0 48 42 48
h162q43 0 43 -46v-140q0 -173 -105 -252q-15 -10 -26 -10q-10 0 -22 9l-39 34q-23 20 2 48q48 45 48 87q0 35 -13 35h-53q-39 0 -39 44z" />
    <glyph glyph-name="kgreenlandic" unicode="&#x138;" horiz-adv-x="1220" 
d="M1109 1159l-365 -435l424 -659q15 -25 4.5 -45t-31.5 -20h-232q-28 0 -51 35l-293 491l-129 -111v-375q0 -40 -36 -40h-205q-38 0 -38 40v1145q0 40 38 40h205q36 0 36 -40v-449l374 462q15 17 27.5 22t32.5 5h207q28 0 38.5 -23.5t-6.5 -42.5z" />
    <glyph glyph-name="Lacute" unicode="&#x139;" horiz-adv-x="1071" 
d="M173 39v1347q0 40 38 40h206q37 0 37 -40v-1119h503q37 0 37 -37v-192q0 -38 -37 -38h-746q-38 0 -38 39zM533 1811l-103 -215q-11 -23 -21 -30t-29 -7h-141q-15 0 -25 12.5t-1 34.5l87 217q8 21 18.5 29t29.5 8h161q16 0 24.5 -15.5t-0.5 -33.5z" />
    <glyph glyph-name="lacute" unicode="&#x13a;" horiz-adv-x="590" 
d="M154 40v1502q0 40 37 40h206q36 0 36 -40v-1502q0 -40 -36 -40h-206q-37 0 -37 40zM520 1947l-103 -215q-11 -23 -21 -30t-29 -7h-141q-15 0 -25 12.5t-1 34.5l87 217q8 21 18.5 29t29.5 8h161q16 0 24.5 -15.5t-0.5 -33.5z" />
    <glyph glyph-name="Lcommaaccent" unicode="&#x13b;" horiz-adv-x="1071" 
d="M173 39v1347q0 40 38 40h206q37 0 37 -40v-1119h503q37 0 37 -37v-192q0 -38 -37 -38h-746q-38 0 -38 39zM465 -325v143q0 48 42 48h162q43 0 43 -46v-140q0 -173 -105 -252q-15 -10 -26 -10q-10 0 -22 9l-39 34q-23 20 2 48q48 45 48 87q0 35 -13 35h-53q-39 0 -39 44z
" />
    <glyph glyph-name="lcommaaccent" unicode="&#x13c;" horiz-adv-x="590" 
d="M154 40v1502q0 40 37 40h206q36 0 36 -40v-1502q0 -40 -36 -40h-206q-37 0 -37 40zM171 -300v143q0 48 42 48h162q43 0 43 -46v-140q0 -173 -105 -252q-15 -10 -26 -10q-10 0 -22 9l-39 34q-23 20 2 48q48 45 48 87q0 35 -13 35h-53q-39 0 -39 44z" />
    <glyph glyph-name="Lcaron" unicode="&#x13d;" horiz-adv-x="1071" 
d="M173 39v1347q0 40 38 40h206q37 0 37 -40v-1119h503q37 0 37 -37v-192q0 -38 -37 -38h-746q-38 0 -38 39zM807 1235v143q0 48 42 48h162q43 0 43 -46v-140q0 -173 -105 -252q-15 -10 -26 -10q-10 0 -22 9l-39 34q-23 20 2 48q48 45 48 87q0 35 -13 35h-53q-39 0 -39 44z
" />
    <glyph glyph-name="lcaron" unicode="&#x13e;" horiz-adv-x="777" 
d="M154 40v1502q0 40 37 40h206q36 0 36 -40v-1502q0 -40 -36 -40h-206q-37 0 -37 40zM510 1392v143q0 48 42 48h162q43 0 43 -46v-140q0 -173 -105 -252q-15 -10 -26 -10q-10 0 -22 9l-39 34q-23 20 2 48q48 45 48 87q0 35 -13 35h-53q-39 0 -39 44z" />
    <glyph glyph-name="Ldot" unicode="&#x13f;" horiz-adv-x="1071" 
d="M173 39v1347q0 40 38 40h206q37 0 37 -40v-1119h503q37 0 37 -37v-192q0 -38 -37 -38h-746q-38 0 -38 39zM666 634v135q0 51 50 51h134q45 0 45 -52v-133q0 -26 -11 -36.5t-34 -10.5h-135q-49 0 -49 46z" />
    <glyph glyph-name="ldot" unicode="&#x140;" horiz-adv-x="737" 
d="M154 40v1502q0 40 37 40h206q36 0 36 -40v-1502q0 -40 -36 -40h-206q-37 0 -37 40zM508 667v135q0 51 50 51h134q45 0 45 -52v-133q0 -26 -11 -36.5t-34 -10.5h-135q-49 0 -49 46z" />
    <glyph glyph-name="Lslash" unicode="&#x141;" horiz-adv-x="1086" 
d="M188 39v497l-112 -46q-6 -2 -10 -2q-22 0 -23 18v136q-6 31 15 40l130 54v650q0 40 38 40h206q37 0 37 -40v-534l139 57q4 2 13 2q19 0 21 -18v-138q0 -32 -14 -38l-159 -65v-385h503q37 0 37 -37v-192q0 -38 -37 -38h-746q-38 0 -38 39z" />
    <glyph glyph-name="lslash" unicode="&#x142;" horiz-adv-x="590" 
d="M154 40v542l-89 -37q-5 -3 -13 -3q-20 0 -21 19v157q-2 32 15 40l108 45v739q0 40 37 40h206q36 0 36 -40v-623l88 37q4 2 12 2q19 0 21 -18v-160q2 -31 -14 -38l-107 -44v-658q0 -40 -36 -40h-206q-37 0 -37 40z" />
    <glyph glyph-name="Nacute" unicode="&#x143;" horiz-adv-x="1462" 
d="M173 39v1347q0 40 38 40h211q25 0 33 -5.5t21 -30.5l485 -762l59 -120l-10 120v758q0 17 9.5 28.5t27.5 11.5h206q36 0 36 -38v-1349q0 -39 -40 -39h-175q-35 0 -55 35l-525 813l-53 100l12 -100v-809q0 -39 -37 -39h-205q-38 0 -38 39zM962 1793l-103 -215
q-11 -23 -21 -30t-29 -7h-141q-15 0 -25 12.5t-1 34.5l87 217q8 21 18.5 29t29.5 8h161q16 0 24.5 -15.5t-0.5 -33.5z" />
    <glyph glyph-name="nacute" unicode="&#x144;" horiz-adv-x="1346" 
d="M920 40v710q0 103 -70 178.5t-165 75.5t-170 -69t-79 -169v-725q0 -19 -16.5 -30t-36.5 -11h-187q-39 0 -39 41v1143q0 41 39 41h139q45 0 55 -48l20 -120q111 195 339 195q61 0 124 -21t121.5 -63t104 -100t73 -139t27.5 -172v-717q0 -40 -37 -40h-204q-38 0 -38 40z
M935 1628l-103 -215q-11 -23 -21 -30t-29 -7h-141q-15 0 -25 12.5t-1 34.5l87 217q8 21 18.5 29t29.5 8h161q16 0 24.5 -15.5t-0.5 -33.5z" />
    <glyph glyph-name="Ncommaaccent" unicode="&#x145;" horiz-adv-x="1462" 
d="M173 39v1347q0 40 38 40h211q25 0 33 -5.5t21 -30.5l485 -762l59 -120l-10 120v758q0 17 9.5 28.5t27.5 11.5h206q36 0 36 -38v-1349q0 -39 -40 -39h-175q-35 0 -55 35l-525 813l-53 100l12 -100v-809q0 -39 -37 -39h-205q-38 0 -38 39zM590 -279v143q0 48 42 48h162
q43 0 43 -46v-140q0 -173 -105 -252q-15 -10 -26 -10q-10 0 -22 9l-39 34q-23 20 2 48q48 45 48 87q0 35 -13 35h-53q-39 0 -39 44z" />
    <glyph glyph-name="ncommaaccent" unicode="&#x146;" horiz-adv-x="1346" 
d="M920 40v710q0 103 -70 178.5t-165 75.5t-170 -69t-79 -169v-725q0 -19 -16.5 -30t-36.5 -11h-187q-39 0 -39 41v1143q0 41 39 41h139q45 0 55 -48l20 -120q111 195 339 195q61 0 124 -21t121.5 -63t104 -100t73 -139t27.5 -172v-717q0 -40 -37 -40h-204q-38 0 -38 40z
M550 -309v143q0 48 42 48h162q43 0 43 -46v-140q0 -173 -105 -252q-15 -10 -26 -10q-10 0 -22 9l-39 34q-23 20 2 48q48 45 48 87q0 35 -13 35h-53q-39 0 -39 44z" />
    <glyph glyph-name="Ncaron" unicode="&#x147;" horiz-adv-x="1462" 
d="M173 39v1347q0 40 38 40h211q25 0 33 -5.5t21 -30.5l485 -762l59 -120l-10 120v758q0 17 9.5 28.5t27.5 11.5h206q36 0 36 -38v-1349q0 -39 -40 -39h-175q-35 0 -55 35l-525 813l-53 100l12 -100v-809q0 -39 -37 -39h-205q-38 0 -38 39zM1004 1758l-227 -231
q-12 -13 -26 -13t-27 13l-227 231q-28 29 2 53l65 66q11 10 24 10q15 0 27 -12l135 -141l137 141q12 12 27 12q13 0 24 -10l65 -66q30 -24 1 -53z" />
    <glyph glyph-name="ncaron" unicode="&#x148;" horiz-adv-x="1346" 
d="M920 40v710q0 103 -70 178.5t-165 75.5t-170 -69t-79 -169v-725q0 -19 -16.5 -30t-36.5 -11h-187q-39 0 -39 41v1143q0 41 39 41h139q45 0 55 -48l20 -120q111 195 339 195q61 0 124 -21t121.5 -63t104 -100t73 -139t27.5 -172v-717q0 -40 -37 -40h-204q-38 0 -38 40z
M980 1601l-227 -231q-12 -13 -26 -13t-27 13l-227 231q-28 29 2 53l65 66q11 10 24 10q15 0 27 -12l135 -141l137 141q12 12 27 12q13 0 24 -10l65 -66q30 -24 1 -53z" />
    <glyph glyph-name="napostrophe" unicode="&#x149;" horiz-adv-x="1479" 
d="M1110 40v710q0 103 -70 178.5t-165 75.5t-170 -69t-79 -169v-725q0 -19 -16.5 -30t-36.5 -11h-187q-39 0 -39 41v1143q0 41 39 41h139q45 0 55 -48l20 -120q111 195 339 195q61 0 124 -21t121.5 -63t104 -100t73 -139t27.5 -172v-717q0 -40 -37 -40h-204q-38 0 -38 40z
M20 1031v143q0 48 42 48h162q43 0 43 -46v-140q0 -173 -105 -252q-15 -10 -26 -10q-10 0 -22 9l-39 34q-23 20 2 48q48 45 48 87q0 35 -13 35h-53q-39 0 -39 44z" />
    <glyph glyph-name="Eng" unicode="&#x14a;" horiz-adv-x="1462" 
d="M173 39v1347q0 40 38 40h211q25 0 33 -5.5t21 -30.5l485 -762l59 -120l-10 120v758q0 17 9.5 28.5t27.5 11.5h206q36 0 36 -38v-1450q0 -86 -35.5 -159.5t-93.5 -122t-131.5 -76t-150.5 -27.5q-84 0 -167.5 34.5t-138.5 98.5q-39 46 -13 71l118 119q15 15 30 15
q14 0 38 -22q64 -60 142 -60q69 0 111.5 38.5t40.5 95.5l-1 48l-45 83l-499 774l-53 100l12 -100v-809q0 -39 -37 -39h-205q-38 0 -38 39z" />
    <glyph glyph-name="eng" unicode="&#x14b;" horiz-adv-x="1346" 
d="M157 41v1143q0 41 39 41h139q45 0 55 -48l20 -120q111 195 339 195q61 0 124 -21t121.5 -63t104 -100t73 -139t27.5 -172v-747q0 -171 -104 -266t-292 -95q-29 0 -44.5 11.5t-15.5 28.5v127q0 45 48 45q71 0 100 39.5t29 124.5v735q-4 99 -73 171.5t-162 72.5
q-97 0 -173 -72.5t-76 -175.5v-715q0 -19 -16.5 -30t-36.5 -11h-187q-39 0 -39 41z" />
    <glyph glyph-name="Omacron" unicode="&#x14c;" horiz-adv-x="1351" 
d="M370 890v-354q0 -134 86.5 -221t219.5 -87t219.5 87t86.5 220v355q0 133 -86.5 220t-219.5 87t-219.5 -87t-86.5 -220zM90 515v393q0 158 77.5 284t211 194.5t296.5 68.5t296.5 -68.5t211.5 -194.5t78 -284v-393q0 -158 -78 -283t-211 -193.5t-296 -68.5t-297 68.5
t-211.5 193.5t-77.5 283zM341 1616v114q0 13 9 21.5t21 8.5h635q13 0 21 -8t8 -21v-115q0 -13 -9 -21t-21 -8h-635q-10 0 -19.5 7.5t-9.5 21.5z" />
    <glyph glyph-name="omacron" unicode="&#x14d;" 
d="M361 740v-258q0 -114 72 -188.5t183 -74.5t183.5 75t72.5 187v259q0 114 -72.5 189t-183.5 75t-183 -75t-72 -189zM91 487v245q0 144 69 263.5t189 188t265 68.5q146 0 266.5 -68.5t190 -188t69.5 -263.5v-245q0 -218 -152 -367.5t-373 -149.5t-372.5 149.5t-151.5 367.5
zM296 1432v114q0 13 9 21.5t21 8.5h635q13 0 21 -8t8 -21v-115q0 -13 -9 -21t-21 -8h-635q-10 0 -19.5 7.5t-9.5 21.5z" />
    <glyph glyph-name="Obreve" unicode="&#x14e;" horiz-adv-x="1351" 
d="M370 890v-354q0 -134 86.5 -221t219.5 -87t219.5 87t86.5 220v355q0 133 -86.5 220t-219.5 87t-219.5 -87t-86.5 -220zM90 515v393q0 158 77.5 284t211 194.5t296.5 68.5t296.5 -68.5t211.5 -194.5t78 -284v-393q0 -158 -78 -283t-211 -193.5t-296 -68.5t-297 68.5
t-211.5 193.5t-77.5 283zM686 1563q-97 0 -164 64t-67 153q0 15 8.5 25.5t21.5 10.5h100q24 0 24 -26q0 -29 21 -50t59 -21q33 0 55 22t22 50q0 25 22 25h99q31 0 31 -35q0 -90 -68 -154.5t-164 -63.5z" />
    <glyph glyph-name="obreve" unicode="&#x14f;" 
d="M361 740v-258q0 -114 72 -188.5t183 -74.5t183.5 75t72.5 187v259q0 114 -72.5 189t-183.5 75t-183 -75t-72 -189zM91 487v245q0 144 69 263.5t189 188t265 68.5q146 0 266.5 -68.5t190 -188t69.5 -263.5v-245q0 -218 -152 -367.5t-373 -149.5t-372.5 149.5t-151.5 367.5
zM628 1355q-97 0 -164 64t-67 153q0 15 8.5 25.5t21.5 10.5h100q24 0 24 -26q0 -29 21 -50t59 -21q33 0 55 22t22 50q0 25 22 25h99q31 0 31 -35q0 -90 -68 -154.5t-164 -63.5z" />
    <glyph glyph-name="Ohungarumlaut" unicode="&#x150;" horiz-adv-x="1351" 
d="M370 890v-354q0 -134 86.5 -221t219.5 -87t219.5 87t86.5 220v355q0 133 -86.5 220t-219.5 87t-219.5 -87t-86.5 -220zM90 515v393q0 158 77.5 284t211 194.5t296.5 68.5t296.5 -68.5t211.5 -194.5t78 -284v-393q0 -158 -78 -283t-211 -193.5t-296 -68.5t-297 68.5
t-211.5 193.5t-77.5 283zM711 1826l-88 -211q-10 -23 -19.5 -30t-28.5 -7h-140q-16 0 -26.5 12t0.5 35l94 214q8 21 18 28.5t29 7.5h138q15 0 22.5 -15.5t0.5 -33.5zM1097 1826l-90 -211q-8 -24 -17.5 -30.5t-29.5 -6.5h-139q-15 0 -25.5 12t-1.5 35l91 214q9 21 19 28.5
t30 7.5h139q15 0 23 -15t1 -34z" />
    <glyph glyph-name="ohungarumlaut" unicode="&#x151;" 
d="M361 740v-258q0 -114 72 -188.5t183 -74.5t183.5 75t72.5 187v259q0 114 -72.5 189t-183.5 75t-183 -75t-72 -189zM91 487v245q0 144 69 263.5t189 188t265 68.5q146 0 266.5 -68.5t190 -188t69.5 -263.5v-245q0 -218 -152 -367.5t-373 -149.5t-372.5 149.5t-151.5 367.5
zM652 1618l-88 -211q-10 -23 -19.5 -30t-28.5 -7h-140q-16 0 -26.5 12t0.5 35l94 214q8 21 18 28.5t29 7.5h138q15 0 22.5 -15.5t0.5 -33.5zM1038 1618l-90 -211q-8 -24 -17.5 -30.5t-29.5 -6.5h-139q-15 0 -25.5 12t-1.5 35l91 214q9 21 19 28.5t30 7.5h139q15 0 23 -15
t1 -34z" />
    <glyph glyph-name="OE" unicode="&#x152;" horiz-adv-x="2047" 
d="M982 535v355q0 133 -86.5 220t-219.5 87t-219.5 -87t-86.5 -220v-354q0 -134 86.5 -221t219.5 -87t219.5 87t86.5 220zM982 39v6q-139 -75 -306 -75q-163 0 -297 68.5t-211.5 193.5t-77.5 283v393q0 158 77.5 284t211 194.5t296.5 68.5q168 0 307 -75v6q0 40 38 40h837
q36 0 36 -38v-192q0 -37 -36 -37h-595v-306h463q41 0 41 -39v-189q0 -38 -41 -38h-463v-328h609q37 0 37 -36v-185q0 -38 -37 -38h-851q-38 0 -38 39z" />
    <glyph glyph-name="oe" unicode="&#x153;" horiz-adv-x="1978" 
d="M361 740v-258q0 -114 72 -188.5t183 -74.5q106 0 178 69.5t78 175.5q-1 8 -1 25v239q0 18 1 27q-5 108 -77 178.5t-179 70.5q-111 0 -183 -75t-72 -189zM1141 736v-9h491v6q0 49 -12 94t-37 86t-71.5 66t-109.5 25q-61 0 -112 -22.5t-82.5 -61t-49 -86t-17.5 -98.5z
M91 487v245q0 144 69 263.5t189 188t265 68.5q116 0 217.5 -44.5t173.5 -123.5q74 80 178 124t225 44q65 0 130 -19t128 -61.5t111.5 -105t78 -157t29.5 -208.5v-98q0 -45 -21 -62t-67 -17h-656v-31q0 -124 74 -199t187 -75q123 0 195 102q12 16 26 16q8 0 13 -4l172 -90
q20 -15 1 -47q-62 -100 -166.5 -163t-234.5 -63q-120 0 -224 44t-179 123q-73 -79 -173.5 -123t-216.5 -44q-221 0 -372.5 149.5t-151.5 367.5z" />
    <glyph glyph-name="Racute" unicode="&#x154;" horiz-adv-x="1251" 
d="M680 1159h-234v-405h234q80 0 134 52.5t54 128.5v39q0 78 -53.5 131.5t-134.5 53.5zM173 39v1347q0 40 38 40h498q184 0 311 -123t127 -295v-81q0 -111 -63 -212t-163 -160l39 -59l199 -455q6 -15 -0.5 -28t-22.5 -13h-249q-16 0 -24.5 7t-16.5 27l-185 461h-215v-456
q0 -39 -34 -39h-201q-38 0 -38 39zM798 1805l-103 -215q-11 -23 -21 -30t-29 -7h-141q-15 0 -25 12.5t-1 34.5l87 217q8 21 18.5 29t29.5 8h161q16 0 24.5 -15.5t-0.5 -33.5z" />
    <glyph glyph-name="racute" unicode="&#x155;" horiz-adv-x="1009" 
d="M157 41v1143q0 41 39 41h136q47 0 57 -48l21 -123q112 198 296 198q80 0 145.5 -23t101.5 -50t21 -70l-41 -159q-7 -23 -39 -23q-18 0 -29 8q-48 36 -89.5 52.5t-105.5 16.5q-99 0 -166.5 -64.5t-67.5 -185.5v-713q0 -20 -12.5 -30.5t-32.5 -10.5h-195q-39 0 -39 41z
M787 1612l-103 -215q-11 -23 -21 -30t-29 -7h-141q-15 0 -25 12.5t-1 34.5l87 217q8 21 18.5 29t29.5 8h161q16 0 24.5 -15.5t-0.5 -33.5z" />
    <glyph glyph-name="Rcommaaccent" unicode="&#x156;" horiz-adv-x="1251" 
d="M680 1159h-234v-405h234q80 0 134 52.5t54 128.5v39q0 78 -53.5 131.5t-134.5 53.5zM173 39v1347q0 40 38 40h498q184 0 311 -123t127 -295v-81q0 -111 -63 -212t-163 -160l39 -59l199 -455q6 -15 -0.5 -28t-22.5 -13h-249q-16 0 -24.5 7t-16.5 27l-185 461h-215v-456
q0 -39 -34 -39h-201q-38 0 -38 39zM530 -297v143q0 48 42 48h162q43 0 43 -46v-140q0 -173 -105 -252q-15 -10 -26 -10q-10 0 -22 9l-39 34q-23 20 2 48q48 45 48 87q0 35 -13 35h-53q-39 0 -39 44z" />
    <glyph glyph-name="rcommaaccent" unicode="&#x157;" horiz-adv-x="1009" 
d="M157 41v1143q0 41 39 41h136q47 0 57 -48l21 -123q112 198 296 198q80 0 145.5 -23t101.5 -50t21 -70l-41 -159q-7 -23 -39 -23q-18 0 -29 8q-48 36 -89.5 52.5t-105.5 16.5q-99 0 -166.5 -64.5t-67.5 -185.5v-713q0 -20 -12.5 -30.5t-32.5 -10.5h-195q-39 0 -39 41z
M169 -292v143q0 48 42 48h162q43 0 43 -46v-140q0 -173 -105 -252q-15 -10 -26 -10q-10 0 -22 9l-39 34q-23 20 2 48q48 45 48 87q0 35 -13 35h-53q-39 0 -39 44z" />
    <glyph glyph-name="Rcaron" unicode="&#x158;" horiz-adv-x="1251" 
d="M680 1159h-234v-405h234q80 0 134 52.5t54 128.5v39q0 78 -53.5 131.5t-134.5 53.5zM173 39v1347q0 40 38 40h498q184 0 311 -123t127 -295v-81q0 -111 -63 -212t-163 -160l39 -59l199 -455q6 -15 -0.5 -28t-22.5 -13h-249q-16 0 -24.5 7t-16.5 27l-185 461h-215v-456
q0 -39 -34 -39h-201q-38 0 -38 39zM838 1783l-227 -231q-12 -13 -26 -13t-27 13l-227 231q-28 29 2 53l65 66q11 10 24 10q15 0 27 -12l135 -141l137 141q12 12 27 12q13 0 24 -10l65 -66q30 -24 1 -53z" />
    <glyph glyph-name="rcaron" unicode="&#x159;" horiz-adv-x="1009" 
d="M157 41v1143q0 41 39 41h136q47 0 57 -48l21 -123q112 198 296 198q80 0 145.5 -23t101.5 -50t21 -70l-41 -159q-7 -23 -39 -23q-18 0 -29 8q-48 36 -89.5 52.5t-105.5 16.5q-99 0 -166.5 -64.5t-67.5 -185.5v-713q0 -20 -12.5 -30.5t-32.5 -10.5h-195q-39 0 -39 41z
M807 1588l-227 -231q-12 -13 -27 -13q-13 0 -26 13l-228 231q-27 29 3 54l64 64q11 11 25 11q15 0 26 -13l136 -140l136 140q13 13 27 13q13 0 24 -11l66 -64q29 -26 1 -54z" />
    <glyph glyph-name="Sacute" unicode="&#x15a;" horiz-adv-x="1166" 
d="M94 255q-30 59 6 75l161 88q10 4 16 4q23 0 41 -33q33 -66 111 -114t163 -48q95 0 155 41.5t60 116.5q0 33 -13.5 61t-35.5 49t-61 43.5t-78 41t-99 44.5q-36 16 -55 24q-184 82 -262 181.5t-78 238.5q0 176 132.5 281.5t336.5 105.5q152 0 275 -61t195 -190
q32 -58 -7 -74l-141 -71q-14 -6 -25 -6q-22 0 -42 28q-73 117 -237 117q-55 0 -99.5 -12t-76.5 -44t-32 -80q0 -62 52 -106t171 -91q90 -36 154 -67.5t125 -74t98 -89t59.5 -108.5t22.5 -136q0 -188 -138 -304t-354 -116q-164 0 -299 78t-201 207zM865 1827l-103 -215
q-11 -23 -21 -30t-29 -7h-141q-15 0 -25 12.5t-1 34.5l87 217q8 21 18.5 29t29.5 8h161q16 0 24.5 -15.5t-0.5 -33.5z" />
    <glyph glyph-name="sacute" unicode="&#x15b;" horiz-adv-x="1025" 
d="M59 233q-23 43 14 64l151 79q10 5 16 5q18 0 32 -28q31 -64 95 -103t139 -39q82 0 132 32t50 97q0 33 -20.5 60.5t-65 51t-85.5 39t-111 38.5q-163 55 -245.5 136.5t-82.5 220.5q0 150 119 257.5t300 107.5q140 0 257 -78t158 -174q10 -21 8 -33.5t-21 -21.5l-136 -64
q-13 -7 -24 -7q-17 0 -28 21q-28 54 -83 85t-123 31q-73 0 -119 -32t-46 -83q0 -23 10.5 -42t27.5 -33t48.5 -28t62.5 -25.5t80 -27.5l51 -17q164 -55 247.5 -152t83.5 -228q0 -113 -61.5 -199t-160 -129.5t-215.5 -43.5q-145 0 -266.5 67t-188.5 196zM754 1608l-103 -215
q-11 -23 -21 -30t-29 -7h-141q-15 0 -25 12.5t-1 34.5l87 217q8 21 18.5 29t29.5 8h161q16 0 24.5 -15.5t-0.5 -33.5z" />
    <glyph glyph-name="Scircumflex" unicode="&#x15c;" horiz-adv-x="1166" 
d="M94 255q-30 59 6 75l161 88q10 4 16 4q23 0 41 -33q33 -66 111 -114t163 -48q95 0 155 41.5t60 116.5q0 33 -13.5 61t-35.5 49t-61 43.5t-78 41t-99 44.5q-36 16 -55 24q-184 82 -262 181.5t-78 238.5q0 176 132.5 281.5t336.5 105.5q152 0 275 -61t195 -190
q32 -58 -7 -74l-141 -71q-14 -6 -25 -6q-22 0 -42 28q-73 117 -237 117q-55 0 -99.5 -12t-76.5 -44t-32 -80q0 -62 52 -106t171 -91q90 -36 154 -67.5t125 -74t98 -89t59.5 -108.5t22.5 -136q0 -188 -138 -304t-354 -116q-164 0 -299 78t-201 207zM648 1915l227 -231
q28 -28 -1 -54l-66 -64q-11 -11 -24 -11q-14 0 -27 13l-136 140l-136 -140q-11 -13 -26 -13q-14 0 -25 11l-64 64q-30 25 -3 54l228 231q13 13 26 13q15 0 27 -13z" />
    <glyph glyph-name="scircumflex" unicode="&#x15d;" horiz-adv-x="1025" 
d="M59 233q-23 43 14 64l151 79q10 5 16 5q18 0 32 -28q31 -64 95 -103t139 -39q82 0 132 32t50 97q0 33 -20.5 60.5t-65 51t-85.5 39t-111 38.5q-163 55 -245.5 136.5t-82.5 220.5q0 150 119 257.5t300 107.5q140 0 257 -78t158 -174q10 -21 8 -33.5t-21 -21.5l-136 -64
q-13 -7 -24 -7q-17 0 -28 21q-28 54 -83 85t-123 31q-73 0 -119 -32t-46 -83q0 -23 10.5 -42t27.5 -33t48.5 -28t62.5 -25.5t80 -27.5l51 -17q164 -55 247.5 -152t83.5 -228q0 -113 -61.5 -199t-160 -129.5t-215.5 -43.5q-145 0 -266.5 67t-188.5 196zM540 1719l227 -231
q28 -28 -1 -54l-66 -64q-11 -11 -24 -11q-14 0 -27 13l-136 140l-136 -140q-11 -13 -26 -13q-14 0 -25 11l-64 64q-30 25 -3 54l228 231q13 13 26 13q15 0 27 -13z" />
    <glyph glyph-name="Scedilla" unicode="&#x15e;" horiz-adv-x="1166" 
d="M523 -121q-30 27 -26 99q-134 21 -240.5 94.5t-162.5 182.5q-30 59 6 75l161 88q10 4 16 4q23 0 41 -33q33 -66 111 -114t163 -48q95 0 155 41.5t60 116.5q0 33 -13.5 61t-35.5 49t-61 43.5t-78 41t-99 44.5q-36 16 -55 24q-184 82 -262 181.5t-78 238.5
q0 176 132.5 281.5t336.5 105.5q152 0 275 -61t195 -190q32 -58 -7 -74l-141 -71q-14 -6 -25 -6q-22 0 -42 28q-73 117 -237 117q-55 0 -99.5 -12t-76.5 -44t-32 -80q0 -62 52 -106t171 -91q90 -36 154 -67.5t125 -74t98 -89t59.5 -108.5t22.5 -136q0 -166 -108.5 -277
t-287.5 -136q-2 -32 21 -58q20 -12 32 -19.5t29 -19.5t27.5 -22t23 -23t18.5 -26t11 -28.5t5 -33t-5 -36.5q-15 -71 -90 -134t-173 -86q-1 0 -2.5 -0.5t-2.5 -0.5q-26 0 -55 64q-30 71 -10 76q67 16 104.5 44t37.5 63q0 49 -56 80q-8 6 -25.5 17t-31.5 21.5t-25 23.5z" />
    <glyph glyph-name="scedilla" unicode="&#x15f;" horiz-adv-x="1025" 
d="M412 -140q-17 16 -23.5 53.5t0.5 69.5q-106 24 -192 87t-138 163q-23 43 14 64l151 79q10 5 16 5q18 0 32 -28q31 -64 95 -103t139 -39q82 0 132 32t50 97q0 33 -20.5 60.5t-65 51t-85.5 39t-111 38.5q-163 55 -245.5 136.5t-82.5 220.5q0 150 119 257.5t300 107.5
q140 0 257 -78t158 -174q10 -21 8 -33.5t-21 -21.5l-136 -64q-13 -7 -24 -7q-17 0 -28 21q-28 54 -83 85t-123 31q-73 0 -119 -32t-46 -83q0 -23 10.5 -42t27.5 -33t48.5 -28t62.5 -25.5t80 -27.5l51 -17q164 -55 247.5 -152t83.5 -228q0 -152 -106 -250.5t-264 -117.5
q-7 -46 19 -74q20 -12 32 -19.5t29 -19.5t27.5 -22t23 -23t18.5 -26t11 -28.5t5 -33t-5 -36.5q-15 -71 -90 -134t-173 -86q-1 0 -2.5 -0.5t-2.5 -0.5q-26 0 -55 64q-30 71 -10 76q67 16 104.5 44t37.5 63q0 49 -56 80q-8 6 -25.5 17t-31.5 21.5t-25 23.5z" />
    <glyph glyph-name="Scaron" unicode="&#x160;" horiz-adv-x="1166" 
d="M94 255q-30 59 6 75l161 88q10 4 16 4q23 0 41 -33q33 -66 111 -114t163 -48q95 0 155 41.5t60 116.5q0 33 -13.5 61t-35.5 49t-61 43.5t-78 41t-99 44.5q-36 16 -55 24q-184 82 -262 181.5t-78 238.5q0 176 132.5 281.5t336.5 105.5q152 0 275 -61t195 -190
q32 -58 -7 -74l-141 -71q-14 -6 -25 -6q-22 0 -42 28q-73 117 -237 117q-55 0 -99.5 -12t-76.5 -44t-32 -80q0 -62 52 -106t171 -91q90 -36 154 -67.5t125 -74t98 -89t59.5 -108.5t22.5 -136q0 -188 -138 -304t-354 -116q-164 0 -299 78t-201 207zM873 1789l-227 -231
q-12 -13 -26 -13t-27 13l-227 231q-28 29 2 53l65 66q11 10 24 10q15 0 27 -12l135 -141l137 141q12 12 27 12q13 0 24 -10l65 -66q30 -24 1 -53z" />
    <glyph glyph-name="scaron" unicode="&#x161;" horiz-adv-x="1025" 
d="M59 233q-23 43 14 64l151 79q10 5 16 5q18 0 32 -28q31 -64 95 -103t139 -39q82 0 132 32t50 97q0 33 -20.5 60.5t-65 51t-85.5 39t-111 38.5q-163 55 -245.5 136.5t-82.5 220.5q0 150 119 257.5t300 107.5q140 0 257 -78t158 -174q10 -21 8 -33.5t-21 -21.5l-136 -64
q-13 -7 -24 -7q-17 0 -28 21q-28 54 -83 85t-123 31q-73 0 -119 -32t-46 -83q0 -23 10.5 -42t27.5 -33t48.5 -28t62.5 -25.5t80 -27.5l51 -17q164 -55 247.5 -152t83.5 -228q0 -113 -61.5 -199t-160 -129.5t-215.5 -43.5q-145 0 -266.5 67t-188.5 196zM780 1594l-227 -231
q-12 -13 -26 -13t-27 13l-227 231q-28 29 2 53l65 66q11 10 24 10q15 0 27 -12l135 -141l137 141q12 12 27 12q13 0 24 -10l65 -66q30 -24 1 -53z" />
    <glyph glyph-name="Tcommaaccent" unicode="&#x162;" horiz-adv-x="1048" 
d="M22 1198v190q0 38 36 38h933q37 0 37 -38v-191q0 -38 -37 -38h-327v-1120q0 -39 -36 -39h-210q-33 0 -33 39v1120h-327q-36 0 -36 39zM401 -304v143q0 48 42 48h162q43 0 43 -46v-140q0 -173 -105 -252q-15 -10 -26 -10q-10 0 -22 9l-39 34q-23 20 2 48q48 45 48 87
q0 35 -13 35h-53q-39 0 -39 44z" />
    <glyph glyph-name="tcommaaccent" unicode="&#x163;" horiz-adv-x="741" 
d="M662 968h-179v-929q0 -39 -37 -39h-208q-35 0 -35 39v929h-130q-16 0 -26.5 9t-10.5 26v188q0 16 10.5 25t26.5 9h130v190q0 20 8.5 31t30.5 18l181 60q5 2 16 2q19 0 31.5 -13.5t12.5 -37.5v-250h179q17 0 27 -9.5t10 -24.5v-188q0 -35 -37 -35zM217 -311v143
q0 48 42 48h162q43 0 43 -46v-140q0 -173 -105 -252q-15 -10 -26 -10q-10 0 -22 9l-39 34q-23 20 2 48q48 45 48 87q0 35 -13 35h-53q-39 0 -39 44z" />
    <glyph glyph-name="Tcaron" unicode="&#x164;" horiz-adv-x="1048" 
d="M22 1198v190q0 38 36 38h933q37 0 37 -38v-191q0 -38 -37 -38h-327v-1120q0 -39 -36 -39h-210q-33 0 -33 39v1120h-327q-36 0 -36 39zM782 1788l-227 -231q-12 -13 -26 -13t-27 13l-227 231q-28 29 2 53l65 66q11 10 24 10q15 0 27 -12l135 -141l137 141q12 12 27 12
q13 0 24 -10l65 -66q30 -24 1 -53z" />
    <glyph glyph-name="tcaron" unicode="&#x165;" horiz-adv-x="973" 
d="M662 968h-179v-929q0 -39 -37 -39h-208q-35 0 -35 39v929h-130q-16 0 -26.5 9t-10.5 26v188q0 16 10.5 25t26.5 9h130v190q0 20 8.5 31t30.5 18l181 60q5 2 16 2q19 0 31.5 -13.5t12.5 -37.5v-250h179q17 0 27 -9.5t10 -24.5v-188q0 -35 -37 -35zM726 1399v143
q0 48 42 48h162q43 0 43 -46v-140q0 -173 -105 -252q-15 -10 -26 -10q-10 0 -22 9l-39 34q-23 20 2 48q48 45 48 87q0 35 -13 35h-53q-39 0 -39 44z" />
    <glyph glyph-name="Tbar" unicode="&#x166;" horiz-adv-x="1048" 
d="M22 1198v190q0 38 36 38h933q37 0 37 -38v-191q0 -38 -37 -38h-327v-321h116q34 0 34 -38v-145q0 -17 -11 -28.5t-29 -11.5h-110v-576q0 -39 -36 -39h-210q-33 0 -33 39v576h-119q-16 0 -28.5 11.5t-12.5 32.5v132q0 22 12.5 34.5t28.5 12.5h119v321h-327q-36 0 -36 39z
" />
    <glyph glyph-name="tbar" unicode="&#x167;" horiz-adv-x="741" 
d="M662 968h-179v-259h78q32 0 32 -35v-117q0 -15 -10 -24t-24 -9h-76v-485q0 -39 -37 -39h-208q-35 0 -35 39v485h-75q-11 0 -21.5 9t-10.5 25v114q0 17 10 27t22 10h75v259h-130q-16 0 -26.5 9t-10.5 26v188q0 16 10.5 25t26.5 9h130v190q0 20 8.5 31t30.5 18l181 60
q5 2 16 2q19 0 31.5 -13.5t12.5 -37.5v-250h179q17 0 27 -9.5t10 -24.5v-188q0 -35 -37 -35z" />
    <glyph glyph-name="Utilde" unicode="&#x168;" horiz-adv-x="1408" 
d="M428 1386v-871q0 -131 77.5 -209t201.5 -78t199 80t75 207v871q0 17 10 28.5t27 11.5h199q19 0 31.5 -12t12.5 -28v-875q0 -129 -44.5 -233t-121.5 -170.5t-176.5 -102t-211.5 -35.5q-89 0 -171.5 22.5t-153.5 68t-123 109.5t-82 152t-30 191v873q0 16 11 28t26 12h208
q36 0 36 -40zM521 1585q-9 -10 -20 -10q-16 0 -39 23l-47 42q-15 13 -18 23t0 16t17 27q73 108 182 108q37 0 80.5 -21.5t79.5 -43t56 -21.5q21 0 36 12t35 37q14 17 31 17q15 0 31 -14l60 -58q22 -20 3 -49q-75 -116 -192 -116q-39 0 -80.5 21.5t-76.5 42.5t-57 21
q-12 0 -21.5 -3t-18.5 -10t-14 -12t-14 -16.5t-13 -15.5z" />
    <glyph glyph-name="utilde" unicode="&#x169;" horiz-adv-x="1346" 
d="M426 1185v-723q4 -100 73 -172t162 -72q95 0 170 68.5t79 168.5v729q0 19 16.5 30t36.5 11h188q38 0 38 -41v-1143q0 -41 -39 -41h-138q-46 0 -56 48l-20 117q-110 -195 -339 -195q-77 0 -155.5 33.5t-144.5 94.5t-108 157.5t-42 209.5v720q0 40 38 40h203q38 0 38 -40z
M452 1374q-9 -10 -20 -10q-16 0 -39 23l-47 42q-15 13 -18 23t0 16t17 27q73 108 182 108q37 0 80.5 -21.5t79.5 -43t56 -21.5q21 0 36 12t35 37q14 17 31 17q15 0 31 -14l60 -58q22 -20 3 -49q-75 -116 -192 -116q-39 0 -80.5 21t-76.5 42.5t-57 21.5q-12 0 -21.5 -3
t-18.5 -10t-14 -12t-14 -16.5t-13 -15.5z" />
    <glyph glyph-name="Umacron" unicode="&#x16a;" horiz-adv-x="1408" 
d="M428 1386v-871q0 -131 77.5 -209t201.5 -78t199 80t75 207v871q0 17 10 28.5t27 11.5h199q19 0 31.5 -12t12.5 -28v-875q0 -129 -44.5 -233t-121.5 -170.5t-176.5 -102t-211.5 -35.5q-89 0 -171.5 22.5t-153.5 68t-123 109.5t-82 152t-30 191v873q0 16 11 28t26 12h208
q36 0 36 -40zM369 1586v114q0 13 9 21.5t21 8.5h635q13 0 21 -8t8 -21v-115q0 -13 -9 -21t-21 -8h-635q-10 0 -19.5 7.5t-9.5 21.5z" />
    <glyph glyph-name="umacron" unicode="&#x16b;" horiz-adv-x="1346" 
d="M426 1185v-723q4 -100 73 -172t162 -72q95 0 170 68.5t79 168.5v729q0 19 16.5 30t36.5 11h188q38 0 38 -41v-1143q0 -41 -39 -41h-138q-46 0 -56 48l-20 117q-110 -195 -339 -195q-77 0 -155.5 33.5t-144.5 94.5t-108 157.5t-42 209.5v720q0 40 38 40h203q38 0 38 -40z
M315 1384v114q0 13 9 21.5t21 8.5h635q13 0 21 -8t8 -21v-115q0 -13 -9 -21t-21 -8h-635q-10 0 -19.5 7.5t-9.5 21.5z" />
    <glyph glyph-name="Ubreve" unicode="&#x16c;" horiz-adv-x="1408" 
d="M428 1386v-871q0 -131 77.5 -209t201.5 -78t199 80t75 207v871q0 17 10 28.5t27 11.5h199q19 0 31.5 -12t12.5 -28v-875q0 -129 -44.5 -233t-121.5 -170.5t-176.5 -102t-211.5 -35.5q-89 0 -171.5 22.5t-153.5 68t-123 109.5t-82 152t-30 191v873q0 16 11 28t26 12h208
q36 0 36 -40zM711 1552q-97 0 -164 64t-67 153q0 15 8.5 25.5t21.5 10.5h100q24 0 24 -26q0 -29 21 -50t59 -21q33 0 55 22t22 50q0 25 22 25h99q31 0 31 -35q0 -90 -68 -154.5t-164 -63.5z" />
    <glyph glyph-name="ubreve" unicode="&#x16d;" horiz-adv-x="1346" 
d="M426 1185v-723q4 -100 73 -172t162 -72q95 0 170 68.5t79 168.5v729q0 19 16.5 30t36.5 11h188q38 0 38 -41v-1143q0 -41 -39 -41h-138q-46 0 -56 48l-20 117q-110 -195 -339 -195q-77 0 -155.5 33.5t-144.5 94.5t-108 157.5t-42 209.5v720q0 40 38 40h203q38 0 38 -40z
M678 1329q-97 0 -164 64t-67 153q0 15 8.5 25.5t21.5 10.5h100q24 0 24 -26q0 -29 21 -50t59 -21q33 0 55 22t22 50q0 25 22 25h99q31 0 31 -35q0 -90 -68 -154.5t-164 -63.5z" />
    <glyph glyph-name="Uring" unicode="&#x16e;" horiz-adv-x="1408" 
d="M711 1755q-28 0 -46.5 -19t-18.5 -48q0 -30 18.5 -48t46.5 -18t47.5 18.5t19.5 47.5t-19.5 48t-47.5 19zM428 1386v-871q0 -131 77.5 -209t201.5 -78t199 80t75 207v871q0 17 10 28.5t27 11.5h199q19 0 31.5 -12t12.5 -28v-875q0 -129 -44.5 -233t-121.5 -170.5
t-176.5 -102t-211.5 -35.5q-89 0 -171.5 22.5t-153.5 68t-123 109.5t-82 152t-30 191v873q0 16 11 28t26 12h208q36 0 36 -40zM710 1870q77 0 131 -53.5t54 -129.5t-54 -129t-131 -53t-130.5 53t-53.5 129t53.5 129.5t130.5 53.5z" />
    <glyph glyph-name="uring" unicode="&#x16f;" horiz-adv-x="1346" 
d="M680 1566q-28 0 -46.5 -19t-18.5 -48q0 -30 18.5 -48t46.5 -18t47.5 18.5t19.5 47.5t-19.5 48t-47.5 19zM426 1185v-723q4 -100 73 -172t162 -72q95 0 170 68.5t79 168.5v729q0 19 16.5 30t36.5 11h188q38 0 38 -41v-1143q0 -41 -39 -41h-138q-46 0 -56 48l-20 117
q-110 -195 -339 -195q-77 0 -155.5 33.5t-144.5 94.5t-108 157.5t-42 209.5v720q0 40 38 40h203q38 0 38 -40zM679 1681q77 0 131 -53.5t54 -129.5t-54 -129t-131 -53t-130.5 53t-53.5 129t53.5 129.5t130.5 53.5z" />
    <glyph glyph-name="Uhungarumlaut" unicode="&#x170;" horiz-adv-x="1408" 
d="M428 1386v-871q0 -131 77.5 -209t201.5 -78t199 80t75 207v871q0 17 10 28.5t27 11.5h199q19 0 31.5 -12t12.5 -28v-875q0 -129 -44.5 -233t-121.5 -170.5t-176.5 -102t-211.5 -35.5q-89 0 -171.5 22.5t-153.5 68t-123 109.5t-82 152t-30 191v873q0 16 11 28t26 12h208
q36 0 36 -40zM711 1807l-88 -211q-10 -23 -19.5 -30t-28.5 -7h-140q-16 0 -26.5 12t0.5 35l94 214q8 21 18 28.5t29 7.5h138q15 0 22.5 -15.5t0.5 -33.5zM1097 1807l-90 -211q-8 -24 -17.5 -30.5t-29.5 -6.5h-139q-15 0 -25.5 12t-1.5 35l91 214q9 21 19 28.5t30 7.5h139
q15 0 23 -15t1 -34z" />
    <glyph glyph-name="uhungarumlaut" unicode="&#x171;" horiz-adv-x="1346" 
d="M426 1185v-723q4 -100 73 -172t162 -72q95 0 170 68.5t79 168.5v729q0 19 16.5 30t36.5 11h188q38 0 38 -41v-1143q0 -41 -39 -41h-138q-46 0 -56 48l-20 117q-110 -195 -339 -195q-77 0 -155.5 33.5t-144.5 94.5t-108 157.5t-42 209.5v720q0 40 38 40h203q38 0 38 -40z
M683 1584l-88 -211q-10 -23 -19.5 -30t-28.5 -7h-140q-16 0 -26.5 12t0.5 35l94 214q8 21 18 28.5t29 7.5h138q15 0 22.5 -15.5t0.5 -33.5zM1069 1584l-90 -211q-8 -24 -17.5 -30.5t-29.5 -6.5h-139q-15 0 -25.5 12t-1.5 35l91 214q9 21 19 28.5t30 7.5h139q15 0 23 -15
t1 -34z" />
    <glyph glyph-name="Uogonek" unicode="&#x172;" horiz-adv-x="1408" 
d="M1118 -191q0 -92 -62.5 -158.5t-154.5 -66.5q-94 0 -159 63.5t-65 157.5q0 81 74 166q-15 -1 -44 -1q-89 0 -171.5 22.5t-153.5 68t-123 109.5t-82 152t-30 191v873q0 16 11 28t26 12h208q36 0 36 -40v-871q0 -131 77.5 -209t201.5 -78t199 80t75 207v871q0 17 10 28.5
t27 11.5h199q19 0 31.5 -12t12.5 -28v-875q0 -156 -64 -272.5t-175 -184.5l-160 -173q-37 -41 -39 -73q-2 -33 20 -55t56 -22q29 -1 51.5 19.5t22.5 53.5q0 37 29 37h87q11 0 20 -8.5t9 -23.5z" />
    <glyph glyph-name="uogonek" unicode="&#x173;" horiz-adv-x="1346" 
d="M1275 -236q0 -92 -62.5 -158.5t-154.5 -66.5q-94 0 -159 63.5t-65 157.5q0 83 79 172l69 74q-19 11 -26 42l-20 117q-110 -195 -339 -195q-77 0 -155.5 33.5t-144.5 94.5t-108 157.5t-42 209.5v720q0 40 38 40h203q38 0 38 -40v-723q4 -100 73 -172t162 -72
q95 0 170 68.5t79 168.5v729q0 19 16.5 30t36.5 11h188q38 0 38 -41v-1143q0 -6 -1 -9q2 -12 -9 -23l-160 -173q-37 -41 -39 -73q-2 -33 20 -55t56 -22q29 -1 51.5 19.5t22.5 53.5q0 37 29 37h87q11 0 20 -8.5t9 -23.5z" />
    <glyph glyph-name="Wcircumflex" unicode="&#x174;" horiz-adv-x="1800" 
d="M874 445l-142 -408q-12 -37 -47 -37h-186q-35 0 -48 37l-416 1348q-14 41 25 41h223q36 0 46 -36l250 -952l22 -128l22 128l290 952q11 36 47 36h216q39 0 25 -41l-168 -483l147 -464l19 -121l21 121l258 952q10 36 46 36h216q39 0 24 -41l-416 -1348q-12 -37 -47 -37
h-184q-36 0 -47 37l-144 408l-26 109zM998 1905l227 -231q28 -28 -1 -54l-66 -64q-11 -11 -24 -11q-14 0 -27 13l-136 140l-136 -140q-11 -13 -26 -13q-14 0 -25 11l-64 64q-30 25 -3 54l228 231q13 13 26 13q15 0 27 -13z" />
    <glyph glyph-name="wcircumflex" unicode="&#x175;" horiz-adv-x="1708" 
d="M1095 1168l-104 -280l132 -458l22 -114l22 115l224 759q10 35 47 35h211q46 0 25 -57l-421 -1133q-13 -35 -46 -35h-134q-35 0 -47 35l-146 414l-30 107l-27 -109l-148 -412q-13 -35 -47 -35h-134q-33 0 -46 35l-408 1127q-10 31 -0.5 47t34.5 16h201q34 0 46 -38
l225 -757l21 -120l21 120l225 760q11 35 47 35h210q47 0 25 -57zM938 1707l227 -231q28 -28 -1 -54l-66 -64q-11 -11 -24 -11q-14 0 -27 13l-136 140l-136 -140q-11 -13 -26 -13q-14 0 -25 11l-64 64q-30 25 -3 54l228 231q13 13 26 13q15 0 27 -13z" />
    <glyph glyph-name="Ycircumflex" unicode="&#x176;" horiz-adv-x="1123" 
d="M421 40v520l-406 823q-9 19 -2 31t25 12h240q32 0 46 -36l211 -478l26 -112l27 112l209 477q14 36 46 36h242q18 0 25 -11.5t-2 -29.5l-407 -827v-517q0 -40 -35 -40h-211q-34 0 -34 40zM595 1872l227 -231q28 -28 -1 -54l-66 -64q-11 -11 -24 -11q-14 0 -27 13l-136 140
l-136 -140q-11 -13 -26 -13q-14 0 -25 11l-64 64q-30 25 -3 54l228 231q13 13 26 13q15 0 27 -13z" />
    <glyph glyph-name="ycircumflex" unicode="&#x177;" horiz-adv-x="1192" 
d="M1152 1168l-557 -1560q-13 -36 -49 -36h-173q-33 0 -46 19t0 52l130 364l-416 1154q-10 31 -0.5 47.5t34.5 16.5h208q35 0 46 -39l236 -735l31 -164l32 165l235 738q10 36 46 36h219q47 0 24 -58zM648 1703l227 -231q28 -28 -1 -54l-66 -64q-11 -11 -24 -11q-14 0 -27 13
l-136 140l-136 -140q-11 -13 -26 -13q-14 0 -25 11l-64 64q-30 25 -3 54l228 231q13 13 26 13q15 0 27 -13z" />
    <glyph glyph-name="Ydieresis" unicode="&#x178;" horiz-adv-x="1123" 
d="M421 40v520l-406 823q-9 19 -2 31t25 12h240q32 0 46 -36l211 -478l26 -112l27 112l209 477q14 36 46 36h242q18 0 25 -11.5t-2 -29.5l-407 -827v-517q0 -40 -35 -40h-211q-34 0 -34 40zM262 1591v135q0 51 48 51h138q44 0 44 -51v-135q0 -46 -44 -46h-137q-49 0 -49 46z
M628 1591v135q0 51 48 51h138q45 0 45 -51v-135q0 -46 -45 -46h-137q-49 0 -49 46z" />
    <glyph glyph-name="Zacute" unicode="&#x179;" horiz-adv-x="1173" 
d="M134 1426h910q32 0 32 -35v-148q0 -8 -6 -17q-4 -14 -7 -18l-629 -945l73 11h540q33 0 33 -33v-207q0 -34 -33 -34h-929q-33 0 -33 34v151q0 6 2 14q0 9 5 17l623 961l-88 -8h-493q-34 0 -34 34v188q0 35 34 35zM814 1802l-103 -215q-11 -23 -21 -30t-29 -7h-141
q-15 0 -25 12.5t-1 34.5l87 217q8 21 18.5 29t29.5 8h161q16 0 24.5 -15.5t-0.5 -33.5z" />
    <glyph glyph-name="zacute" unicode="&#x17a;" horiz-adv-x="1078" 
d="M142 1225h797q29 0 31 -33v-150q0 -22 -6 -31l-553 -767l81 11h454q15 0 24.5 -9.5t9.5 -22.5v-189q0 -14 -10.5 -24t-23.5 -10h-833q-29 0 -29 33l-1 134q0 18 10 35l553 773l-71 -8h-433q-14 0 -23 10t-9 23v192q0 14 8.5 23.5t23.5 9.5zM773 1595l-103 -215
q-11 -23 -21 -30t-29 -7h-141q-15 0 -25 12.5t-1 34.5l87 217q8 21 18.5 29t29.5 8h161q16 0 24.5 -15.5t-0.5 -33.5z" />
    <glyph glyph-name="Zdotaccent" unicode="&#x17b;" horiz-adv-x="1173" 
d="M134 1426h910q32 0 32 -35v-148q0 -8 -6 -17q-4 -14 -7 -18l-629 -945l73 11h540q33 0 33 -33v-207q0 -34 -33 -34h-929q-33 0 -33 34v151q0 6 2 14q0 9 5 17l623 961l-88 -8h-493q-34 0 -34 34v188q0 35 34 35zM481 1618v135q0 51 50 51h134q45 0 45 -52v-133
q0 -26 -11 -36.5t-34 -10.5h-135q-49 0 -49 46z" />
    <glyph glyph-name="zdotaccent" unicode="&#x17c;" horiz-adv-x="1078" 
d="M142 1225h797q29 0 31 -33v-150q0 -22 -6 -31l-553 -767l81 11h454q15 0 24.5 -9.5t9.5 -22.5v-189q0 -14 -10.5 -24t-23.5 -10h-833q-29 0 -29 33l-1 134q0 18 10 35l553 773l-71 -8h-433q-14 0 -23 10t-9 23v192q0 14 8.5 23.5t23.5 9.5zM447 1399v135q0 51 50 51h134
q45 0 45 -52v-133q0 -26 -11 -36.5t-34 -10.5h-135q-49 0 -49 46z" />
    <glyph glyph-name="Zcaron" unicode="&#x17d;" horiz-adv-x="1173" 
d="M134 1426h910q32 0 32 -35v-148q0 -8 -6 -17q-4 -14 -7 -18l-629 -945l73 11h540q33 0 33 -33v-207q0 -34 -33 -34h-929q-33 0 -33 34v151q0 6 2 14q0 9 5 17l623 961l-88 -8h-493q-34 0 -34 34v188q0 35 34 35zM860 1798l-227 -231q-12 -13 -26 -13t-27 13l-227 231
q-28 29 2 53l65 66q11 10 24 10q15 0 27 -12l135 -141l137 141q12 12 27 12q13 0 24 -10l65 -66q30 -24 1 -53z" />
    <glyph glyph-name="zcaron" unicode="&#x17e;" horiz-adv-x="1078" 
d="M142 1225h797q29 0 31 -33v-150q0 -22 -6 -31l-553 -767l81 11h454q15 0 24.5 -9.5t9.5 -22.5v-189q0 -14 -10.5 -24t-23.5 -10h-833q-29 0 -29 33l-1 134q0 18 10 35l553 773l-71 -8h-433q-14 0 -23 10t-9 23v192q0 14 8.5 23.5t23.5 9.5zM810 1603l-227 -231
q-12 -13 -26 -13t-27 13l-227 231q-28 29 2 53l65 66q11 10 24 10q15 0 27 -12l135 -141l137 141q12 12 27 12q13 0 24 -10l65 -66q30 -24 1 -53z" />
    <glyph glyph-name="longs" unicode="&#x17f;" horiz-adv-x="736" 
d="M215 38v835h-131q-16 0 -26.5 9t-10.5 26v186q0 15 10.5 24.5t26.5 9.5h131v106q0 184 119 288t321 104q30 0 40.5 -11t10.5 -37v-159q0 -45 -52 -45q-82 0 -123.5 -41t-41.5 -132v-1163q0 -38 -34 -38h-206q-34 0 -34 38z" />
    <glyph glyph-name="florin" unicode="&#x192;" horiz-adv-x="734" 
d="M494 971v-984q0 -183 -121 -287.5t-323 -104.5q-29 0 -40 11.5t-11 37.5v159q0 45 51 45q82 0 123.5 41t41.5 132v126h1v824h-129q-38 0 -38 35v184q0 16 10.5 25.5t27.5 9.5h129q0 92 16 159.5t53 121t104.5 81t164.5 27.5q47 0 113 -8q29 -4 40 -16t11 -38v-125
q0 -46 -40 -46q-8 0 -12 1q-33 5 -54 5q-65 0 -90.5 -38t-27.5 -124h185q16 0 26.5 -10t10.5 -25v-184q0 -35 -37 -35h-185z" />
    <glyph glyph-name="AEacute" unicode="&#x1fc;" horiz-adv-x="1930" 
d="M916 1011l-304 -502h304v502zM916 39v227h-451l-140 -231q-12 -21 -21 -28t-25 -7h-230q-18 0 -23 14t6 30l865 1348q14 21 23 27.5t25 6.5h846q36 0 36 -38v-192q0 -37 -36 -37h-595v-306h463q41 0 41 -39v-189q0 -38 -41 -38h-463v-328h609q38 0 38 -36v-185
q0 -38 -38 -38h-851q-38 0 -38 39zM1601 1813l-103 -215q-11 -23 -21 -30t-29 -7h-141q-15 0 -25 12.5t-1 34.5l87 217q8 21 18.5 29t29.5 8h161q16 0 24.5 -15.5t-0.5 -33.5z" />
    <glyph glyph-name="aeacute" unicode="&#x1fd;" horiz-adv-x="1953" 
d="M872 481v270q-4 109 -79.5 181t-183.5 72q-106 0 -177 -75.5t-71 -188.5v-258q0 -113 71 -188t177 -75q111 0 187 75.5t76 186.5zM1142 736v-9h490v6q0 49 -12 94t-37 86t-71.5 66t-109.5 25q-81 0 -142 -39.5t-89.5 -99.5t-28.5 -129zM91 487v245q0 144 65 263.5
t178.5 188t251.5 68.5q99 0 178.5 -54t134.5 -146l21 132q8 41 51 41h130q37 0 40 -37q122 64 267 64q65 0 130 -19t128 -61.5t111.5 -105t78 -157t29.5 -208.5v-98q0 -45 -21 -62t-67 -17h-655v-31q0 -124 73.5 -199t187.5 -75q124 0 194 102q12 16 26 16q9 0 14 -4
l172 -90q20 -15 0 -47q-62 -100 -166.5 -163t-234.5 -63q-145 0 -267 64q-5 -34 -39 -34h-135q-18 0 -31 11t-16 30l-19 133q-55 -94 -135 -149t-180 -55q-138 0 -251.5 68t-178.5 187t-65 262zM1263 1621l-103 -215q-11 -23 -21 -30t-29 -7h-141q-15 0 -25 12.5t-1 34.5
l87 217q8 21 18.5 29t29.5 8h161q16 0 24.5 -15.5t-0.5 -33.5z" />
    <glyph glyph-name="Oslashacute" unicode="&#x1fe;" horiz-adv-x="1351" 
d="M370 889v-352q0 -134 86.5 -221t219.5 -87t219.5 87t86.5 220v353q0 132 -87 219.5t-219 87.5q-133 0 -219.5 -87t-86.5 -220zM90 515v393q0 158 77.5 284t211 194.5t296.5 68.5q76 0 152 -17l24 64q18 40 55 40h231q20 0 27 -11.5t-2 -33.5l-77 -189q84 -74 130 -176.5
t46 -223.5v-393q0 -158 -78 -283t-211 -193.5t-296 -68.5q-51 0 -105 8l-28 -76q-14 -39 -55 -39h-231q-43 0 -24 45l71 177q-101 74 -157.5 184.5t-56.5 245.5zM935 1824l-103 -215q-11 -23 -21 -30t-29 -7h-141q-15 0 -25 12.5t-1 34.5l87 217q8 21 18.5 29t29.5 8h161
q16 0 24.5 -15.5t-0.5 -33.5z" />
    <glyph glyph-name="oslashacute" unicode="&#x1ff;" 
d="M361 740v-258q0 -114 72 -188.5t183 -74.5t183.5 75t72.5 187v259q0 114 -72.5 189t-183.5 75t-183 -75t-72 -189zM91 487v245q0 144 69 263.5t189 188t265 68.5q83 0 163 -25l24 64q13 30 40 30h175q30 -2 17 -36l-2 -8l-64 -157q82 -72 127.5 -172.5t45.5 -215.5v-245
q0 -218 -152 -367.5t-373 -149.5q-51 0 -99 9l-31 -81q-13 -29 -40 -29h-174q-31 0 -18 35l63 155q-105 70 -165 182t-60 246zM859 1617l-103 -215q-11 -23 -21 -30t-29 -7h-141q-15 0 -25 12.5t-1 34.5l87 217q8 21 18.5 29t29.5 8h161q16 0 24.5 -15.5t-0.5 -33.5z" />
    <glyph glyph-name="Scommaaccent" unicode="&#x218;" horiz-adv-x="1166" 
d="M94 255q-30 59 6 75l161 88q10 4 16 4q23 0 41 -33q33 -66 111 -114t163 -48q95 0 155 41.5t60 116.5q0 33 -13.5 61t-35.5 49t-61 43.5t-78 41t-99 44.5q-36 16 -55 24q-184 82 -262 181.5t-78 238.5q0 176 132.5 281.5t336.5 105.5q152 0 275 -61t195 -190
q32 -58 -7 -74l-141 -71q-14 -6 -25 -6q-22 0 -42 28q-73 117 -237 117q-55 0 -99.5 -12t-76.5 -44t-32 -80q0 -62 52 -106t171 -91q90 -36 154 -67.5t125 -74t98 -89t59.5 -108.5t22.5 -136q0 -188 -138 -304t-354 -116q-164 0 -299 78t-201 207zM484 -335v143q0 48 42 48
h162q43 0 43 -46v-140q0 -173 -105 -252q-15 -10 -26 -10q-10 0 -22 9l-39 34q-23 20 2 48q48 45 48 87q0 35 -13 35h-53q-39 0 -39 44z" />
    <glyph glyph-name="scommaaccent" unicode="&#x219;" horiz-adv-x="1025" 
d="M59 233q-23 43 14 64l151 79q10 5 16 5q18 0 32 -28q31 -64 95 -103t139 -39q82 0 132 32t50 97q0 33 -20.5 60.5t-65 51t-85.5 39t-111 38.5q-163 55 -245.5 136.5t-82.5 220.5q0 150 119 257.5t300 107.5q140 0 257 -78t158 -174q10 -21 8 -33.5t-21 -21.5l-136 -64
q-13 -7 -24 -7q-17 0 -28 21q-28 54 -83 85t-123 31q-73 0 -119 -32t-46 -83q0 -23 10.5 -42t27.5 -33t48.5 -28t62.5 -25.5t80 -27.5l51 -17q164 -55 247.5 -152t83.5 -228q0 -113 -61.5 -199t-160 -129.5t-215.5 -43.5q-145 0 -266.5 67t-188.5 196zM379 -321v143
q0 48 42 48h162q43 0 43 -46v-140q0 -173 -105 -252q-15 -10 -26 -10q-10 0 -22 9l-39 34q-23 20 2 48q48 45 48 87q0 35 -13 35h-53q-39 0 -39 44z" />
    <glyph glyph-name="uni021A" unicode="&#x21a;" horiz-adv-x="1048" 
d="M22 1198v190q0 38 36 38h933q37 0 37 -38v-191q0 -38 -37 -38h-327v-1120q0 -39 -36 -39h-210q-33 0 -33 39v1120h-327q-36 0 -36 39zM400 -337v143q0 48 42 48h162q43 0 43 -46v-140q0 -173 -105 -252q-15 -10 -26 -10q-10 0 -22 9l-39 34q-23 20 2 48q48 45 48 87
q0 35 -13 35h-53q-39 0 -39 44z" />
    <glyph glyph-name="uni021B" unicode="&#x21b;" horiz-adv-x="741" 
d="M662 968h-179v-929q0 -39 -37 -39h-208q-35 0 -35 39v929h-130q-16 0 -26.5 9t-10.5 26v188q0 16 10.5 25t26.5 9h130v190q0 20 8.5 31t30.5 18l181 60q5 2 16 2q19 0 31.5 -13.5t12.5 -37.5v-250h179q17 0 27 -9.5t10 -24.5v-188q0 -35 -37 -35zM216 -294v143
q0 48 42 48h162q43 0 43 -46v-140q0 -173 -105 -252q-15 -10 -26 -10q-10 0 -22 9l-39 34q-23 20 2 48q48 45 48 87q0 35 -13 35h-53q-39 0 -39 44z" />
    <glyph glyph-name="dotlessj" unicode="&#x237;" horiz-adv-x="593" 
d="M157 57v1128q0 40 40 40h201q38 0 38 -40v-1180q0 -172 -119 -286t-324 -114q-24 0 -40 11.5t-16 26.5v174q0 45 48 45q172 0 172 195z" />
    <glyph glyph-name="circumflex" unicode="&#x2c6;" horiz-adv-x="633" 
d="M364 1567l227 -231q28 -28 -1 -54l-66 -64q-11 -11 -24 -11q-14 0 -27 13l-136 140l-136 -140q-11 -13 -26 -13q-14 0 -25 11l-64 64q-30 25 -3 54l228 231q13 13 26 13q15 0 27 -13z" />
    <glyph glyph-name="caron" unicode="&#x2c7;" horiz-adv-x="659" 
d="M587 1431l-227 -231q-12 -13 -26 -13t-27 13l-227 231q-28 29 2 53l65 66q11 10 24 10q15 0 27 -12l135 -141l137 141q12 12 27 12q13 0 24 -10l65 -66q30 -24 1 -53z" />
    <glyph glyph-name="breve" unicode="&#x2d8;" horiz-adv-x="552" 
d="M271 1257q-97 0 -164 64t-67 153q0 15 8.5 25.5t21.5 10.5h100q24 0 24 -26q0 -29 21 -50t59 -21q33 0 55 22t22 50q0 25 22 25h99q31 0 31 -35q0 -90 -68 -154.5t-164 -63.5z" />
    <glyph glyph-name="dotaccent" unicode="&#x2d9;" horiz-adv-x="455" 
d="M121 1288v135q0 51 50 51h134q45 0 45 -52v-133q0 -26 -11 -36.5t-34 -10.5h-135q-49 0 -49 46z" />
    <glyph glyph-name="ring" unicode="&#x2da;" horiz-adv-x="606" 
d="M307 1553q77 0 131 -53.5t54 -129.5t-54 -129t-131 -53t-130.5 53t-53.5 129t53.5 129.5t130.5 53.5zM308 1438q-28 0 -46.5 -19t-18.5 -48q0 -30 18.5 -48t46.5 -18t47.5 18.5t19.5 47.5t-19.5 48t-47.5 19z" />
    <glyph glyph-name="ogonek" unicode="&#x2db;" horiz-adv-x="442" 
d="M462 -243q0 -92 -62.5 -158.5t-154.5 -66.5q-94 0 -159 63.5t-65 157.5q0 83 79 172l154 166q12 12 23 12q9 0 19 -8l68 -49q11 -8 11.5 -21t-9.5 -23l-160 -173q-37 -41 -39 -73q-2 -33 20 -55t56 -22q29 -1 51.5 19.5t22.5 53.5q0 37 29 37h87q11 0 20 -8.5t9 -23.5z
" />
    <glyph glyph-name="tilde" unicode="&#x2dc;" horiz-adv-x="725" 
d="M176 1263q-9 -10 -20 -10q-16 0 -39 23l-47 42q-15 13 -18 23t0 16t17 27q73 108 182 108q37 0 80.5 -21.5t79.5 -43t56 -21.5q21 0 36 12t35 37q14 17 31 17q15 0 31 -14l60 -58q22 -20 3 -49q-75 -116 -192 -116q-39 0 -80.5 21.5t-76.5 42.5t-57 21q-12 0 -21.5 -3
t-18.5 -10t-14 -12t-14 -16.5t-13 -15.5z" />
    <glyph glyph-name="hungarumlaut" unicode="&#x2dd;" horiz-adv-x="857" 
d="M403 1476l-88 -211q-10 -23 -19.5 -30t-28.5 -7h-140q-16 0 -26.5 12t0.5 35l94 214q8 21 18 28.5t29 7.5h138q15 0 22.5 -15.5t0.5 -33.5zM789 1476l-90 -211q-8 -24 -17.5 -30.5t-29.5 -6.5h-139q-15 0 -25.5 12t-1.5 35l91 214q9 21 19 28.5t30 7.5h139q15 0 23 -15
t1 -34z" />
    <glyph glyph-name="uni037E" unicode="&#x37e;" horiz-adv-x="434" 
 />
    <glyph glyph-name="tonos" unicode="&#x384;" horiz-adv-x="412" 
d="M111 1200l-27 241q-5 40 33 40h131q21 0 28 -10t5 -30l-27 -244q-3 -35 -29 -35h-86q-15 0 -20.5 9.5t-7.5 28.5z" />
    <glyph glyph-name="dieresistonos" unicode="&#x385;" horiz-adv-x="729" 
d="M296 1386l-26 241q-5 40 31 40h132q20 0 27 -10t5 -30l-27 -244q-3 -35 -29 -35h-86q-23 0 -27 38zM-2 1365v136q0 51 49 51h138q44 0 44 -52v-134q0 -26 -11 -36.5t-33 -10.5h-138q-49 0 -49 46zM510 1365v136q0 51 48 51h139q44 0 44 -52v-134q0 -26 -11 -36.5
t-33 -10.5h-138q-49 0 -49 46z" />
    <glyph glyph-name="Alphatonos" unicode="&#x386;" horiz-adv-x="1287" 
d="M642 1152l-26 -142l-151 -499h355l-151 499zM804 1391l456 -1350q15 -41 -25 -41h-222q-37 0 -48 36l-65 214h-514l-65 -214q-10 -36 -47 -36h-223q-18 0 -25 10.5t0 30.5l457 1350q12 37 47 37h226q35 0 48 -37zM84 1152l-27 241q-5 40 33 40h131q21 0 28 -10t5 -30
l-27 -244q-3 -35 -29 -35h-86q-15 0 -20.5 9.5t-7.5 28.5z" />
    <glyph glyph-name="anoteleia" unicode="&#x387;" horiz-adv-x="385" 
d="M91 467v155q0 14 8.5 22.5t18.5 8.5h160q28 0 28 -31v-154q0 -15 -9.5 -22t-18.5 -7h-160q-8 0 -17.5 6.5t-9.5 21.5z" />
    <glyph glyph-name="Epsilontonos" unicode="&#x388;" horiz-adv-x="1329" 
d="M306 39v1347q0 40 38 40h837q36 0 36 -38v-192q0 -37 -36 -37h-595v-306h463q41 0 41 -39v-189q0 -38 -41 -38h-463v-328h609q37 0 37 -36v-185q0 -38 -37 -38h-851q-38 0 -38 39zM37 1146l-27 241q-5 40 33 40h131q21 0 28 -10t5 -30l-27 -244q-3 -35 -29 -35h-86
q-15 0 -20.5 9.5t-7.5 28.5z" />
    <glyph glyph-name="Etatonos" unicode="&#x389;" horiz-adv-x="1600" 
d="M300 39v1347q0 40 38 40h201q38 0 38 -40v-522h570v522q0 17 11 28.5t30 11.5h202q37 0 37 -38v-1349q0 -39 -41 -39h-199q-40 0 -40 39v559h-570v-559q0 -39 -38 -39h-201q-38 0 -38 39zM39 1145l-27 241q-5 40 33 40h131q21 0 28 -10t5 -30l-27 -244q-3 -35 -29 -35
h-86q-15 0 -20.5 9.5t-7.5 28.5z" />
    <glyph glyph-name="Iotatonos" unicode="&#x38a;" horiz-adv-x="750" 
d="M297 39v1347q0 40 38 40h210q32 0 32 -40v-1347q0 -39 -32 -39h-210q-38 0 -38 39zM42 1149l-27 241q-5 40 33 40h131q21 0 28 -10t5 -30l-27 -244q-3 -35 -29 -35h-86q-15 0 -20.5 9.5t-7.5 28.5z" />
    <glyph glyph-name="Omicrontonos" unicode="&#x38c;" horiz-adv-x="1500" 
d="M519 890v-354q0 -134 86.5 -221t219.5 -87t219.5 87t86.5 220v355q0 133 -86.5 220t-219.5 87t-219.5 -87t-86.5 -220zM239 515v393q0 158 77.5 284t211 194.5t296.5 68.5t296.5 -68.5t211.5 -194.5t78 -284v-393q0 -158 -78 -283t-211 -193.5t-296 -68.5t-297 68.5
t-211.5 193.5t-77.5 283zM42 1150l-27 241q-5 40 33 40h131q21 0 28 -10t5 -30l-27 -244q-3 -35 -29 -35h-86q-15 0 -20.5 9.5t-7.5 28.5z" />
    <glyph glyph-name="Upsilontonos" unicode="&#x38e;" horiz-adv-x="1363" 
d="M661 40v520l-406 823q-9 19 -2 31t25 12h240q32 0 46 -36l211 -478l26 -112l27 112l209 477q14 36 46 36h242q18 0 25 -11.5t-2 -29.5l-407 -827v-517q0 -40 -35 -40h-211q-34 0 -34 40zM25 1146l-27 241q-5 40 33 40h131q21 0 28 -10t5 -30l-27 -244q-3 -35 -29 -35h-86
q-15 0 -20.5 9.5t-7.5 28.5z" />
    <glyph glyph-name="Omegatonos" unicode="&#x38f;" horiz-adv-x="1465" 
d="M688 0h-412q-31 0 -31 32v177q0 32 31 32h162v75q-100 66 -157.5 169.5t-57.5 237.5v181q0 146 78 273.5t211 202.5t286 75t285 -72.5t211 -200.5t79 -281v-178q0 -132 -58 -235.5t-155 -169.5v-77h162q31 0 31 -32v-177q0 -32 -31 -32h-412q-30 0 -30 32v408q0 17 23 28
q85 30 136.5 105t51.5 177v154q0 117 -85.5 200.5t-206.5 83.5t-207 -83.5t-86 -200.5v-154q0 -103 52 -180.5t135 -101.5q25 -9 25 -29v-407q0 -32 -30 -32zM38 1145l-27 241q-5 40 33 40h131q21 0 28 -10t5 -30l-27 -244q-3 -35 -29 -35h-86q-15 0 -20.5 9.5t-7.5 28.5z
" />
    <glyph glyph-name="iotadieresistonos" unicode="&#x390;" horiz-adv-x="593" 
d="M157 39v1148q0 17 11 27.5t27 10.5h204q16 0 26.5 -11t10.5 -28v-1147q0 -39 -37 -39h-204q-38 0 -38 39zM225 1408l-26 241q-5 40 31 40h132q20 0 27 -10t5 -30l-27 -244q-3 -35 -29 -35h-86q-23 0 -27 38zM-73 1387v136q0 51 49 51h138q44 0 44 -52v-134
q0 -26 -11 -36.5t-33 -10.5h-138q-49 0 -49 46zM439 1387v136q0 51 48 51h139q44 0 44 -52v-134q0 -26 -11 -36.5t-33 -10.5h-138q-49 0 -49 46z" />
    <glyph glyph-name="Alpha" unicode="&#x391;" horiz-adv-x="1287" 
d="M642 1152l-26 -142l-151 -499h355l-151 499zM804 1391l456 -1350q15 -41 -25 -41h-222q-37 0 -48 36l-65 214h-514l-65 -214q-10 -36 -47 -36h-223q-18 0 -25 10.5t0 30.5l457 1350q12 37 47 37h226q35 0 48 -37z" />
    <glyph glyph-name="Beta" unicode="&#x392;" horiz-adv-x="1274" 
d="M748 610h-299v-361h295q70 0 113.5 44.5t43.5 106.5v63q0 72 -46.5 109.5t-106.5 37.5zM704 1177h-255v-338h254q61 0 103.5 33.5t42.5 101.5v63q0 68 -43 104t-102 36zM173 40v1346q0 40 38 40h510q169 0 288 -98.5t119 -249.5v-86q0 -80 -44 -150.5t-104 -97.5
q82 -29 141.5 -111t59.5 -189v-83q0 -154 -116 -257.5t-277 -103.5h-577q-38 0 -38 40z" />
    <glyph glyph-name="Gamma" unicode="&#x393;" horiz-adv-x="1025" 
d="M171 40v1347q0 39 38 39h732q37 0 37 -38v-192q0 -37 -37 -37h-489v-1119q0 -40 -37 -40h-206q-38 0 -38 40z" />
    <glyph glyph-name="Delta" unicode="&#x394;" horiz-adv-x="1287" 
d="M919 229l-264 838l-264 -838h528zM788 1389l472 -1348q15 -41 -25 -41h-1160q-40 0 -25 41l472 1348q13 37 48 37h171q35 0 47 -37z" />
    <glyph glyph-name="Epsilon" unicode="&#x395;" horiz-adv-x="1196" 
d="M173 39v1347q0 40 38 40h837q36 0 36 -38v-192q0 -37 -36 -37h-595v-306h463q41 0 41 -39v-189q0 -38 -41 -38h-463v-328h609q37 0 37 -36v-185q0 -38 -37 -38h-851q-38 0 -38 39z" />
    <glyph glyph-name="Zeta" unicode="&#x396;" horiz-adv-x="1173" 
d="M134 1426h910q32 0 32 -35v-148q0 -8 -6 -17q-4 -14 -7 -18l-629 -945l73 11h540q33 0 33 -33v-207q0 -34 -33 -34h-929q-33 0 -33 34v151q0 6 2 14q0 9 5 17l623 961l-88 -8h-493q-34 0 -34 34v188q0 35 34 35z" />
    <glyph glyph-name="Eta" unicode="&#x397;" horiz-adv-x="1473" 
d="M173 39v1347q0 40 38 40h201q38 0 38 -40v-522h570v522q0 17 11 28.5t30 11.5h202q37 0 37 -38v-1349q0 -39 -41 -39h-199q-40 0 -40 39v559h-570v-559q0 -39 -38 -39h-201q-38 0 -38 39z" />
    <glyph glyph-name="Theta" unicode="&#x398;" horiz-adv-x="1351" 
d="M370 890v-354q0 -134 86.5 -221t219.5 -87t219.5 87t86.5 220v87q-6 -15 -25 -15h-502q-29 0 -29 30v169q0 30 29 30h502q19 0 25 -16v70q0 133 -86.5 220t-219.5 87t-219.5 -87t-86.5 -220zM90 515v393q0 158 77.5 284t211 194.5t296.5 68.5t296.5 -68.5t211.5 -194.5
t78 -284v-393q0 -158 -78 -283t-211 -193.5t-296 -68.5t-297 68.5t-211.5 193.5t-77.5 283z" />
    <glyph glyph-name="Iota" unicode="&#x399;" horiz-adv-x="626" 
d="M173 39v1347q0 40 38 40h210q32 0 32 -40v-1347q0 -39 -32 -39h-210q-38 0 -38 39z" />
    <glyph glyph-name="Kappa" unicode="&#x39a;" horiz-adv-x="1316" 
d="M1198 1374l-415 -550l486 -780q11 -19 5 -31.5t-24 -12.5h-251q-31 0 -50 34l-343 562l-153 -187v-370q0 -39 -42 -39h-200q-38 0 -38 39v1347q0 40 38 40h208q34 0 34 -40v-613l437 625q12 18 24 23t32 5h237q18 0 22.5 -19t-7.5 -33z" />
    <glyph glyph-name="Lambda" unicode="&#x39b;" horiz-adv-x="1267" 
d="M794 1389l438 -1350q14 -41 -25 -41h-223q-37 0 -47 36l-285 974l-20 104l-19 -104l-283 -974q-10 -36 -47 -36h-223q-40 0 -25 41l438 1350q12 37 47 37h226q35 0 48 -37z" />
    <glyph glyph-name="Mu" unicode="&#x39c;" horiz-adv-x="1777" 
d="M481 848l-46 114l8 -114l1 -810q0 -38 -36 -38h-201q-34 0 -34 39v1349q0 38 36 38h259q6 0 10 -1.5t6.5 -2.5t6 -5.5t4.5 -6t4.5 -9.5t4.5 -10l355 -774l29 -133l31 135l355 772q1 3 3.5 9t3.5 8t3.5 6.5t4 5.5l4.5 3t6.5 2.5t8.5 0.5h261q35 0 35 -38v-1349
q0 -39 -34 -39h-201q-37 0 -37 38l2 808l7 107l-45 -115l-280 -640q-9 -22 -16 -29t-22 -7h-179q-16 0 -22.5 7t-15.5 29z" />
    <glyph glyph-name="Nu" unicode="&#x39d;" horiz-adv-x="1462" 
d="M173 39v1347q0 40 38 40h211q25 0 33 -5.5t21 -30.5l485 -762l59 -120l-10 120v758q0 17 9.5 28.5t27.5 11.5h206q36 0 36 -38v-1349q0 -39 -40 -39h-175q-35 0 -55 35l-525 813l-53 100l12 -100v-809q0 -39 -37 -39h-205q-38 0 -38 39z" />
    <glyph glyph-name="Xi" unicode="&#x39e;" horiz-adv-x="1196" 
d="M330 652v143q0 38 36 38h461q39 0 39 -39v-142q0 -37 -39 -37h-461q-36 0 -36 37zM185 38v183q0 38 35 38h754q36 0 36 -38v-183q0 -38 -36 -38h-754q-35 0 -35 38zM185 1214v173q0 39 35 39h754q36 0 36 -38v-174q0 -38 -36 -38h-754q-35 0 -35 38z" />
    <glyph glyph-name="Omicron" unicode="&#x39f;" horiz-adv-x="1351" 
d="M90 515v393q0 158 77.5 284t211 194.5t296.5 68.5t296.5 -68.5t211.5 -194.5t78 -284v-393q0 -158 -78 -283t-211 -193.5t-296 -68.5t-297 68.5t-211.5 193.5t-77.5 283zM370 890v-354q0 -134 86.5 -221t219.5 -87t219.5 87t86.5 220v355q0 133 -86.5 220t-219.5 87
t-219.5 -87t-86.5 -220z" />
    <glyph glyph-name="Pi" unicode="&#x3a0;" horiz-adv-x="1432" 
d="M984 37v1131h-532v-1132q0 -36 -36 -36h-211q-16 0 -25 9.5t-9 26.5v1353q0 15 8.5 26t24.5 11h1028q32 0 32 -37v-1353q0 -17 -9.5 -26.5t-24.5 -9.5h-213q-33 0 -33 37z" />
    <glyph glyph-name="Rho" unicode="&#x3a1;" horiz-adv-x="1217" 
d="M173 39v1347q0 40 38 40h501q121 0 222 -57t158 -153t57 -209v-120q0 -117 -61 -214.5t-163.5 -153.5t-223.5 -57h-248v-423q0 -39 -37 -39h-205q-38 0 -38 39zM453 729h223q81 0 137.5 52.5t56.5 127.5v67q0 77 -56 130t-138 53h-223v-430z" />
    <glyph glyph-name="Sigma" unicode="&#x3a3;" horiz-adv-x="1152" 
d="M95 38v146q1 24 16 42l385 498l-387 483q-14 18 -14 41v139q0 39 35 39h878q37 0 37 -38v-174q0 -38 -37 -38h-560l336 -419q6 -8 10 -18q5 -18 -7 -33l-330 -447h564q38 0 38 -38v-183q0 -38 -38 -38h-890q-36 0 -36 38z" />
    <glyph glyph-name="Tau" unicode="&#x3a4;" horiz-adv-x="1048" 
d="M22 1198v190q0 38 36 38h933q37 0 37 -38v-191q0 -38 -37 -38h-327v-1120q0 -39 -36 -39h-210q-33 0 -33 39v1120h-327q-36 0 -36 39z" />
    <glyph glyph-name="Upsilon" unicode="&#x3a5;" horiz-adv-x="1123" 
d="M421 40v520l-406 823q-9 19 -2 31t25 12h240q32 0 46 -36l211 -478l26 -112l27 112l209 477q14 36 46 36h242q18 0 25 -11.5t-2 -29.5l-407 -827v-517q0 -40 -35 -40h-211q-34 0 -34 40z" />
    <glyph glyph-name="Phi" unicode="&#x3a6;" horiz-adv-x="1518" 
d="M359 782v-135q0 -114 68.5 -180.5t190.5 -73.5v640q-122 -6 -190.5 -71.5t-68.5 -179.5zM1160 647v135q0 114 -69 179.5t-192 71.5v-640q123 7 192 73t69 181zM618 38v86q-238 8 -386.5 149.5t-148.5 373.5v134q0 231 148.5 371.5t386.5 148.5v86q0 39 35 39h212
q34 0 34 -39v-86q239 -8 387.5 -148t148.5 -372v-134q0 -232 -148.5 -373.5t-387.5 -149.5v-86q0 -38 -34 -38h-212q-35 0 -35 38z" />
    <glyph glyph-name="Chi" unicode="&#x3a7;" horiz-adv-x="1219" 
d="M1151 1384l-383 -659l396 -683q10 -20 3.5 -31t-24.5 -11h-234q-17 0 -26.5 6.5t-21.5 27.5l-226 425l-27 59l-25 -59l-224 -425q-12 -21 -22 -27.5t-27 -6.5h-233q-18 0 -24.5 11t3.5 31l395 683l-383 659q-9 16 -2 29t24 13h236q28 0 48 -35l213 -404l24 -61l21 61
l213 404q20 35 49 35h235q17 0 24.5 -13t-2.5 -29z" />
    <glyph glyph-name="Psi" unicode="&#x3a8;" horiz-adv-x="1429" 
d="M570 38v383q-240 21 -360.5 155.5t-120.5 390.5v422q0 15 8 26t24 11h201q37 0 37 -38v-425q0 -118 54.5 -194t156.5 -101v719q0 39 36 39h209q36 0 36 -39v-716q106 28 165 105t59 187v425q0 16 9.5 27t27.5 11h191q18 0 28.5 -11t10.5 -26v-425q0 -257 -123.5 -388.5
t-367.5 -153.5v-384q0 -38 -36 -38h-209q-36 0 -36 38z" />
    <glyph glyph-name="Omega" unicode="&#x3a9;" horiz-adv-x="1332" 
d="M555 0h-412q-31 0 -31 32v177q0 32 31 32h162v75q-100 66 -157.5 169.5t-57.5 237.5v181q0 146 78 273.5t211 202.5t286 75t285 -72.5t211 -200.5t79 -281v-178q0 -132 -58 -235.5t-155 -169.5v-77h162q31 0 31 -32v-177q0 -32 -31 -32h-412q-30 0 -30 32v408q0 17 23 28
q85 30 136.5 105t51.5 177v154q0 117 -85.5 200.5t-206.5 83.5t-207 -83.5t-86 -200.5v-154q0 -103 52 -180.5t135 -101.5q25 -9 25 -29v-407q0 -32 -30 -32z" />
    <glyph glyph-name="Iotadieresis" unicode="&#x3aa;" horiz-adv-x="626" 
d="M173 39v1347q0 40 38 40h210q32 0 32 -40v-1347q0 -39 -32 -39h-210q-38 0 -38 39zM21 1600v135q0 51 48 51h138q44 0 44 -51v-135q0 -46 -44 -46h-137q-49 0 -49 46zM387 1600v135q0 51 48 51h138q45 0 45 -51v-135q0 -46 -45 -46h-137q-49 0 -49 46z" />
    <glyph glyph-name="Upsilondieresis" unicode="&#x3ab;" horiz-adv-x="1123" 
d="M421 40v520l-406 823q-9 19 -2 31t25 12h240q32 0 46 -36l211 -478l26 -112l27 112l209 477q14 36 46 36h242q18 0 25 -11.5t-2 -29.5l-407 -827v-517q0 -40 -35 -40h-211q-34 0 -34 40zM270 1566v135q0 51 48 51h138q44 0 44 -51v-135q0 -46 -44 -46h-137q-49 0 -49 46z
M636 1566v135q0 51 48 51h138q45 0 45 -51v-135q0 -46 -45 -46h-137q-49 0 -49 46z" />
    <glyph glyph-name="alphatonos" unicode="&#x3ac;" horiz-adv-x="1298" 
d="M361 740v-258q0 -113 71 -188t177 -75q108 0 183.5 71.5t79.5 179.5v281q-4 109 -79.5 181t-183.5 72q-106 0 -177 -75.5t-71 -188.5zM91 487v245q0 144 65 263.5t178.5 188t251.5 68.5q99 0 178.5 -54t134.5 -146l21 132q8 41 51 41h130q40 0 40 -41v-1143
q0 -41 -39 -41h-135q-18 0 -31 11t-16 30l-19 133q-55 -94 -135 -149t-180 -55q-138 0 -251.5 68t-178.5 187t-65 262zM533 1382l-27 241q-5 40 33 40h131q21 0 28 -10t5 -30l-27 -244q-3 -35 -29 -35h-86q-15 0 -20.5 9.5t-7.5 28.5z" />
    <glyph glyph-name="epsilontonos" unicode="&#x3ad;" horiz-adv-x="970" 
d="M833 303l80 -102q22 -25 -6 -62q-74 -80 -150 -114.5t-181 -34.5h-92q-102 0 -191.5 38t-148 117t-58.5 184v56q0 91 35.5 150t99.5 102q-52 35 -87 95t-35 131v46q0 76 31.5 139t84.5 103.5t121 62.5t143 22h79q207 0 325 -143q25 -26 27.5 -36.5t-13.5 -26.5l-97 -117
q-7 -7 -18 -7q-22 0 -36 16q-42 48 -79.5 67t-81.5 19h-62q-65 0 -109.5 -37t-44.5 -92v-18q0 -61 36.5 -99.5t104.5 -38.5h115q17 0 32 -9.5t15 -30.5v-107q0 -18 -9.5 -32t-32.5 -13l-123 1q-67 0 -107.5 -39.5t-40.5 -105.5v-24q0 -70 50 -109.5t123 -39.5h65
q90 0 174 91q16 14 31 14q16 0 31 -16zM453 1371l-27 241q-5 40 33 40h131q21 0 28 -10t5 -30l-27 -244q-3 -35 -29 -35h-86q-15 0 -20.5 9.5t-7.5 28.5z" />
    <glyph glyph-name="etatonos" unicode="&#x3ae;" horiz-adv-x="1346" 
d="M157 41v1143q0 41 39 41h139q45 0 55 -48l20 -120q111 195 339 195q61 0 124 -21t121.5 -63t104 -100t73 -139t27.5 -172v-681q0 -4 0.5 -10t0.5 -9v-400q0 -40 -38 -40h-204q-38 0 -38 40v1103q-4 99 -73 171.5t-162 72.5q-97 0 -173 -72.5t-76 -175.5v-715
q0 -19 -16.5 -30t-36.5 -11h-187q-39 0 -39 41zM611 1406l-27 241q-5 40 33 40h131q21 0 28 -10t5 -30l-27 -244q-3 -35 -29 -35h-86q-15 0 -20.5 9.5t-7.5 28.5z" />
    <glyph glyph-name="iotatonos" unicode="&#x3af;" horiz-adv-x="593" 
d="M157 39v1148q0 17 11 27.5t27 10.5h204q16 0 26.5 -11t10.5 -28v-1147q0 -39 -37 -39h-204q-38 0 -38 39zM224 1406l-27 241q-5 40 33 40h131q21 0 28 -10t5 -30l-27 -244q-3 -35 -29 -35h-86q-15 0 -20.5 9.5t-7.5 28.5z" />
    <glyph glyph-name="upsilondieresistonos" unicode="&#x3b0;" horiz-adv-x="1271" 
d="M411 1184v-716q4 -106 66.5 -165.5t147.5 -61.5h13q88 0 153 60t69 168v715q0 42 37 42h198q19 0 28.5 -12t9.5 -30v-717q0 -5 -1 -7q-3 -104 -34 -187.5t-80 -136.5t-113.5 -88.5t-130 -50.5t-133.5 -15h-9q-67 0 -132 15t-130.5 50.5t-115 88.5t-81.5 136.5t-35 187.5
v724q0 42 38 42h198q37 0 37 -42zM565 1402l-26 241q-5 40 31 40h132q20 0 27 -10t5 -30l-27 -244q-3 -35 -29 -35h-86q-23 0 -27 38zM267 1381v136q0 51 49 51h138q44 0 44 -52v-134q0 -26 -11 -36.5t-33 -10.5h-138q-49 0 -49 46zM779 1381v136q0 51 48 51h139
q44 0 44 -52v-134q0 -26 -11 -36.5t-33 -10.5h-138q-49 0 -49 46z" />
    <glyph glyph-name="alpha" unicode="&#x3b1;" horiz-adv-x="1298" 
d="M361 740v-258q0 -113 71 -188t177 -75q108 0 183.5 71.5t79.5 179.5v281q-4 109 -79.5 181t-183.5 72q-106 0 -177 -75.5t-71 -188.5zM91 487v245q0 144 65 263.5t178.5 188t251.5 68.5q99 0 178.5 -54t134.5 -146l21 132q8 41 51 41h130q40 0 40 -41v-1143
q0 -41 -39 -41h-135q-18 0 -31 11t-16 30l-19 133q-55 -94 -135 -149t-180 -55q-138 0 -251.5 68t-178.5 187t-65 262z" />
    <glyph glyph-name="beta" unicode="&#x3b2;" horiz-adv-x="1105" 
d="M397 1149v-888q95 -42 175 -42q86 0 134 63.5t48 150.5v128q0 81 -49 133.5t-143 52.5q-17 0 -28.5 10.5t-11.5 29.5v144q0 44 44 44q62 0 93.5 51t31.5 110v48q1 72 -40.5 120.5t-109.5 48.5q-73 0 -108.5 -62t-35.5 -142zM609 -30q-79 0 -212 35v-327q0 -44 -35 -44
h-202q-14 0 -22.5 3t-12 10.5t-4 13.5t-0.5 19v1459q0 214 115.5 334t308.5 120q163 0 282.5 -116.5t118.5 -279.5v-55q-1 -86 -34 -157.5t-93 -95.5q97 -30 155 -126.5t58 -233.5v-103q0 -94 -25 -175t-74.5 -144.5t-132.5 -100t-191 -36.5z" />
    <glyph glyph-name="gamma" unicode="&#x3b3;" horiz-adv-x="1172" 
d="M1144 1169l-438 -1143v-370q0 -39 -35 -39h-179q-35 0 -35 39v372l-424 1134q-10 30 0 46.5t35 16.5h208q35 0 47 -37l245 -795l20 -134l20 134l246 797q11 35 46 35h218q46 0 26 -56z" />
    <glyph glyph-name="delta" unicode="&#x3b4;" 
d="M361 740v-258q0 -114 72 -188.5t183 -74.5t183.5 75t72.5 187v259q0 114 -72.5 189t-183.5 75t-183 -75t-72 -189zM91 487v245q0 183 107.5 321t278.5 182l-159 144q-6 8 -6 22v150q0 14 8.5 22.5t20.5 8.5h691q28 0 28 -29v-153q0 -13 -8.5 -21.5t-20.5 -8.5h-365
l260 -216q100 -71 157 -181.5t57 -240.5v-245q0 -218 -152 -367.5t-373 -149.5t-372.5 149.5t-151.5 367.5z" />
    <glyph glyph-name="epsilon" unicode="&#x3b5;" horiz-adv-x="978" 
d="M833 303l80 -102q22 -25 -6 -62q-74 -80 -150 -114.5t-181 -34.5h-92q-102 0 -191.5 38t-148 117t-58.5 184v56q0 91 35.5 150t99.5 102q-52 35 -87 95t-35 131v46q0 76 31.5 139t84.5 103.5t121 62.5t143 22h79q207 0 325 -143q25 -26 27.5 -36.5t-13.5 -26.5l-97 -117
q-7 -7 -18 -7q-22 0 -36 16q-42 48 -79.5 67t-81.5 19h-62q-65 0 -109.5 -37t-44.5 -92v-18q0 -61 36.5 -99.5t104.5 -38.5h115q17 0 32 -9.5t15 -30.5v-107q0 -18 -9.5 -32t-32.5 -13l-123 1q-67 0 -107.5 -39.5t-40.5 -105.5v-24q0 -70 50 -109.5t123 -39.5h65
q90 0 174 91q16 14 31 14q16 0 31 -16z" />
    <glyph glyph-name="zeta" unicode="&#x3b6;" horiz-adv-x="1042" 
d="M584 233h56q150 0 242 -80.5t92 -237.5v-40q0 -72 -31.5 -141t-88.5 -120q-20 -19 -36 -19q-14 0 -36 20l-100 87q-27 24 3 60q45 55 45 118v10q0 52 -34 81t-93 29h-82q-203 0 -319 111.5t-116 317.5v53q0 185 135 360l389 508h-446q-15 0 -23 10t-8 23v165
q0 17 10 25.5t20 8.5h758q17 0 25 -10.5t8 -23.5v-147q0 -30 -25 -65l-472 -607q-89 -117 -89 -256v-34q0 -107 61 -156.5t155 -49.5z" />
    <glyph glyph-name="eta" unicode="&#x3b7;" horiz-adv-x="1346" 
d="M157 41v1143q0 41 39 41h139q45 0 55 -48l20 -120q111 195 339 195q61 0 124 -21t121.5 -63t104 -100t73 -139t27.5 -172v-681q0 -4 0.5 -10t0.5 -9v-400q0 -40 -38 -40h-204q-38 0 -38 40v1103q-4 99 -73 171.5t-162 72.5q-97 0 -173 -72.5t-76 -175.5v-715
q0 -19 -16.5 -30t-36.5 -11h-187q-39 0 -39 41z" />
    <glyph glyph-name="theta" unicode="&#x3b8;" horiz-adv-x="1313" 
d="M655 243q132 0 213 83.5t83 213.5l2 125h-595v-123q0 -130 82.5 -214.5t214.5 -84.5zM655 1334q-129 0 -210.5 -87.5t-83.5 -218.5l-2 -127h595v127q0 130 -85 218t-214 88zM90 626v331q0 128 31.5 234.5t85.5 180.5t127 125.5t154.5 75.5t168.5 24q109 0 208 -38.5
t180 -114t129 -201t48 -284.5v-335q0 -130 -32 -238t-86 -181.5t-127.5 -125t-154.5 -75t-168 -23.5q-85 0 -165.5 24t-153 75.5t-127 125.5t-86.5 182t-32 238z" />
    <glyph glyph-name="iota" unicode="&#x3b9;" horiz-adv-x="593" 
d="M157 39v1148q0 17 11 27.5t27 10.5h204q16 0 26.5 -11t10.5 -28v-1147q0 -39 -37 -39h-204q-38 0 -38 39z" />
    <glyph glyph-name="kappa" unicode="&#x3ba;" horiz-adv-x="1220" 
d="M157 40v1145q0 40 38 40h205q36 0 36 -40v-449l374 462q15 17 27.5 22t32.5 5h24q2 1 8 1h226q26 0 26 -30v-173q0 -13 -8 -21t-19 -8h-157l-226 -270l424 -659q15 -25 4.5 -45t-31.5 -20h-232q-28 0 -51 35l-293 491l-129 -111v-375q0 -40 -36 -40h-205q-38 0 -38 40z
" />
    <glyph glyph-name="lambda" unicode="&#x3bb;" horiz-adv-x="1112" 
d="M35 59l393 1142q-12 38 -24.5 65.5t-31.5 54t-45.5 40.5t-60.5 14q-21 0 -32 9t-12.5 16.5t-1.5 18.5v132q0 13 1 18t6 14t19.5 12.5t38.5 3.5q76 0 135 -21t96.5 -52.5t68.5 -84t49.5 -99.5t42.5 -115q3 -11 5 -16l399 -1147q10 -31 -1.5 -47.5t-33.5 -16.5h-185
q-32 0 -43 38l-260 821l-248 -822q-11 -37 -45 -37h-199q-26 0 -33 19t2 40z" />
    <glyph glyph-name="uni03BC" unicode="&#x3bc;" horiz-adv-x="1340" 
d="M1182 1184v-1143q0 -41 -39 -41h-131q-19 0 -35.5 14.5t-20.5 33.5l-19 102q-52 -77 -125.5 -122.5t-159.5 -45.5q-117 0 -222 84l1 -420q0 -22 -17 -35.5t-37 -13.5h-184q-39 0 -39 42v1545q0 42 39 42h191q19 0 32 -11t13 -30l1 -760q15 -87 83 -141.5t150 -54.5
q98 0 171 72t73 157v723q0 21 11.5 33t29.5 12h196q38 0 38 -42z" />
    <glyph glyph-name="nu" unicode="&#x3bd;" horiz-adv-x="1172" 
d="M1145 1169l-434 -1133q-13 -36 -46 -36h-163q-34 0 -47 36l-421 1126q-10 30 0 46.5t35 16.5h208q36 0 46 -37l246 -795l20 -134l20 134l246 797q11 35 46 35h218q46 0 26 -56z" />
    <glyph glyph-name="xi" unicode="&#x3be;" horiz-adv-x="1060" 
d="M613 0h-63q-209 0 -332.5 113.5t-123.5 302.5v68q0 137 64.5 235.5t154.5 140.5q-76 53 -111.5 107t-35.5 147v39q0 67 26.5 125.5t75.5 96.5h-129q-39 0 -39 43v131q0 19 11 29.5t28 10.5h749q17 0 29 -12t12 -28v-130q0 -17 -12 -30.5t-29 -13.5h-301
q-66 -2 -111.5 -57t-45.5 -141v-43q0 -81 44 -127.5t112 -46.5l122 -1q44 0 44 -40v-159q0 -25 -11.5 -33.5t-33.5 -8.5h-122q-32 0 -68 -11.5t-73 -35t-62.5 -69.5t-26.5 -106l-1 -47q-1 -57 22.5 -101.5t61 -69t77 -37t77.5 -12.5h58q142 0 234.5 -74t93.5 -204l1 -55
q0 -168 -123 -286q-20 -18 -34 -18q-16 0 -40 21l-100 86q-30 26 4 60q65 68 60 122l-1 13q-4 50 -39.5 78t-92.5 28z" />
    <glyph glyph-name="omicron" unicode="&#x3bf;" 
d="M91 487v245q0 144 69 263.5t189 188t265 68.5q146 0 266.5 -68.5t190 -188t69.5 -263.5v-245q0 -218 -152 -367.5t-373 -149.5t-372.5 149.5t-151.5 367.5zM361 740v-258q0 -114 72 -188.5t183 -74.5t183.5 75t72.5 187v259q0 114 -72.5 189t-183.5 75t-183 -75t-72 -189
z" />
    <glyph glyph-name="pi" unicode="&#x3c0;" horiz-adv-x="1317" 
d="M881 39v942h-445v-942q0 -39 -36 -39h-209q-36 0 -36 39v1147q0 18 10.5 29t25.5 11h934q16 0 26 -11t10 -29v-1147q0 -39 -36 -39h-208q-36 0 -36 39z" />
    <glyph glyph-name="rho" unicode="&#x3c1;" 
d="M361 740v-258q0 -15 1 -22q2 -10 2 -16v-6q14 -97 83.5 -158t168.5 -61q111 0 183.5 75t72.5 187v259q0 114 -72.5 189t-183.5 75t-183 -75t-72 -189zM91 -309v1041q0 144 69 263.5t189 188t265 68.5q146 0 266.5 -68.5t190 -188t69.5 -263.5v-245q0 -218 -152 -367.5
t-373 -149.5q-134 0 -251 60v-344q0 -28 -11 -40t-34 -12h-190q-18 0 -27 10t-10 19t-1 28z" />
    <glyph glyph-name="uni03C2" unicode="&#x3c2;" horiz-adv-x="1120" 
d="M705 0h-76q-233 0 -391 148t-158 376v220q0 99 40 192t108 162.5t166 111.5t208 42q131 0 241.5 -72t158.5 -171q17 -34 1 -47l-167 -81q-5 -5 -13 -5q-14 0 -26 18q-31 52 -81.5 80.5t-112.5 28.5q-120 0 -187 -82.5t-67 -218.5v-173q0 -130 83 -212.5t201 -82.5h100
q150 0 243 -78t94 -210l1 -47q0 -168 -123 -286q-21 -18 -35 -18t-39 20l-102 87q-31 26 3 60q66 68 64 122l-2 10q-1 50 -37 78t-95 28z" />
    <glyph glyph-name="sigma" unicode="&#x3c3;" horiz-adv-x="1281" 
d="M361 740v-258q0 -114 72 -188.5t183 -74.5t183.5 75t72.5 187v259q0 114 -72.5 189t-183.5 75t-183 -75t-72 -189zM91 487v245q0 144 69 263.5t189 188t265 68.5q87 0 171 -27h432q36 0 36 -37v-159q0 -38 -36 -38h-145q68 -120 68 -259v-245q0 -218 -152 -367.5
t-373 -149.5t-372.5 149.5t-151.5 367.5z" />
    <glyph glyph-name="tau" unicode="&#x3c4;" horiz-adv-x="1043" 
d="M93 1228h863q34 0 34 -35v-178q0 -22 -12 -32.5t-25 -10.5h-292v-918q0 -24 -11.5 -39t-32.5 -15h-198q-38 0 -38 54v918h-288q-39 0 -39 41v174q0 17 11.5 29t27.5 12z" />
    <glyph glyph-name="upsilon" unicode="&#x3c5;" horiz-adv-x="1271" 
d="M411 1184v-716q4 -106 66.5 -165.5t147.5 -61.5h13q88 0 153 60t69 168v715q0 42 37 42h198q19 0 28.5 -12t9.5 -30v-717q0 -5 -1 -7q-3 -104 -34 -187.5t-80 -136.5t-113.5 -88.5t-130 -50.5t-133.5 -15h-9q-67 0 -132 15t-130.5 50.5t-115 88.5t-81.5 136.5t-35 187.5
v724q0 42 38 42h198q37 0 37 -42z" />
    <glyph glyph-name="phi" unicode="&#x3c6;" horiz-adv-x="1404" 
d="M362 695v-164q0 -99 57.5 -176t148.5 -105v727q-91 -28 -148.5 -105.5t-57.5 -176.5zM1048 531v164q0 101 -60.5 180t-154.5 105v-732q95 25 155 103.5t60 179.5zM568 -294v282q-203 29 -338.5 183t-135.5 360v163q0 207 135 361t339 184v279q0 41 35 41h195q35 0 35 -41
v-278q205 -28 343 -183t138 -363v-163q0 -208 -137.5 -361.5t-343.5 -181.5v-282q0 -40 -35 -40h-195q-35 0 -35 40z" />
    <glyph glyph-name="chi" unicode="&#x3c7;" horiz-adv-x="1210" 
d="M852 -346l-258 496l-259 -497q-11 -21 -20 -28t-25 -7h-227q-17 0 -22.5 11.5t3.5 32.5l401 774l-388 746q-9 16 -2.5 30t23.5 14h230q25 0 44 -35l241 -468l242 467q19 36 44 36h230q18 0 24 -14t-3 -30l-388 -747l400 -774q10 -20 4.5 -31.5t-22.5 -11.5h-227
q-16 0 -25 7t-20 29z" />
    <glyph glyph-name="psi" unicode="&#x3c8;" horiz-adv-x="1429" 
d="M371 1184v-704q0 -108 60 -171t146 -69v1161q0 41 35 41h211q35 0 35 -41v-1161q82 6 140.5 65.5t62.5 162.5v716q0 42 38 42h199q38 0 38 -42v-719q0 -5 -1 -7q-3 -101 -34 -183t-79 -134.5t-111 -89t-125.5 -52.5t-127.5 -18v-320q0 -38 -36 -38h-209q-36 0 -36 39v319
q-64 2 -127 18t-126.5 52t-112 89t-80.5 135t-35 183v726q0 42 37 42h201q37 0 37 -42z" />
    <glyph glyph-name="omega" unicode="&#x3c9;" horiz-adv-x="1578" 
d="M1462 751v-371q0 -177 -114 -293.5t-273 -116.5q-88 0 -164 36.5t-122 97.5q-51 -63 -124.5 -98.5t-158.5 -35.5q-176 0 -282 116t-106 298v350q0 126 27 240t107 216q34 42 52 42q10 0 30 -15l120 -96q34 -24 14 -60q-46 -74 -66.5 -142.5t-20.5 -178.5v-356
q0 -64 39.5 -107.5t100.5 -43.5q59 0 101 45.5t42 109.5v377q0 26 13 37.5t28 11.5h173q21 0 31 -14.5t10 -31.5v-380q0 -64 42 -109.5t101 -45.5t97.5 44t38.5 111v347q0 101 -21 169.5t-68 153.5q-12 21 -9 36t25 33l110 91q18 15 31 15q29 0 87 -80q109 -152 109 -402z
" />
    <glyph glyph-name="iotadieresis" unicode="&#x3ca;" horiz-adv-x="593" 
d="M157 39v1148q0 17 11 27.5t27 10.5h204q16 0 26.5 -11t10.5 -28v-1147q0 -39 -37 -39h-204q-38 0 -38 39zM-3 1409v135q0 51 48 51h138q44 0 44 -51v-135q0 -46 -44 -46h-137q-49 0 -49 46zM363 1409v135q0 51 48 51h138q45 0 45 -51v-135q0 -46 -45 -46h-137
q-49 0 -49 46z" />
    <glyph glyph-name="upsilondieresis" unicode="&#x3cb;" horiz-adv-x="1271" 
d="M411 1184v-716q4 -106 66.5 -165.5t147.5 -61.5h13q88 0 153 60t69 168v715q0 42 37 42h198q19 0 28.5 -12t9.5 -30v-717q0 -5 -1 -7q-3 -104 -34 -187.5t-80 -136.5t-113.5 -88.5t-130 -50.5t-133.5 -15h-9q-67 0 -132 15t-130.5 50.5t-115 88.5t-81.5 136.5t-35 187.5
v724q0 42 38 42h198q37 0 37 -42zM345 1387v135q0 51 48 51h138q44 0 44 -51v-135q0 -46 -44 -46h-137q-49 0 -49 46zM711 1387v135q0 51 48 51h138q45 0 45 -51v-135q0 -46 -45 -46h-137q-49 0 -49 46z" />
    <glyph glyph-name="omicrontonos" unicode="&#x3cc;" 
d="M361 740v-258q0 -114 72 -188.5t183 -74.5t183.5 75t72.5 187v259q0 114 -72.5 189t-183.5 75t-183 -75t-72 -189zM91 487v245q0 144 69 263.5t189 188t265 68.5q146 0 266.5 -68.5t190 -188t69.5 -263.5v-245q0 -218 -152 -367.5t-373 -149.5t-372.5 149.5t-151.5 367.5
zM541 1391l-27 241q-5 40 33 40h131q21 0 28 -10t5 -30l-27 -244q-3 -35 -29 -35h-86q-15 0 -20.5 9.5t-7.5 28.5z" />
    <glyph glyph-name="upsilontonos" unicode="&#x3cd;" horiz-adv-x="1271" 
d="M411 1184v-716q4 -106 66.5 -165.5t147.5 -61.5h13q88 0 153 60t69 168v715q0 42 37 42h198q19 0 28.5 -12t9.5 -30v-717q0 -5 -1 -7q-3 -104 -34 -187.5t-80 -136.5t-113.5 -88.5t-130 -50.5t-133.5 -15h-9q-67 0 -132 15t-130.5 50.5t-115 88.5t-81.5 136.5t-35 187.5
v724q0 42 38 42h198q37 0 37 -42zM552 1373l-27 241q-5 40 33 40h131q21 0 28 -10t5 -30l-27 -244q-3 -35 -29 -35h-86q-15 0 -20.5 9.5t-7.5 28.5z" />
    <glyph glyph-name="omegatonos" unicode="&#x3ce;" horiz-adv-x="1578" 
d="M1462 751v-371q0 -177 -114 -293.5t-273 -116.5q-88 0 -164 36.5t-122 97.5q-51 -63 -124.5 -98.5t-158.5 -35.5q-176 0 -282 116t-106 298v350q0 126 27 240t107 216q34 42 52 42q10 0 30 -15l120 -96q34 -24 14 -60q-46 -74 -66.5 -142.5t-20.5 -178.5v-356
q0 -64 39.5 -107.5t100.5 -43.5q59 0 101 45.5t42 109.5v377q0 26 13 37.5t28 11.5h173q21 0 31 -14.5t10 -31.5v-380q0 -64 42 -109.5t101 -45.5t97.5 44t38.5 111v347q0 101 -21 169.5t-68 153.5q-12 21 -9 36t25 33l110 91q18 15 31 15q29 0 87 -80q109 -152 109 -402z
M713 1273l-27 241q-5 40 33 40h131q21 0 28 -10t5 -30l-27 -244q-3 -35 -29 -35h-86q-15 0 -20.5 9.5t-7.5 28.5z" />
    <glyph glyph-name="uni03D1" unicode="&#x3d1;" horiz-adv-x="1089" 
d="M562 936h145v268q0 60 -41.5 97.5t-113.5 37.5q-69 0 -116 -40t-47 -94v-132q0 -69 48 -103t125 -34zM27 359v149q0 13 11 22t21 9h302q11 0 21 -8t10 -21v-158q-1 -61 45 -94.5t109 -33.5t112 30t49 83v360h-149q-63 0 -119 8t-118 33t-106.5 65.5t-73.5 111t-29 164.5
l-1 111q0 97 40.5 174t106.5 123t143.5 70t159.5 24q104 0 199 -45t157.5 -130t62.5 -188v-267h46q15 0 25 -9t10 -26v-184q0 -35 -35 -35h-46v-343q0 -120 -62 -209.5t-156.5 -132.5t-204.5 -43q-181 0 -306 98t-135 263h-59q-8 0 -19 7.5t-11 21.5z" />
    <glyph glyph-name="uni03F0" unicode="&#x3f0;" horiz-adv-x="1219" 
d="M1151 1384l-383 -659l396 -683q10 -20 3.5 -31t-24.5 -11h-234q-17 0 -26.5 6.5t-21.5 27.5l-226 425l-27 59l-25 -59l-224 -425q-12 -21 -22 -27.5t-27 -6.5h-233q-18 0 -24.5 11t3.5 31l395 683l-383 659q-9 16 -2 29t24 13h236q28 0 48 -35l213 -404l24 -61l21 61
l213 404q20 35 49 35h235q17 0 24.5 -13t-2.5 -29z" />
    <glyph glyph-name="afii10023" unicode="&#x401;" horiz-adv-x="1196" 
d="M173 39v1347q0 40 38 40h837q36 0 36 -38v-192q0 -37 -36 -37h-595v-306h463q41 0 41 -39v-189q0 -38 -41 -38h-463v-328h609q37 0 37 -36v-185q0 -38 -37 -38h-851q-38 0 -38 39zM337 1596v135q0 51 48 51h138q44 0 44 -51v-135q0 -46 -44 -46h-137q-49 0 -49 46z
M703 1596v135q0 51 48 51h138q45 0 45 -51v-135q0 -46 -45 -46h-137q-49 0 -49 46z" />
    <glyph glyph-name="afii10051" unicode="&#x402;" horiz-adv-x="1288" 
d="M931 525q-1 99 -51 144.5t-114 45.5q-68 0 -123.5 -56.5t-55.5 -138.5v-492q0 -10 -7 -19t-21 -9h-222q-24 0 -24 27v1146h-254q-8 0 -16 7.5t-8 20.5v198q0 10 6 18.5t18 8.5h793q12 0 19 -9t7 -18v-199q0 -12 -8.5 -19.5t-17.5 -7.5h-263v-346q30 50 91.5 89.5
t136.5 39.5q174 0 282.5 -110t108.5 -313v-200q0 -80 -26.5 -143.5t-66.5 -101t-91.5 -62.5t-96.5 -34t-87 -9q-47 0 -47 35v156q0 14 9 24t24 10q105 2 105 116v201z" />
    <glyph glyph-name="afii10052" unicode="&#x403;" horiz-adv-x="1025" 
d="M171 40v1347q0 39 38 39h732q37 0 37 -38v-192q0 -37 -37 -37h-489v-1119q0 -40 -37 -40h-206q-38 0 -38 40zM793 1800l-103 -215q-11 -23 -21 -30t-29 -7h-141q-15 0 -25 12.5t-1 34.5l87 217q8 21 18.5 29t29.5 8h161q16 0 24.5 -15.5t-0.5 -33.5z" />
    <glyph glyph-name="afii10053" unicode="&#x404;" horiz-adv-x="1225" 
d="M816 793v-156q0 -37 -36 -37h-410v-63q0 -135 89.5 -221.5t223.5 -86.5q178 0 252 154q11 23 31 23q10 0 20 -5l149 -74q37 -18 11 -69q-74 -143 -199 -215.5t-279 -72.5q-248 0 -413 153t-165 392v386q0 159 76 286t208 197.5t294 70.5q156 0 280.5 -72t199.5 -216
q12 -24 10.5 -40t-14.5 -22l-156 -76q-12 -5 -22 -5q-20 0 -31 20q-83 152 -252 152q-133 0 -223 -86.5t-90 -220.5v-58h410q17 0 26.5 -10.5t9.5 -27.5z" />
    <glyph glyph-name="afii10054" unicode="&#x405;" horiz-adv-x="1152" 
d="M85 255q-30 59 6 75l161 88q10 4 16 4q23 0 41 -33q33 -66 111 -114t163 -48q95 0 155 41.5t60 116.5q0 33 -13.5 61t-35.5 49t-61 43.5t-78 41t-99 44.5q-36 16 -55 24q-184 82 -262 181.5t-78 238.5q0 176 132.5 281.5t336.5 105.5q152 0 275 -61t195 -190
q32 -58 -7 -74l-141 -71q-13 -6 -25 -6q-22 0 -42 28q-73 117 -237 117q-55 0 -99.5 -12t-76.5 -44t-32 -80q0 -62 52 -106t171 -91q90 -36 154 -67.5t125 -74t98 -89t59.5 -108.5t22.5 -136q0 -188 -138 -304t-354 -116q-164 0 -299 78t-201 207z" />
    <glyph glyph-name="afii10055" unicode="&#x406;" horiz-adv-x="626" 
d="M173 39v1347q0 40 38 40h210q32 0 32 -40v-1347q0 -39 -32 -39h-210q-38 0 -38 39z" />
    <glyph glyph-name="afii10056" unicode="&#x407;" horiz-adv-x="626" 
d="M173 39v1347q0 40 38 40h210q32 0 32 -40v-1347q0 -39 -32 -39h-210q-38 0 -38 39zM48 1613v135q0 51 48 51h138q44 0 44 -51v-135q0 -46 -44 -46h-137q-49 0 -49 46zM414 1613v135q0 51 48 51h138q45 0 45 -51v-135q0 -46 -45 -46h-137q-49 0 -49 46z" />
    <glyph glyph-name="afii10057" unicode="&#x408;" horiz-adv-x="1019" 
d="M606 419v968q0 22 11 30.5t23 8.5h201q24 0 34 -10.5t10 -34.5l-5 -985q0 -89 -27 -162t-71.5 -121t-103 -81t-120 -47.5t-124.5 -14.5q-80 0 -150 21t-119 55.5t-83 72.5t-56 79q-27 52 3 70l142 75q16 9 29 9q21 0 36 -28q22 -36 73 -65.5t106 -29.5q86 0 138.5 48
t52.5 142z" />
    <glyph glyph-name="afii10058" unicode="&#x409;" horiz-adv-x="1830" 
d="M1313 683h-160v-450h160q78 0 128.5 56.5t50.5 141.5v60q0 83 -51 137.5t-128 54.5zM167 408v973q0 45 37 45h915q14 0 24 -11t10 -27v-474h221q172 0 285.5 -119t113.5 -285v-99q0 -107 -50.5 -201t-142.5 -152t-204 -58h-464q-35 0 -35 39v1127h-433v-775
q0 -97 -29.5 -172t-73 -117.5t-100 -69.5t-102 -36t-86.5 -9q-50 0 -50 37v187q0 14 10 25t26 11q57 1 92.5 45t35.5 116z" />
    <glyph glyph-name="afii10059" unicode="&#x40a;" horiz-adv-x="1915" 
d="M1399 679h-144v-446h144q78 0 129 56.5t51 141.5v57q0 83 -51 137t-129 54zM1860 506v-95q0 -107 -50.5 -201t-142.5 -152t-204 -58h-450q-34 0 -34 39v613h-528v-613q0 -39 -41 -39h-202q-34 0 -34 38v1354q0 13 8 23.5t26 10.5h205q38 0 38 -39v-476h528v479
q0 37 28 37h215q14 0 23.5 -11t9.5 -27v-478h206q86 0 161 -33t126.5 -88.5t81.5 -129.5t30 -154z" />
    <glyph glyph-name="afii10060" unicode="&#x40b;" horiz-adv-x="1240" 
d="M533 27q0 -9 -6.5 -18t-19.5 -9h-224q-9 0 -16.5 8t-7.5 19v1147h-205q-9 0 -17 7t-8 20v198q0 10 6.5 18.5t18.5 8.5h699q12 0 18.5 -9t6.5 -18v-199q0 -12 -8 -19t-17 -7h-217v-344q28 50 94.5 88t140.5 38q187 0 288.5 -118t101.5 -317v-494q0 -9 -6.5 -18t-19.5 -9
h-227q-9 0 -16.5 7.5t-7.5 19.5v478q-3 105 -49 157.5t-115 52.5q-74 0 -130.5 -59.5t-56.5 -158.5v-470z" />
    <glyph glyph-name="afii10061" unicode="&#x40c;" horiz-adv-x="1264" 
d="M440 806q31 7 80.5 64.5t79.5 105.5l139 253q32 61 79 103t100 62t98 28t91 8q10 0 20.5 -8t10.5 -28v-185q0 -37 -34 -37q-45 0 -87.5 -36t-71.5 -87l-139 -241q-3 -5 -24.5 -41t-25.5 -44l427 -678q11 -16 4.5 -30.5t-20.5 -14.5h-256q-32 0 -53 31l-298 510
q-22 -13 -61.5 -25t-58.5 -12v-470q0 -12 -8 -23t-24 -11h-207q-12 0 -24.5 7.5t-12.5 26.5v1354q0 38 36 38h208q32 0 32 -39v-581zM855 1769l-103 -215q-11 -23 -21 -30t-29 -7h-141q-15 0 -25 12.5t-1 34.5l87 217q8 21 18.5 29t29.5 8h161q16 0 24.5 -15.5t-0.5 -33.5z
" />
    <glyph glyph-name="afii10062" unicode="&#x40e;" horiz-adv-x="1031" 
d="M1007 1370l-373 -1003h-1l-30 -89q-32 -88 -80.5 -150.5t-103 -94t-104.5 -45t-102 -13.5q-46 0 -46 35v179q0 14 10 25.5t26 11.5q69 1 109.5 40.5t62.5 113.5l22 73l-367 915q-10 29 -1 43.5t33 14.5h205q36 0 46 -36l209 -652l200 652q8 36 47 36h206q54 0 32 -56z
M517 1502q-97 0 -164 64t-67 153q0 15 8.5 25.5t21.5 10.5h100q24 0 24 -26q0 -29 21 -50t59 -21q33 0 55 22t22 50q0 25 22 25h99q31 0 31 -35q0 -90 -68 -154.5t-164 -63.5z" />
    <glyph glyph-name="afii10145" unicode="&#x40f;" horiz-adv-x="1360" 
d="M559 0h-350q-38 0 -38 43v1356q0 39 37 39h201q33 0 33 -39v-1133h480v1131q0 41 35 41h204q14 0 23.5 -10.5t9.5 -30.5v-1359q0 -17 -10.5 -27.5t-28.5 -10.5h-337v-240q0 -19 -9 -31.5t-25 -12.5h-189q-14 0 -25 11t-11 33v240z" />
    <glyph glyph-name="afii10017" unicode="&#x410;" horiz-adv-x="1287" 
d="M642 1152l-26 -142l-151 -499h355l-151 499zM804 1391l456 -1350q15 -41 -25 -41h-222q-37 0 -48 36l-65 214h-514l-65 -214q-10 -36 -47 -36h-223q-18 0 -25 10.5t0 30.5l457 1350q12 37 47 37h226q35 0 48 -37z" />
    <glyph glyph-name="afii10018" unicode="&#x411;" horiz-adv-x="1245" 
d="M688 676h-240v-444h240q80 0 131.5 52t51.5 133v90q0 74 -55 121.5t-128 47.5zM1015 1161h-567v-252h307q161 0 278.5 -111t117.5 -274v-105q0 -185 -116 -302t-295 -117h-531q-36 0 -36 39v1349q0 38 36 38h806q36 0 36 -40v-187q0 -18 -10.5 -28t-25.5 -10z" />
    <glyph glyph-name="afii10019" unicode="&#x412;" horiz-adv-x="1274" 
d="M748 610h-299v-361h295q70 0 113.5 44.5t43.5 106.5v63q0 72 -46.5 109.5t-106.5 37.5zM704 1177h-255v-338h254q61 0 103.5 33.5t42.5 101.5v63q0 68 -43 104t-102 36zM173 40v1346q0 40 38 40h510q169 0 288 -98.5t119 -249.5v-86q0 -80 -44 -150.5t-104 -97.5
q82 -29 141.5 -111t59.5 -189v-83q0 -154 -116 -257.5t-277 -103.5h-577q-38 0 -38 40z" />
    <glyph glyph-name="afii10020" unicode="&#x413;" horiz-adv-x="1025" 
d="M171 40v1347q0 39 38 39h732q37 0 37 -38v-192q0 -37 -37 -37h-489v-1119q0 -40 -37 -40h-206q-38 0 -38 40z" />
    <glyph glyph-name="afii10021" unicode="&#x414;" horiz-adv-x="1392" 
d="M908 265v892h-307q0 -548 -141 -892h448zM1185 1395v-1130h109q21 0 28.5 -8t7.5 -27v-567q0 -13 -8 -21.5t-22 -8.5h-211q-28 0 -28 29v338h-747v-339q0 -28 -30 -28h-202q-13 0 -22.5 8.5t-9.5 22.5v563q0 38 35 38h79q173 264 173 1129q0 32 29 32h789q12 0 21 -9
t9 -22z" />
    <glyph glyph-name="afii10022" unicode="&#x415;" horiz-adv-x="1196" 
d="M173 39v1347q0 40 38 40h837q36 0 36 -38v-192q0 -37 -36 -37h-595v-306h463q41 0 41 -39v-189q0 -38 -41 -38h-463v-328h609q37 0 37 -36v-185q0 -38 -37 -38h-851q-38 0 -38 39z" />
    <glyph glyph-name="afii10024" unicode="&#x416;" horiz-adv-x="1816" 
d="M1048 34q0 -12 -8.5 -23t-23.5 -11h-209q-11 0 -23.5 7.5t-12.5 26.5v484q-57 4 -90 21l-275 -508q-21 -31 -52 -31h-256q-14 0 -20.5 14.5t3.5 30.5l403 676q-27 33 -49 78l-125 250q-25 51 -69 87t-90 36q-34 0 -34 37v185q0 20 10.5 28t20.5 8q286 0 369 -201
l146 -297q53 -102 108 -113v567q0 38 36 38h208q33 0 33 -39v-566q29 10 59 55t67 116l128 239q32 61 79.5 103t100 62t97.5 28t91 8q10 0 20.5 -8t10.5 -28v-185q0 -37 -34 -37q-46 0 -90 -36.5t-69 -86.5l-125 -250q-25 -49 -49 -78l403 -676q10 -16 4 -30.5t-20 -14.5
h-256q-32 0 -53 31l-275 508q-33 -17 -89 -21v-484z" />
    <glyph glyph-name="afii10025" unicode="&#x417;" horiz-adv-x="1029" 
d="M154 1173l-45 149q-5 14 2 26t21 18q85 38 162.5 58t176.5 20q81 0 154.5 -21.5t132.5 -63t94 -109t35 -151.5v-47q0 -112 -56.5 -193t-140.5 -115q92 -22 163 -110t71 -208v-47q0 -128 -64 -220t-168.5 -135t-236.5 -43q-81 0 -175.5 16t-148.5 36q-10 4 -16 6.5
t-14.5 8.5t-10.5 11.5t-4.5 15t3.5 20.5l37 145q8 29 35 29q7 0 19 -4q122 -43 242 -43q94 0 160 47t66 140v31q0 78 -51.5 122.5t-147.5 44.5h-44q-43 0 -43 35v157q0 41 37 41h35q75 0 125.5 48t49.5 137v29q0 70 -51.5 111.5t-124.5 41.5q-97 0 -229 -57q-9 -3 -17 -3
q-25 0 -33 26z" />
    <glyph glyph-name="afii10026" unicode="&#x418;" horiz-adv-x="1462" 
d="M968 848l-525 -813q-18 -35 -55 -35h-175q-40 0 -40 39v1349q0 38 36 38h206q18 0 28 -11.5t10 -28.5v-758l-10 -119l58 119l485 762q14 25 22 30.5t33 5.5h211q37 0 37 -40v-1347q0 -39 -37 -39h-206q-37 0 -37 39v809l11 100z" />
    <glyph glyph-name="afii10027" unicode="&#x419;" horiz-adv-x="1462" 
d="M968 848l-525 -813q-18 -35 -55 -35h-175q-40 0 -40 39v1349q0 38 36 38h206q18 0 28 -11.5t10 -28.5v-758l-10 -119l58 119l485 762q14 25 22 30.5t33 5.5h211q37 0 37 -40v-1347q0 -39 -37 -39h-206q-37 0 -37 39v809l11 100zM738 1510q-97 0 -164 64t-67 153
q0 15 8.5 25.5t21.5 10.5h100q24 0 24 -26q0 -29 21 -50t59 -21q33 0 55 22t22 50q0 25 22 25h99q31 0 31 -35q0 -90 -68 -154.5t-164 -63.5z" />
    <glyph glyph-name="afii10028" unicode="&#x41a;" horiz-adv-x="1264" 
d="M440 806q31 7 80.5 64.5t79.5 105.5l139 253q32 61 79 103t100 62t98 28t91 8q10 0 20.5 -8t10.5 -28v-185q0 -37 -34 -37q-45 0 -87.5 -36t-71.5 -87l-139 -241q-3 -5 -24.5 -41t-25.5 -44l427 -678q11 -16 4.5 -30.5t-20.5 -14.5h-256q-32 0 -53 31l-298 510
q-22 -13 -61.5 -25t-58.5 -12v-470q0 -12 -8 -23t-24 -11h-207q-12 0 -24.5 7.5t-12.5 26.5v1354q0 38 36 38h208q32 0 32 -39v-581z" />
    <glyph glyph-name="afii10029" unicode="&#x41b;" horiz-adv-x="1377" 
d="M183 383v979q0 29 14 46.5t42 17.5h934q17 0 28.5 -9.5t11.5 -27.5v-1350q0 -17 -8.5 -27.5t-22.5 -10.5l-212 -1q-34 0 -34 39v1127h-476v-805q0 -173 -103.5 -271.5t-281.5 -98.5q-43 0 -43 43v192q0 12 8 21t26 9q51 0 84 33.5t33 93.5z" />
    <glyph glyph-name="afii10030" unicode="&#x41c;" horiz-adv-x="1777" 
d="M481 848l-46 114l8 -114l1 -810q0 -38 -36 -38h-201q-34 0 -34 39v1349q0 38 36 38h259q6 0 10 -1.5t6.5 -2.5t6 -5.5t4.5 -6t4.5 -9.5t4.5 -10l355 -774l29 -133l31 135l355 772q1 3 3.5 9t3.5 8t3.5 6.5t4 5.5l4.5 3t6.5 2.5t8.5 0.5h261q35 0 35 -38v-1349
q0 -39 -34 -39h-201q-37 0 -37 38l2 808l7 107l-45 -115l-280 -640q-9 -22 -16 -29t-22 -7h-179q-16 0 -22.5 7t-15.5 29z" />
    <glyph glyph-name="afii10031" unicode="&#x41d;" horiz-adv-x="1473" 
d="M173 39v1347q0 40 38 40h201q38 0 38 -40v-522h570v522q0 17 11 28.5t30 11.5h202q37 0 37 -38v-1349q0 -39 -41 -39h-199q-40 0 -40 39v559h-570v-559q0 -39 -38 -39h-201q-38 0 -38 39z" />
    <glyph glyph-name="afii10032" unicode="&#x41e;" horiz-adv-x="1351" 
d="M90 515v393q0 158 77.5 284t211 194.5t296.5 68.5t296.5 -68.5t211.5 -194.5t78 -284v-393q0 -158 -78 -283t-211 -193.5t-296 -68.5t-297 68.5t-211.5 193.5t-77.5 283zM370 890v-354q0 -134 86.5 -221t219.5 -87t219.5 87t86.5 220v355q0 133 -86.5 220t-219.5 87
t-219.5 -87t-86.5 -220z" />
    <glyph glyph-name="afii10033" unicode="&#x41f;" horiz-adv-x="1432" 
d="M984 37v1131h-532v-1132q0 -36 -36 -36h-211q-16 0 -25 9.5t-9 26.5v1353q0 15 8.5 26t24.5 11h1028q32 0 32 -37v-1353q0 -17 -9.5 -26.5t-24.5 -9.5h-213q-33 0 -33 37z" />
    <glyph glyph-name="afii10034" unicode="&#x420;" horiz-adv-x="1217" 
d="M173 39v1347q0 40 38 40h501q121 0 222 -57t158 -153t57 -209v-120q0 -117 -61 -214.5t-163.5 -153.5t-223.5 -57h-248v-423q0 -39 -37 -39h-205q-38 0 -38 39zM453 729h223q81 0 137.5 52.5t56.5 127.5v67q0 77 -56 130t-138 53h-223v-430z" />
    <glyph glyph-name="afii10035" unicode="&#x421;" horiz-adv-x="1225" 
d="M986 401l149 -74q37 -18 11 -69q-74 -143 -199 -215.5t-279 -72.5q-248 0 -413 153t-165 392v386q0 159 76 286t208 197.5t294 70.5q156 0 280.5 -72t199.5 -216q12 -24 10.5 -40t-14.5 -22l-156 -76q-12 -5 -22 -5q-20 0 -31 20q-83 152 -252 152q-133 0 -223 -86.5
t-90 -220.5v-352q0 -135 89.5 -221.5t223.5 -86.5q178 0 252 154q11 23 31 23q10 0 20 -5z" />
    <glyph glyph-name="afii10036" unicode="&#x422;" horiz-adv-x="1048" 
d="M22 1198v190q0 38 36 38h933q37 0 37 -38v-191q0 -38 -37 -38h-327v-1120q0 -39 -36 -39h-210q-33 0 -33 39v1120h-327q-36 0 -36 39z" />
    <glyph glyph-name="afii10037" unicode="&#x423;" horiz-adv-x="1031" 
d="M1007 1370l-373 -1003h-1l-30 -89q-32 -88 -80.5 -150.5t-103 -94t-104.5 -45t-102 -13.5q-46 0 -46 35v179q0 14 10 25.5t26 11.5q69 1 109.5 40.5t62.5 113.5l22 73l-367 915q-10 29 -1 43.5t33 14.5h205q36 0 46 -36l209 -652l200 652q8 36 47 36h206q54 0 32 -56z
" />
    <glyph glyph-name="afii10038" unicode="&#x424;" horiz-adv-x="1495" 
d="M368 785v-122q0 -120 71 -202.5t191 -103.5v728q-118 -21 -190 -102t-72 -198zM1141 663v122q0 117 -72 198t-190 102v-728q120 21 191 103.5t71 202.5zM663 1426h183q34 0 34 -38v-66q110 -13 208 -57t172.5 -112.5t118 -165t43.5 -206.5v-124q0 -145 -73 -264.5
t-195.5 -190.5t-273.5 -88v-85q0 -29 -29 -29h-193q-29 0 -29 29v85q-150 17 -272.5 88t-195.5 190.5t-73 264.5v124q0 110 43.5 206.5t117.5 165t172 112.5t208 57v66q0 14 8 26t26 12z" />
    <glyph glyph-name="afii10039" unicode="&#x425;" horiz-adv-x="1219" 
d="M1151 1384l-383 -659l396 -683q10 -20 3.5 -31t-24.5 -11h-234q-17 0 -26.5 6.5t-21.5 27.5l-226 425l-27 59l-25 -59l-224 -425q-12 -21 -22 -27.5t-27 -6.5h-233q-18 0 -24.5 11t3.5 31l395 683l-383 659q-9 16 -2 29t24 13h236q28 0 48 -35l213 -404l24 -61l21 61
l213 404q20 35 49 35h235q17 0 24.5 -13t-2.5 -29z" />
    <glyph glyph-name="afii10040" unicode="&#x426;" horiz-adv-x="1415" 
d="M454 259h486v1127q0 17 10 28.5t27 11.5h210q35 0 35 -42v-1133h90q26 0 39 -11.5t13 -39.5v-535q0 -39 -38 -39h-207q-37 0 -37 39v335h-873q-36 0 -36 38v1348q0 17 10.5 28.5t27.5 11.5h207q36 0 36 -40v-1127z" />
    <glyph glyph-name="afii10041" unicode="&#x427;" horiz-adv-x="1276" 
d="M135 1426h210q18 0 28.5 -11t10.5 -29v-517q0 -127 62.5 -195t161.5 -68q95 0 160.5 62t65.5 166v552q0 17 9 28.5t25 11.5h214q34 0 34 -40v-1347q0 -18 -9.5 -28.5t-26.5 -10.5h-212q-34 0 -34 39v434q-35 -44 -109 -81.5t-157 -37.5q-210 0 -338 138.5t-128 373.5v521
q0 16 9.5 27.5t23.5 11.5z" />
    <glyph glyph-name="afii10042" unicode="&#x428;" horiz-adv-x="1837" 
d="M778 259v1127q0 17 10 28.5t27 11.5h209q17 0 26.5 -11.5t9.5 -28.5v-1127h326v1127q0 17 9.5 28t26.5 11h212q15 0 24.5 -10.5t9.5 -28.5v-1348q0 -38 -39 -38h-1422q-35 0 -35 38v1349q0 17 10 28t27 11l209 1q35 0 35 -40v-1128h325z" />
    <glyph glyph-name="afii10043" unicode="&#x429;" horiz-adv-x="1852" 
d="M778 259v1128q0 16 10 27.5t27 11.5h206q38 0 38 -41v-1126h327v1127q0 17 9.5 28.5t27.5 11.5h212q33 0 33 -40v-1131h96q20 0 31.5 -11.5t11.5 -30.5v-537q0 -39 -36 -39h-212q-34 0 -34 39v324h-1318q-35 0 -35 38v1350q0 16 10 27t27 11l207 1q37 0 37 -39v-1129h325
z" />
    <glyph glyph-name="afii10044" unicode="&#x42a;" horiz-adv-x="1178" 
d="M648 683h-197v-450h197q78 0 129 56.5t51 141.5v60q0 83 -51.5 137.5t-128.5 54.5zM25 1192v207q0 27 29 27h374q23 0 23 -26v-486h259q172 0 285.5 -119t113.5 -285v-99q0 -107 -50.5 -201t-143 -152t-203.5 -58h-503q-34 0 -34 39v1126h-124q-9 0 -17.5 6.5t-8.5 20.5z
" />
    <glyph glyph-name="afii10045" unicode="&#x42b;" horiz-adv-x="1658" 
d="M609 683h-197v-450h197q78 0 129 56.5t51 141.5v60q0 83 -51.5 137.5t-128.5 54.5zM1069 510v-99q0 -107 -50.5 -201t-142.5 -152t-204 -58h-502q-35 0 -35 39v1348q0 16 7.5 26.5t19.5 10.5h216q14 0 24 -11t10 -27v-472h258q172 0 285.5 -119t113.5 -285zM1243 39v1347
q0 40 38 40h210q32 0 32 -40v-1347q0 -39 -32 -39h-210q-38 0 -38 39z" />
    <glyph glyph-name="afii10046" unicode="&#x42c;" horiz-adv-x="1210" 
d="M645 683h-197v-450h197q78 0 128.5 56.5t50.5 141.5v60q0 83 -51 137.5t-128 54.5zM1105 510v-99q0 -107 -50.5 -201t-142.5 -152t-204 -58h-502q-34 0 -34 39v1350q0 37 28 37h214q15 0 24.5 -10.5t9.5 -27.5v-474h258q172 0 285.5 -119t113.5 -285z" />
    <glyph glyph-name="afii10047" unicode="&#x42d;" horiz-adv-x="1225" 
d="M418 637v156q0 17 9.5 27.5t26.5 10.5h410v58q0 134 -89.5 220.5t-223.5 86.5q-169 0 -252 -152q-11 -20 -31 -20q-9 0 -22 5l-155 76q-13 5 -14.5 22t10.5 40q74 144 198.5 216t280.5 72q163 0 295 -70.5t207.5 -197.5t75.5 -286v-386q0 -239 -164.5 -392t-413.5 -153
q-154 0 -279 72.5t-199 215.5q-26 51 11 69l149 74q10 5 20 5q20 0 31 -23q74 -154 253 -154q133 0 222.5 86.5t89.5 221.5v63h-410q-36 0 -36 37z" />
    <glyph glyph-name="afii10048" unicode="&#x42e;" horiz-adv-x="1901" 
d="M908 890v-354q0 -134 87 -221t219 -87q133 0 220 87t87 220v355q0 133 -86.5 220t-219.5 87t-220 -87t-87 -220zM629 515v57h-176v-533q0 -39 -37 -39h-206q-37 0 -37 39v1347q0 40 37 40h206q37 0 37 -40v-533h176v55q0 158 77.5 284t211 194.5t296.5 68.5t296.5 -68.5
t211.5 -194.5t78 -284v-393q0 -158 -78 -283t-211.5 -193.5t-296.5 -68.5t-296.5 68.5t-211 193.5t-77.5 283z" />
    <glyph glyph-name="afii10049" unicode="&#x42f;" horiz-adv-x="1202" 
d="M375 974v-39q0 -76 53.5 -128.5t133.5 -52.5h234v405h-234q-81 0 -134 -53.5t-53 -131.5zM1070 1386v-1347q0 -39 -39 -39h-201q-34 0 -34 39v456h-214l-186 -461q-7 -19 -16 -26.5t-25 -7.5h-248q-17 0 -23.5 13t-0.5 28l199 455l39 59q-100 59 -162.5 160t-62.5 212v81
q0 172 127 295t311 123h497q39 0 39 -40z" />
    <glyph glyph-name="afii10065" unicode="&#x430;" horiz-adv-x="1298" 
d="M361 740v-258q0 -113 71 -188t177 -75q108 0 183.5 71.5t79.5 179.5v281q-4 109 -79.5 181t-183.5 72q-106 0 -177 -75.5t-71 -188.5zM91 487v245q0 144 65 263.5t178.5 188t251.5 68.5q99 0 178.5 -54t134.5 -146l21 132q8 41 51 41h130q40 0 40 -41v-1143
q0 -41 -39 -41h-135q-18 0 -31 11t-16 30l-19 133q-55 -94 -135 -149t-180 -55q-138 0 -251.5 68t-178.5 187t-65 262z" />
    <glyph glyph-name="afii10066" unicode="&#x431;" 
d="M361 719v-237q0 -114 72 -188.5t183 -74.5t183.5 75t72.5 187v225q0 113 -72.5 188.5t-183.5 75.5q-107 0 -178.5 -71.5t-76.5 -179.5zM91 487v530q0 112 29 210.5t88.5 180t162.5 129.5t238 48q51 0 110 -2t75 -2q69 0 149 21q12 2 16 2q27 0 32 -27l23 -167
q7 -40 -43 -54q-47 -17 -130 -17q-24 0 -83 2t-94 2q-120 0 -194.5 -58t-97.5 -165q140 98 259 98q138 0 255 -68.5t185.5 -188t68.5 -263.5v-211q0 -218 -152 -367.5t-373 -149.5t-372.5 149.5t-151.5 367.5z" />
    <glyph glyph-name="afii10067" unicode="&#x432;" horiz-adv-x="1145" 
d="M647 552h-210v-353h206q70 0 114.5 48t44.5 117v40q0 65 -47 106.5t-108 41.5zM763 868v33q0 60 -37.5 93t-98.5 33h-190v-291h191q61 0 98 34t37 98zM1031 905v-40q0 -66 -34 -121.5t-82 -84.5q63 -31 109 -102t46 -152v-55q0 -137 -105 -243.5t-256 -106.5h-507
q-45 0 -45 45v1133q0 48 46 48h481q139 0 243 -95t104 -226z" />
    <glyph glyph-name="afii10068" unicode="&#x433;" horiz-adv-x="1052" 
d="M940 974h-504v-938q0 -36 -33 -36h-215q-31 0 -31 35v1142q0 49 47 49h736q30 0 38.5 -11t8.5 -36v-161q0 -20 -14 -32t-33 -12z" />
    <glyph glyph-name="afii10069" unicode="&#x434;" horiz-adv-x="1436" 
d="M489 239h458v758h-299q-1 -229 -35.5 -411t-123.5 -347zM337 -231h-214q-35 0 -35 34v387q0 22 12 35t33 13h70q63 90 104 201t59 242.5t23.5 241t5.5 263.5q0 15 10.5 27.5t26.5 12.5h756q19 0 28.5 -11t9.5 -26v-951h85q24 0 35.5 -10.5t11.5 -37.5v-405q0 -27 -25 -27
h-223q-30 0 -30 27v215h-711v-197q0 -34 -32 -34z" />
    <glyph glyph-name="afii10070" unicode="&#x435;" horiz-adv-x="1195" 
d="M361 736v-9h491v6q0 49 -12 94t-37 86t-71.5 66t-109.5 25q-61 0 -112 -22.5t-82.5 -61t-49 -86t-17.5 -98.5zM91 489v239q0 227 153.5 375.5t383.5 148.5q65 0 130 -19t128 -61.5t111.5 -105t78 -157t29.5 -208.5v-98q0 -45 -21 -62t-67 -17h-656v-31q0 -124 74 -199
t187 -75q123 0 195 102q12 16 26 16q8 0 13 -4l172 -90q20 -15 1 -47q-62 -100 -166.5 -163t-234.5 -63q-229 0 -383 147.5t-154 371.5z" />
    <glyph glyph-name="afii10072" unicode="&#x436;" horiz-adv-x="1669" 
d="M1033 756l153 287q30 63 60 100.5t71.5 58t87.5 27t121 6.5q22 0 31.5 -14t9.5 -30v-165q0 -13 -1.5 -20.5t-10 -14.5t-23.5 -7q-49 -2 -72.5 -22t-45.5 -65l-136 -262l352 -562q16 -24 5.5 -48.5t-37.5 -24.5h-217q-34 0 -57 41l-246 409q-2 -2 -11.5 -13t-13 -14.5
l-12.5 -12.5t-14.5 -14t-14 -12t-17.5 -12t-18 -9v-308q0 -23 -12 -39t-36 -16h-187q-20 0 -31 9.5t-12.5 18t-1.5 22.5v313q-54 26 -100 87l-245 -409q-14 -24 -26.5 -32.5t-31.5 -8.5h-216q-28 0 -38.5 25t5.5 48l351 562l-134 262q-22 44 -46 64.5t-73 22.5q-16 0 -24 7
t-9.5 14.5t-1.5 20.5v165q0 16 9.5 30t31.5 14q145 0 213.5 -36t125.5 -156l152 -287q31 -59 57 -83v503q0 24 13 37t34 13h179q54 0 54 -53v-500q25 22 56 83z" />
    <glyph glyph-name="afii10073" unicode="&#x437;" horiz-adv-x="977" 
d="M82 251l112 75q13 7 25 7q18 0 32 -18q1 -1 1 -5t1 -5q33 -46 77.5 -69t87.5 -23h41q69 0 119 40t50 109v40q0 56 -36 94t-98 37l-104 -1q-23 -1 -32 13t-9 32v107q0 21 14.5 30.5t30.5 9.5h97q58 0 91.5 35.5t33.5 89.5v33q0 56 -44 92t-106 36h-38q-86 0 -147 -87
q-1 -2 -2.5 -6.5t-2.5 -6.5q-10 -22 -34 -22q-7 0 -14 4l-127 83q-17 11 -17 21.5t15 33.5q2 3 3 9t2 7q26 54 69 94t93.5 61.5t100.5 31.5t99 10h17q109 0 199.5 -38t148.5 -118t58 -189v-35q0 -69 -36 -129t-90 -97q65 -46 102.5 -105.5t37.5 -149.5v-51
q0 -152 -126 -249.5t-300 -97.5h-37q-133 0 -213.5 50t-145.5 150q-1 1 -2 3t-2 4.5t-1 3.5q-24 36 6 56z" />
    </font>
</defs>
</svg>
