<?xml version="1.0" encoding="UTF-8"?>
<svg width="52px" height="39px" viewBox="0 0 52 39" version="1.1" xmlns="http://www.w3.org/2000/svg" xmlns:xlink="http://www.w3.org/1999/xlink">
    <!-- Generator: sketchtool 51.3 (57544) - http://www.bohemiancoding.com/sketch -->
    <title>3E0F3A4B-FB10-4265-A51D-CD4A8FC5CB0C</title>
    <desc>Created with sketchtool.</desc>
    <defs></defs>
    <g id="style-guide" stroke="none" stroke-width="1" fill="none" fill-rule="evenodd">
        <g id="icons" transform="translate(-127.000000, -192.000000)" fill="#030303" fill-rule="nonzero">
            <g id="ico_YT_channel" transform="translate(127.000000, 192.000000)">
                <path d="M38.4718144,36.5307633 C44.9106879,36.2774046 50,30.9838984 50,24.5400423 L50,14.4701336 C50,8.02276662 44.9053306,2.72769134 38.4627595,2.47905967 L26.0876308,2.00147876 L13.540354,2.48244048 C7.09651215,2.72944557 2,8.02505991 2,14.4736341 L2,24.5166941 C2,30.9686027 7.10160315,36.2657045 13.5489525,36.5082142 L26.5842044,36.9985205 L38.4718144,36.5307633 Z M13.4637464,0.483908202 L26.0878906,0 L38.539886,0.480547347 C46.0562191,0.770617635 52,6.94820546 52,14.4701336 L52,24.5400423 C52,32.0578745 46.0624692,38.2336317 38.5504502,38.5292168 L26.5859375,39 L13.4737779,38.5068009 C5.95187034,38.2238729 0,32.0439208 0,24.5166941 L0,14.4736341 C0,6.95029753 5.94593084,0.772080812 13.4637464,0.483908202 Z" id="Rectangle-18"></path>
                <path d="M23,26.3915047 L33.3538619,19.920341 L23,12.802061 L23,26.3915047 Z M21,11.427061 L21,10.052061 L21.8669424,9.59602287 L23,10.375 L23,12.802061 L21,11.427061 Z M21,9 L37,20 L21,30 L21,9 Z" id="Path-10"></path>
            </g>
        </g>
    </g>
</svg>