<?xml version="1.0" encoding="UTF-8"?>
<svg width="27px" height="32px" viewBox="0 0 27 32" version="1.1" xmlns="http://www.w3.org/2000/svg" xmlns:xlink="http://www.w3.org/1999/xlink">
    <!-- Generator: sketchtool 51.3 (57544) - http://www.bohemiancoding.com/sketch -->
    <title>774AAF01-99F7-440F-9939-69AC0EC0AAB2</title>
    <desc>Created with sketchtool.</desc>
    <defs></defs>
    <g id="style-guide" stroke="none" stroke-width="1" fill="none" fill-rule="evenodd">
        <g id="icons" transform="translate(-524.000000, -195.000000)" fill="#030303" fill-rule="nonzero">
            <g id="ico_can" transform="translate(524.000000, 195.000000)">
                <ellipse id="Oval" cx="13.57" cy="2.06" rx="13.22" ry="1.94"></ellipse>
                <path d="M26.75,3.19 C26.31,4.2 20.59,5 13.57,5 C6.55,5 1,4.23 0.42,3.24 L0.42,29.5 C0.86,30.5 6.58,31.31 13.6,31.31 C20.62,31.31 26.33,30.51 26.78,29.5 L26.78,3.19 L26.75,3.19 Z M23.85,26.34 C23.8445453,27.1827259 23.1627259,27.8645453 22.32,27.87 L6.07,27.87 C5.22727409,27.8645453 4.54545471,27.1827259 4.54,26.34 L4.54,23 C4.54545471,22.1572741 5.22727409,21.4754547 6.07,21.47 L22.32,21.47 C23.1627259,21.4754547 23.8445453,22.1572741 23.85,23 L23.85,26.34 Z" id="Shape"></path>
            </g>
        </g>
    </g>
</svg>