<?xml version="1.0" encoding="UTF-8"?>
<svg width="29px" height="29px" viewBox="0 0 29 29" version="1.1" xmlns="http://www.w3.org/2000/svg" xmlns:xlink="http://www.w3.org/1999/xlink">
    <!-- Generator: sketchtool 51.3 (57544) - http://www.bohemiancoding.com/sketch -->
    <title>E0A22C8B-E71B-42EF-B536-E2CE57BB4F8E</title>
    <desc>Created with sketchtool.</desc>
    <defs></defs>
    <g id="style-guide" stroke="none" stroke-width="1" fill="none" fill-rule="evenodd">
        <g id="icons" transform="translate(-815.000000, -113.000000)" fill="#030303" fill-rule="nonzero">
            <g id="ico/ico_guaranty" transform="translate(815.000000, 113.000000)">
                <path d="M14.78,2.66964562 C13.8871968,2.66964562 13.080447,3.20214245 12.7398783,3.99786736 C11.9282937,6.04935376 9.67631037,7.13258624 7.56531519,6.48559451 C6.68913684,6.21539993 5.73687138,6.50904619 5.1650229,7.22576295 C4.59317442,7.94247971 4.51830492,8.93617594 4.97970927,9.73643564 C6.06939212,11.6565647 5.49907659,14.091812 3.67441885,15.3254886 C2.91794278,15.8427209 2.55490549,16.7700893 2.75918448,17.6634288 C2.96346347,18.5567683 3.69346696,19.2341923 4.60209008,19.3716334 C6.78302225,19.7072357 8.33959325,21.6629275 8.17736243,23.8625822 C8.11096226,24.7749968 8.60855722,25.6354137 9.43250939,26.0329211 C10.2564616,26.4304286 11.2396141,26.2843833 11.9119814,25.6649552 C13.5320142,24.1706077 16.0279858,24.1706077 17.6475602,25.6645327 C18.3203859,26.2843833 19.3035384,26.4304286 20.1274906,26.0329211 C20.9514428,25.6354137 21.4490377,24.7749968 21.3827087,23.8635529 C21.2204067,21.6629275 22.7769778,19.7072357 24.9604418,19.3712471 C25.866533,19.2341923 26.5965365,18.5567683 26.8008155,17.6634288 C27.0050945,16.7700893 26.6420572,15.8427209 25.8898883,15.3284171 C24.0609234,14.091812 23.4906079,11.6565647 24.5836941,9.73048615 C25.0416951,8.93617594 24.9668256,7.94247971 24.3949771,7.22576295 C23.8231286,6.50904619 22.8708632,6.21539993 21.9930319,6.48610265 C19.888718,7.13104512 17.6424423,6.05450845 16.8259503,4.01252212 C16.4726246,3.19758018 15.6689703,2.66964562 14.78,2.66964562 Z M18.6695046,3.23692086 C19.1077349,4.34364911 20.2949507,4.91471494 21.4053152,4.57440549 C23.0673037,4.06188394 24.8736189,4.61889007 25.958336,5.97840214 C27.0430531,7.33791421 27.1850701,9.22281781 26.3197093,10.7235644 C25.7452429,11.735831 26.0459057,13.0196611 27.0144189,13.6745114 C28.4493488,14.6556292 29.1379801,16.4147183 28.7504912,18.1092591 C28.3630024,19.8037999 26.9782872,21.088779 25.2620901,21.3483666 C24.1123315,21.5252917 23.2917279,22.5563066 23.3773624,23.7174178 C23.5033143,25.4481414 22.5594459,27.0802328 20.9965231,27.8342491 C19.4336004,28.5882654 17.5686967,28.3112379 16.2919814,27.1350448 C15.4379216,26.3472445 14.1220784,26.3472445 13.2675602,27.1354673 C11.9913033,28.3112379 10.1263996,28.5882654 8.56347686,27.8342491 C7.00055413,27.0802328 6.05668566,25.4481414 6.18270868,23.7164471 C6.26827211,22.5563066 5.44766848,21.5252917 4.30044183,21.3487529 C2.58171275,21.088779 1.19699762,19.8037999 0.809508774,18.1092591 C0.422019926,16.4147183 1.1106512,14.6556292 2.54988825,13.6715829 C3.5140943,13.0196611 3.8147571,11.735831 3.2436941,10.7295139 C2.37492991,9.22281781 2.51694694,7.33791421 3.60166401,5.97840214 C4.68638109,4.61889007 6.49269629,4.06188394 8.15303194,4.57389735 C9.26504928,4.91471494 10.4522651,4.34364911 10.8904954,3.23692086 C11.5561841,1.67971808 13.0864764,0.66964562 14.78,0.66964562 C16.4735236,0.66964562 18.0038159,1.67971808 18.6695046,3.23692086 Z" id="Shape"></path>
                <path d="M18.8382152,10.7405914 C19.2023966,10.3253922 19.8342093,10.2840339 20.2494086,10.6482152 C20.6646078,11.0123966 20.7059661,11.6442093 20.3417848,12.0594086 L13.6317848,19.7094086 C13.2506544,20.1439313 12.5815926,20.1658061 12.1728932,19.7571068 L8.73289322,16.3171068 C8.34236893,15.9265825 8.34236893,15.2934175 8.73289322,14.9028932 C9.12341751,14.5123689 9.75658249,14.5123689 10.1471068,14.9028932 L12.8321997,17.5879862 L18.8382152,10.7405914 Z" id="Shape"></path>
            </g>
        </g>
    </g>
</svg>