<?xml version="1.0" encoding="UTF-8"?>
<svg width="38px" height="25px" viewBox="0 0 38 25" version="1.1" xmlns="http://www.w3.org/2000/svg" xmlns:xlink="http://www.w3.org/1999/xlink">
    <!-- Generator: sketchtool 51.3 (57544) - http://www.bohemiancoding.com/sketch -->
    <title>0A9D1D45-EC16-48F9-ABD7-9D02E421D1B0</title>
    <desc>Created with sketchtool.</desc>
    <defs></defs>
    <g id="style-guide" stroke="none" stroke-width="1" fill="none" fill-rule="evenodd">
        <g id="icons" transform="translate(-489.000000, -115.000000)" fill="#030303" fill-rule="nonzero">
            <g id="ico/ico_without_cooking" transform="translate(490.000000, 116.000000)">
                <path d="M20.7086589,10.4551114 C18.598292,10.4576065 15.7255951,10.4564902 12.2806729,10.4524385 C10.3995906,10.4502261 8.40435987,10.4472021 6.35227759,10.4435699 C4.76319377,10.4407571 3.23120196,10.4377435 1.81293466,10.4347299 C1.37494318,10.4337881 1.17849464,10.4333657 0.999999999,10.4329741 L0.999999999,15.5121876 C0.999979485,15.9710014 1.18334805,16.4107905 1.50930155,16.7336905 C1.83525505,17.0565906 2.27675041,17.2358119 2.745,17.2314286 L21.8524175,17.2314397 C22.7971932,17.2269753 23.5613512,16.4610021 23.5635714,15.5185714 L23.5635714,10.4468994 C22.8459261,10.4511166 21.9083466,10.4536929 20.7086589,10.4551114 Z M23.8994922,8.47412401 C23.9260617,8.49915259 24.0434479,8.5534631 23.8946067,8.68742014 C23.9782278,8.61216116 24.0682976,8.55439285 24.1617284,8.51274001 L23.8994922,8.47412401 Z M24.1617284,8.51274001 C24.7873121,8.23384518 25.5635714,8.67744394 25.5635714,9.43071429 L25.5635687,15.5209243 C25.5587597,17.56475 23.9056767,19.2217596 21.8571429,19.2314286 L2.75445627,19.2313839 C1.7619607,19.2407696 0.806885349,18.8530647 0.101758696,18.1545435 C-0.603367957,17.4560222 -1.00004438,16.5046381 -1,15.5121429 L-1,9.43071429 C-1,8.87750706 -0.550844109,8.42941063 0.0023615783,8.43071707 C0.0873778512,8.43091785 0.0873778512,8.43091785 0.484337299,8.43182174 C1.02310869,8.43302696 1.02310869,8.43302696 1.81718439,8.4347344 C3.23522661,8.43774755 4.7669848,8.44076072 6.35581764,8.443573 C8.40752761,8.44720458 10.4023707,8.45022796 12.2830252,8.45243987 C15.7265063,8.45648988 18.5978259,8.45760569 20.7062942,8.45511275 C21.9031228,8.45369769 22.8379662,8.45112891 23.486449,8.4473272 C23.8268554,8.44533158 24.0869898,8.44300193 24.2627614,8.44035165 C24.3336454,8.43928286 24.3899387,8.43817165 24.4302879,8.43706997 C23.9366895,8.45331733 23.8730223,8.44918929 23.8994922,8.47412401 L24.1617284,8.51274001 Z M24.4302879,8.43706997 C24.439213,8.43682628 24.447358,8.43658305 24.4547083,8.43634086 C24.4509606,8.43646435 24.4472368,8.43658671 24.4435365,8.43670796 L24.4302879,8.43706997 Z" id="Shape"></path>
                <path d="M25.5281936,10.2856146 C24.9814867,10.3639093 24.4748229,9.98418617 24.3965282,9.43747931 C24.3182336,8.89077245 24.6979567,8.38410861 25.2446636,8.30581395 L35.6139493,6.82081395 C36.1606561,6.74251929 36.66732,7.1222424 36.7456146,7.66894927 C36.8239093,8.21565613 36.4441862,8.72231996 35.8974793,8.80061462 L25.5281936,10.2856146 Z" id="Shape"></path>
                <path d="M25.5275921,12.3171291 C24.9808378,12.3950916 24.4744048,12.0150608 24.3964423,11.4683064 C24.3184798,10.9215521 24.6985107,10.4151191 25.245265,10.3371566 L35.6145507,8.85858514 C36.161305,8.78062265 36.6677381,9.16065353 36.7457006,9.70740785 C36.8236631,10.2541622 36.4436322,10.7605952 35.8968779,10.8385577 L25.5275921,12.3171291 Z" id="Shape"></path>
                <path d="M6.99785714,6.42857143 C6.99785714,6.98085618 6.55014189,7.42857143 5.99785714,7.42857143 C5.44557239,7.42857143 4.99785714,6.98085618 4.99785714,6.42857143 L4.99785714,2.89285714 C4.99785714,2.34057239 5.44557239,1.89285714 5.99785714,1.89285714 C6.55014189,1.89285714 6.99785714,2.34057239 6.99785714,2.89285714 L6.99785714,6.42857143 Z" id="Shape"></path>
                <path d="M10.7521429,6.42857143 C10.7521429,6.98085618 10.3044276,7.42857143 9.75214286,7.42857143 C9.19985811,7.42857143 8.75214286,6.98085618 8.75214286,6.42857143 L8.75214286,0.430714286 C8.75214286,-0.121570464 9.19985811,-0.569285714 9.75214286,-0.569285714 C10.3044276,-0.569285714 10.7521429,-0.121570464 10.7521429,0.430714286 L10.7521429,6.42857143 Z" id="Shape"></path>
                <path d="M14.7121429,6.31928571 C14.7121429,6.87157046 14.2644276,7.31928571 13.7121429,7.31928571 C13.1598581,7.31928571 12.7121429,6.87157046 12.7121429,6.31928571 L12.7121429,2.68071429 C12.7121429,2.12842954 13.1598581,1.68071429 13.7121429,1.68071429 C14.2644276,1.68071429 14.7121429,2.12842954 14.7121429,2.68071429 L14.7121429,6.31928571 Z" id="Shape"></path>
                <path d="M3.85714286,23.1785714 C3.30485811,23.1785714 2.85714286,22.7308562 2.85714286,22.1785714 C2.85714286,21.6262867 3.30485811,21.1785714 3.85714286,21.1785714 L19.395,21.1785714 C19.9472847,21.1785714 20.395,21.6262867 20.395,22.1785714 C20.395,22.7308562 19.9472847,23.1785714 19.395,23.1785714 L3.85714286,23.1785714 Z" id="Shape"></path>
            </g>
        </g>
    </g>
</svg>