<?xml version="1.0" encoding="UTF-8"?>
<svg width="12px" height="17px" viewBox="0 0 12 17" version="1.1" xmlns="http://www.w3.org/2000/svg" xmlns:xlink="http://www.w3.org/1999/xlink">
    <!-- Generator: sketchtool 51.3 (57544) - http://www.bohemiancoding.com/sketch -->
    <title>3501B7F6-1077-4B17-A37C-A94E428AC63B</title>
    <desc>Created with sketchtool.</desc>
    <defs></defs>
    <g id="style-guide" stroke="none" stroke-width="1" fill="none" fill-rule="evenodd">
        <g id="icons" transform="translate(-228.000000, -39.000000)" fill="#030303" fill-rule="nonzero">
            <path d="M234.774991,55.0256887 L234,56 L233.225009,55.0256887 C229.749816,50.6567078 228,47.4524524 228,45.2218221 C228,41.7887244 230.683202,39 234,39 C237.316798,39 240,41.7887244 240,45.2218221 C240,47.4524524 238.250184,50.6567078 234.774991,55.0256887 Z M238,45.2218221 C238,42.9148747 236.206049,41.0503732 234,41.0503732 C231.793951,41.0503732 230,42.9148747 230,45.2218221 C230,46.6829514 231.327083,49.2366291 234,52.7362415 C236.672917,49.2366291 238,46.6829514 238,45.2218221 Z" id="ico_location"></path>
        </g>
    </g>
</svg>