<?xml version="1.0" encoding="UTF-8"?>
<svg width="52px" height="37px" viewBox="0 0 52 37" version="1.1" xmlns="http://www.w3.org/2000/svg" xmlns:xlink="http://www.w3.org/1999/xlink">
    <!-- Generator: sketchtool 51.3 (57544) - http://www.bohemiancoding.com/sketch -->
    <title>66CF5FD8-FAF2-4EA2-8114-895A2CD6597C</title>
    <desc>Created with sketchtool.</desc>
    <defs></defs>
    <g id="style-guide" stroke="none" stroke-width="1" fill="none" fill-rule="evenodd">
        <g id="icons" transform="translate(-37.000000, -192.000000)" fill="#030303">
            <g id="ico_club" transform="translate(37.000000, 192.000000)">
                <path d="M2,2 L2,35 L50,35 L50,2 L2,2 Z M0,0 L52,0 L52,37 L0,37 L0,0 Z" id="Rectangle-18" fill-rule="nonzero"></path>
                <path d="M13.2505208,21.0979167 C13.3269101,21.0406247 13.3937497,21.0119792 13.4510417,21.0119792 C13.5083336,21.0119792 13.5560762,21.038715 13.5942708,21.0921875 L14.15,22.0317708 C14.2034725,22.0967017 14.2235244,22.153038 14.2101563,22.2007813 C14.1967881,22.2485245 14.1557295,22.2991317 14.0869792,22.3526042 C13.7737832,22.5855914 13.4233526,22.7708326 13.0356771,22.9083333 C12.6480015,23.045834 12.2039956,23.1145833 11.7036458,23.1145833 C11.1192679,23.1145833 10.5711831,23.0047754 10.059375,22.7851563 C9.54756689,22.5655371 9.10069635,22.2647589 8.71875,21.8828125 C8.33680365,21.5008661 8.03507055,21.0549505 7.81354167,20.5450521 C7.59201278,20.0351537 7.48125,19.4880238 7.48125,18.9036458 C7.48125,18.3192679 7.59201278,17.7730928 7.81354167,17.2651042 C8.03507055,16.7571155 8.33680365,16.3140644 8.71875,15.9359375 C9.10069635,15.5578106 9.54756689,15.2598969 10.059375,15.0421875 C10.5711831,14.8244781 11.1192679,14.715625 11.7036458,14.715625 C12.2039956,14.715625 12.6480015,14.7834195 13.0356771,14.9190104 C13.4233526,15.0546014 13.7776026,15.2407974 14.0984375,15.4776042 C14.1595489,15.5234377 14.191059,15.57309 14.1929687,15.6265625 C14.1948785,15.680035 14.1862848,15.7220485 14.1671875,15.7526042 L13.5828125,16.7380208 C13.5560763,16.7800349 13.5121531,16.8010417 13.4510417,16.8010417 C13.3937497,16.8010417 13.3345489,16.7819446 13.2734375,16.74375 C13.013714,16.5833325 12.7616332,16.4592018 12.5171875,16.3713542 C12.2727418,16.2835065 12.001564,16.2395833 11.7036458,16.2395833 C11.3331579,16.2395833 10.9894113,16.3083326 10.6723958,16.4458333 C10.3553804,16.583334 10.081338,16.7723946 9.85026042,17.0130208 C9.61918287,17.253647 9.43776108,17.5353282 9.30598958,17.8580729 C9.17421809,18.1808176 9.10833333,18.5293384 9.10833333,18.9036458 C9.10833333,19.2741338 9.17421809,19.6236095 9.30598958,19.9520833 C9.43776108,20.2805572 9.61918287,20.5670127 9.85026042,20.8114583 C10.081338,21.055904 10.3553804,21.2497389 10.6723958,21.3929688 C10.9894113,21.5361986 11.3331579,21.6078125 11.7036458,21.6078125 C12.001564,21.6078125 12.2842001,21.5591151 12.5515625,21.4617188 C12.8189249,21.3643224 13.0519087,21.2430563 13.2505208,21.0979167 Z M17.2620834,22.7822917 L17.2620834,15.059375 C17.2620834,14.9868052 17.2821353,14.930469 17.3222396,14.8903646 C17.362344,14.8502602 17.4129511,14.8302083 17.4740625,14.8302083 L18.6542709,14.8302083 C18.795591,14.8302083 18.86625,14.9065965 18.86625,15.059375 L18.86625,21.4817708 L22.3323959,21.4817708 C22.4851744,21.4817708 22.5615625,21.5524298 22.5615625,21.69375 L22.5615625,22.7822917 C22.5615625,22.9274313 22.4851744,23 22.3323959,23 L17.4740625,23 C17.3327424,23 17.2620834,22.9274313 17.2620834,22.7822917 Z M26.7621876,15.0536458 L26.7621876,19.7572917 C26.7621876,20.0704877 26.810885,20.3464398 26.9082813,20.5851563 C27.0056777,20.8238727 27.1374472,21.0253464 27.3035938,21.1895833 C27.4697405,21.3538203 27.6635754,21.477951 27.8851043,21.5619792 C28.1066331,21.6460074 28.3396169,21.6880208 28.5840626,21.6880208 C28.8361472,21.6880208 29.0729504,21.642188 29.2944793,21.5505208 C29.5160081,21.4588537 29.709843,21.3289939 29.8759897,21.1609375 C30.0421363,20.9928811 30.172951,20.7904526 30.2684376,20.5536458 C30.3639242,20.3168391 30.4116668,20.0513904 30.4116668,19.7572917 L30.4116668,15.059375 C30.4116668,14.9944441 30.4317186,14.9400176 30.471823,14.8960938 C30.5119274,14.8521699 30.5682636,14.8302083 30.6408334,14.8302083 L31.7866668,14.8302083 C31.863056,14.8302083 31.921302,14.8531248 31.9614063,14.8989583 C32.0015107,14.9447919 32.0215626,14.9982636 32.0215626,15.059375 L32.0215626,19.7515625 C32.0215626,20.3397599 31.928942,20.8458312 31.743698,21.2697917 C31.558454,21.6937521 31.3092378,22.0432278 30.9960418,22.3182292 C30.6828457,22.5932305 30.3180925,22.7966139 29.9017709,22.9283854 C29.4854494,23.0601569 29.0462177,23.1260417 28.5840626,23.1260417 C28.1219075,23.1260417 27.6826758,23.0592021 27.2663543,22.9255208 C26.8500327,22.7918396 26.4852794,22.5855917 26.1720834,22.3067708 C25.8588874,22.02795 25.6096712,21.6756098 25.4244272,21.2497396 C25.2391832,20.8238694 25.1465626,20.3187529 25.1465626,19.734375 L25.1465626,15.0536458 C25.1465626,14.9925344 25.1647048,14.9400176 25.2009897,14.8960938 C25.2372746,14.8521699 25.285972,14.8302083 25.3470834,14.8302083 L26.5502084,14.8302083 C26.6342366,14.8302083 26.6905729,14.8512151 26.7192188,14.8932292 C26.7478648,14.9352433 26.7621876,14.988715 26.7621876,15.0536458 Z M38.8518751,19.4135417 L36.7893751,19.4135417 L36.7893751,21.659375 L38.8747918,21.659375 C39.0428482,21.659375 39.191805,21.62691 39.3216668,21.5619792 C39.4515286,21.4970483 39.5603816,21.4130213 39.6482293,21.3098958 C39.736077,21.2067703 39.8019617,21.0902784 39.8458856,20.9604167 C39.8898094,20.8305549 39.911771,20.7006951 39.911771,20.5708333 C39.911771,20.4065964 39.8821706,20.2538202 39.8229689,20.1125 C39.7637672,19.9711798 39.6854694,19.8489588 39.5880731,19.7458333 C39.4906767,19.6427078 39.3780043,19.5615454 39.2500522,19.5023438 C39.1221002,19.4431421 38.9893758,19.4135417 38.8518751,19.4135417 Z M38.5310418,16.159375 L36.7893751,16.159375 L36.7893751,18.1473958 L38.5195835,18.1473958 C38.8404184,18.1473958 39.0972735,18.0585946 39.2901564,17.8809896 C39.4830393,17.7033845 39.5794793,17.4598974 39.5794793,17.1505208 C39.5794793,17.0015618 39.5546532,16.8659728 39.5050001,16.74375 C39.4553471,16.6215272 39.3846881,16.5174483 39.293021,16.4315104 C39.2013538,16.3455725 39.0905911,16.2787329 38.9607293,16.2309896 C38.8308675,16.1832463 38.6876398,16.159375 38.5310418,16.159375 Z M35.1852085,22.7822917 L35.1852085,15.0479167 C35.1852085,14.9027771 35.2558675,14.8302083 35.3971876,14.8302083 L38.9435418,14.8302083 C39.2567378,14.8302083 39.5489224,14.8894091 39.8201043,15.0078125 C40.0912862,15.1262159 40.3271346,15.2875858 40.5276564,15.4919271 C40.7281782,15.6962684 40.8857287,15.936891 41.0003126,16.2138021 C41.1148965,16.4907132 41.1721876,16.7895817 41.1721876,17.1104167 C41.1721876,17.4236127 41.1206257,17.7100681 41.0175001,17.9697917 C40.9143746,18.2295152 40.757779,18.4510408 40.5477085,18.634375 C40.7043065,18.7375005 40.8437148,18.8616312 40.9659376,19.0067708 C41.0881605,19.1519104 41.1931941,19.3104158 41.2810418,19.4822917 C41.3688895,19.6541675 41.4357291,19.837499 41.4815626,20.0322917 C41.5273962,20.2270843 41.5503126,20.4256934 41.5503126,20.628125 C41.5503126,20.9451405 41.4920667,21.2468736 41.3755731,21.5333333 C41.2590794,21.8197931 41.0996192,22.0718739 40.8971876,22.2895833 C40.6947561,22.5072928 40.4579529,22.6801209 40.186771,22.8080729 C39.9155891,22.9360249 39.6234045,23 39.3102085,23 L35.3971876,23 C35.2558675,23 35.1852085,22.9274313 35.1852085,22.7822917 Z" id="club"></path>
                <circle id="Oval-2" cx="8" cy="8" r="2"></circle>
            </g>
        </g>
    </g>
</svg>