<?xml version="1.0" encoding="UTF-8"?>
<svg width="38px" height="38px" viewBox="0 0 38 38" version="1.1" xmlns="http://www.w3.org/2000/svg" xmlns:xlink="http://www.w3.org/1999/xlink">
    <!-- Generator: sketchtool 51.3 (57544) - http://www.bohemiancoding.com/sketch -->
    <title>E596A989-2B4E-4B12-8416-3641DC77615E</title>
    <desc>Created with sketchtool.</desc>
    <defs></defs>
    <g id="style-guide" stroke="none" stroke-width="1" fill="none" fill-rule="evenodd">
        <g id="icons" transform="translate(-93.000000, -108.000000)" fill="#000000" fill-rule="nonzero">
            <g id="ico/ico_no_artificial_colors" transform="translate(94.000000, 109.000000)">
                <path d="M17.6674632,36.23 C7.35837261,36.23 -1,27.8964474 -1,17.615 C-1,7.33355256 7.35837261,-1 17.6674632,-1 C27.9765539,-1 36.3349265,7.33355256 36.3349265,17.615 C36.3349265,27.8964474 27.9765539,36.23 17.6674632,36.23 Z M17.6674632,34.23 C26.8733136,34.23 34.3349265,26.7905443 34.3349265,17.615 C34.3349265,8.43945571 26.8733136,1 17.6674632,1 C8.46161284,1 1,8.43945571 1,17.615 C1,26.7905443 8.46161284,34.23 17.6674632,34.23 Z" id="Oval"></path>
                <path d="M26.0519216,13.8896741 C25.627632,14.243223 24.9970694,14.1858764 24.6435205,13.7615868 C24.2899716,13.3372973 24.3473183,12.7067346 24.7716078,12.3531857 L30.9177713,7.23175579 C31.3420608,6.87820691 31.9726235,6.93555355 32.3261724,7.35984311 C32.6797212,7.78413267 32.6223746,8.41469532 32.198085,8.76824421 L26.0519216,13.8896741 Z" id="Shape"></path>
                <path d="M5.94493053,30.9169594 C5.52561486,31.2763934 4.89431351,31.2278498 4.53487948,30.8085341 C4.17544545,30.3892184 4.22398911,29.7579171 4.64330477,29.3984831 L8.3271017,26.2407618 C8.74641736,25.8813278 9.37771872,25.9298715 9.73715275,26.3491871 C10.0965868,26.7685028 10.0480431,27.3998041 9.62872746,27.7592382 L5.94493053,30.9169594 Z" id="Shape"></path>
                <path d="M18.1267085,9.21268841 C17.3530757,10.5032966 16.5795032,11.8506595 15.8585,13.1859479 C15.4916382,13.8653711 15.1474628,14.5252606 14.8300097,15.1602261 C13.4434296,17.9336452 12.6470588,20.0835396 12.6470588,21.1762951 C12.6470588,24.2941603 15.1833268,26.8228969 18.3134564,26.8228969 C21.4435859,26.8228969 23.9798539,24.2941603 23.9798539,21.1762951 C23.9798539,20.0789906 23.1864167,17.933998 21.8037648,15.1698321 C21.4835697,14.5297053 21.1360714,13.864285 20.7654197,13.1790914 C20.0437527,11.8450041 19.2694628,10.4993792 18.4951132,9.21081652 C18.4327657,9.1070667 18.3714489,9.00540999 18.3112424,8.90594976 C18.250824,9.0060128 18.1892859,9.10829407 18.1267085,9.21268841 Z M25.9798539,21.1762951 C25.9798539,25.4000635 22.5468262,28.8228969 18.3134564,28.8228969 C14.0800865,28.8228969 10.6470588,25.4000635 10.6470588,21.1762951 C10.6470588,19.6595861 11.5122615,17.3238718 13.0411219,14.2658657 C13.3684132,13.611222 13.7222218,12.9328627 14.0986602,12.2357037 C14.8351975,10.8716464 15.6232756,9.49901843 16.4112935,8.18441251 C16.6871012,7.72429796 16.943324,7.30409874 17.1734809,6.93222361 C17.3121319,6.70819878 17.4116942,6.54942226 17.4656774,6.4643246 L18.3088694,5.13513993 L19.1538168,6.46320934 C19.207873,6.54817365 19.3075543,6.70669015 19.446364,6.9303579 C19.6767752,7.30162557 19.9332788,7.72117916 20.2093872,8.18063963 C20.9982609,9.49337113 21.7871942,10.8644444 22.5245355,12.2275076 C22.9049449,12.9307396 23.2622559,13.6149502 23.5924719,14.2751104 C25.1170768,17.3230656 25.9798539,19.6555128 25.9798539,21.1762951 Z" id="Shape"></path>
            </g>
        </g>
    </g>
</svg>