<?xml version="1.0" encoding="UTF-8"?>
<svg width="38px" height="53px" viewBox="0 0 38 53" version="1.1" xmlns="http://www.w3.org/2000/svg" xmlns:xlink="http://www.w3.org/1999/xlink">
    <!-- Generator: sketchtool 51.3 (57544) - http://www.bohemiancoding.com/sketch -->
    <title>79BF455A-0E4D-468B-B8CC-51C615A2F1F7</title>
    <desc>Created with sketchtool.</desc>
    <defs></defs>
    <g id="style-guide" stroke="none" stroke-width="1" fill="none" fill-rule="evenodd">
        <g id="icons" transform="translate(-217.000000, -184.000000)" fill-rule="nonzero">
            <g id="ico_blogers" transform="translate(218.000000, 185.000000)">
                <g id="ico_bloggers" transform="translate(0.935484, 0.000000)" fill="#000000">
                    <path d="M17.0187097,26.676129 C9.37615768,26.676129 3.18064516,20.4806165 3.18064516,12.8380645 C3.18064516,5.19551252 9.37615768,-1 17.0187097,-1 C24.6612617,-1 30.8567742,5.19551252 30.8567742,12.8380645 C30.8567742,20.4806165 24.6612617,26.676129 17.0187097,26.676129 Z M17.0187097,24.676129 C23.5566922,24.676129 28.8567742,19.376047 28.8567742,12.8380645 C28.8567742,6.30008202 23.5566922,1 17.0187097,1 C10.4807272,1 5.18064516,6.30008202 5.18064516,12.8380645 C5.18064516,19.376047 10.4807272,24.676129 17.0187097,24.676129 Z" id="Oval"></path>
                    <path d="M31.2372405,40.1074148 L29.8573181,38.6461246 C30.9939314,37.7765086 32.0450629,36.7915668 32.9930763,35.7031086 C32.7419766,32.63206 31.8628409,30.2945029 30.5625422,28.5747736 C30.0310686,27.8718654 29.4668206,27.3250648 28.9088539,26.9158404 C28.5899687,26.6819633 28.3575459,26.5506226 28.1750264,26.4664034 L23.7156715,24.0276937 L24.6752962,22.2729514 L29.0566941,24.6733291 C29.8800446,25.0346556 31.031984,25.879512 32.1578539,27.3685479 C33.7533094,29.478641 34.7885172,32.3210024 35.0180363,35.9780069 L35.0430735,36.3769324 L34.7862357,36.6832048 C33.7217233,37.9526083 32.5313056,39.0989793 31.2372549,40.1074301 L31.2372405,40.1074148 Z M20.3985235,44.7818552 C19.2708087,44.9549227 18.1266819,45.0462505 16.9738856,45.0534985 C10.1142264,44.9849991 3.62953357,41.9122523 -0.767561099,36.6467822 L-1.02309603,36.3407821 L-0.998019809,35.942906 C-0.768460509,32.3005652 0.266670991,29.4623492 1.86149338,27.3483381 C2.98614792,25.8575563 4.13630146,25.0073503 4.88534895,24.6768224 L9.34470379,22.2381127 L10.3043285,23.992855 L5.77251862,26.4674624 C5.6671212,26.5144742 5.43386131,26.6478257 5.1141694,26.8841455 C4.55527039,27.2972897 3.99020519,27.8475192 3.45811049,28.5528354 C2.15729253,30.27713 1.27809256,32.611735 1.02695367,35.6696274 C5.04177645,40.2990177 10.8532233,42.9922817 16.977542,43.0535684 C17.3805253,43.0510179 17.7826211,43.0371196 18.1833892,43.0119946 L20.3985235,44.7818552 Z" id="Combined-Shape"></path>
                </g>
                <g id="Group" transform="translate(14.000000, 29.000000)" fill="#030303">
                    <path d="M14.3862302,22.5301927 L14.0317795,22.4915706 L1.63171983,9.88821825 L-1.4629982,-1.58380768 L10.3332983,2.62552491 L21.687918,14.1411695 L21.7600579,14.3735278 C22.5396266,16.8844709 21.9800495,19.0318995 20.0992939,20.6139469 C18.3353459,22.0977385 16.4142241,22.7511692 14.3862302,22.5301927 Z M18.8118543,19.0834244 C20.0037579,18.0808231 20.3665713,16.8428534 19.9160313,15.1927081 L9.23032398,4.35546212 L1.4629982,1.58380768 L3.42585585,8.86006153 L14.9446704,20.5677212 C16.2800965,20.6230646 17.5560302,20.1397941 18.8118543,19.0834244 Z" id="Path-6"></path>
                    <path d="M3.21056899,10.4121946 L2.78943101,8.4570366 C4.31975051,8.12740817 5.46046555,7.57059359 6.23230979,6.80346617 C7.01834431,6.0222352 7.73654095,4.65347791 8.35121241,2.69987093 L10.2590096,3.30012907 C9.55564621,5.53562518 8.6952662,7.17535912 7.64218228,8.22200752 C6.57490809,9.28275948 5.09079244,10.0071974 3.21056899,10.4121946 Z" id="Path-7"></path>
                </g>
            </g>
        </g>
    </g>
</svg>