<?xml version="1.0" encoding="UTF-8"?>
<svg width="34px" height="28px" viewBox="0 0 34 28" version="1.1" xmlns="http://www.w3.org/2000/svg" xmlns:xlink="http://www.w3.org/1999/xlink">
    <!-- Generator: sketchtool 51.3 (57544) - http://www.bohemiancoding.com/sketch -->
    <title>AA8FA9D7-0B30-4EED-ADBF-8719E1A51F55</title>
    <desc>Created with sketchtool.</desc>
    <defs></defs>
    <g id="style-guide" stroke="none" stroke-width="1" fill="none" fill-rule="evenodd">
        <g id="icons" transform="translate(-327.000000, -114.000000)" fill="#030303" fill-rule="nonzero">
            <g id="ico/ico_natural" transform="translate(328.000000, 114.000000)">
                <path d="M15.9724905,10.2758154 C12.4575973,11.5997585 9.85487703,14.2584774 9.61965906,17.6061105 C9.53511427,20.8429684 10.6614757,23.0208927 12.6485901,24.3810496 C14.0267283,25.3243693 15.8086127,25.7967578 16.8560593,25.7500078 C19.3802478,25.7400606 21.7738529,24.6267559 23.3930915,22.7203864 C25.0204545,20.7123101 27.3857726,15.7725361 28.5954018,12.5942947 C28.7771279,12.1168185 29.0878911,11.438243 29.500976,10.5978107 C29.570612,10.4564345 29.570612,10.4564345 29.6404433,10.3157703 C29.820735,9.95326005 30.0098361,9.58054129 30.2015097,9.20838794 C25.4545315,8.25475472 20.5285607,8.62081313 15.9724905,10.2758154 Z M32.5721158,8.99103269 C32.5014627,9.12334667 32.3767551,9.35934774 32.2161061,9.66758726 C31.9483052,10.1814205 31.6805689,10.7049798 31.4311973,11.2063881 C31.3633465,11.3430631 31.3633465,11.3430631 31.2958809,11.4800332 C30.9085061,12.2681574 30.6183369,12.9017644 30.4645982,13.3057053 C29.1813612,16.6773475 26.7504087,21.7541936 24.9322395,23.9972951 C22.9201125,26.3667283 19.9724321,27.7377425 16.9054077,27.7489685 C15.4777239,27.8138633 13.2664966,27.2276533 11.5189099,26.0314504 C8.97497721,24.2901578 7.51797832,21.4729153 7.62243946,17.5101933 C7.92302124,13.2147827 11.0930268,9.9765731 15.2785635,8.40009515 C20.6208323,6.4594249 26.4219324,6.16341357 31.9339916,7.55022265 C32.5645017,7.70885613 32.8783622,8.41751662 32.5721158,8.99103269 Z" id="Shape"></path>
                <path d="M25.470406,10.306767 C25.963725,10.0584631 26.5649292,10.257087 26.813233,10.750406 C27.0615369,11.243725 26.862913,11.8449292 26.369594,12.093233 C26.2604678,12.1481599 26.0486172,12.2584606 25.7488148,12.420488 C25.2451023,12.6927181 24.6827907,13.0094609 24.0766922,13.3670184 C22.3450397,14.3885773 20.6137173,15.5298869 19.002136,16.7597364 C16.736209,18.4889383 14.9005066,20.2486007 13.6516972,21.9840784 C13.3291196,22.4323664 12.7042096,22.5342748 12.2559216,22.2116972 C11.8076336,21.8891196 11.7057252,21.2642096 12.0283028,20.8159216 C13.408783,18.8974601 15.3791701,17.008692 17.7888152,15.1698142 C19.4692134,13.8874483 21.2650117,12.7036353 23.0604801,11.6444294 C23.6888739,11.2737192 24.2728765,10.9447582 24.7979075,10.6610065 C25.1153513,10.4894448 25.3443908,10.3701946 25.470406,10.306767 Z" id="Shape"></path>
                <path d="M1.81605829,8.23957471 C2.63994245,11.3512436 4.25406894,13.5261464 6.84273275,14.4705671 C7.36156724,14.6598531 7.62871902,15.2338983 7.43943295,15.7527328 C7.25014687,16.2715672 6.67610173,16.538719 6.15726725,16.3494329 C2.8709573,15.1504905 0.859275445,12.4399145 -0.117320329,8.75148008 C-0.760703122,6.32153387 -0.890571468,3.78194133 -0.731701974,1.52372495 C-0.710108865,1.21679434 -0.688072253,0.993629917 -0.672434482,0.8672246 C-0.573850727,0.0703392494 0.376343723,-0.29123784 0.979753732,0.238518122 C1.71563766,0.884577838 2.59846583,1.34070573 3.57163385,1.57217749 C3.4728718,1.54649936 5.01898286,1.92400058 5.57526382,2.08055366 C6.5537016,2.35591353 7.43442365,2.66955723 8.27764756,3.06688908 C10.4994546,4.11381704 12.1999165,5.62989763 13.2230147,7.78039026 C13.4602816,8.27911148 13.248331,8.87574775 12.7496097,9.11301466 C12.2508885,9.35028157 11.6542523,9.13833097 11.4169853,8.63960974 C10.6115309,6.94659133 9.25782445,5.73966754 7.42513913,4.87609591 C6.69272909,4.53098018 5.91290126,4.25326704 5.03345496,4.00576616 C4.51734371,3.86051796 2.99957823,3.48993765 3.0888177,3.51291045 C2.43366682,3.35723395 1.80330277,3.12007561 1.21182045,2.80871778 C1.17700518,4.56383186 1.34284232,6.45231934 1.81605829,8.23957471 Z" id="Shape"></path>
                <path d="M1.88877203,5.43479609 C1.59893515,4.96467587 1.74508368,4.34860891 2.21520391,4.05877203 C2.68532413,3.76893515 3.30139109,3.91508368 3.59122797,4.38520391 C4.97130908,6.62371836 6.64637243,8.66631989 8.57131705,10.4580116 C8.9755831,10.8342926 8.99826946,11.467051 8.62198844,11.8713171 C8.24570742,12.2755831 7.612949,12.2982695 7.20868295,11.9219884 C5.15238762,10.0080387 3.36302448,7.82605804 1.88877203,5.43479609 Z" id="Shape"></path>
            </g>
        </g>
    </g>
</svg>