<?xml version="1.0" encoding="UTF-8"?>
<svg width="39px" height="39px" viewBox="0 0 39 39" version="1.1" xmlns="http://www.w3.org/2000/svg" xmlns:xlink="http://www.w3.org/1999/xlink">
    <!-- Generator: sketchtool 51.3 (57544) - http://www.bohemiancoding.com/sketch -->
    <title>1EDAECDF-E5BE-47C7-B0AB-315331D21A60</title>
    <desc>Created with sketchtool.</desc>
    <defs></defs>
    <g id="style-guide" stroke="none" stroke-width="1" fill="none" fill-rule="evenodd">
        <g id="icons" transform="translate(-776.000000, -27.000000)" fill="#BA0C2F" fill-rule="nonzero">
            <g id="ico_time" transform="translate(777.000000, 28.000000)">
                <path d="M18.5,38 C7.73044738,38 -1,29.2695526 -1,18.5 C-1,7.73044738 7.73044738,-1 18.5,-1 C29.2695526,-1 38,7.73044738 38,18.5 C38,29.2695526 29.2695526,38 18.5,38 Z M18.5,36 C28.1649831,36 36,28.1649831 36,18.5 C36,8.83501688 28.1649831,1 18.5,1 C8.83501688,1 1,8.83501688 1,18.5 C1,28.1649831 8.83501688,36 18.5,36 Z" id="Oval"></path>
                <path d="M19,18 L27,18 L27,20 L19,20 L17,20 L17,7 L19,7 L19,18 Z" id="Combined-Shape"></path>
            </g>
        </g>
    </g>
</svg>