<?xml version="1.0" encoding="UTF-8"?>
<svg width="37px" height="24px" viewBox="0 0 37 24" version="1.1" xmlns="http://www.w3.org/2000/svg" xmlns:xlink="http://www.w3.org/1999/xlink">
    <!-- Generator: sketchtool 51.3 (57544) - http://www.bohemiancoding.com/sketch -->
    <title>7415106A-AE11-49A6-AE31-8A7BA8CEA462</title>
    <desc>Created with sketchtool.</desc>
    <defs></defs>
    <g id="style-guide" stroke="none" stroke-width="1" fill="none" fill-rule="evenodd">
        <g id="icons" transform="translate(-647.000000, -115.000000)" fill="#030303" fill-rule="nonzero">
            <g id="ico_after_the_gym" transform="translate(647.000000, 115.000000)">
                <polygon id="Line-4" points="10 11 10 9 25 9 25 11"></polygon>
                <polygon id="Line-4" points="10 15 10 13 25 13 25 15"></polygon>
                <path d="M8.5,2 C7.67157288,2 7,2.67157288 7,3.5 L7,20.5 C7,21.3284271 7.67157288,22 8.5,22 C9.32842712,22 10,21.3284271 10,20.5 L10,3.5 C10,2.67157288 9.32842712,2 8.5,2 Z M8.5,0 C10.4329966,-3.55085719e-16 12,1.56700338 12,3.5 L12,20.5 C12,22.4329966 10.4329966,24 8.5,24 C6.56700338,24 5,22.4329966 5,20.5 L5,3.5 C5,1.56700338 6.56700338,3.55085719e-16 8.5,0 Z" id="Rectangle-14"></path>
                <path d="M28.5,2 C27.6715729,2 27,2.67157288 27,3.5 L27,20.5 C27,21.3284271 27.6715729,22 28.5,22 C29.3284271,22 30,21.3284271 30,20.5 L30,3.5 C30,2.67157288 29.3284271,2 28.5,2 Z M28.5,0 C30.4329966,-3.55085719e-16 32,1.56700338 32,3.5 L32,20.5 C32,22.4329966 30.4329966,24 28.5,24 C26.5670034,24 25,22.4329966 25,20.5 L25,3.5 C25,1.56700338 26.5670034,3.55085719e-16 28.5,0 Z" id="Rectangle-14"></path>
                <path d="M3.5,7 C2.67157288,7 2,7.67157288 2,8.5 L2,16.5 C2,17.3284271 2.67157288,18 3.5,18 C4.32842712,18 5,17.3284271 5,16.5 L5,8.5 C5,7.67157288 4.32842712,7 3.5,7 Z M3.5,5 C5.43299662,5 7,6.56700338 7,8.5 L7,16.5 C7,18.4329966 5.43299662,20 3.5,20 C1.56700338,20 2.36723813e-16,18.4329966 0,16.5 L0,8.5 C-2.36723813e-16,6.56700338 1.56700338,5 3.5,5 Z" id="Rectangle-14"></path>
                <path d="M33.5,7 C32.6715729,7 32,7.67157288 32,8.5 L32,16.5 C32,17.3284271 32.6715729,18 33.5,18 C34.3284271,18 35,17.3284271 35,16.5 L35,8.5 C35,7.67157288 34.3284271,7 33.5,7 Z M33.5,5 C35.4329966,5 37,6.56700338 37,8.5 L37,16.5 C37,18.4329966 35.4329966,20 33.5,20 C31.5670034,20 30,18.4329966 30,16.5 L30,8.5 C30,6.56700338 31.5670034,5 33.5,5 Z" id="Rectangle-14"></path>
            </g>
        </g>
    </g>
</svg>