<?xml version="1.0" encoding="UTF-8"?>
<svg width="28px" height="28px" viewBox="0 0 28 28" version="1.1" xmlns="http://www.w3.org/2000/svg" xmlns:xlink="http://www.w3.org/1999/xlink">
    <!-- Generator: sketchtool 51.3 (57544) - http://www.bohemiancoding.com/sketch -->
    <title>F14DA000-09FD-493F-91AC-A7211148479D</title>
    <desc>Created with sketchtool.</desc>
    <defs></defs>
    <g id="style-guide" stroke="none" stroke-width="1" fill="none" fill-rule="evenodd">
        <g id="icons" transform="translate(-85.000000, -33.000000)" fill="#030303">
            <g id="ico_2" transform="translate(85.000000, 33.000000)">
                <path d="M14,28 C6.2680135,28 0,21.7319865 0,14 C0,6.2680135 6.2680135,0 14,0 C21.7319865,0 28,6.2680135 28,14 C28,21.7319865 21.7319865,28 14,28 Z M14,26 C20.627417,26 26,20.627417 26,14 C26,7.372583 20.627417,2 14,2 C7.372583,2 2,7.372583 2,14 C2,20.627417 7.372583,26 14,26 Z" id="Oval-5" fill-rule="nonzero"></path>
                <path d="M11,18.9599609 C11.0182293,18.2490199 11.170897,17.5996123 11.4580078,17.0117188 C11.736004,16.3509082 12.3922474,15.6513709 13.4267578,14.9130859 C14.3245488,14.2705046 14.9055976,13.8102227 15.1699219,13.5322266 C15.5755229,13.0992817 15.7783203,12.6253281 15.7783203,12.1103516 C15.7783203,11.6910786 15.6621105,11.3424493 15.4296875,11.0644531 C15.1972645,10.7864569 14.8645855,10.6474609 14.4316406,10.6474609 C13.8391897,10.6474609 13.4358735,10.8684874 13.2216797,11.3105469 C13.0986322,11.5657565 13.0257163,11.9713514 13.0029297,12.5273438 L11.109375,12.5273438 C11.1412762,11.6842406 11.2939439,11.0029323 11.5673828,10.4833984 C12.0869167,9.4944612 13.009759,9 14.3359375,9 C15.3841198,9 16.2180959,9.29052444 16.8378906,9.87158203 C17.4576854,10.4526396 17.7675781,11.2216749 17.7675781,12.1787109 C17.7675781,12.9124386 17.5488303,13.5641248 17.1113281,14.1337891 C16.8242173,14.5120462 16.3525423,14.9335914 15.6962891,15.3984375 L14.9169922,15.9521484 C14.4293595,16.2985043 14.0955413,16.5491529 13.9155273,16.7041016 C13.7355134,16.8590503 13.583985,17.0390615 13.4609375,17.2441406 L17.7880859,17.2441406 L17.7880859,18.9599609 L11,18.9599609 Z" id="2"></path>
            </g>
        </g>
    </g>
</svg>