<?xml version="1.0" encoding="UTF-8"?>
<svg width="25px" height="29px" viewBox="0 0 25 29" version="1.1" xmlns="http://www.w3.org/2000/svg" xmlns:xlink="http://www.w3.org/1999/xlink">
    <!-- Generator: sketchtool 51.3 (57544) - http://www.bohemiancoding.com/sketch -->
    <title>0484999F-7E83-4A55-A753-E5BCB0C63114</title>
    <desc>Created with sketchtool.</desc>
    <defs></defs>
    <g id="style-guide" stroke="none" stroke-width="1" fill="none" fill-rule="evenodd">
        <g id="icons" transform="translate(-865.000000, -112.000000)" fill="#030303" fill-rule="nonzero">
            <g id="ico/ico_delivery" transform="translate(866.000000, 113.000000)">
                <path d="M11.3931005,7.68293315 L22.6786383,3.85304346 C23.3271501,3.6329628 24,4.11516204 24,4.8 L24,21.05 C24,21.4280238 23.7868336,21.7737367 23.4490709,21.9434961 L11.9090709,27.7434961 C11.6215206,27.8880188 11.2819883,27.8853182 10.9967734,27.7362399 L-0.463226601,21.7462399 C-0.793175043,21.5737799 -1,21.2323015 -1,20.86 L-1,4.8 C-1,4.11268894 -0.322635756,3.6302553 0.326911072,3.8549449 L11.3931005,7.68293315 Z M1,6.20405683 L1,20.2543249 L11.4689377,25.7263089 L22,20.4334006 L22,6.19537729 L11.7113617,9.68695654 C11.5010548,9.75832681 11.2729735,9.75765783 11.0630889,9.6850551 L1,6.20405683 Z" id="Shape"></path>
                <path d="M11.6068784,1.8879153 L0.323553275,5.74620995 C-0.199024053,5.92490349 -0.767516415,5.6461306 -0.946209955,5.12355327 C-1.12490349,4.60097595 -0.846130603,4.03248358 -0.323553275,3.85379005 L11.2864467,-0.116209955 C11.4981005,-0.188584232 11.7279086,-0.187906143 11.9391315,-0.114284095 L23.3291315,3.85571591 C23.8506452,4.03749022 24.1260584,4.6076178 23.9442841,5.12913151 C23.7625098,5.65064521 23.1923822,5.92605841 22.6708685,5.74428409 L11.6068784,1.8879153 Z" id="Shape"></path>
                <path d="M6.72,7.48628049 L6.72,23.08 C6.72,23.6322847 6.27228475,24.08 5.72,24.08 C5.16771525,24.08 4.72,23.6322847 4.72,23.08 L4.72,6.77 C4.72,6.34174296 4.99270021,5.96102589 5.39817338,5.82320138 L16.5481734,2.03320138 C17.0710758,1.85546145 17.6390587,2.13527094 17.8167986,2.65817338 C17.9945386,3.18107582 17.7147291,3.74905869 17.1918266,3.92679862 L6.72,7.48628049 Z" id="Shape"></path>
                <polygon id="Shape" points="10.61 8.67 12.61 8.67 12.61 27.29 10.61 27.29"></polygon>
            </g>
        </g>
    </g>
</svg>