<?xml version="1.0" encoding="UTF-8"?>
<svg width="38px" height="38px" viewBox="0 0 38 38" version="1.1" xmlns="http://www.w3.org/2000/svg" xmlns:xlink="http://www.w3.org/1999/xlink">
    <!-- Generator: sketchtool 51.3 (57544) - http://www.bohemiancoding.com/sketch -->
    <title>27AB4C20-706F-48C7-BC97-EC61C5D7B0EE</title>
    <desc>Created with sketchtool.</desc>
    <defs></defs>
    <g id="style-guide" stroke="none" stroke-width="1" fill="none" fill-rule="evenodd">
        <g id="icons" transform="translate(-151.000000, -108.000000)" fill="#000000" fill-rule="nonzero">
            <g id="ico/ico_no_artificial_flavors" transform="translate(152.000000, 109.000000)">
                <path d="M22.2318543,17.056868 C24.1555677,18.5606898 25.2805109,20.8822577 25.279066,23.3396024 C25.2817916,26.1201688 23.8204362,28.6929356 21.4421241,30.0886322 C19.0591663,31.4870551 16.1196305,31.4900184 13.7339235,30.0963954 C11.3528574,28.7054833 9.88644809,26.1356447 9.88372232,23.3546735 C9.8822777,20.895761 11.0072209,18.5741932 12.9324547,17.0691852 C13.8510397,16.3539507 14.3928493,15.2451559 14.3976602,14.0705164 L14.3976602,7.90050641 C13.6512794,7.80153127 13.0794305,7.15910164 13.0794305,6.3870967 C13.0794305,5.54707406 13.7564842,4.86046512 14.5987331,4.86046512 L20.5906864,4.86046512 C21.4329353,4.86046512 22.109989,5.54707406 22.109989,6.3870967 C22.109989,7.15910164 21.5381401,7.80153127 20.7917593,7.90050641 L20.7917593,14.0691592 C20.7951307,15.2400006 21.3284535,16.3430151 22.2318543,17.056868 Z M16.3976519,14.0746049 C16.3903289,15.8657014 15.5654158,17.5538577 14.1626906,18.6460542 C12.7254289,19.7696027 11.8826383,21.5088869 11.8837217,23.3531058 C11.8857532,25.4257639 12.9768778,27.3379272 14.7427243,28.3694556 C16.50393,29.398273 18.6706707,29.3960888 20.4298682,28.3637154 C22.1937116,27.3286156 23.2810986,25.4142331 23.2790666,23.3399951 C23.2801503,21.4953835 22.4373596,19.7560994 20.9959978,18.6293283 C19.6083583,17.5328643 18.796332,15.8528316 18.7917626,14.0730839 L18.7917593,6.86046512 L16.3976602,6.86046512 L16.3976519,14.0746049 Z" id="Shape"></path>
                <path d="M18,37 C7.50658975,37 -1,28.4934102 -1,18 C-1,7.50658975 7.50658975,-1 18,-1 C28.4934102,-1 37,7.50658975 37,18 C37,28.4934102 28.4934102,37 18,37 Z M18,35 C27.3888407,35 35,27.3888407 35,18 C35,8.61115925 27.3888407,1 18,1 C8.61115925,1 1,8.61115925 1,18 C1,27.3888407 8.61115925,35 18,35 Z" id="Oval"></path>
                <path d="M25.6327685,13.8842778 C25.2053237,14.2340054 24.575301,14.1710031 24.2255734,13.7435583 C23.8758458,13.3161135 23.9388481,12.6860908 24.3662929,12.3363632 L31.1807157,6.76092642 C31.6081605,6.41119885 32.2381832,6.47420112 32.5879108,6.90164593 C32.9376384,7.32909074 32.8746361,7.95911345 32.4471913,8.30884102 L25.6327685,13.8842778 Z" id="Shape"></path>
                <path d="M6.7303626,30.683851 C6.3398383,31.0743753 5.70667332,31.0743753 5.31614903,30.683851 C4.92562474,30.2933267 4.92562474,29.6601617 5.31614903,29.2696374 L7.66498624,26.9208002 C8.05551053,26.5302759 8.68867551,26.5302759 9.0791998,26.9208002 C9.4697241,27.3113245 9.4697241,27.9444895 9.0791998,28.3350138 L6.7303626,30.683851 Z" id="Shape"></path>
            </g>
        </g>
    </g>
</svg>