<?xml version="1.0" encoding="UTF-8"?>
<svg width="23px" height="18px" viewBox="0 0 23 18" version="1.1" xmlns="http://www.w3.org/2000/svg" xmlns:xlink="http://www.w3.org/1999/xlink">
    <!-- Generator: sketchtool 51.3 (57544) - http://www.bohemiancoding.com/sketch -->
    <title>5CDA40CA-3885-4EBD-9DE1-DE4D2A491C32</title>
    <desc>Created with sketchtool.</desc>
    <defs></defs>
    <g id="style-guide" stroke="none" stroke-width="1" fill="none" fill-rule="evenodd">
        <g id="icons" transform="translate(-668.000000, -38.000000)" fill="#030303" fill-rule="nonzero">
            <path d="M679.985342,53.9627972 C679.978766,53.9606772 679.97577,53.9598957 679.976861,53.9596738 C679.977117,53.9596217 679.979945,53.9606628 679.985342,53.9627972 Z M680.831974,53.6119296 C681.58884,53.2185526 682.578272,52.5542966 683.66577,51.7181571 C685.674817,50.1734719 687.740416,48.2426585 688.199693,47.5237879 C688.694863,46.748737 688.961064,45.8538523 688.961064,44.9180457 C688.961064,42.19982 686.710403,39.9962627 683.934071,39.9962627 C682.51537,39.9962627 681.193591,40.5732991 680.247444,41.5720126 L679.5,42.3609841 L678.752556,41.5720126 C677.806409,40.5732991 676.48463,39.9962627 675.065929,39.9962627 C672.289597,39.9962627 670.038936,42.19982 670.038936,44.9180457 C670.038936,45.8100475 670.280717,46.6650283 670.732928,47.4152344 C671.173948,48.1468736 673.237233,50.0975707 675.288946,51.6811952 C676.384471,52.5267817 677.387095,53.201917 678.154614,53.6025475 C678.483151,53.7740377 678.75488,53.887504 678.947824,53.9397618 L679.5,53.3569075 L680.053672,53.9413408 C680.243115,53.8902156 680.509666,53.7794473 680.831974,53.6119296 Z M674.026636,53.2488804 C671.784806,51.5185134 669.585305,49.4390335 668.976984,48.4298462 C668.34075,47.3743505 668,46.1694009 668,44.9180457 C668,41.0973146 671.163524,38 675.065929,38 C676.707869,38 678.261072,38.5520899 679.5,39.5311655 C680.738928,38.5520899 682.292131,38 683.934071,38 C687.836476,38 691,41.0973146 691,44.9180457 C691,46.2309911 690.624816,47.4922398 689.928306,48.5824328 C689.307386,49.5543092 687.110391,51.6079449 684.925058,53.2881706 C682.416917,55.2165923 680.667239,56.2465004 679.495806,55.9495355 C678.315053,56.2383788 676.5442,55.1920752 674.026636,53.2488804 Z" id="ico/ico_wish"></path>
        </g>
    </g>
</svg>