<?xml version="1.0" encoding="UTF-8"?>
<svg width="38px" height="38px" viewBox="0 0 38 38" version="1.1" xmlns="http://www.w3.org/2000/svg" xmlns:xlink="http://www.w3.org/1999/xlink">
    <!-- Generator: sketchtool 51.3 (57544) - http://www.bohemiancoding.com/sketch -->
    <title>FE6D7290-0EB9-4211-9167-624D004CECB2</title>
    <desc>Created with sketchtool.</desc>
    <defs></defs>
    <g id="style-guide" stroke="none" stroke-width="1" fill="none" fill-rule="evenodd">
        <g id="icons" transform="translate(-430.000000, -108.000000)" fill="#030303" fill-rule="nonzero">
            <g id="ico/ico_no_refrigeration" transform="translate(430.000000, 108.000000)">
                <g id="Group-2" transform="translate(9.509434, 8.150943)">
                    <path d="M8.55070755,1 C8.55070755,0.44771525 8.9984228,0 9.55070755,0 C10.1029923,0 10.5507075,0.44771525 10.5507075,1 L10.5507075,20.0436321 C10.5507075,20.5959168 10.1029923,21.0436321 9.55070755,21.0436321 C8.9984228,21.0436321 8.55070755,20.5959168 8.55070755,20.0436321 L8.55070755,1 Z" id="Shape"></path>
                    <path d="M12.0430363,1.83305484 C12.5266563,1.5663526 13.1349127,1.74219924 13.401615,2.22581929 C13.6683172,2.70943935 13.4924706,3.31769576 13.0088505,3.58439799 L10.1220581,5.17637913 C9.8292949,5.3378294 9.47521591,5.34229373 9.17847524,5.18827608 L6.11125826,3.59629494 C5.62106769,3.34187078 5.42994127,2.73824127 5.68436543,2.24805071 C5.9387896,1.75786015 6.54241911,1.56673372 7.03260967,1.82115789 L9.62485196,3.16661236 L12.0430363,1.83305484 Z" id="Shape"></path>
                    <path d="M7.05438765,19.2709686 C6.57062958,19.5374205 5.9624643,19.3612589 5.69601248,18.8775009 C5.42956067,18.3937428 5.6057222,17.7855775 6.08948027,17.5191257 L8.97981046,15.9271446 C9.27264299,15.7658537 9.6267052,15.7615648 9.92335877,15.9157151 L12.987038,17.5076962 C13.4771084,17.7623517 13.6679499,18.3660714 13.4132944,18.8561418 C13.1586388,19.3462122 12.5549192,19.5370537 12.0648488,19.2823981 L9.47600172,17.9371543 L7.05438765,19.2709686 Z" id="Shape"></path>
                    <path d="M17.2470394,4.82595283 C17.7228588,4.54557027 18.3358816,4.7040031 18.6162641,5.17982247 C18.8966467,5.65564183 18.7382139,6.26866461 18.2623945,6.54904717 L1.85437565,16.2176792 C1.37855629,16.4980618 0.765533507,16.339629 0.485150946,15.8638096 C0.204768386,15.3879902 0.363201217,14.7749675 0.839020578,14.4945849 L17.2470394,4.82595283 Z" id="Shape"></path>
                    <path d="M15.9228895,6.85418168 L18.3027586,8.2619498 C18.7781055,8.54313259 18.9355066,9.15642108 18.6543238,9.63176799 C18.373141,10.1071149 17.7598525,10.264516 17.2845056,9.98333322 L14.4437037,8.3029087 C14.1557609,8.13258139 13.9720666,7.82954795 13.9542494,7.49547462 L13.7702871,4.04618217 C13.7408737,3.49468122 14.1641093,3.02375711 14.7156103,2.99434372 C15.2671112,2.96493034 15.7380353,3.38816594 15.7674487,3.93966689 L15.9228895,6.85418168 Z" id="Shape"></path>
                    <path d="M3.12545954,14.22129 L0.7455905,12.8135219 C0.270243592,12.5323391 0.112842476,11.9190506 0.394025267,11.4437037 C0.675208058,10.9683568 1.28849655,10.8109557 1.76384346,11.0921385 L4.60464535,12.772563 C4.89258814,12.9428903 5.07628243,13.2459237 5.09409967,13.5799971 L5.27806194,17.0292895 C5.30747532,17.5807905 4.88423972,18.0517146 4.33273877,18.081128 C3.78123783,18.1105414 3.31031371,17.6873058 3.28090033,17.1358048 L3.12545954,14.22129 Z" id="Shape"></path>
                    <path d="M18.3227858,14.3839488 C18.8030465,14.656654 18.9713035,15.2670534 18.6985983,15.7473141 C18.4258932,16.2275748 17.8154937,16.3958318 17.335233,16.1231266 L0.775091527,6.71982476 C0.294830834,6.44711958 0.126573842,5.83672014 0.399279016,5.35645945 C0.671984191,4.87619876 1.28238363,4.70794177 1.76264432,4.98064694 L18.3227858,14.3839488 Z" id="Shape"></path>
                    <path d="M15.8713794,17.010516 C15.864269,17.562755 15.4108268,18.004669 14.8585878,17.9975586 C14.3063488,17.9904483 13.8644348,17.537006 13.8715451,16.984767 L13.913998,13.6875972 C13.9183047,13.3531056 14.0895786,13.0429213 14.3703667,12.8610938 L17.2713101,10.9825561 C17.7348857,10.6823626 18.3540429,10.81481 18.6542364,11.2783856 C18.9544298,11.7419612 18.8219824,12.3611184 18.3584068,12.6613118 L15.9069381,14.2487873 L15.8713794,17.010516 Z" id="Shape"></path>
                    <path d="M3.14140348,6.82668923 L3.17696949,4.06143178 C3.18407225,3.50919271 3.63750839,3.0672724 4.18974747,3.07437515 C4.74198654,3.08147791 5.18390684,3.53491405 5.17680409,4.08715313 L5.13435126,7.38786067 C5.13004905,7.72235728 4.95877458,8.03254775 4.67798231,8.21437786 L1.77703891,10.0929156 C1.31346332,10.3931091 0.694306167,10.2606617 0.394112704,9.79708608 C0.0939192416,9.33351049 0.226366627,8.71435334 0.689942219,8.41415987 L3.14140348,6.82668923 Z" id="Shape"></path>
                </g>
                <path d="M18.8845283,37.7690566 C8.45489131,37.7690566 0,29.3141653 0,18.8845283 C0,8.45489131 8.45489131,0 18.8845283,0 C29.3141653,0 37.7690566,8.45489131 37.7690566,18.8845283 C37.7690566,29.3141653 29.3141653,37.7690566 18.8845283,37.7690566 Z M18.8845283,35.7690566 C28.2095958,35.7690566 35.7690566,28.2095958 35.7690566,18.8845283 C35.7690566,9.55946081 28.2095958,2 18.8845283,2 C9.55946081,2 2,9.55946081 2,18.8845283 C2,28.2095958 9.55946081,35.7690566 18.8845283,35.7690566 Z" id="Oval"></path>
                <path d="M29.8747537,12.6268541 C29.4424787,12.9705935 28.8133947,12.8988211 28.4696553,12.4665461 C28.125916,12.0342711 28.1976883,11.4051872 28.6299633,11.0614478 L32.0168501,8.36824024 C32.4491251,8.02450087 33.0782091,8.09627319 33.4219484,8.52854821 C33.7656878,8.96082322 33.6939155,9.58990718 33.2616405,9.93364655 L29.8747537,12.6268541 Z" id="Shape"></path>
                <path d="M9.12289877,32.2773962 C8.70376678,32.6370444 8.07244071,32.5888232 7.71279252,32.1696912 C7.35314432,31.7505592 7.40136547,31.1192332 7.82049746,30.759585 L10.9314409,28.090151 C11.3505728,27.7305028 11.9818989,27.778724 12.3415471,28.1978559 C12.7011953,28.6169879 12.6529742,29.248314 12.2338422,29.6079622 L9.12289877,32.2773962 Z" id="Shape"></path>
            </g>
        </g>
    </g>
</svg>