<?xml version="1.0" encoding="UTF-8"?>
<svg width="34px" height="28px" viewBox="0 0 34 28" version="1.1" xmlns="http://www.w3.org/2000/svg" xmlns:xlink="http://www.w3.org/1999/xlink">
    <!-- Generator: sketchtool 51.3 (57544) - http://www.bohemiancoding.com/sketch -->
    <title>14F2E658-8506-41BF-BCF0-A2467208DAEF</title>
    <desc>Created with sketchtool.</desc>
    <defs></defs>
    <g id="style-guide" stroke="none" stroke-width="1" fill="none" fill-rule="evenodd">
        <g id="icons" transform="translate(-706.000000, -113.000000)" fill="#000000" fill-rule="nonzero">
            <g id="ico_lunch" transform="translate(707.000000, 114.000000)">
                <path d="M29.1904762,20.6560847 L29.1904762,21.6560847 L2.04761905,21.6560847 L2.04761905,20.6560847 C2.04761905,12.9052791 8.1682027,6.7037037 15.9256678,6.7037037 C23.1725025,6.7037037 29.1904762,13.0102899 29.1904762,20.6560847 Z M15.9256678,8.7037037 C9.61541457,8.7037037 4.5812324,13.4806143 4.08739377,19.6560847 L27.150428,19.6560847 C26.6601389,13.5555547 21.7324454,8.7037037 15.9256678,8.7037037 Z" id="Shape"></path>
                <path d="M0,26.3121693 C-0.55228475,26.3121693 -1,25.8644541 -1,25.3121693 C-1,24.7598846 -0.55228475,24.3121693 0,24.3121693 L32,24.3121693 C32.5522847,24.3121693 33,24.7598846 33,25.3121693 C33,25.8644541 32.5522847,26.3121693 32,26.3121693 L0,26.3121693 Z" id="Shape"></path>
                <path d="M16.3809524,4.80952381 C14.7766967,4.80952381 13.4761905,3.50901761 13.4761905,1.9047619 C13.4761905,0.300506203 14.7766967,-1 16.3809524,-1 C17.9852081,-1 19.2857143,0.300506203 19.2857143,1.9047619 C19.2857143,3.50901761 17.9852081,4.80952381 16.3809524,4.80952381 Z M16.3809524,2.80952381 C16.8806386,2.80952381 17.2857143,2.40444811 17.2857143,1.9047619 C17.2857143,1.4050757 16.8806386,1 16.3809524,1 C15.8812662,1 15.4761905,1.4050757 15.4761905,1.9047619 C15.4761905,2.40444811 15.8812662,2.80952381 16.3809524,2.80952381 Z" id="Oval"></path>
            </g>
        </g>
    </g>
</svg>