<?xml version="1.0" encoding="UTF-8"?>
<svg width="39px" height="38px" viewBox="0 0 39 38" version="1.1" xmlns="http://www.w3.org/2000/svg" xmlns:xlink="http://www.w3.org/1999/xlink">
    <!-- Generator: sketchtool 51.3 (57544) - http://www.bohemiancoding.com/sketch -->
    <title>52E625A4-3D73-4F40-B4DF-55A47CFAEE81</title>
    <desc>Created with sketchtool.</desc>
    <defs></defs>
    <g id="style-guide" stroke="none" stroke-width="1" fill="none" fill-rule="evenodd">
        <g id="icons" transform="translate(-209.000000, -108.000000)" fill="#000000" fill-rule="nonzero">
            <g id="ico/ico_gluten_free" transform="translate(210.000000, 109.000000)">
                <path d="M18.6575926,36.9524528 C8.14351924,36.9524528 -0.383333333,28.4995199 -0.383333333,18.0679245 C-0.383333333,7.63632912 8.14351924,-0.816603774 18.6575926,-0.816603774 C29.1716659,-0.816603774 37.6985185,7.63632912 37.6985185,18.0679245 C37.6985185,28.4995199 29.1716659,36.9524528 18.6575926,36.9524528 Z M18.6575926,34.9524528 C28.0709758,34.9524528 35.6985185,27.3910336 35.6985185,18.0679245 C35.6985185,8.74481546 28.0709758,1.18339623 18.6575926,1.18339623 C9.24420942,1.18339623 1.61666667,8.74481546 1.61666667,18.0679245 C1.61666667,27.3910336 9.24420942,34.9524528 18.6575926,34.9524528 Z" id="Oval"></path>
                <path d="M30.2273758,11.6296233 C29.8067012,11.9874659 29.1755883,11.9365305 28.8177457,11.5158559 C28.4599031,11.0951813 28.5108385,10.4640684 28.9315131,10.1062258 L32.0696613,7.43679182 C32.4903359,7.07894922 33.1214487,7.12988463 33.4792913,7.55055923 C33.8371339,7.97123384 33.7861985,8.60234672 33.3655239,8.96018932 L30.2273758,11.6296233 Z" id="Shape"></path>
                <path d="M6.90375491,31.4838924 C6.48311923,31.8417808 5.85200081,31.790914 5.49411246,31.3702783 C5.13622412,30.9496426 5.18709089,30.3185242 5.60772657,29.9606359 L8.21828212,27.7395038 C8.63891781,27.3816155 9.27003623,27.4324822 9.62792457,27.8531179 C9.98581292,28.2737536 9.93494615,28.904872 9.51431047,29.2627604 L6.90375491,31.4838924 Z" id="Shape"></path>
                <path d="M19.3999251,12.4261753 C20.2467331,11.3979199 20.7409259,10.3400167 20.7409259,9.33962264 C20.7409259,8.33922858 20.2467331,7.28132535 19.3999251,6.25306996 C19.1458819,5.94459236 18.8756025,5.65796667 18.6027778,5.39834613 C18.329953,5.65796667 18.0596737,5.94459236 17.8056305,6.25306996 C16.9588225,7.28132535 16.4646296,8.33922858 16.4646296,9.33962264 C16.4646296,10.3400167 16.9588225,11.3979199 17.8056305,12.4261753 C18.0596737,12.7346529 18.329953,13.0212786 18.6027778,13.2808992 C18.8756025,13.0212786 19.1458819,12.7346529 19.3999251,12.4261753 Z M22.7409259,9.33962264 C22.7409259,10.8830022 22.0583132,12.3442499 20.9437786,13.6975983 C20.2980694,14.481665 19.6538705,15.0649699 19.2033272,15.4033612 C18.847548,15.6705777 18.3580076,15.6705777 18.0022284,15.4033612 C17.551685,15.0649699 16.9074861,14.481665 16.2617769,13.6975983 C15.1472423,12.3442499 14.4646296,10.8830022 14.4646296,9.33962264 C14.4646296,7.79624312 15.1472423,6.33499541 16.2617769,4.98164702 C16.9074861,4.19758029 17.551685,3.6142754 18.0022284,3.27588405 C18.3580076,3.00866758 18.847548,3.00866758 19.2033272,3.27588405 C19.6538705,3.6142754 20.2980694,4.19758029 20.9437786,4.98164702 C22.0583132,6.33499541 22.7409259,7.79624312 22.7409259,9.33962264 Z" id="Shape"></path>
                <path d="M23.300723,19.3560667 C24.0267778,19.2050853 24.6383992,18.9380941 25.1125979,18.5465924 C25.6624411,18.092638 26.0779993,17.4329962 26.3669635,16.6087159 C26.5721523,16.023408 26.7028604,15.3863602 26.7707,14.7381961 C26.7818978,14.6312087 26.7910293,14.5280155 26.7983289,14.4292104 C25.9262735,14.3245122 25.019382,14.3261108 24.1882315,14.4898623 C23.4477048,14.6357593 22.8279784,14.9021094 22.3536445,15.2973265 C21.807619,15.7522775 21.3940215,16.4180296 21.1064706,17.2517719 C20.9030945,17.8414526 20.7734362,18.4832352 20.7059796,19.1359934 C20.6951158,19.2411195 20.6862033,19.3425618 20.6790256,19.4397597 C21.5533492,19.538954 22.4645355,19.5299499 23.300723,19.3560667 Z M23.7079077,21.3141782 C22.5255654,21.5600435 21.2924589,21.5489177 20.1276472,21.3856812 C19.812285,21.3414864 19.5741332,21.2961533 19.4320572,21.2632058 C18.9953967,21.1619439 18.6794653,20.7824821 18.6590052,20.3347013 C18.6581442,20.315101 18.6581442,20.315101 18.6565678,20.2597522 C18.6481521,19.9106787 18.6622961,19.4556396 18.7165742,18.9304064 C18.7987311,18.1353976 18.9579979,17.3470587 19.2157621,16.599682 C19.6136907,15.4459038 20.2175707,14.4738613 21.0733925,13.7607867 C21.8283652,13.13174 22.7536973,12.7340447 23.8016275,12.5275837 C24.9651084,12.2983571 26.1790667,12.3166334 27.3298413,12.4821481 C27.6556343,12.5290065 27.9020463,12.5770205 28.0490076,12.6118307 C28.4827354,12.7145664 28.796105,13.0919563 28.8173789,13.5371775 C28.8183182,13.5576228 28.8183182,13.5576228 28.8200389,13.6153332 C28.8288938,13.9661201 28.8147621,14.4215911 28.7598346,14.9463874 C28.6768587,15.739169 28.51559,16.5251636 28.2543472,17.2703675 C27.853322,18.4143055 27.2454148,19.379275 26.3859207,20.0888793 C25.6395992,20.7050475 24.7320936,21.1012011 23.7079077,21.3141782 Z" id="Shape"></path>
                <path d="M10.9292645,20.0888793 C10.0700669,19.3795198 9.46161335,18.4149341 9.05934056,17.2713837 C8.7963931,16.5238967 8.63386027,15.7354268 8.54992817,14.9403836 C8.49452083,14.41554 8.48000007,13.9611075 8.48844983,13.6128695 C8.49001079,13.5584166 8.49001079,13.5584166 8.49087173,13.5389414 C8.51139619,13.0928828 8.82516304,12.7144877 9.25971143,12.6117395 C9.40683354,12.5769527 9.65356189,12.5289587 9.97977355,12.4821157 C11.1304088,12.3168881 12.3440774,12.2984269 13.5072095,12.5266224 C14.5580312,12.7327836 15.4855695,13.1306981 16.2417927,13.7607867 C17.0976145,14.4738613 17.7014945,15.4459038 18.0994231,16.599682 C18.3571872,17.3470587 18.5164541,18.1353976 18.598611,18.9304064 C18.6528891,19.4556396 18.6670331,19.9106787 18.6586174,20.2597522 C18.6570409,20.315101 18.6570409,20.315101 18.65618,20.3347013 C18.6357198,20.7824821 18.3197884,21.1619439 17.883128,21.2632058 C17.741052,21.2961533 17.5029001,21.3414864 17.1875379,21.3856812 C16.0227263,21.5489177 14.7896198,21.5600435 13.6072775,21.3141782 C12.5830916,21.1012011 11.675586,20.7050475 10.9292645,20.0888793 Z M10.5388756,14.730412 C10.6075322,15.3807585 10.7393477,16.0202144 10.9460106,16.6076998 C11.2361084,17.4323677 11.6524476,18.0923932 12.2025873,18.5465924 C12.676786,18.9380941 13.2884074,19.2050853 14.0144621,19.3560667 C14.8506497,19.5299499 15.761836,19.538954 16.6361596,19.4397597 C16.6289818,19.3425618 16.6200694,19.2411195 16.6092056,19.1359934 C16.541749,18.4832352 16.4120906,17.8414526 16.2087146,17.2517719 C15.9211637,16.4180296 15.5075662,15.7522775 14.9615407,15.2973265 C14.4865442,14.9015573 13.86513,14.6349703 13.1221688,14.4892083 C12.290846,14.3261107 11.3838336,14.3246648 10.511539,14.4292051 C10.5188304,14.5255738 10.5278699,14.6261612 10.5388756,14.730412 Z" id="Shape"></path>
                <path d="M23.300723,27.8466327 C24.0267778,27.6956513 24.6383992,27.4286601 25.1125979,27.0371584 C25.6633904,26.5824203 26.0784921,25.9179504 26.3653913,25.0857191 C26.5664232,24.5025701 26.6941257,23.8679932 26.7599018,23.2218316 C26.7713026,23.1098342 26.7804788,23.0018361 26.7876914,22.8984985 C25.9184675,22.7996439 25.0131847,22.8067216 24.1825731,22.975221 C23.445539,23.1247371 22.8277532,23.3928631 22.3536445,23.7878926 C21.807619,24.2428435 21.3940215,24.9085957 21.1064706,25.7423379 C20.9030945,26.3320186 20.7734362,26.9738012 20.7059796,27.6265594 C20.6951158,27.7316856 20.6862033,27.8331279 20.6790256,27.9303257 C21.5533492,28.02952 22.4645355,28.0205159 23.300723,27.8466327 Z M26.3859207,28.5794454 C25.6395992,29.1956135 24.7320936,29.5917672 23.7079077,29.8047442 C22.5255654,30.0506095 21.2924589,30.0394837 20.1276472,29.8762472 C19.812285,29.8320525 19.5741332,29.7867193 19.4320572,29.7537718 C18.9953967,29.65251 18.6794653,29.2730481 18.6590052,28.8252673 C18.6581442,28.8056671 18.6581442,28.8056671 18.6565678,28.7503182 C18.6481521,28.4012447 18.6622961,27.9462056 18.7165742,27.4209725 C18.7987311,26.6259636 18.9579979,25.8376247 19.2157621,25.090248 C19.6136907,23.9364698 20.2175707,22.9644274 21.0733925,22.2513527 C21.8247338,21.6253317 22.7441961,21.2262748 23.7849486,21.0151458 C24.9557576,20.7776333 26.1770374,20.7904335 27.3317913,20.9515995 C27.6481181,20.9957484 27.8870758,21.0410182 28.0295778,21.0738884 C28.4648797,21.1742973 28.7807807,21.5512503 28.8035187,21.9974035 C28.8046187,22.0198136 28.8046187,22.0198136 28.8066814,22.0844699 C28.8163097,22.4407555 28.8031075,22.8989265 28.7496194,23.4243751 C28.6692651,24.2137479 28.5118681,24.9958817 28.2561912,25.737544 C27.8579226,26.8928332 27.2498759,27.8661579 26.3859207,28.5794454 Z" id="Shape"></path>
                <path d="M10.9292645,28.5794454 C10.0653092,27.8661579 9.45726259,26.8928332 9.05899398,25.737544 C8.80331704,24.9958817 8.64592011,24.2137479 8.5655658,23.4243751 C8.5120777,22.8989265 8.4988755,22.4407555 8.50850375,22.0844699 C8.51056649,22.0198136 8.51056649,22.0198136 8.51166653,21.9974035 C8.53440449,21.5512503 8.85030544,21.1742973 9.28560736,21.0738884 C9.42810941,21.0410182 9.66706711,20.9957484 9.98339389,20.9515995 C11.1381477,20.7904335 12.3594276,20.7776333 13.5302366,21.0151458 C14.5709891,21.2262748 15.4904514,21.6253317 16.2417927,22.2513527 C17.0976145,22.9644274 17.7014945,23.9364698 18.0994231,25.090248 C18.3571872,25.8376247 18.5164541,26.6259636 18.598611,27.4209725 C18.6528891,27.9462056 18.6670331,28.4012447 18.6586174,28.7503182 C18.6570409,28.8056671 18.6570409,28.8056671 18.65618,28.8252673 C18.6357198,29.2730481 18.3197884,29.65251 17.883128,29.7537718 C17.741052,29.7867193 17.5029001,29.8320525 17.1875379,29.8762472 C16.0227263,30.0394837 14.7896198,30.0506095 13.6072775,29.8047442 C12.5830916,29.5917672 11.675586,29.1956135 10.9292645,28.5794454 Z M10.5552834,23.2218316 C10.6210595,23.8679932 10.748762,24.5025701 10.9497939,25.0857191 C11.2366931,25.9179504 11.6517948,26.5824203 12.2025873,27.0371584 C12.676786,27.4286601 13.2884074,27.6956513 14.0144621,27.8466327 C14.8506497,28.0205159 15.761836,28.02952 16.6361596,27.9303257 C16.6289818,27.8331279 16.6200694,27.7316856 16.6092056,27.6265594 C16.541749,26.9738012 16.4120906,26.3320186 16.2087146,25.7423379 C15.9211637,24.9085957 15.5075662,24.2428435 14.9615407,23.7878926 C14.487432,23.3928631 13.8696462,23.1247371 13.1326121,22.975221 C12.3020005,22.8067216 11.3967177,22.7996439 10.5274938,22.8984985 C10.5347064,23.0018361 10.5438826,23.1098342 10.5552834,23.2218316 Z" id="Shape"></path>
            </g>
        </g>
    </g>
</svg>