<?xml version="1.0" encoding="UTF-8"?>
<svg width="28px" height="38px" viewBox="0 0 28 38" version="1.1" xmlns="http://www.w3.org/2000/svg" xmlns:xlink="http://www.w3.org/1999/xlink">
    <!-- Generator: sketchtool 51.3 (57544) - http://www.bohemiancoding.com/sketch -->
    <title>2707EEF5-4F03-4579-B759-87D8E6764BAF</title>
    <desc>Created with sketchtool.</desc>
    <defs></defs>
    <g id="style-guide" stroke="none" stroke-width="1" fill="none" fill-rule="evenodd">
        <g id="icons" transform="translate(-381.000000, -108.000000)" fill="#030303" fill-rule="nonzero">
            <g id="ico/ico_health_convinient" transform="translate(382.000000, 109.000000)">
                <path d="M10.7661201,7.77372617 C10.1982854,9.50837161 10.0155564,11.4543292 10.1289559,13.412001 C10.1698699,14.118319 10.2479926,14.7795895 10.3452199,15.334361 C18.8863867,16.0080673 22.9973762,13.279142 24.0980588,8.29514575 C24.5288283,6.34458029 24.4504233,4.22559193 24.0549499,2.20064917 C24.00474,1.94355952 23.9521516,1.70391122 23.899012,1.48394442 C16.3316842,0.641737699 12.3038126,3.07631811 10.7661201,7.77372617 Z M25.664502,0.274170988 C25.7623799,0.581853303 25.9023214,1.11397458 26.0404726,1.82135027 C26.48362,4.09039839 26.5715759,6.46751138 26.0737052,8.72191768 C24.7125048,14.885563 19.434895,18.241129 9.53333333,17.2857143 C8.46273951,17.2857143 8.26118917,16.1356838 8.11004407,13.5263918 C7.9833899,11.3398987 8.18861883,9.1543303 8.84221324,7.1577024 C10.7346267,1.37667754 15.894367,-1.60472122 24.8346316,-0.416809898 L25.4716161,-0.33217246 L25.664502,0.274170988 Z" id="Shape"></path>
                <path d="M24.4971168,-0.405376518 C25.044181,-0.516194502 25.5784981,-0.167420507 25.6905474,0.373632004 C25.8025967,0.914684515 25.4499474,1.44312996 24.9028832,1.55394795 C24.2126504,1.69376738 21.1937755,3.31572531 18.7187975,5.25119838 C14.8235339,8.29735789 11.8941335,12.0788941 10.5000826,16.5786712 C10.3364892,17.1067248 9.77104223,17.4036356 9.23712136,17.2418399 C8.70320048,17.0800443 8.40299071,16.520811 8.56658407,15.9927574 C10.0937904,11.0631757 13.2709184,6.96185014 17.4645358,3.68237305 C20.165742,1.56998587 23.4461415,-0.192482018 24.4971168,-0.405376518 Z" id="Shape"></path>
                <path d="M24.3110656,7.77943037 C24.3181012,7.78137182 24.3248217,7.78293672 24.3315672,7.78438658 C24.328253,7.78367422 24.3247597,7.78294712 24.3210903,7.78220611 L24.3110656,7.77943037 Z M24.1252618,7.75190989 C23.9209423,7.72558557 23.6319935,7.69897731 23.2699016,7.67301309 C22.6117709,7.62582106 21.7356143,7.58219867 20.6970566,7.54252842 C19.8304469,7.50942614 18.9009231,7.48091261 17.9712575,7.45705672 C17.6457631,7.44870429 17.3435514,7.4415322 17.0724246,7.43554604 C16.9099897,7.43195967 16.7938352,7.42956154 16.7328448,7.42837925 C16.1745308,7.41755222 15.7308025,6.96114597 15.7417499,6.40896735 C15.7526972,5.85678874 16.2141746,5.41793658 16.7724886,5.42876361 C16.8359798,5.42999531 16.9532283,5.43241603 17.1175577,5.43604422 C17.3910379,5.44208234 17.6956742,5.44931197 18.0237082,5.45772956 C18.9612669,5.481788 19.8989674,5.51055236 20.7751004,5.5440184 C23.7510405,5.65769171 24.8148978,5.73397683 25.2569627,6.02253345 C25.7230263,6.3267552 25.8514848,6.94704302 25.5438828,7.40798507 C25.2362809,7.86892711 24.6091009,7.99597401 24.1430373,7.69175226 C24.2339567,7.75109963 24.276347,7.76984987 24.3110656,7.77943037 C24.278259,7.77355655 24.2114338,7.7630122 24.1252618,7.75190989 Z" id="Shape"></path>
                <path d="M11.7171229,3.02148894 C11.623753,2.476979 11.9943789,1.96070705 12.544939,1.86836326 C13.095499,1.77601947 13.6175073,2.14257256 13.7108771,2.68708249 L14.7162105,8.54993963 C14.8095803,9.09444957 14.4389544,9.61072152 13.8883944,9.70306531 C13.3378343,9.7954091 12.815826,9.42885602 12.7224562,8.88434608 L11.7171229,3.02148894 Z" id="Shape"></path>
                <path d="M21.9268693,12.2919643 C22.4818004,12.3536153 22.8811276,12.8485103 22.8187916,13.3973433 C22.7564556,13.9461762 22.2560618,14.3411152 21.7011307,14.2794642 L11.4397973,13.1394642 C10.8848663,13.0778132 10.485539,12.5829182 10.547875,12.0340853 C10.6102111,11.4852523 11.1106049,11.0903133 11.665536,11.1519643 L21.9268693,12.2919643 Z" id="Shape"></path>
                <path d="M1.8022337,3.05631579 C1.80333511,3.05254756 1.80428507,3.04904313 1.80514412,3.04570365 C1.80476297,3.04718535 1.80437044,3.04875368 1.80396704,3.05040697 L1.8022337,3.05631579 Z M1.01299129,3.69805599 C1.04438631,3.69692207 1.07448709,3.69280331 1.10437099,3.68569491 C1.07390721,3.68968333 1.04344705,3.69380362 1.01299129,3.69805599 Z M0.560826079,3.66172726 C0.418121285,3.6169382 0.285468079,3.54082122 0.173686804,3.43677142 C0.394461182,3.52584313 0.559023883,3.59223617 0.69024716,3.63584848 L0.560826079,3.66172726 Z M1.69353345,4.28776086 C1.67025392,5.40906111 1.7975455,6.63134242 2.11481924,7.83484988 C3.00553278,11.2135738 5.17223907,13.8191992 9.01220687,15.2002066 C9.90960183,15.522946 9.8962055,16.7827704 8.9921461,17.0867727 C9.23575002,17.0048576 9.38883709,16.8646793 9.48191304,16.7178183 C9.39134477,17.0408651 9.28838411,17.6123976 9.18910261,18.508657 C9.10221315,19.2930478 9.02393656,20.2783703 8.95164659,21.5443346 C8.67315762,23.9075818 10.013393,26.1668357 12.2351154,27.0793249 C12.6314342,27.242098 12.8806917,27.6345627 12.8568877,28.0583272 L12.4235544,35.7726129 C12.3925787,36.3240473 11.9154751,36.7462385 11.3579136,36.7156032 C10.8003522,36.684968 10.37347,36.2131073 10.4044456,35.6616728 L10.8001455,28.6173454 C8.14230847,27.209908 6.58796204,24.3270122 6.93774807,21.3736544 C7.00665816,20.1345119 7.08774379,19.1138301 7.17890808,18.2908484 C7.25001826,17.6489044 7.32100045,17.1326226 7.40490696,16.7183517 C3.4604696,15.0175223 1.13454711,12.0436969 0.158014096,8.33943584 C-0.208950374,6.94743764 -0.355181409,5.5432955 -0.328262617,4.24670343 C-0.318208382,3.7624231 -0.283349708,3.31919242 -0.232581791,2.96525001 C-0.209387801,2.80354677 -0.18327203,2.66386079 -0.1546477,2.55258597 C-0.132494489,2.4664671 -0.108314841,2.39153829 -0.0711549013,2.31084047 C-0.0249700263,2.20728231 -0.0249700263,2.20728231 0.158102883,1.98862178 C0.427973197,1.80330837 0.559694152,1.71285877 0.74127876,1.71616624 C4.20896719,1.23504106 7.72381837,2.19299752 10.4529697,4.36357511 C10.8881374,4.70967725 10.9572218,5.33914493 10.6072741,5.76953051 C10.2573263,6.19991609 9.62086457,6.26824132 9.18569693,5.92213918 C7.07656619,4.24468296 4.40918664,3.42880808 1.72760947,3.62244543 C1.7105405,3.8226487 1.6985163,4.0477528 1.69353345,4.28776086 Z" id="Shape"></path>
                <path d="M16.462221,35.6616728 C16.4931967,36.2131073 16.0663145,36.684968 15.508753,36.7156032 C14.9511915,36.7462385 14.4740879,36.3240473 14.4431123,35.7726129 L14.009779,28.0583272 C13.9859749,27.6345627 14.2352324,27.242098 14.6315512,27.0793249 C16.8532736,26.1668357 18.193509,23.9075818 17.9097481,21.4834884 C17.8427301,20.2783703 17.7644535,19.2930478 17.6775641,18.508657 C17.5782826,17.6123976 17.4753219,17.0408651 17.3839417,16.7454031 C17.1944209,16.4666771 17.1340571,16.1341458 17.2427076,15.8180973 C17.4224649,15.2952091 17.9967814,15.0154453 18.5254794,15.1932273 C19.2212904,15.4272032 19.453832,16.1790866 19.6877586,18.2908484 C19.7789229,19.1138301 19.8600085,20.1345119 19.9236466,21.3128083 C20.2783137,24.3225002 18.7243295,27.2095729 16.0665197,28.6173202 L16.462221,35.6616728 Z M17.5831278,16.9344057 C17.6616832,16.9948022 17.7576925,17.0474877 17.8745206,17.0867727 C17.7744036,17.053107 17.6831017,17.0054482 17.6020871,16.9467525 L17.5831278,16.9344057 Z" id="Shape"></path>
                <path d="M12.2777778,21 C12.2777778,21.5522847 11.8250879,22 11.2666667,22 C10.7082454,22 10.2555556,21.5522847 10.2555556,21 L10.2555556,16.5685714 C10.2555556,16.0162867 10.7082454,15.5685714 11.2666667,15.5685714 C11.8250879,15.5685714 12.2777778,16.0162867 12.2777778,16.5685714 L12.2777778,21 Z" id="Shape"></path>
                <path d="M15.8917778,21 C15.8917778,21.5522847 15.4390879,22 14.8806667,22 C14.3222454,22 13.8695556,21.5522847 13.8695556,21 L13.8695556,16.5685714 C13.8695556,16.0162867 14.3222454,15.5685714 14.8806667,15.5685714 C15.4390879,15.5685714 15.8917778,16.0162867 15.8917778,16.5685714 L15.8917778,21 Z" id="Shape"></path>
            </g>
        </g>
    </g>
</svg>