<?xml version="1.0" encoding="UTF-8"?>
<svg width="34px" height="22px" viewBox="0 0 34 22" version="1.1" xmlns="http://www.w3.org/2000/svg" xmlns:xlink="http://www.w3.org/1999/xlink">
    <!-- Generator: sketchtool 51.3 (57544) - http://www.bohemiancoding.com/sketch -->
    <title>2713802E-E0B6-4794-B4B2-5F11A24B0CC1</title>
    <desc>Created with sketchtool.</desc>
    <defs></defs>
    <g id="style-guide" stroke="none" stroke-width="1" fill="none" fill-rule="evenodd">
        <g id="icons" transform="translate(-760.000000, -116.000000)" fill="#000000" fill-rule="nonzero">
            <g id="ico_outdoor_recreation" transform="translate(761.000000, 117.000000)">
                <path d="M1.75727805,18.2116564 C3.13292602,18.2063223 4.61773729,18.2009882 6.15640887,18.1960097 C8.10563941,18.1897028 10.0003154,18.1844299 11.7873182,18.1805328 C15.1371746,18.1732274 17.9228118,18.1711433 19.9556237,18.1754991 C20.994821,18.1777259 21.8249689,18.1816224 22.4298094,18.1873127 C21.3954886,11.1015655 19.1713921,6.32729056 16.2253123,3.45656723 C15.1621227,2.42057243 14.0805858,1.71716068 13.0728605,1.30579031 C12.7283367,1.16514989 12.4195684,1.07118626 12.181343,1.02411564 C9.02204556,2.69045786 6.47321944,5.54601838 4.48123062,9.27389027 C3.30061677,11.483329 2.3899901,13.8590462 1.71833282,16.2356693 C1.51847313,16.9428621 1.35253201,17.6064449 1.21788419,18.2137752 C1.34814272,18.2132616 1.51444021,18.2126091 1.75727805,18.2116564 Z M12.7406682,0.626408205 C12.8034202,0.518175134 12.8521123,0.350905993 12.9488,0.0187599991 C12.9488,0.197476852 12.9011534,0.36898995 12.8152041,0.518104662 L12.7406682,0.626408205 Z M12.0380856,1.00102933 C12.0315781,1.00037008 12.0265218,0.999991435 12.0230632,0.999881656 C12.0243837,0.999923569 12.0257188,0.999960415 12.02707,0.999991615 L12.0380856,1.00102933 Z M22.6277906,18.1893281 C22.9570171,18.1929584 23.206284,18.1972286 23.3752461,18.2022642 C23.4709041,18.2051151 23.5437132,18.2082555 23.5998163,18.2122934 C23.651095,18.2159273 23.651095,18.2159273 23.7481997,18.2300956 C23.8199117,18.2379282 23.8199117,18.2379282 24.0991918,18.3628489 C24.4239904,18.5592698 24.4239904,18.5592698 24.5526342,19.4455958 C24.2169471,20.0377389 24.2169471,20.0377389 24.0138735,20.1185741 C23.3971292,20.4176017 22.669185,20.0216132 22.5851453,19.3413718 C22.5368015,18.950063 22.4849991,18.5653973 22.4298094,18.1873127 C22.4987372,18.1879611 22.564739,18.1886329 22.6277906,18.1893281 Z M22.6057389,20.1892066 C21.9965999,20.1824899 21.1035276,20.1779634 19.9513382,20.1754945 C17.9220174,20.1711462 15.1388926,20.1732284 11.7916798,20.1805281 C10.0054362,20.1844235 8.11144899,20.1896944 6.16288002,20.1959992 C4.62466271,20.2009763 3.14027398,20.2063088 1.76503306,20.2116414 C0.994834775,20.2146631 0.994834775,20.2146631 0.472054954,20.216796 C0.0868131574,20.2183956 0.0868131574,20.2183956 0.0043045068,20.2187507 C-0.61145638,20.2214013 -1.0832891,19.67225 -0.987938113,19.0639108 C-0.959813103,18.8844732 -0.901198841,18.5622643 -0.807486315,18.1174632 C-0.652960299,17.3840145 -0.454131064,16.5687418 -0.206285367,15.6917531 C0.501920945,13.1858032 1.46281387,10.6789473 2.71727003,8.3313177 C4.92033605,4.20842918 7.79106784,1.02084324 11.4329548,-0.840798129 C11.6813218,-0.958028975 11.6813218,-0.958028975 11.7981759,-0.980300621 C11.8970241,-0.99814233 11.9884861,-1.00222302 12.0865118,-0.999111658 C12.2197861,-0.994881491 12.3747507,-0.975365196 12.5454055,-0.942554495 C12.9180836,-0.870902102 13.3582995,-0.737911801 13.8287395,-0.545870308 C15.0726753,-0.0380748246 16.3718988,0.806916306 17.6210877,2.02415277 C21.0718024,5.38660316 23.5629173,10.9440905 24.5700547,19.0961482 L23.5776,19.21876 L23.1413265,18.3189459 C22.9403694,18.398579 22.9403694,18.398579 22.6053267,18.9895325 C22.7338818,19.8746752 22.7338818,19.8746752 23.0571312,20.0699253 C23.3311308,20.1925231 23.3311308,20.1925231 23.3917896,20.1980823 C23.1619633,20.1967958 22.9234655,20.19271 22.6057389,20.1892066 Z" id="Shape"></path>
                <path d="M31.3394635,15.583455 C31.3741822,15.5867436 31.4120043,15.5868329 31.4624,15.5869518 C31.423643,15.5869518 31.3852219,15.5847107 31.3472923,15.5803232 L31.3394635,15.583455 Z M26.1536808,8.23201417 C23.3739349,4.87995508 20.4296607,2.81111495 17.4638639,1.76311968 C15.505868,1.07124141 13.8205683,0.908234748 12.5591313,1.03413232 C12.441425,1.04587998 12.3688449,1.05641337 12.3445353,1.06097773 C11.8017356,1.16289378 11.2790902,0.805486934 11.1771741,0.26268719 C11.0752581,-0.280112555 11.4326649,-0.802757975 11.9754647,-0.90467403 C12.0552133,-0.919647629 12.1845721,-0.938421183 12.3605083,-0.955980471 C13.9002566,-1.10965486 15.878356,-0.91832784 18.1302071,-0.122612729 C21.4390186,1.04659033 24.6842693,3.32691634 27.693199,6.95534527 C29.355297,8.95964739 30.9132633,11.342317 32.3510433,14.1283527 C32.4701619,14.3395904 32.4646863,14.4391423 32.4463684,14.7721759 C32.2786046,15.196106 32.2786046,15.196106 32.1941418,15.2712628 C32.0973094,15.3648253 32.0973094,15.3648253 32.0594108,15.3932187 C32.0004687,15.4367381 32.0004687,15.4367381 31.9522897,15.4693359 C31.8927066,15.5094226 31.808912,15.5635463 31.6986462,15.6333734 C31.4988687,15.7598847 31.2080105,15.9405364 30.8322778,16.1716838 C30.1747848,16.5761675 29.2710972,17.1268698 28.1817996,17.7875691 C27.3007554,18.3219044 26.4000657,18.8666481 25.4993952,19.4103768 C25.1841755,19.6006728 24.9890449,19.7183882 24.6287677,19.9356343 C24.3585239,20.0985278 24.3585239,20.0985278 24.2983442,20.1347741 C23.8252448,20.4197222 23.2107259,20.2671954 22.9257778,19.794096 C22.6408297,19.3209967 22.7933564,18.7064778 23.2664558,18.4215296 C23.3262938,18.3854892 23.3262938,18.3854892 23.5961294,18.2228418 C23.9559581,18.0058662 24.1508848,17.8882738 24.4657578,17.6981871 C25.3653519,17.1551081 26.2649269,16.6110387 27.1044018,16.1019154 C28.2306028,15.4188339 29.1311652,14.8700362 29.7843222,14.4682199 C29.9172344,14.3864535 30.0391832,14.3112137 30.1497425,14.2427582 C28.8974913,11.9264327 27.5613349,9.92948588 26.1536808,8.23201417 Z" id="Shape"></path>
                <path d="M12.3712,14.68 C12.9234847,14.68 13.3712,15.1277153 13.3712,15.68 C13.3712,16.2322847 12.9234847,16.68 12.3712,16.68 L5.6512,16.68 C5.19646755,16.68 4.79898979,16.373195 4.68380997,15.9332914 L4.15260997,13.9044914 C4.10177063,13.7103218 4.11053812,13.5053468 4.17777205,13.3162276 C5.51486376,9.55518548 8.323112,6.49907773 11.957917,4.84939738 C12.4608289,4.62114746 13.0535527,4.84380502 13.2818026,5.34671696 C13.5100525,5.8496289 13.287395,6.4423527 12.784483,6.67060262 C9.73593351,8.05420705 7.36031361,10.5828347 6.16703863,13.7021087 L6.42307957,14.68 L12.3712,14.68 Z" id="Shape"></path>
                <path d="M11.746717,6.67060262 C11.243805,6.4423527 11.0211475,5.8496289 11.2493974,5.34671696 C11.4776473,4.84380502 12.0703711,4.62114746 12.573283,4.84939738 C16.208088,6.49907773 19.0163362,9.55518548 20.353428,13.3162276 C20.4206619,13.5053468 20.4294294,13.7103218 20.37859,13.9044914 L19.84739,15.9332914 C19.7322102,16.373195 19.3347324,16.68 18.88,16.68 L12.16,16.68 C11.6077153,16.68 11.16,16.2322847 11.16,15.68 C11.16,15.1277153 11.6077153,14.68 12.16,14.68 L18.1081204,14.68 L18.3641614,13.7021087 C17.1708864,10.5828347 14.7952665,8.05420705 11.746717,6.67060262 Z" id="Shape"></path>
                <path d="M13.1599329,15.1603875 C13.1535333,15.7126352 12.7006602,16.1551325 12.1484125,16.1487329 C11.5961648,16.1423333 11.1536675,15.6894602 11.1600671,15.1372125 L11.2688671,5.7484125 C11.2752667,5.19616483 11.7281398,4.75366754 12.2803875,4.76006714 C12.8326352,4.76646674 13.2751325,5.21933983 13.2687329,5.7715875 L13.1599329,15.1603875 Z" id="Shape"></path>
            </g>
        </g>
    </g>
</svg>