<?xml version="1.0" encoding="UTF-8"?>
<svg width="38px" height="38px" viewBox="0 0 38 38" version="1.1" xmlns="http://www.w3.org/2000/svg" xmlns:xlink="http://www.w3.org/1999/xlink">
    <!-- Generator: sketchtool 51.3 (57544) - http://www.bohemiancoding.com/sketch -->
    <title>C68C25D0-3AE3-4457-98B9-08CCB7882498</title>
    <desc>Created with sketchtool.</desc>
    <defs></defs>
    <g id="style-guide" stroke="none" stroke-width="1" fill="none" fill-rule="evenodd">
        <g id="icons" transform="translate(-269.000000, -108.000000)" fill="#030303" fill-rule="nonzero">
            <g id="ico/ico_anytime" transform="translate(270.000000, 109.000000)">
                <path d="M6,19.5517241 C5.44771525,19.5517241 5,19.1040089 5,18.5517241 C5,17.9994394 5.44771525,17.5517241 6,17.5517241 L8.80172414,17.5517241 C9.35400889,17.5517241 9.80172414,17.9994394 9.80172414,18.5517241 C9.80172414,19.1040089 9.35400889,19.5517241 8.80172414,19.5517241 L6,19.5517241 Z" id="Shape"></path>
                <path d="M27.4482759,19.5517241 C26.8959911,19.5517241 26.4482759,19.1040089 26.4482759,18.5517241 C26.4482759,17.9994394 26.8959911,17.5517241 27.4482759,17.5517241 L30.25,17.5517241 C30.8022847,17.5517241 31.25,17.9994394 31.25,18.5517241 C31.25,19.1040089 30.8022847,19.5517241 30.25,19.5517241 L27.4482759,19.5517241 Z" id="Shape"></path>
                <path d="M17.1206897,6 C17.1206897,5.44771525 17.5684049,5 18.1206897,5 C18.6729744,5 19.1206897,5.44771525 19.1206897,6 L19.1206897,8.80172414 C19.1206897,9.35400889 18.6729744,9.80172414 18.1206897,9.80172414 C17.5684049,9.80172414 17.1206897,9.35400889 17.1206897,8.80172414 L17.1206897,6 Z" id="Shape"></path>
                <path d="M17.1206897,27.4482759 C17.1206897,26.8959911 17.5684049,26.4482759 18.1206897,26.4482759 C18.6729744,26.4482759 19.1206897,26.8959911 19.1206897,27.4482759 L19.1206897,30.25 C19.1206897,30.8022847 18.6729744,31.25 18.1206897,31.25 C17.5684049,31.25 17.1206897,30.8022847 17.1206897,30.25 L17.1206897,27.4482759 Z" id="Shape"></path>
                <path d="M11.0377876,24.1430982 C11.420581,23.7449931 12.0536243,23.7325805 12.4517294,24.1153738 C12.8498345,24.4981672 12.8622471,25.1312105 12.4794538,25.5293156 L10.5397986,27.546557 C10.1570052,27.9446621 9.52396191,27.9570747 9.1258568,27.5742813 C8.72775169,27.191488 8.71533908,26.5584447 9.09813245,26.1603396 L11.0377876,24.1430982 Z" id="Shape"></path>
                <path d="M27.4360835,26.1427734 C27.8333395,26.526448 27.8443494,27.1595172 27.4606748,27.5567732 C27.0770003,27.9540291 26.443931,27.965039 26.0466751,27.5813645 L24.0294337,25.6330886 C23.6321778,25.2494141 23.6211679,24.6163448 24.0048424,24.2190889 C24.388517,23.8218329 25.0215862,23.810823 25.4188422,24.1944976 L27.4360835,26.1427734 Z" id="Shape"></path>
                <path d="M17.3910315,16.2182433 C17.7846952,16.6056028 17.7898058,17.2387471 17.4024463,17.6324108 C17.0150869,18.0260745 16.3819425,18.0311851 15.9882788,17.6438256 L11.1434512,12.8765843 C10.7497876,12.4892248 10.744677,11.8560804 11.1320364,11.4624168 C11.5193959,11.0687531 12.1525402,11.0636425 12.5462039,11.451002 L17.3910315,16.2182433 Z" id="Shape"></path>
                <path d="M22.3360646,12.9828942 C22.73592,12.6019296 23.3688998,12.6172436 23.7498644,13.017099 C24.1308291,13.4169545 24.115515,14.0499343 23.7156596,14.4308989 L19.3363492,18.6033127 C18.9364938,18.9842773 18.303514,18.9689633 17.9225494,18.5691079 C17.5415847,18.1692524 17.5568988,17.5362726 17.9567542,17.155308 L22.3360646,12.9828942 Z" id="Shape"></path>
                <circle id="Oval" cx="18.0172414" cy="18.1810345" r="1.77586207"></circle>
                <path d="M23.097052,7.71658377 C23.5487651,7.3988202 24.1725492,7.50740778 24.4903128,7.95912092 C24.8080763,8.41083405 24.6994888,9.03461817 24.2477756,9.35238174 C24.2043682,9.38291726 24.1130201,9.45217654 23.9903443,9.55413974 C23.781612,9.72762967 23.5725853,9.92271787 23.3801654,10.1317923 C22.7924467,10.7703798 22.5310533,11.3521706 22.6426506,11.7531927 C22.711434,12.0003638 22.9257296,12.2670245 23.3597069,12.5523466 C23.8211875,12.855751 23.9493335,13.4758126 23.6459292,13.9372931 C23.3425249,14.3987737 22.7224632,14.5269197 22.2609827,14.2235154 C21.4465758,13.6880766 20.9242115,13.0380679 20.7158657,12.2893828 C20.3709914,11.0500861 20.8994755,9.87382429 21.9085538,8.77740702 C22.3495917,8.298196 22.7865758,7.93499233 23.097052,7.71658377 Z" id="Shape"></path>
                <path d="M27.4211874,12.2154362 C27.7687906,11.7862621 28.3984931,11.7201358 28.8276672,12.0677391 C29.2568413,12.4153423 29.3229676,13.0450448 28.9753644,13.4742189 C28.731036,13.775883 28.326947,14.2019232 27.8015156,14.6306514 C26.7986564,15.448939 25.7585179,15.932322 24.6768299,15.860142 C23.6471407,15.7914318 22.7527971,15.2068593 22.0770856,14.1376957 C21.7820289,13.6708338 21.9213045,13.0531768 22.3881664,12.7581201 C22.8550282,12.4630634 23.4726853,12.602339 23.767742,13.0692009 C24.1173204,13.6223313 24.4513229,13.8406463 24.8099919,13.86458 C25.2737471,13.8955259 25.8897803,13.6092371 26.5371084,13.0810467 C26.7727735,12.8887548 26.9934097,12.6804716 27.1905675,12.4726037 C27.3064025,12.3504763 27.3856287,12.2593393 27.4211874,12.2154362 Z" id="Shape"></path>
                <path d="M23.4897961,14.2250999 C23.0845735,14.6003505 22.4518748,14.5760533 22.0766242,14.1708306 C21.7013736,13.7656079 21.7256708,13.1329093 22.1308935,12.7576587 L25.0446866,10.0593829 C25.4499093,9.68413226 26.0826079,9.70842944 26.4578585,10.1136521 C26.8331091,10.5188748 26.8088119,11.1515734 26.4035892,11.526824 L23.4897961,14.2250999 Z" id="Shape"></path>
                <path d="M18,37 C7.50658975,37 -1,28.4934102 -1,18 C-1,7.50658975 7.50658975,-1 18,-1 C28.4934102,-1 37,7.50658975 37,18 C37,28.4934102 28.4934102,37 18,37 Z M18,35 C27.3888407,35 35,27.3888407 35,18 C35,8.61115925 27.3888407,1 18,1 C8.61115925,1 1,8.61115925 1,18 C1,27.3888407 8.61115925,35 18,35 Z" id="Oval-2"></path>
            </g>
        </g>
    </g>
</svg>