<?xml version="1.0" encoding="UTF-8"?>
<svg width="32px" height="34px" viewBox="0 0 32 34" version="1.1" xmlns="http://www.w3.org/2000/svg" xmlns:xlink="http://www.w3.org/1999/xlink">
    <!-- Generator: sketchtool 51.3 (57544) - http://www.bohemiancoding.com/sketch -->
    <title>3EDD947E-9FED-424D-A453-D8E3B98FC248</title>
    <desc>Created with sketchtool.</desc>
    <defs></defs>
    <g id="style-guide" stroke="none" stroke-width="1" fill="none" fill-rule="evenodd">
        <g id="icons" transform="translate(-691.000000, -190.000000)" fill="#030303" fill-rule="nonzero">
            <g id="ico_kit" transform="translate(691.000000, 190.000000)">
                <rect id="Rectangle-path" x="12.06" y="0.25" width="18.16" height="4.04"></rect>
                <path d="M9.38,13.75 C7.22,13.75 0.16,13.65 0.16,12.41 C0.16,11.17 7.22,11.07 9.38,11.07 C11.54,11.07 18.6,11.17 18.6,12.41 C18.6,13.65 11.54,13.75 9.38,13.75 Z" id="Shape"></path>
                <path d="M9.35,14.87 C4.52,14.87 0.55,14.34 0.11,13.66 L0.11,31.81 C0.42,32.51 4.44,33.06 9.36,33.06 C14.28,33.06 18.3,32.51 18.61,31.81 L18.61,13.62 L18.6,13.62 C18.29,14.32 14.28,14.87 9.35,14.87 Z" id="Shape"></path>
                <rect id="Rectangle-path" x="21.15" y="19.5" width="10.01" height="2.76"></rect>
                <path d="M20.62,11.32 L20.67,11.32 L20.67,17.52 L29.4,17.52 L30.22,5.7 L12.06,5.7 L12.36,9.2 C19.73,9.39 20.53,10.66 20.62,11.32 Z" id="Shape"></path>
                <path d="M26.63,32.24 C27.8988496,32.2909176 29.1684432,32.1595804 30.4,31.85 L31,23.29 L21.15,23.29 L21.81,31.8 C23.4010483,32.0848231 25.0136784,32.2320342 26.63,32.24 Z" id="Shape"></path>
            </g>
        </g>
    </g>
</svg>