<?xml version="1.0" encoding="UTF-8"?>
<svg width="38px" height="38px" viewBox="0 0 38 38" version="1.1" xmlns="http://www.w3.org/2000/svg" xmlns:xlink="http://www.w3.org/1999/xlink">
    <!-- Generator: sketchtool 51.3 (57544) - http://www.bohemiancoding.com/sketch -->
    <title>DC6661B1-1286-42BD-A0DF-C606F1F8D07A</title>
    <desc>Created with sketchtool.</desc>
    <defs></defs>
    <g id="style-guide" stroke="none" stroke-width="1" fill="none" fill-rule="evenodd">
        <g id="icons" transform="translate(-35.000000, -108.000000)" fill="#030303" fill-rule="nonzero">
            <g id="ico/ico_no_pots" transform="translate(36.000000, 109.000000)">
                <g id="Group-3" transform="translate(5.433962, 11.547170)">
                    <path d="M14.1488055,3.37720353 L15.1488055,3.37720353 L15.9293875,4.00225693 C16.1039945,3.7523742 16.1039945,3.7523742 16.1385939,3.26242855 C15.9888188,2.8009709 15.9888188,2.8009709 15.7686254,2.60514977 C15.4819783,2.43938307 15.4819783,2.43938307 15.3923554,2.42472159 C15.4223226,2.41866767 15.5149557,2.41946991 15.7524289,2.41947233 C15.8869069,2.41917637 16.0134511,2.36849668 16.1026529,2.28241236 C16.1839945,2.20391354 16.2271311,2.10321937 16.226884,1.99866948 L16.226884,1.96290562 C16.226884,1.86158223 16.1838415,1.76175909 16.1029009,1.68400476 C16.0140844,1.59868461 15.8882339,1.54860771 15.7546297,1.54860771 L1.87820952,1.54860771 C1.74460532,1.54860771 1.61875479,1.59868461 1.52993831,1.68400476 C1.44899769,1.76175909 1.40595519,1.86158223 1.40595519,1.96290562 C1.40595519,2.18253116 1.60860503,2.37720353 1.87820952,2.37720353 L2.21665879,2.37720353 C2.76894354,2.37720353 3.21665879,2.82491878 3.21665879,3.37720353 L3.21665588,9.7472579 C3.21687666,9.83870322 3.25626084,9.92899215 3.33046723,9.99944263 C3.41265207,10.0774677 3.52927076,10.1228672 3.66183719,10.1217038 L13.7193947,10.1217141 C13.9652553,10.1205981 14.1483257,9.9443166 14.1488055,9.74967227 L14.1488055,3.37720353 Z M16.1488025,9.75212159 C16.1455831,11.0665215 15.0560326,12.1156672 13.723934,12.1217038 L3.67092381,12.1216625 C3.03150582,12.1274729 2.41389401,11.8870379 1.9534368,11.4498864 C1.48500115,11.0051604 1.21821042,10.3935379 1.21665879,9.74967227 L1.21665879,4.28961406 C0.177062713,4.00804441 -0.594044811,3.0790707 -0.594044811,1.96290562 C-0.594044811,1.31403876 -0.326863181,0.69439748 0.144398688,0.241687197 C0.607784701,-0.203457269 1.23088147,-0.451392288 1.87820952,-0.451392288 L15.7546297,-0.451392288 C16.4019577,-0.451392288 17.0250545,-0.203457269 17.4884405,0.241687197 C17.9597024,0.69439748 18.226884,1.31403876 18.226884,1.96290562 C18.2284343,2.64603501 17.9623559,3.26714544 17.4914946,3.72155057 C17.1230936,4.07707631 16.6531347,4.30778549 16.148805,4.38794017 L16.1488025,9.75212159 Z" id="Shape"></path>
                    <path d="M15.483381,6.81905648 C14.9400047,6.91785218 14.4194214,6.55744835 14.3206257,6.014072 C14.22183,5.47069566 14.5822338,4.95011235 15.1256102,4.85131666 L20.412189,3.8901205 C20.9555654,3.7913248 21.4761487,4.15172862 21.5749444,4.69510497 C21.6737401,5.23848132 21.3133362,5.75906462 20.7699599,5.85786032 L15.483381,6.81905648 Z" id="Shape"></path>
                    <path d="M15.483381,8.26085071 C14.9400047,8.35964641 14.4194214,7.99924258 14.3206257,7.45586624 C14.22183,6.91248989 14.5822338,6.39190659 15.1256102,6.29311089 L20.412189,5.33191473 C20.9555654,5.23311903 21.4761487,5.59352286 21.5749444,6.1368992 C21.6737401,6.68027555 21.3133362,7.20085885 20.7699599,7.29965455 L15.483381,8.26085071 Z" id="Shape"></path>
                    <path d="M21.5522706,5.87399041 L24.9164571,5.87399041 C24.8950264,5.87399041 24.8776533,5.85661734 24.8776533,5.83518657 C24.8776533,5.81375579 24.8950264,5.79638272 24.9164571,5.79638272 L21.5522706,5.79638272 C21.5737014,5.79638272 21.5910744,5.81375579 21.5910744,5.83518657 C21.5910744,5.85661734 21.5737014,5.87399041 21.5522706,5.87399041 Z M21.5522706,3.87399041 L24.9164571,3.87399041 C25.9995959,3.87399041 26.8776533,4.75204784 26.8776533,5.83518657 C26.8776533,6.91832529 25.9995959,7.79638272 24.9164571,7.79638272 L21.5522706,7.79638272 C20.4691319,7.79638272 19.5910744,6.91832529 19.5910744,5.83518657 C19.5910744,4.75204784 20.4691319,3.87399041 21.5522706,3.87399041 Z" id="Rectangle-path"></path>
                </g>
                <path d="M17.8845283,36.7690566 C7.45489131,36.7690566 -1,28.3141653 -1,17.8845283 C-1,7.45489131 7.45489131,-1 17.8845283,-1 C28.3141653,-1 36.7690566,7.45489131 36.7690566,17.8845283 C36.7690566,28.3141653 28.3141653,36.7690566 17.8845283,36.7690566 Z M17.8845283,34.7690566 C27.2095958,34.7690566 34.7690566,27.2095958 34.7690566,17.8845283 C34.7690566,8.55946081 27.2095958,1 17.8845283,1 C8.55946081,1 1,8.55946081 1,17.8845283 C1,27.2095958 8.55946081,34.7690566 17.8845283,34.7690566 Z" id="Oval"></path>
                <path d="M28.4714518,11.6268541 C28.0391768,11.9705935 27.4100928,11.8988211 27.0663534,11.4665461 C26.7226141,11.0342711 26.7943864,10.4051872 27.2266614,10.0614478 L30.6135482,7.36824024 C31.0458232,7.02450087 31.6749072,7.09627319 32.0186466,7.52854821 C32.3623859,7.96082322 32.2906136,8.58990718 31.8583386,8.93364655 L28.4714518,11.6268541 Z" id="Shape"></path>
                <path d="M8.12289877,31.2773962 C7.70376678,31.6370444 7.07244071,31.5888232 6.71279252,31.1696912 C6.35314432,30.7505592 6.40136547,30.1192332 6.82049746,29.759585 L9.93144085,27.090151 C10.3505728,26.7305028 10.9818989,26.778724 11.3415471,27.1978559 C11.7011953,27.6169879 11.6529742,28.248314 11.2338422,28.6079622 L8.12289877,31.2773962 Z" id="Shape"></path>
            </g>
        </g>
    </g>
</svg>