<?xml version="1.0" encoding="UTF-8"?>
<svg width="47px" height="37px" viewBox="0 0 47 37" version="1.1" xmlns="http://www.w3.org/2000/svg" xmlns:xlink="http://www.w3.org/1999/xlink">
    <!-- Generator: sketchtool 51.3 (57544) - http://www.bohemiancoding.com/sketch -->
    <title>6BFB7485-6A65-4C08-89BD-B101A12D5E1B</title>
    <desc>Created with sketchtool.</desc>
    <defs></defs>
    <g id="style-guide" stroke="none" stroke-width="1" fill="none" fill-rule="evenodd">
        <g id="icons" transform="translate(-380.000000, -188.000000)" fill="#030303" fill-rule="nonzero">
            <g id="ico_other_platforms" transform="translate(380.000000, 188.000000)">
                <path d="M2,2 L2,13 L18,13 L18,2 L2,2 Z M0,0 L20,0 L20,15 L0,15 L0,0 Z" id="Rectangle-19"></path>
                <path d="M29,2 L29,13 L45,13 L45,2 L29,2 Z M27,0 L47,0 L47,15 L27,15 L27,0 Z" id="Rectangle-19"></path>
                <path d="M2,24 L2,35 L18,35 L18,24 L2,24 Z M0,22 L20,22 L20,37 L0,37 L0,22 Z" id="Rectangle-19"></path>
                <path d="M34.5,24 C31.4624339,24 29,26.4624339 29,29.5 C29,32.5375661 31.4624339,35 34.5,35 L39.5,35 C42.5375661,35 45,32.5375661 45,29.5 C45,26.4624339 42.5375661,24 39.5,24 L34.5,24 Z M34.5,22 L39.5,22 C43.6421356,22 47,25.3578644 47,29.5 C47,33.6421356 43.6421356,37 39.5,37 L34.5,37 C30.3578644,37 27,33.6421356 27,29.5 C27,25.3578644 30.3578644,22 34.5,22 Z" id="Rectangle-19"></path>
            </g>
        </g>
    </g>
</svg>