<?xml version="1.0" encoding="UTF-8"?>
<svg width="34px" height="24px" viewBox="0 0 34 24" version="1.1" xmlns="http://www.w3.org/2000/svg" xmlns:xlink="http://www.w3.org/1999/xlink">
    <!-- Generator: sketchtool 51.3 (57544) - http://www.bohemiancoding.com/sketch -->
    <title>2D951180-C9CA-4B9B-B730-3E1D2696E465</title>
    <desc>Created with sketchtool.</desc>
    <defs></defs>
    <g id="style-guide" stroke="none" stroke-width="1" fill="none" fill-rule="evenodd">
        <g id="icons" transform="translate(-592.000000, -115.000000)" fill="#000000" fill-rule="nonzero">
            <g id="ico_weeknight_dinner" transform="translate(593.000000, 116.000000)">
                <path d="M24.6430874,10.6600282 C24.6523423,8.64250217 26.2855791,7.00926537 28.3076923,7 L29.2307692,7 C31.2528824,7.00926537 32.8861192,8.64250217 32.8953846,10.6646154 L32.8953741,18.570741 C32.8861192,20.5882671 31.2528824,22.2215039 29.2307692,22.2307692 L2.6600203,22.2307587 C0.639210121,22.2214728 -0.995373127,20.5831145 -1,18.56 L-0.999989479,10.6600282 C-0.990734626,8.64250217 0.642502174,7.00926537 2.66461538,7 L3.59227949,7.00001052 C5.60980552,7.00926537 7.24304232,8.64250217 7.25230769,10.6646154 L7.25230769,13.9723077 L24.6430794,13.9723077 L24.6430874,10.6600282 Z M28.3122795,8.99998948 C27.3921526,9.00421031 26.6472872,9.74907563 26.6430769,10.6646154 L26.6430769,14.9723077 C26.6430769,15.5245924 26.1953617,15.9723077 25.6430769,15.9723077 L6.25230769,15.9723077 C5.70002294,15.9723077 5.25230769,15.5245924 5.25230769,14.9723077 L5.25231821,10.6692026 C5.24809738,9.74907563 4.50323206,9.00421031 3.58769231,9 L2.66920256,8.99998948 C1.74907563,9.00421031 1.00421031,9.74907563 1,10.6646154 L0.999997382,18.5577117 C1.00210635,19.4793438 1.74758574,20.2265448 2.66461538,20.2307692 L29.2261821,20.2307798 C30.146309,20.2265589 30.8911743,19.4816936 30.8953846,18.5661538 L30.8953951,10.6692026 C30.8911774,9.74975105 30.1474021,9.00530394 29.228208,8.99999997 L28.3122795,8.99998948 Z" id="Shape"></path>
                <path d="M5.30769231,7.59384615 C5.30769231,8.1461309 4.85997706,8.59384615 4.30769231,8.59384615 C3.75540756,8.59384615 3.30769231,8.1461309 3.30769231,7.59384615 L3.30769231,3.07692308 C3.30769231,0.825300635 5.13299294,-1 7.38461538,-1 L23.8953846,-1 C26.1470071,-1 27.9723077,0.825300635 27.9723077,3.07692308 L27.9723077,7.58769231 C27.9723077,8.13997706 27.5245924,8.58769231 26.9723077,8.58769231 C26.4200229,8.58769231 25.9723077,8.13997706 25.9723077,7.58769231 L25.9723077,3.07692308 C25.9723077,1.92987013 25.0424376,1 23.8953846,1 L7.38461538,1 C6.23756244,1 5.30769231,1.92987013 5.30769231,3.07692308 L5.30769231,7.59384615 Z" id="Shape"></path>
            </g>
        </g>
    </g>
</svg>