<?xml version="1.0" encoding="UTF-8"?>
<svg width="28px" height="28px" viewBox="0 0 28 28" version="1.1" xmlns="http://www.w3.org/2000/svg" xmlns:xlink="http://www.w3.org/1999/xlink">
    <!-- Generator: sketchtool 51.3 (57544) - http://www.bohemiancoding.com/sketch -->
    <title>9C9A039A-1388-49E5-9B92-7E0DF38EC9FA</title>
    <desc>Created with sketchtool.</desc>
    <defs></defs>
    <g id="style-guide" stroke="none" stroke-width="1" fill="none" fill-rule="evenodd">
        <g id="icons" transform="translate(-181.000000, -33.000000)" fill="#030303">
            <g id="ico_4" transform="translate(181.000000, 33.000000)">
                <path d="M14,28 C6.2680135,28 0,21.7319865 0,14 C0,6.2680135 6.2680135,0 14,0 C21.7319865,0 28,6.2680135 28,14 C28,21.7319865 21.7319865,28 14,28 Z M14,26 C20.627417,26 26,20.627417 26,14 C26,7.372583 20.627417,2 14,2 C7.372583,2 2,7.372583 2,14 C2,20.627417 7.372583,26 14,26 Z" id="Oval-5" fill-rule="nonzero"></path>
                <path d="M17.9521484,16.7177734 L16.8310547,16.7177734 L16.8310547,18.8505859 L14.9238281,18.8505859 L14.9238281,16.7177734 L11,16.7177734 L11,15.015625 L14.6435547,9 L16.8310547,9 L16.8310547,15.1933594 L17.9521484,15.1933594 L17.9521484,16.7177734 Z M14.9238281,15.1933594 L14.9238281,10.9140625 L12.4423828,15.1933594 L14.9238281,15.1933594 Z" id="4"></path>
            </g>
        </g>
    </g>
</svg>