<?xml version="1.0" encoding="UTF-8"?>
<svg width="49px" height="42px" viewBox="0 0 49 42" version="1.1" xmlns="http://www.w3.org/2000/svg" xmlns:xlink="http://www.w3.org/1999/xlink">
    <!-- Generator: sketchtool 51.3 (57544) - http://www.bohemiancoding.com/sketch -->
    <title>CB05AF20-83A5-4FAC-83EA-C013B2B4EA90</title>
    <desc>Created with sketchtool.</desc>
    <defs></defs>
    <g id="style-guide" stroke="none" stroke-width="1" fill="none" fill-rule="evenodd">
        <g id="icons" transform="translate(-292.000000, -189.000000)" fill="#030303" fill-rule="nonzero">
            <g id="ico_forums" transform="translate(292.000000, 189.000000)">
                <path d="M35,6.0546875 L33.1081081,6.0546875 L33.1081081,3 C33.1081081,2.44771525 32.6845937,2 32.1621622,2 L2.83783784,2 C2.31540632,2 1.89189189,2.44771525 1.89189189,3 L1.89189189,23 C1.89189189,23.5522847 2.31540632,24 2.83783784,24 L6.62162162,24 L6.62162162,28.5924635 L11.1601299,24.3943434 L11.1601299,27.0518799 L4.72972973,33 L4.72972973,26 L2.83783784,26 C1.27054328,26 0,24.6568542 0,23 L0,3 C0,1.34314575 1.27054328,0 2.83783784,0 L32.1621622,0 C33.7294567,0 35,1.34314575 35,3 L35,6.0546875 Z" id="Combined-Shape"></path>
                <path d="M42.3783784,33 L44.2702703,33 L46.1243245,33.0004 C46.7490028,32.98719 47.1081081,32.6080427 47.1081081,32 L47.1081081,12 C47.1081081,11.3637846 46.7635534,11 46.1621622,11 L16.8378378,11 C16.2364466,11 15.8918919,11.3637846 15.8918919,12 L15.8918919,32 C15.8918919,32.6080427 16.2509972,32.98719 16.8378378,33 L37.4135529,33 L42.3783784,37.5924635 L42.3783784,33 Z M46.1621622,9 C47.8060927,9 49,10.2567602 49,12 L49,32 C49,33.7084756 47.8060927,34.9652358 46.1621622,35 L44.2702703,35 L44.2702703,42 L36.7027027,35 L16.8378378,35 C15.1939073,34.9652358 14,33.7084756 14,32 L14,12 C14,10.2567602 15.1939073,9 16.8378378,9 L46.1621622,9 Z" id="Rectangle-17"></path>
            </g>
        </g>
    </g>
</svg>