<?xml version="1.0" encoding="UTF-8"?>
<svg width="23px" height="35px" viewBox="0 0 23 35" version="1.1" xmlns="http://www.w3.org/2000/svg" xmlns:xlink="http://www.w3.org/1999/xlink">
    <!-- Generator: sketchtool 51.3 (57544) - http://www.bohemiancoding.com/sketch -->
    <title>CF187934-B397-46E3-A2BB-14ADE11099FA</title>
    <desc>Created with sketchtool.</desc>
    <defs></defs>
    <g id="style-guide" stroke="none" stroke-width="1" fill="none" fill-rule="evenodd">
        <g id="icons" transform="translate(-548.000000, -110.000000)" fill="#030303" fill-rule="nonzero">
            <g id="ico_just_add_water" transform="translate(548.000000, 110.000000)">
                <path d="M10.4973386,5.12441908 C9.3045824,7.11422743 8.11188643,9.19159493 6.99970128,11.251347 C6.43334894,12.300224 5.90184521,13.3192793 5.41135238,14.3003565 C3.242312,18.6388422 2,21.9926063 2,23.7857028 C2,28.8739518 6.13833692,33 11.2447187,33 C16.3511005,33 20.4894374,28.8739518 20.4894374,23.7857028 C20.4894374,21.9857433 19.2514972,18.6390734 17.0885815,14.3150217 C16.5938258,13.3259175 16.0571674,12.2982767 15.4849422,11.2404505 C14.3716994,9.18248868 13.1778639,7.10774297 11.9839687,5.12103222 C11.7237974,4.68809208 11.4752422,4.27875149 11.2407254,3.89615245 C11.0061814,4.2798022 10.7575763,4.69027916 10.4973386,5.12441908 Z M22.4894374,23.7857028 C22.4894374,29.979855 17.4543407,35 11.2447187,35 C5.03509668,35 0,29.979855 0,23.7857028 C0,21.5686528 1.31114399,18.0290688 3.62246461,13.4059961 C4.12279561,12.4052407 4.66393251,11.3677157 5.23986156,10.3011028 C6.36758078,8.21258177 7.57478235,6.10994928 8.78192364,4.09614317 C9.20442457,3.39130857 9.59686252,2.74771983 9.94926379,2.17832889 C10.1612614,1.83579457 10.3132141,1.59346857 10.3951389,1.4643246 L11.2383308,0.135139932 L12.0832783,1.46320934 C12.1653042,1.5921358 12.3174287,1.83404923 12.5296589,2.17602131 C12.8824375,2.74446287 13.2752934,3.38704301 13.6982428,4.09085533 C14.906662,6.10173494 16.1151408,8.20192899 17.244058,10.2888668 C17.8260408,11.3647312 18.3725121,12.4111624 18.8772886,13.4203 C21.1821574,18.028141 22.4894374,21.5622655 22.4894374,23.7857028 Z" id="Shape"></path>
            </g>
        </g>
    </g>
</svg>