<?xml version="1.0" encoding="UTF-8"?>
<svg width="28px" height="28px" viewBox="0 0 28 28" version="1.1" xmlns="http://www.w3.org/2000/svg" xmlns:xlink="http://www.w3.org/1999/xlink">
    <!-- Generator: sketchtool 51.3 (57544) - http://www.bohemiancoding.com/sketch -->
    <title>918A250B-86E9-44A1-AC56-B7EC6C3DB41D</title>
    <desc>Created with sketchtool.</desc>
    <defs></defs>
    <g id="style-guide" stroke="none" stroke-width="1" fill="none" fill-rule="evenodd">
        <g id="icons" transform="translate(-133.000000, -33.000000)" fill="#030303">
            <g id="ico_3" transform="translate(133.000000, 33.000000)">
                <path d="M14,28 C6.2680135,28 0,21.7319865 0,14 C0,6.2680135 6.2680135,0 14,0 C21.7319865,0 28,6.2680135 28,14 C28,21.7319865 21.7319865,28 14,28 Z M14,26 C20.627417,26 26,20.627417 26,14 C26,7.372583 20.627417,2 14,2 C7.372583,2 2,7.372583 2,14 C2,20.627417 7.372583,26 14,26 Z" id="Oval-5" fill-rule="nonzero"></path>
                <path d="M12.9140625,15.9179688 C12.9140625,16.3144551 12.9778639,16.6425768 13.1054688,16.9023438 C13.3424491,17.3808618 13.7731089,17.6201172 14.3974609,17.6201172 C14.7802754,17.6201172 15.1140936,17.4890964 15.3989258,17.2270508 C15.6837579,16.9650052 15.8261719,16.5878931 15.8261719,16.0957031 C15.8261719,15.4440072 15.5618516,15.0087902 15.0332031,14.7900391 C14.7324204,14.6669916 14.2584668,14.6054688 13.6113281,14.6054688 L13.6113281,13.2109375 C14.2447948,13.2018229 14.6868477,13.1403 14.9375,13.0263672 C15.3704449,12.83496 15.5869141,12.4475941 15.5869141,11.8642578 C15.5869141,11.4860007 15.4764008,11.1783866 15.2553711,10.9414062 C15.0343413,10.7044259 14.7233093,10.5859375 14.3222656,10.5859375 C13.8619769,10.5859375 13.5236013,10.7317694 13.3071289,11.0234375 C13.0906565,11.3151056 12.9869791,11.7047502 12.9960938,12.1923828 L11.1777344,12.1923828 C11.1959636,11.7001929 11.2802727,11.2330751 11.4306641,10.7910156 C11.5901701,10.4036439 11.8408186,10.0459001 12.1826172,9.71777344 C12.4378268,9.4853504 12.7408837,9.3076178 13.0917969,9.18457031 C13.4427101,9.06152282 13.8733698,9 14.3837891,9 C15.3317105,9 16.0961885,9.24495198 16.6772461,9.73486328 C17.2583037,10.2247746 17.5488281,10.8821573 17.5488281,11.7070312 C17.5488281,12.2903675 17.3756528,12.7825501 17.0292969,13.1835938 C16.8105458,13.434246 16.5826835,13.6051428 16.3457031,13.6962891 C16.5234384,13.6962891 16.7786442,13.8489568 17.1113281,14.1542969 C17.6080754,14.6145856 17.8564453,15.2434856 17.8564453,16.0410156 C17.8564453,16.8795615 17.5659209,17.616696 16.9848633,18.2524414 C16.4038057,18.8881868 15.5436255,19.2060547 14.4042969,19.2060547 C13.000644,19.2060547 12.0253934,18.7480515 11.4785156,17.8320312 C11.1914048,17.3443986 11.0319012,16.7063842 11,15.9179688 L12.9140625,15.9179688 Z" id="3"></path>
            </g>
        </g>
    </g>
</svg>