<?xml version="1.0" encoding="UTF-8"?>
<svg width="24px" height="24px" viewBox="0 0 24 24" version="1.1" xmlns="http://www.w3.org/2000/svg" xmlns:xlink="http://www.w3.org/1999/xlink">
    <!-- Generator: sketchtool 51.3 (57544) - http://www.bohemiancoding.com/sketch -->
    <title>2429A98A-9BA5-44ED-B6AE-B4572875BA35-black</title>
    <desc>Created with sketchtool.</desc>
    <defs></defs>
    <g id="style-guide" stroke="none" stroke-width="1" fill="none" fill-rule="evenodd">
        <g id="icons" transform="translate(-464.000000, -35.000000)" fill="#000000">
            <path d="M476.000024,35 C479.259004,35 479.667657,35.0138139 480.947585,35.0722133 C482.224845,35.1304697 483.097168,35.3333433 483.860456,35.6300083 C484.649562,35.9366288 485.318773,36.3469487 485.985936,37.014064 C486.653051,37.6812268 487.063371,38.3504379 487.370039,39.139544 C487.666657,39.9028324 487.86953,40.7751553 487.927787,42.0524153 C487.986186,43.3323429 488,43.7409957 488,47.0000238 C488,50.2590043 487.986186,50.6676571 487.927787,51.9475847 C487.86953,53.2248447 487.666657,54.0971676 487.370039,54.860456 C487.063371,55.6495621 486.653051,56.3187732 485.985936,56.985936 C485.318773,57.6530513 484.649562,58.0633712 483.860456,58.3700394 C483.097168,58.6666567 482.224845,58.8695303 480.947585,58.9277867 C479.667657,58.9861861 479.259004,59 476.000024,59 C472.740996,59 472.332343,58.9861861 471.052415,58.9277867 C469.775155,58.8695303 468.902832,58.6666567 468.139544,58.3700394 C467.350438,58.0633712 466.681227,57.6530513 466.014064,56.985936 C465.346949,56.3187732 464.936629,55.6495621 464.630008,54.860456 C464.333343,54.0971676 464.13047,53.2248447 464.072213,51.9475847 C464.013814,50.6676571 464,50.2590043 464,47.0000238 C464,43.7409957 464.013814,43.3323429 464.072213,42.0524153 C464.13047,40.7751553 464.333343,39.9028324 464.630008,39.139544 C464.936629,38.3504379 465.346949,37.6812268 466.014064,37.014064 C466.681227,36.3469487 467.350438,35.9366288 468.139544,35.6300083 C468.902832,35.3333433 469.775155,35.1304697 471.052415,35.0722133 C472.332343,35.0138139 472.740996,35 476.000024,35 Z M476.000024,37.1621583 C472.79587,37.1621583 472.416322,37.1744003 471.15097,37.2321328 C469.980982,37.2854829 469.345591,37.4809732 468.922743,37.6453107 C468.362614,37.8629984 467.962869,38.1230329 467.542975,38.5429749 C467.123033,38.9628692 466.862998,39.3626144 466.645311,39.9227435 C466.480973,40.3455912 466.285483,40.9809821 466.232133,42.1509702 C466.1744,43.4163218 466.162158,43.7958701 466.162158,47.0000238 C466.162158,50.2041299 466.1744,50.5836782 466.232133,51.8490298 C466.285483,53.0190179 466.480973,53.6544088 466.645311,54.0772565 C466.862998,54.6373856 467.12308,55.0371308 467.542975,55.4570251 C467.962869,55.8769671 468.362614,56.1370016 468.922743,56.3546893 C469.345591,56.5190268 469.980982,56.7145171 471.15097,56.7678672 C472.416179,56.8255997 472.795632,56.8378417 476.000024,56.8378417 C479.204368,56.8378417 479.583869,56.8255997 480.84903,56.7678672 C482.019018,56.7145171 482.654409,56.5190268 483.077257,56.3546893 C483.637386,56.1370016 484.037131,55.8769671 484.457025,55.4570251 C484.876967,55.0371308 485.137002,54.6373856 485.354689,54.0772565 C485.519027,53.6544088 485.714517,53.0190179 485.767867,51.8490298 C485.8256,50.5836782 485.837842,50.2041299 485.837842,47.0000238 C485.837842,43.7958701 485.8256,43.4163218 485.767867,42.1509702 C485.714517,40.9809821 485.519027,40.3455912 485.354689,39.9227435 C485.137002,39.3626144 484.876967,38.9628692 484.457025,38.5429749 C484.037131,38.1230329 483.637386,37.8629984 483.077257,37.6453107 C482.654409,37.4809732 482.019018,37.2854829 480.84903,37.2321328 C479.583678,37.1744003 479.20413,37.1621583 476.000024,37.1621583 Z M476.000024,40.8378417 C479.403288,40.8378417 482.162158,43.5967121 482.162158,47.0000238 C482.162158,50.4032879 479.403288,53.1621583 476.000024,53.1621583 C472.596712,53.1621583 469.837842,50.4032879 469.837842,47.0000238 C469.837842,43.5967121 472.596712,40.8378417 476.000024,40.8378417 Z M476.000024,51 C478.209149,51 480,49.2091493 480,47.0000238 C480,44.7908507 478.209149,43 476.000024,43 C473.790851,43 472,44.7908507 472,47.0000238 C472,49.2091493 473.790851,51 476.000024,51 Z M483.845642,40.5943839 C483.845642,41.3896825 483.200915,42.034362 482.405616,42.034362 C481.610365,42.034362 480.965638,41.3896825 480.965638,40.5943839 C480.965638,39.7990854 481.610365,39.1543582 482.405616,39.1543582 C483.200915,39.1543582 483.845642,39.7990854 483.845642,40.5943839 Z" id="Instagram"></path>
        </g>
    </g>
</svg>