<?xml version="1.0" encoding="UTF-8"?>
<svg width="27px" height="21px" viewBox="0 0 27 21" version="1.1" xmlns="http://www.w3.org/2000/svg" xmlns:xlink="http://www.w3.org/1999/xlink">
    <!-- Generator: sketchtool 51.3 (57544) - http://www.bohemiancoding.com/sketch -->
    <title>DB1FA819-E311-45D1-ACC7-EE5A4F8521F6</title>
    <desc>Created with sketchtool.</desc>
    <defs></defs>
    <g id="style-guide" stroke="none" stroke-width="1" fill="none" fill-rule="evenodd">
        <g id="icons" transform="translate(-754.000000, -272.000000)" fill="#030303" fill-rule="nonzero">
            <g id="search_ico" transform="translate(755.000000, 273.000000)">
                <path d="M7.86206897,16.7241379 C2.96768342,16.7241379 -1,12.7564545 -1,7.86206897 C-1,2.96768342 2.96768342,-1 7.86206897,-1 C12.7564545,-1 16.7241379,2.96768342 16.7241379,7.86206897 C16.7241379,12.7564545 12.7564545,16.7241379 7.86206897,16.7241379 Z M7.86206897,14.7241379 C11.651885,14.7241379 14.7241379,11.651885 14.7241379,7.86206897 C14.7241379,4.07225292 11.651885,1 7.86206897,1 C4.07225292,1 1,4.07225292 1,7.86206897 C1,11.651885 4.07225292,14.7241379 7.86206897,14.7241379 Z" id="Oval"></path>
                <polygon id="Line" points="13.7273907 13.5397659 15.3505316 11.0167888 25.3198263 17.4304699 23.6966853 19.953447"></polygon>
            </g>
        </g>
    </g>
</svg>