<?xml version="1.0" encoding="UTF-8"?>
<svg width="24px" height="17px" viewBox="0 0 24 17" version="1.1" xmlns="http://www.w3.org/2000/svg" xmlns:xlink="http://www.w3.org/1999/xlink">
    <!-- Generator: sketchtool 51.3 (57544) - http://www.bohemiancoding.com/sketch -->
    <title>1EEAA074-71B1-49B2-9C3E-2BE3AE8C3460-black</title>
    <desc>Created with sketchtool.</desc>
    <defs></defs>
    <g id="style-guide" stroke="none" stroke-width="1" fill="none" fill-rule="evenodd">
        <g id="icons" transform="translate(-508.000000, -38.000000)" fill="#000000">
            <path d="M517.522,49.634958 L517.52125,42.8438708 L524.00575,46.2511219 L517.522,49.634958 Z M531.76,41.6670814 C531.76,41.6670814 531.52525,40.0015995 530.806,39.2681832 C529.89325,38.3051495 528.87025,38.3006176 528.4015,38.2447239 C525.043,38 520.00525,38 520.00525,38 L519.99475,38 C519.99475,38 514.957,38 511.5985,38.2447239 C511.129,38.3006176 510.10675,38.3051495 509.19325,39.2681832 C508.474,40.0015995 508.24,41.6670814 508.24,41.6670814 C508.24,41.6670814 508,43.6233616 508,45.5788866 L508,47.4128049 C508,49.3690852 508.24,51.3246101 508.24,51.3246101 C508.24,51.3246101 508.474,52.990092 509.19325,53.7235082 C510.10675,54.686542 511.306,54.6563291 511.84,54.7567868 C513.76,54.9425956 520,55 520,55 C520,55 525.043,54.9924468 528.4015,54.7477229 C528.87025,54.6910739 529.89325,54.686542 530.806,53.7235082 C531.52525,52.990092 531.76,51.3246101 531.76,51.3246101 C531.76,51.3246101 532,49.3690852 532,47.4128049 L532,45.5788866 C532,43.6233616 531.76,41.6670814 531.76,41.6670814 L531.76,41.6670814 Z" id="Youtube"></path>
        </g>
    </g>
</svg>